<svg xmlns="http://www.w3.org/2000/svg" viewBox="0 0 170 170"><defs><style>.cls-1{fill:none;opacity:0.2;}.cls-2{fill:#ffefc1;}.cls-3{fill:#fff;}</style></defs><g id="Layer_2" data-name="Layer 2"><g id="Drawings"><rect id="Rectangle_2497" data-name="Rectangle 2497" class="cls-1" width="170" height="170"/><path class="cls-2" d="M108.59,65.83H170L120.13,103.9l20.11,60.87L85,128.84,29.76,164.77,47.19,103.9,0,65.83H61.67L85,5.23Z"/><path class="cls-3" d="M124.48,69.21a5.4,5.4,0,0,1-5.74-9.15,4.63,4.63,0,0,1,.58-.31l-8.23-13.1L36.76,93.35,45,106.44a4.56,4.56,0,0,1,.55-.4,5.4,5.4,0,0,1,5.74,9.15,4.3,4.3,0,0,1-.6.32l8.23,13.1,74.33-46.7L125,68.82A5.3,5.3,0,0,1,124.48,69.21Z"/><path d="M58.91,130.11a1.49,1.49,0,0,1-1.27-.7l-8.23-13.1a1.5,1.5,0,0,1-.17-1.22,1.52,1.52,0,0,1,.81-.94,4.64,4.64,0,0,0,.44-.23,3.88,3.88,0,0,0,1.72-2.44,3.81,3.81,0,0,0-.5-2.94,3.85,3.85,0,0,0-2.43-1.73,3.78,3.78,0,0,0-3.34.79,1.49,1.49,0,0,1-1.2.32,1.46,1.46,0,0,1-1-.68L35.49,94.15A1.52,1.52,0,0,1,35.3,93a1.49,1.49,0,0,1,.66-.93l74.33-46.7a1.5,1.5,0,0,1,2.07.48L120.59,59a1.54,1.54,0,0,1,.17,1.22,1.5,1.5,0,0,1-.81.93,4.36,4.36,0,0,0-.42.23,3.91,3.91,0,0,0,4.16,6.61h0l.38-.28a1.5,1.5,0,0,1,2.22.36l8.22,13.1a1.49,1.49,0,0,1,.19,1.13,1.43,1.43,0,0,1-.66.93l-74.33,46.7A1.57,1.57,0,0,1,58.91,130.11ZM52.75,116l6.63,10.56,71.79-45.1-6.63-10.56a6.89,6.89,0,0,1-8.77-2.58,6.9,6.9,0,0,1,1.48-9l-6.63-10.56L38.83,93.82l6.63,10.56A6.9,6.9,0,0,1,52.75,116Z"/><path class="cls-3" d="M118.9,44.64A5.4,5.4,0,0,1,111.26,37a5.15,5.15,0,0,1,.5-.43L100.82,25.64,38.75,87.71,49.69,98.64a5.3,5.3,0,0,1,.45-.51,5.4,5.4,0,1,1,7.63,7.64,5.47,5.47,0,0,1-.51.45L68.2,117.15l62.07-62.07L119.33,44.15A4,4,0,0,1,118.9,44.64Z"/><path d="M68.2,118.65a1.49,1.49,0,0,1-1.07-.44L56.2,107.28a1.5,1.5,0,0,1,.14-2.25,2.83,2.83,0,0,0,.37-.32,3.89,3.89,0,0,0,0-5.52,4,4,0,0,0-5.51,0,3.8,3.8,0,0,0-.33.37,1.5,1.5,0,0,1-1.09.58,1.48,1.48,0,0,1-1.15-.43L37.69,88.77a1.51,1.51,0,0,1,0-2.12L99.76,24.58a1.49,1.49,0,0,1,2.12,0l10.94,10.93a1.48,1.48,0,0,1,.43,1.15,1.46,1.46,0,0,1-.57,1.09,3.59,3.59,0,0,0-.36.32,3.9,3.9,0,1,0,5.52,5.51,2.67,2.67,0,0,0,.31-.36,1.53,1.53,0,0,1,1.09-.57,1.49,1.49,0,0,1,1.15.44L131.33,54a1.51,1.51,0,0,1,0,2.12L69.26,118.21A1.48,1.48,0,0,1,68.2,118.65Zm-8.82-12.43L68.2,115l60-59.95-8.82-8.82a6.9,6.9,0,0,1-9.69-9.68l-8.82-8.82L40.87,87.71l8.82,8.81A6.88,6.88,0,0,1,54,95.05h0a6.9,6.9,0,0,1,5.42,11.17Z"/><path d="M83.36,48.46A1.51,1.51,0,0,1,82.3,48l-1.9-1.9A1.5,1.5,0,0,1,82.52,44l1.9,1.91a1.49,1.49,0,0,1,0,2.12A1.51,1.51,0,0,1,83.36,48.46Z"/><path d="M87.9,53a1.53,1.53,0,0,1-1.06-.44l-1.9-1.9a1.51,1.51,0,0,1,0-2.12,1.49,1.49,0,0,1,2.12,0l1.9,1.9A1.5,1.5,0,0,1,87.9,53Z"/><path d="M92.45,57.54a1.45,1.45,0,0,1-1.06-.44l-1.9-1.9a1.49,1.49,0,0,1,0-2.12,1.51,1.51,0,0,1,2.12,0l1.9,1.9a1.51,1.51,0,0,1,0,2.12A1.47,1.47,0,0,1,92.45,57.54Z"/><path d="M97,62.09a1.51,1.51,0,0,1-1.06-.44L94,59.75a1.5,1.5,0,1,1,2.12-2.12l1.9,1.9A1.5,1.5,0,0,1,97,62.09Z"/><path d="M101.54,66.63a1.49,1.49,0,0,1-1.07-.44l-1.9-1.9a1.5,1.5,0,1,1,2.13-2.12l1.9,1.9a1.51,1.51,0,0,1,0,2.12A1.48,1.48,0,0,1,101.54,66.63Z"/><path d="M106.08,71.18a1.51,1.51,0,0,1-1.06-.44l-1.9-1.9a1.5,1.5,0,0,1,2.12-2.13l1.9,1.91a1.49,1.49,0,0,1,0,2.12A1.51,1.51,0,0,1,106.08,71.18Z"/><path d="M110.62,75.72a1.53,1.53,0,0,1-1.06-.44l-1.9-1.9a1.51,1.51,0,0,1,0-2.12,1.49,1.49,0,0,1,2.12,0l1.9,1.9a1.5,1.5,0,0,1-1.06,2.56Z"/><path d="M109.6,61.54a1.47,1.47,0,0,1-1.06-.44l-14-14A1.5,1.5,0,1,1,96.66,45l14,14a1.49,1.49,0,0,1,0,2.12A1.45,1.45,0,0,1,109.6,61.54Z"/><path d="M113.46,57.69a1.49,1.49,0,0,1-1.06-.44l-14-14a1.51,1.51,0,0,1,0-2.12,1.49,1.49,0,0,1,2.12,0l14,14a1.5,1.5,0,0,1-1.06,2.56Z"/><path d="M67.71,99.06a1.5,1.5,0,0,1-1.06-.43,1.52,1.52,0,0,1,0-2.13L90.3,72.86a1.49,1.49,0,0,1,2.12,0,1.51,1.51,0,0,1,0,2.12L68.77,98.63A1.48,1.48,0,0,1,67.71,99.06Z"/><path d="M76.39,98.1a1.5,1.5,0,0,1-1.06-2.56l14-14a1.5,1.5,0,1,1,2.12,2.13l-14,14A1.53,1.53,0,0,1,76.39,98.1Z"/><path d="M72.36,84.18a1.48,1.48,0,0,1-1.06-.44l-7.18-7.18a1.5,1.5,0,0,1-.28-1.72L68,66.33a1.48,1.48,0,0,1,1.1-.82,1.46,1.46,0,0,1,1.3.42l7.18,7.18a1.49,1.49,0,0,1,0,2.12,1.51,1.51,0,0,1-2.12,0l-5.69-5.7L67,75.2l6.43,6.42a1.51,1.51,0,0,1,0,2.12A1.49,1.49,0,0,1,72.36,84.18Z"/><circle cx="71.63" cy="83.57" r="2.61"/><circle cx="75.84" cy="75.12" r="2.61"/><path d="M60.86,85.52l2.06-2-.4,2.94,2.71,1.37-3.05.65-.65,3-1.45-2.62-2.86.3,2.07-2.06L58,84.28Z"/><path d="M80.83,65.55l2.06-2.06-.39,2.95,2.71,1.36-3.06.65-.64,3.06-1.46-2.63-2.86.31,2.07-2.07L78,64.31Z"/></g></g></svg>