<svg xmlns="http://www.w3.org/2000/svg" viewBox="0 0 170 170"><defs><style>.cls-1{fill:none;opacity:0.2;}.cls-2{fill:#ffefc1;}.cls-3{fill:#fff;}</style></defs><g id="Layer_2" data-name="Layer 2"><g id="Drawings"><rect id="Rectangle_2497" data-name="Rectangle 2497" class="cls-1" width="170" height="170"/><circle id="Ellipse_2206" data-name="Ellipse 2206" class="cls-2" cx="85" cy="85" r="85"/><path class="cls-3" d="M85,57.81a111.2,111.2,0,0,0-64.64-7V131.2a111.17,111.17,0,0,1,64.64-7Z"/><path d="M85,125.54a111.41,111.41,0,0,0-64.64,7.3,1,1,0,0,1-1.46-1V51.09a2,2,0,0,1,1.46-1.94A111.35,111.35,0,0,1,85,56.45a2.45,2.45,0,0,1,1.46,2v66.06A1.12,1.12,0,0,1,85,125.54ZM21.87,129a111.11,111.11,0,0,1,61.7-6.42v-64a111,111,0,0,0-61.7-6.41Z"/><path class="cls-3" d="M85,57.81a111.2,111.2,0,0,1,64.64-7V131.2a111.17,111.17,0,0,0-64.64-7Z"/><path d="M149.6,132.84A111.39,111.39,0,0,0,85,125.54a1.12,1.12,0,0,1-1.47-1.05V58.43a2.42,2.42,0,0,1,1.47-2,111.31,111.31,0,0,1,64.63-7.3,2,2,0,0,1,1.46,1.94v80.74A1,1,0,0,1,149.6,132.84Zm-63.17-10.3a111.11,111.11,0,0,1,61.7,6.42V52.15a111,111,0,0,0-61.7,6.41Z"/><path class="cls-3" d="M85,49.51a102,102,0,0,0-59.7-4.26V124.1A102.16,102.16,0,0,1,85,119.84Z"/><path d="M85,121.25a102.17,102.17,0,0,0-59.71,4.44,1,1,0,0,1-1.47-1V45.6a2.07,2.07,0,0,1,1.47-1.94A102.17,102.17,0,0,1,85,48.09a2.37,2.37,0,0,1,1.46,2V120.2A1.09,1.09,0,0,1,85,121.25ZM26.8,122a102.08,102.08,0,0,1,56.77-3.88V50.38A102,102,0,0,0,26.8,46.5Z"/><path class="cls-3" d="M85,49.51a102,102,0,0,1,59.7-4.26V124.1A102.07,102.07,0,0,0,85,119.84Z"/><path d="M144.67,125.69A102.14,102.14,0,0,0,85,121.25a1.1,1.1,0,0,1-1.47-1V50.08a2.39,2.39,0,0,1,1.47-2,102.13,102.13,0,0,1,59.7-4.43,2.07,2.07,0,0,1,1.47,1.94v79.07A1,1,0,0,1,144.67,125.69Zm-58.23-7.6A102,102,0,0,1,143.2,122V46.5a102,102,0,0,0-56.76,3.88Z"/><path class="cls-3" d="M85,42.09a93.58,93.58,0,0,0-54.88-1.42v76.08A93.66,93.66,0,0,1,85,115.34Z"/><path d="M85,116.81a93.59,93.59,0,0,0-54.88,1.47,1,1,0,0,1-1.47-1V41.09a2.15,2.15,0,0,1,1.47-2A93.75,93.75,0,0,1,85,40.61a2.26,2.26,0,0,1,1.47,2v73.17A1.07,1.07,0,0,1,85,116.81Zm-53.41-2.06a93.59,93.59,0,0,1,51.94-1.28V43.08A93.59,93.59,0,0,0,31.62,41.8Z"/><path d="M76.31,53.89a93.64,93.64,0,0,0-37.43-.59,1.21,1.21,0,0,1-1.5-1.23,1.91,1.91,0,0,1,1.5-1.81,93.65,93.65,0,0,1,37.43.67,2,2,0,0,1,1.49,1.82A1.15,1.15,0,0,1,76.31,53.89Z"/><path d="M76.31,63.76a93.62,93.62,0,0,0-37.43-.33,1.2,1.2,0,0,1-1.5-1.22,1.93,1.93,0,0,1,1.5-1.82,93.62,93.62,0,0,1,37.43.41,2,2,0,0,1,1.49,1.81A1.16,1.16,0,0,1,76.31,63.76Z"/><path d="M76.31,73.63a93.6,93.6,0,0,0-37.43-.07,1.19,1.19,0,0,1-1.5-1.21,2,2,0,0,1,1.5-1.83,93.61,93.61,0,0,1,37.43.15,2,2,0,0,1,1.49,1.8A1.17,1.17,0,0,1,76.31,73.63Z"/><path d="M76.31,83.5a93.61,93.61,0,0,0-37.43.19,1.19,1.19,0,0,1-1.5-1.2,2,2,0,0,1,1.5-1.84,93.6,93.6,0,0,1,37.43-.11,1.94,1.94,0,0,1,1.49,1.8A1.17,1.17,0,0,1,76.31,83.5Z"/><path d="M76.31,93.38a93.44,93.44,0,0,0-37.43.44,1.18,1.18,0,0,1-1.5-1.19,2,2,0,0,1,1.5-1.85,93.62,93.62,0,0,1,37.43-.37A1.92,1.92,0,0,1,77.8,92.2,1.19,1.19,0,0,1,76.31,93.38Z"/><path d="M41,103.49c-.72.14-1.44.29-2.15.45a1.16,1.16,0,0,1-1.5-1.17,2,2,0,0,1,1.5-1.86c.71-.16,1.43-.31,2.15-.45a1.2,1.2,0,0,1,1.5,1.23A1.92,1.92,0,0,1,41,103.49Z"/><path class="cls-3" d="M85,42.09a93.58,93.58,0,0,1,54.88-1.42v76.08A93.66,93.66,0,0,0,85,115.34Z"/><path d="M139.85,118.28A93.59,93.59,0,0,0,85,116.81a1.07,1.07,0,0,1-1.47-1V42.59a2.25,2.25,0,0,1,1.47-2,93.67,93.67,0,0,1,54.88-1.47,2.14,2.14,0,0,1,1.47,2v76.17A1,1,0,0,1,139.85,118.28Zm-53.41-4.81a93.59,93.59,0,0,1,51.94,1.28V41.8a93.59,93.59,0,0,0-51.94,1.28Z"/><path d="M131.12,53.3a93.64,93.64,0,0,0-37.43.59,1.15,1.15,0,0,1-1.49-1.14,2,2,0,0,1,1.49-1.82,93.65,93.65,0,0,1,37.43-.67,1.92,1.92,0,0,1,1.5,1.81A1.21,1.21,0,0,1,131.12,53.3Z"/><path d="M131.12,63.43a93.62,93.62,0,0,0-37.43.33,1.16,1.16,0,0,1-1.49-1.15,2,2,0,0,1,1.49-1.81,93.62,93.62,0,0,1,37.43-.41,1.93,1.93,0,0,1,1.5,1.82A1.2,1.2,0,0,1,131.12,63.43Z"/><path d="M131.12,73.56a93.6,93.6,0,0,0-37.43.07,1.16,1.16,0,0,1-1.49-1.16,2,2,0,0,1,1.49-1.8,93.61,93.61,0,0,1,37.43-.15,2,2,0,0,1,1.5,1.83A1.2,1.2,0,0,1,131.12,73.56Z"/><path d="M131.12,83.69a93.61,93.61,0,0,0-37.43-.19,1.17,1.17,0,0,1-1.49-1.16,1.94,1.94,0,0,1,1.49-1.8,93.6,93.6,0,0,1,37.43.11,2,2,0,0,1,1.5,1.84A1.19,1.19,0,0,1,131.12,83.69Z"/><path d="M131.12,93.82a93.44,93.44,0,0,0-37.43-.44A1.19,1.19,0,0,1,92.2,92.2a1.93,1.93,0,0,1,1.49-1.79,93.43,93.43,0,0,1,37.43.37,2,2,0,0,1,1.5,1.85A1.18,1.18,0,0,1,131.12,93.82Z"/><path d="M131.12,103.94c-.71-.16-1.43-.31-2.15-.45a1.92,1.92,0,0,1-1.5-1.8,1.2,1.2,0,0,1,1.5-1.23c.72.14,1.44.29,2.15.45a2,2,0,0,1,1.5,1.86A1.16,1.16,0,0,1,131.12,103.94Z"/></g></g></svg>