<svg xmlns="http://www.w3.org/2000/svg" viewBox="0 0 170.57 170.22"><defs><style>.cls-1{fill:none;opacity:0.2;}.cls-2{fill:#ffefc1;}.cls-3{fill:#fff;}</style></defs><g id="Layer_2" data-name="Layer 2"><g id="Drawings"><rect id="Rectangle_2497" data-name="Rectangle 2497" class="cls-1" x="0.48" y="0.2" width="170" height="170"/><path class="cls-2" d="M.07,0H43l-.5,17.34L39.05,46.07,32.61,65.56,25.17,80.42l-3.3,4.79,2.31,5-2.64,4.62-2,3.47L26,110.15l4.62,21.13,1.16,18.17H.07S-.09-.17.07,0Z"/><path class="cls-2" d="M170.5,0H127.56l.49,17.34,3.47,28.73L138,65.56l7.43,14.86,3.31,4.79-2.31,5L149,94.79l2,3.47-6.44,11.89-4.63,21.13-1.15,18.17H170.5S170.66-.17,170.5,0Z"/><path d="M9.38,92.89a1.5,1.5,0,0,1,0-3c8.12,0,16.19-8.88,22.15-24.36C37.75,49.37,41.18,27.86,41.18,5a1.5,1.5,0,0,1,3,0C44.18,54.26,28.89,92.89,9.38,92.89Z"/><path d="M31.74,155.27a1.5,1.5,0,0,1-1.5-1.5c0-33-9.55-60.88-20.86-60.88a1.5,1.5,0,0,1,0-3c13.38,0,23.86,28.06,23.86,63.88A1.5,1.5,0,0,1,31.74,155.27Z"/><path d="M9.38,92.89a1.5,1.5,0,0,1,0-3c2.4,0,6.33-6.31,9.53-24.09C21.83,49.56,23.44,28,23.44,5a1.5,1.5,0,1,1,3,0c0,23.18-1.63,45-4.58,61.38C18.69,84,14.49,92.89,9.38,92.89Z"/><path d="M19.83,155.27a1.5,1.5,0,0,1-1.5-1.5c0-16.58-1.08-32.15-3-43.85-2.34-14-5.06-17-5.91-17a1.5,1.5,0,0,1,0-3c1.39,0,5.6,0,8.87,19.53,2,11.86,3.08,27.61,3.08,44.35A1.5,1.5,0,0,1,19.83,155.27Z"/><path d="M4.29,92.89a1.5,1.5,0,0,1-.19-3c3-2.41,7.31-33.75,7.31-84.95a1.5,1.5,0,1,1,3,0c0,23.14-.9,44.9-2.53,61.27C9.22,92.89,5.89,92.89,4.29,92.89Zm0-3h0Z"/><path d="M10.08,155.27a1.5,1.5,0,0,1-1.5-1.5c0-36.14-2.71-58.34-4.72-60.94a1.5,1.5,0,0,1,.43-2.94c1.5,0,3.76,0,5.59,19.64,1.09,11.83,1.7,27.54,1.7,44.24A1.5,1.5,0,0,1,10.08,155.27Z"/><path class="cls-2" d="M.4,84.57H19.17c2.79,0,5,2.76,5,6.18h0c0,3.41-2.26,6.18-5,6.18H.4"/><path d="M19.17,98.43H.4v-3H19.17c1.95,0,3.55-2.1,3.55-4.68s-1.6-4.68-3.55-4.68H.4v-3H19.17c3.61,0,6.55,3.44,6.55,7.68S22.78,98.43,19.17,98.43Z"/><path d="M161.52,92.89c-19.52,0-34.8-38.63-34.8-87.94a1.5,1.5,0,1,1,3,0c0,22.91,3.43,44.42,9.65,60.58,6,15.48,14,24.36,22.15,24.36a1.5,1.5,0,0,1,0,3Z"/><path d="M139.16,155.27a1.5,1.5,0,0,1-1.5-1.5c0-35.82,10.48-63.88,23.86-63.88a1.5,1.5,0,0,1,0,3c-11.31,0-20.86,27.88-20.86,60.88A1.5,1.5,0,0,1,139.16,155.27Z"/><path d="M161.52,92.89c-5.11,0-9.31-8.94-12.48-26.56-2.95-16.4-4.58-38.2-4.58-61.38a1.5,1.5,0,1,1,3,0c0,23,1.61,44.61,4.53,60.85,3.2,17.78,7.13,24.09,9.53,24.09a1.5,1.5,0,0,1,0,3Z"/><path d="M151.07,155.27a1.5,1.5,0,0,1-1.5-1.5c0-16.74,1.09-32.49,3.08-44.35,3.27-19.53,7.48-19.53,8.87-19.53a1.5,1.5,0,0,1,0,3c-.86,0-3.58,3.06-5.91,17-2,11.7-3,27.27-3,43.85A1.5,1.5,0,0,1,151.07,155.27Z"/><path d="M166.61,92.89c-1.6,0-4.93,0-7.59-26.67-1.63-16.37-2.53-38.13-2.53-61.27a1.5,1.5,0,1,1,3,0c0,51.2,4.3,82.54,7.31,85a1.5,1.5,0,0,1-.19,3Zm.25-2.94h0Zm-.25-.06h0Z"/><path d="M160.82,155.27a1.5,1.5,0,0,1-1.5-1.5c0-16.7.61-32.41,1.7-44.24,1.83-19.64,4.09-19.64,5.59-19.64a1.5,1.5,0,0,1,.43,2.94c-2,2.6-4.72,24.8-4.72,60.94A1.5,1.5,0,0,1,160.82,155.27Z"/><path class="cls-2" d="M170.5,84.57H151.73c-2.79,0-5,2.76-5,6.18h0c0,3.41,2.26,6.18,5,6.18H170.5"/><path d="M170.49,98.43H151.73c-3.61,0-6.55-3.45-6.55-7.68s2.94-7.68,6.55-7.68h18.76v3H151.73c-2,0-3.55,2.1-3.55,4.68s1.59,4.68,3.55,4.68h18.76Z"/><rect class="cls-3" x="0.4" y="147.96" width="170.05" height="22.26"/><path d="M167.45,151v16.26H3.4V151h164m3-3H.4v22.26h170V148Z"/><path class="cls-2" d="M97.45.19a11.92,11.92,0,0,1-23.84,0"/><path d="M85.53,13.61A13.43,13.43,0,0,1,72.11.19h3A10.43,10.43,0,0,0,85.53,10.61,10.43,10.43,0,0,0,96,.19h3A13.43,13.43,0,0,1,85.53,13.61Z"/><path class="cls-2" d="M121.29.19a11.91,11.91,0,0,1-11.92,11.92A11.92,11.92,0,0,1,97.45.19"/><path d="M109.37,13.61A13.43,13.43,0,0,1,96,.19h3a10.43,10.43,0,0,0,10.42,10.42A10.43,10.43,0,0,0,119.79.19h3A13.43,13.43,0,0,1,109.37,13.61Z"/><path class="cls-2" d="M145.13.19a11.91,11.91,0,0,1-11.92,11.92A11.92,11.92,0,0,1,121.29.19"/><path d="M133.21,13.61A13.43,13.43,0,0,1,119.79.19h3a10.43,10.43,0,0,0,10.42,10.42A10.43,10.43,0,0,0,143.63.19h3A13.43,13.43,0,0,1,133.21,13.61Z"/><path class="cls-2" d="M169,.19A11.91,11.91,0,0,1,157,12.11,11.92,11.92,0,0,1,145.11.19"/><path d="M157,13.61A13.43,13.43,0,0,1,143.61.19h3A10.43,10.43,0,0,0,157,10.61,10.43,10.43,0,0,0,167.45.19h3A13.43,13.43,0,0,1,157,13.61Z"/><path class="cls-2" d="M49.74.19A11.92,11.92,0,0,1,37.82,12.11,11.91,11.91,0,0,1,25.9.19"/><path d="M37.82,13.61A13.43,13.43,0,0,1,24.4.19h3A10.43,10.43,0,0,0,37.82,10.61,10.43,10.43,0,0,0,48.24.19h3A13.43,13.43,0,0,1,37.82,13.61Z"/><path class="cls-2" d="M25.9.19A11.92,11.92,0,0,1,14,12.11,11.91,11.91,0,0,1,2.06.19"/><path d="M14,13.61A13.43,13.43,0,0,1,.56.19h3A10.43,10.43,0,0,0,14,10.61,10.43,10.43,0,0,0,24.4.19h3A13.43,13.43,0,0,1,14,13.61Z"/><path class="cls-2" d="M73.6.19A11.91,11.91,0,0,1,61.68,12.11,11.92,11.92,0,0,1,49.76.19"/><path d="M61.68,13.61A13.43,13.43,0,0,1,48.26.19h3A10.43,10.43,0,0,0,61.68,10.61,10.43,10.43,0,0,0,72.1.19h3A13.43,13.43,0,0,1,61.68,13.61Z"/><path class="cls-3" d="M92.71,77.32h18.84L96.25,89l6.17,18.67-17-11-16.94,11L73.88,89,59.4,77.32H78.32l7.15-18.59Z"/><path d="M102.42,109.17a1.51,1.51,0,0,1-.82-.24L85.47,98.44,69.35,108.93a1.5,1.5,0,0,1-2.26-1.67l5.07-17.72L58.46,78.49a1.5,1.5,0,0,1,.94-2.67H77.29l6.78-17.63a1.51,1.51,0,0,1,1.4-1h0a1.5,1.5,0,0,1,1.4,1l6.87,17.64h17.81a1.5,1.5,0,0,1,.91,2.69L98,89.54l5.83,17.66a1.5,1.5,0,0,1-.51,1.66A1.52,1.52,0,0,1,102.42,109.17ZM63.65,78.82l11.17,9a1.49,1.49,0,0,1,.5,1.58l-4.24,14.81,13.58-8.83a1.5,1.5,0,0,1,1.63,0l13.36,8.69L94.83,89.47a1.49,1.49,0,0,1,.51-1.66l11.77-9H92.71a1.51,1.51,0,0,1-1.4-1l-5.83-15-5.76,15a1.51,1.51,0,0,1-1.4,1Z"/><path class="cls-2" d="M85.47,49.68a1.5,1.5,0,0,1-1.5-1.5V40.12a1.5,1.5,0,0,1,3,0v8.06A1.5,1.5,0,0,1,85.47,49.68Z"/><path class="cls-2" d="M85.47,131.78a1.5,1.5,0,0,1-1.5-1.5v-8.06a1.5,1.5,0,0,1,3,0v8.06A1.5,1.5,0,0,1,85.47,131.78Z"/><path class="cls-2" d="M75.89,50.94a1.49,1.49,0,0,1-1.44-1.11l-1.11-4.14a1.5,1.5,0,1,1,2.89-.78l1.11,4.15a1.49,1.49,0,0,1-1.06,1.83A1.31,1.31,0,0,1,75.89,50.94Z"/><path class="cls-2" d="M96.16,126.6a1.49,1.49,0,0,1-1.44-1.12l-1.11-4.14a1.5,1.5,0,1,1,2.89-.77l1.11,4.14a1.5,1.5,0,0,1-1.06,1.84A1.74,1.74,0,0,1,96.16,126.6Z"/><path class="cls-2" d="M59.3,60.52a1.5,1.5,0,0,1-1.06-.43l-3-3a1.49,1.49,0,0,1,0-2.12,1.51,1.51,0,0,1,2.12,0l3,3a1.49,1.49,0,0,1,0,2.12A1.47,1.47,0,0,1,59.3,60.52Z"/><path class="cls-2" d="M114.68,115.91a1.51,1.51,0,0,1-1.06-.44l-3-3a1.5,1.5,0,0,1,2.12-2.13l3,3a1.5,1.5,0,0,1-1.06,2.56Z"/><path class="cls-2" d="M49.72,77.12a1.74,1.74,0,0,1-.39-.05L45.19,76a1.5,1.5,0,0,1,.78-2.9l4.14,1.11a1.5,1.5,0,0,1-.39,3Z"/><path class="cls-2" d="M125.37,97.39a1.74,1.74,0,0,1-.39,0l-4.14-1.11a1.5,1.5,0,1,1,.78-2.9l4.14,1.11a1.5,1.5,0,0,1-.39,3Z"/><path class="cls-2" d="M45.58,97.39a1.5,1.5,0,0,1-.39-3l4.14-1.11a1.5,1.5,0,1,1,.78,2.9L46,97.34A1.81,1.81,0,0,1,45.58,97.39Z"/><path class="cls-2" d="M121.23,77.12a1.5,1.5,0,0,1-.39-3L125,73.06a1.5,1.5,0,1,1,.78,2.9l-4.14,1.11A1.74,1.74,0,0,1,121.23,77.12Z"/><path class="cls-2" d="M56.27,115.91a1.5,1.5,0,0,1-1.06-2.56l3-3a1.5,1.5,0,0,1,2.12,2.13l-3,3A1.51,1.51,0,0,1,56.27,115.91Z"/><path class="cls-2" d="M111.65,60.52A1.5,1.5,0,0,1,110.59,58l3-3a1.51,1.51,0,0,1,2.12,0,1.49,1.49,0,0,1,0,2.12l-3,3A1.5,1.5,0,0,1,111.65,60.52Z"/><path class="cls-2" d="M74.79,126.6a1.74,1.74,0,0,1-.39,0,1.5,1.5,0,0,1-1.06-1.84l1.11-4.14a1.5,1.5,0,0,1,2.89.77l-1.11,4.15A1.49,1.49,0,0,1,74.79,126.6Z"/><path class="cls-2" d="M95.06,50.94a1.31,1.31,0,0,1-.39,0,1.49,1.49,0,0,1-1.06-1.83l1.11-4.15a1.5,1.5,0,1,1,2.89.78L96.5,49.83A1.48,1.48,0,0,1,95.06,50.94Z"/><path class="cls-2" d="M67,54.64a1.5,1.5,0,0,1-1.3-.75l-4-7a1.5,1.5,0,1,1,2.59-1.5l4,7a1.51,1.51,0,0,1-.55,2A1.48,1.48,0,0,1,67,54.64Z"/><path class="cls-2" d="M108,125.74a1.5,1.5,0,0,1-1.3-.75l-4-7a1.51,1.51,0,0,1,.55-2.05,1.49,1.49,0,0,1,2,.55l4,7a1.51,1.51,0,0,1-.55,2.05A1.48,1.48,0,0,1,108,125.74Z"/><path class="cls-2" d="M53.42,68.19a1.43,1.43,0,0,1-.75-.2l-7-4a1.51,1.51,0,0,1-.55-2.05,1.49,1.49,0,0,1,2-.55l7,4a1.5,1.5,0,0,1-.75,2.8Z"/><path class="cls-2" d="M124.52,109.24a1.43,1.43,0,0,1-.75-.2l-7-4a1.51,1.51,0,0,1-.55-2.05,1.5,1.5,0,0,1,2-.55l7,4a1.5,1.5,0,0,1-.75,2.8Z"/><path class="cls-2" d="M48.46,86.7H40.39a1.5,1.5,0,0,1,0-3h8.07a1.5,1.5,0,0,1,0,3Z"/><path class="cls-2" d="M130.56,86.7h-8.07a1.5,1.5,0,0,1,0-3h8.07a1.5,1.5,0,0,1,0,3Z"/><path class="cls-2" d="M46.43,109.24a1.5,1.5,0,0,1-.75-2.8l7-4a1.49,1.49,0,0,1,2,.55,1.51,1.51,0,0,1-.55,2.05l-7,4A1.43,1.43,0,0,1,46.43,109.24Z"/><path class="cls-2" d="M117.53,68.19a1.5,1.5,0,0,1-.75-2.8l7-4a1.49,1.49,0,0,1,2,.55,1.51,1.51,0,0,1-.55,2.05l-7,4A1.43,1.43,0,0,1,117.53,68.19Z"/><path class="cls-2" d="M62.93,125.74a1.48,1.48,0,0,1-.75-.2,1.5,1.5,0,0,1-.54-2.05l4-7a1.49,1.49,0,0,1,2-.55,1.51,1.51,0,0,1,.55,2.05l-4,7A1.5,1.5,0,0,1,62.93,125.74Z"/><path class="cls-2" d="M104,54.64a1.48,1.48,0,0,1-.75-.2,1.51,1.51,0,0,1-.55-2l4-7a1.49,1.49,0,0,1,2-.55,1.51,1.51,0,0,1,.55,2l-4,7A1.5,1.5,0,0,1,104,54.64Z"/></g></g></svg>