<svg xmlns="http://www.w3.org/2000/svg" viewBox="0 0 170 170"><defs><style>.cls-1{fill:none;opacity:0.2;}.cls-2{fill:#ffefc1;}.cls-3{isolation:isolate;}.cls-4{fill:#fff;}</style></defs><g id="Layer_2" data-name="Layer 2"><g id="Drawings"><rect id="Rectangle_2497" data-name="Rectangle 2497" class="cls-1" width="170" height="170"/><polygon class="cls-2" points="85 0 91.25 25.83 102.77 1.86 103.49 28.41 119.76 7.35 114.91 33.47 135.24 16.23 125.03 40.78 148.51 28.12 133.4 50.03 159.02 42.5 139.66 60.8 166.28 58.73 143.52 72.63 170 76.11 144.83 85 170 93.89 143.52 97.37 166.28 111.27 139.66 109.2 159.02 127.5 133.4 119.97 148.51 141.88 125.03 129.22 135.24 153.77 114.91 136.53 119.76 162.65 103.49 141.59 102.77 168.14 91.25 144.17 85 170 78.75 144.17 67.23 168.14 66.51 141.59 50.24 162.65 55.09 136.53 34.76 153.77 44.97 129.22 21.48 141.88 36.6 119.97 10.98 127.5 30.34 109.2 3.71 111.27 26.48 97.37 0 93.89 25.17 85 0 76.11 26.48 72.63 3.71 58.73 30.34 60.8 10.98 42.5 36.6 50.03 21.48 28.12 44.97 40.78 34.76 16.23 55.09 33.47 50.24 7.35 66.51 28.41 67.23 1.86 78.75 25.83 85 0"/><g class="cls-3"><path class="cls-4" d="M63.3,59q4-16.14,8.49-18.18a14.6,14.6,0,0,1,6-1.49c3.4,0,6.22,2.19,8.49,6.58Q89,51.22,89.61,64.09t.78,19.31q.49,10.68.28,15.64-.35,9.54-5.66,9.55a6.54,6.54,0,0,1-2.9-.85q-3.6-1.84-5-8.07a90.87,90.87,0,0,1-1.2-10Q75.61,86,75.25,78q-.21-4.95.07-19.25A119.08,119.08,0,0,0,71.72,77q-3.41,27.39-6.23,28.8a11.57,11.57,0,0,1-4.67,1.55A10.53,10.53,0,0,1,56.43,106a6.9,6.9,0,0,1-4.1-5.66Q51.55,94.5,50,86.66,49,81.71,47.17,73a67.85,67.85,0,0,0-4.88-15q-1,3.52-.07,15.56.84,13.31,1.27,20.58.49,8.22.35,9.13a7.07,7.07,0,0,1-5.8,6.3,6.08,6.08,0,0,1-1.41.21q-2.62,0-5.09-2.76-3.25-3.54-2.76-18.46.42-14.43,0-18.54-.44-3.75-.71-12a27.36,27.36,0,0,1,2.05-12.45q3-6.59,9.69-6.58a18.14,18.14,0,0,1,3,.28Q51,40.68,54,49.73q3.88,12,4.95,31Q61.75,65,63.3,59Z"/><path d="M39.81,39.05a18.14,18.14,0,0,1,3,.28Q51,40.68,54,49.73q3.88,12,4.95,31Q61.75,65,63.3,59q4-16.14,8.49-18.18a14.6,14.6,0,0,1,6-1.49c3.4,0,6.22,2.19,8.49,6.58Q89,51.22,89.61,64.09t.78,19.31q.49,10.68.28,15.64-.35,9.54-5.66,9.55a6.54,6.54,0,0,1-2.9-.85q-3.6-1.84-5-8.07a90.87,90.87,0,0,1-1.2-10Q75.61,86,75.25,78q-.21-4.95.07-19.25A119.08,119.08,0,0,0,71.72,77q-3.41,27.39-6.23,28.8a11.57,11.57,0,0,1-4.67,1.55A10.53,10.53,0,0,1,56.43,106a6.9,6.9,0,0,1-4.1-5.66Q51.55,94.5,50,86.66,49,81.71,47.17,73a67.85,67.85,0,0,0-4.88-15q-1,3.52-.07,15.56.84,13.31,1.27,20.58.49,8.22.35,9.13a7.07,7.07,0,0,1-5.8,6.3,6.08,6.08,0,0,1-1.41.21q-2.62,0-5.09-2.76-3.25-3.54-2.76-18.46.42-14.43,0-18.54-.44-3.75-.71-12a27.36,27.36,0,0,1,2.05-12.45q3-6.59,9.69-6.58m0-3c-5.66,0-10,2.88-12.42,8.34a30.36,30.36,0,0,0-2.32,13.8c.19,5.5.43,9.6.72,12.18s.27,8.66,0,18.11c-.37,11.16.72,17.51,3.55,20.58,2.21,2.46,4.67,3.73,7.3,3.73a9,9,0,0,0,2.14-.3,10.1,10.1,0,0,0,8-8.79c.07-.46.19-1.2-.33-9.73-.2-3.47-.48-8-.82-13.55q.83,4,1.4,6.83c1,5.14,1.79,9.69,2.3,13.52a9.88,9.88,0,0,0,5.79,8,13.22,13.22,0,0,0,5.67,1.56,13.93,13.93,0,0,0,6-1.88c1.68-.85,3-2.75,4.53-10,.5-2.29,1-5.08,1.53-8.35a91.84,91.84,0,0,0,1.24,10.19c1.15,5.06,3.37,8.44,6.59,10.09A9.16,9.16,0,0,0,85,111.59a7.49,7.49,0,0,0,6.65-3.86c1.22-2,1.87-4.86,2-8.58.15-3.41,0-8.61-.28-15.89C93.25,79,93,72.71,92.61,64,92.21,54.85,91,48.49,89,44.53c-2.8-5.44-6.56-8.2-11.15-8.2a17.55,17.55,0,0,0-7.26,1.76c-4,1.84-7.12,8.06-10.15,20.18-.2.76-.41,1.64-.64,2.63a91,91,0,0,0-2.94-12.1c-2.32-7.06-7-11.36-13.54-12.43a20.87,20.87,0,0,0-3.46-.32Z"/><path class="cls-4" d="M133.75,79.44a16.17,16.17,0,0,1-9.62,3,31.68,31.68,0,0,1-12.59-3,12.7,12.7,0,0,0-.21,2.33,19.24,19.24,0,0,0,1.56,7.08q2.48,6.15,6.86,6.58a25.86,25.86,0,0,0,10.47-1.06,6.63,6.63,0,0,1,2-.29c2.36,0,3.65,1.68,3.89,5q.49,6.22-8.49,9.12a21.85,21.85,0,0,1-6.86,1.13,21.41,21.41,0,0,1-10.4-2.83q-8.49-4.67-11-26.81A68.51,68.51,0,0,1,99,72q0-16,9.27-22.42,4.66-4,12.09-4a38.57,38.57,0,0,1,8.35,1q13.16,3,13.3,15T133.75,79.44ZM115.43,65.08A5.35,5.35,0,0,0,117.24,69a6.38,6.38,0,0,0,4.06,1.73A7.41,7.41,0,0,0,127,69a3.46,3.46,0,0,0,1.14-2.76,11.17,11.17,0,0,0-1-4.1q-1.48-3.68-4.38-3.68a6.59,6.59,0,0,0-2.55.64Q115.3,61.19,115.43,65.08Z"/><path d="M120.31,45.63a38.57,38.57,0,0,1,8.35,1q13.16,3,13.3,15t-8.21,17.83a16.17,16.17,0,0,1-9.62,3,31.68,31.68,0,0,1-12.59-3,12.7,12.7,0,0,0-.21,2.33,19.19,19.19,0,0,0,1.56,7.08q2.48,6.15,6.86,6.58c.9.09,1.8.14,2.7.14a26.21,26.21,0,0,0,7.77-1.2,6.63,6.63,0,0,1,2-.29c2.36,0,3.65,1.68,3.89,5q.49,6.22-8.49,9.12a21.85,21.85,0,0,1-6.86,1.13,21.41,21.41,0,0,1-10.4-2.83q-8.49-4.67-11-26.81A68.51,68.51,0,0,1,99,72q0-16,9.27-22.42,4.66-4,12.09-4M122,70.76A7.11,7.11,0,0,0,127,69a3.46,3.46,0,0,0,1.14-2.76,11.17,11.17,0,0,0-1-4.1q-1.48-3.68-4.38-3.68a6.59,6.59,0,0,0-2.55.64q-4.87,2.05-4.74,5.94A5.35,5.35,0,0,0,117.24,69a6.38,6.38,0,0,0,4.06,1.73l.7,0m-1.69-28.13c-5.6,0-10.28,1.54-13.92,4.58C99.46,52.08,96,60.43,96,72a72.34,72.34,0,0,0,.44,8c1.79,15.94,5.87,25.46,12.5,29.1a24.49,24.49,0,0,0,11.85,3.2,25.11,25.11,0,0,0,7.79-1.28c9.28-3,10.86-8.29,10.55-12.21-.5-7-5-7.79-6.88-7.79a9.56,9.56,0,0,0-2.86.42,23.33,23.33,0,0,1-6.89,1.07,21.09,21.09,0,0,1-2.38-.13c-.67-.06-2.61-.25-4.4-4.71a19.74,19.74,0,0,1-1.16-3.94,30.79,30.79,0,0,0,9.62,1.69,19.12,19.12,0,0,0,11.36-3.53c6.39-4.54,9.58-11.38,9.47-20.3-.08-6.57-2.85-15-15.64-17.89a41.59,41.59,0,0,0-9-1.06ZM122,67.76a4.61,4.61,0,0,1-.52,0,3.41,3.41,0,0,1-2.21-.94,2.34,2.34,0,0,1-.84-1.81c0-.56-.07-1.84,2.91-3.09a3.92,3.92,0,0,1,1.38-.4c.24,0,.88,0,1.6,1.8a8.34,8.34,0,0,1,.78,3c0,.19,0,.43-.11.5a4.23,4.23,0,0,1-3,1Z"/></g><g class="cls-3"><path class="cls-4" d="M37,124.05q1-4.08,2.15-4.59a3.69,3.69,0,0,1,1.52-.38c.86,0,1.57.55,2.15,1.66a12.18,12.18,0,0,1,.84,4.6c.09,2.17.16,3.8.19,4.88.09,1.8.11,3.12.07,4,0,1.61-.53,2.41-1.43,2.41a1.64,1.64,0,0,1-.73-.21,2.82,2.82,0,0,1-1.27-2,23.26,23.26,0,0,1-.3-2.52c0-.64-.1-1.62-.16-3,0-.83,0-2.45,0-4.86a31.2,31.2,0,0,0-.91,4.6c-.57,4.61-1.1,7-1.57,7.28a3,3,0,0,1-1.18.39,2.72,2.72,0,0,1-1.11-.32,1.75,1.75,0,0,1-1-1.43c-.13-1-.33-2.15-.59-3.47q-.26-1.26-.72-3.45a17.31,17.31,0,0,0-1.23-3.8,14.71,14.71,0,0,0,0,3.94c.15,2.24.25,4,.32,5.2a20.79,20.79,0,0,1,.09,2.31,1.77,1.77,0,0,1-1.46,1.59,1.48,1.48,0,0,1-.36.06,1.8,1.8,0,0,1-1.29-.7c-.55-.6-.78-2.15-.7-4.67a42.31,42.31,0,0,0,0-4.69c-.07-.63-.13-1.64-.17-3a7,7,0,0,1,.51-3.15A2.53,2.53,0,0,1,31,119a4.46,4.46,0,0,1,.76.07,3.48,3.48,0,0,1,2.82,2.63,31.46,31.46,0,0,1,1.25,7.83Q36.56,125.58,37,124.05Z"/><path d="M31,119a4.46,4.46,0,0,1,.76.07,3.48,3.48,0,0,1,2.82,2.63,31.54,31.54,0,0,1,1.25,7.83q.72-4,1.11-5.49,1-4.08,2.15-4.59a3.69,3.69,0,0,1,1.52-.38c.86,0,1.57.55,2.15,1.66a12.18,12.18,0,0,1,.84,4.6c.09,2.17.16,3.8.19,4.88.09,1.8.11,3.12.07,4,0,1.61-.53,2.41-1.43,2.41a1.64,1.64,0,0,1-.73-.21,2.82,2.82,0,0,1-1.27-2,23.26,23.26,0,0,1-.3-2.52c0-.64-.1-1.62-.16-3,0-.83,0-2.45,0-4.86a31.2,31.2,0,0,0-.91,4.6c-.57,4.61-1.1,7-1.57,7.28a3,3,0,0,1-1.18.39,2.72,2.72,0,0,1-1.11-.32,1.75,1.75,0,0,1-1-1.43c-.13-1-.33-2.15-.59-3.47q-.26-1.26-.72-3.45a17.31,17.31,0,0,0-1.23-3.8,14.71,14.71,0,0,0,0,3.94c.15,2.24.25,4,.32,5.2a20.79,20.79,0,0,1,.09,2.31,1.77,1.77,0,0,1-1.46,1.59,1.41,1.41,0,0,1-.36.06,1.8,1.8,0,0,1-1.29-.7c-.55-.6-.78-2.15-.7-4.67a42.31,42.31,0,0,0,0-4.69c-.07-.63-.13-1.64-.17-3a7,7,0,0,1,.51-3.15A2.53,2.53,0,0,1,31,119m0-3a5.52,5.52,0,0,0-5.18,3.43,9.92,9.92,0,0,0-.78,4.5c.05,1.46.11,2.52.19,3.24a39.63,39.63,0,0,1,0,4.26c-.12,3.54.31,5.51,1.48,6.79a4.66,4.66,0,0,0,3.5,1.67,4.26,4.26,0,0,0,1.09-.15,5,5,0,0,0,2.31-1.26l.32.17a4.93,4.93,0,0,0,4.94-.11,4.19,4.19,0,0,0,.42-.24,4.66,4.66,0,0,0,1.06.74,4.58,4.58,0,0,0,2.09.54c.71,0,4.25-.25,4.43-5.3,0-.92,0-2.3-.07-4.2,0-1.06-.1-2.7-.2-4.88a14.23,14.23,0,0,0-1.17-5.85,5.34,5.34,0,0,0-4.81-3.28,6.66,6.66,0,0,0-2.77.65,4.49,4.49,0,0,0-1.79,1.52,6.16,6.16,0,0,0-3.81-2.13A8,8,0,0,0,31,116Z"/><path class="cls-4" d="M53.68,121a2.82,2.82,0,0,1,1.19-.3,1.77,1.77,0,0,1,.52.07,4,4,0,0,1,1,.41,1.37,1.37,0,0,1,.32.8c.09,1,.16,1.78.21,2.29a34.57,34.57,0,0,1-.43,5.1q-.12.91-.18,1.47c-.14,1.25-.26,2.13-.37,2.64a5.07,5.07,0,0,1-1.06,2.4,3.74,3.74,0,0,1-2.77,1,10.05,10.05,0,0,1-1.84-.15c-1.65-.3-2.66-1-3-2a2.5,2.5,0,0,1-.13-1.25,1.17,1.17,0,0,1,1.27-1.15,1,1,0,0,1,.57.15,6.3,6.3,0,0,1,.67.43,3.69,3.69,0,0,0,1.16.5l1.13,0a2.65,2.65,0,0,0,1.17-.39,1.62,1.62,0,0,0,.52-1,9,9,0,0,0,.29-1.79,1.84,1.84,0,0,0,0-.39,5.25,5.25,0,0,1-.6.52,4.34,4.34,0,0,1-2.76.53,7.19,7.19,0,0,1-1.3-.22,6.66,6.66,0,0,1-1.22-.38,2.75,2.75,0,0,1-.38-.24,1.81,1.81,0,0,1-.59-.7,4.32,4.32,0,0,1-.51-1.71,7.68,7.68,0,0,1-.13-1.31c-.05-.89-.08-1.51-.11-1.86,0-.81-.08-1.37-.1-1.68a2.08,2.08,0,0,1,.53-1.45,1.14,1.14,0,0,1,.93-.45,2.08,2.08,0,0,1,.57.11c.66.21,1,.56,1,1.06s0,.71,0,.77c0,.5,0,.77,0,.8,0,.61,0,1.18,0,1.72-.08,1.1.15,1.75.68,2a3.88,3.88,0,0,0,.89.19,6.63,6.63,0,0,0,.79,0,1.44,1.44,0,0,0,.82-.44,2.89,2.89,0,0,0,.43-.9,9,9,0,0,0,.12-2,8.46,8.46,0,0,1,.11-1.7A4.11,4.11,0,0,1,53.68,121Z"/><path d="M54.87,120.73a1.77,1.77,0,0,1,.52.07,4,4,0,0,1,1,.41,1.37,1.37,0,0,1,.32.8c.09,1,.16,1.78.21,2.29a34.57,34.57,0,0,1-.43,5.1q-.12.91-.18,1.47c-.14,1.25-.26,2.13-.37,2.64a5.07,5.07,0,0,1-1.06,2.4,3.74,3.74,0,0,1-2.77,1H52a10,10,0,0,1-1.67-.15c-1.65-.3-2.66-1-3-2a2.5,2.5,0,0,1-.13-1.25,1.17,1.17,0,0,1,1.27-1.15,1,1,0,0,1,.57.15,6.3,6.3,0,0,1,.67.43,3.94,3.94,0,0,0,1.14.5h0l1.13,0a2.65,2.65,0,0,0,1.17-.39,1.62,1.62,0,0,0,.52-1,9,9,0,0,0,.29-1.79,1.84,1.84,0,0,0,0-.39,5.25,5.25,0,0,1-.6.52,3.85,3.85,0,0,1-2.35.54h-.41a7.19,7.19,0,0,1-1.3-.22,6.66,6.66,0,0,1-1.22-.38,2.75,2.75,0,0,1-.38-.24,1.81,1.81,0,0,1-.59-.7,4.32,4.32,0,0,1-.51-1.71,7.68,7.68,0,0,1-.13-1.31c-.05-.89-.08-1.51-.11-1.86,0-.81-.08-1.37-.1-1.68a2.08,2.08,0,0,1,.53-1.45,1.14,1.14,0,0,1,.93-.45,2.08,2.08,0,0,1,.57.11c.66.2,1,.56,1,1.06s0,.71,0,.77c0,.5,0,.77,0,.8,0,.61,0,1.18,0,1.72-.08,1.1.15,1.75.68,2a3.88,3.88,0,0,0,.89.19,6.63,6.63,0,0,0,.79,0,1.44,1.44,0,0,0,.82-.44,2.89,2.89,0,0,0,.43-.9,9,9,0,0,0,.12-2,8.46,8.46,0,0,1,.11-1.7,4.11,4.11,0,0,1,.56-1.43,2.82,2.82,0,0,1,1.19-.3m0-3a5.66,5.66,0,0,0-2.47.59,3,3,0,0,0-1.14.93l-.08.11a4.55,4.55,0,0,0-2-1.21,4.91,4.91,0,0,0-1.46-.25,4.1,4.1,0,0,0-3.27,1.58A5,5,0,0,0,43.24,123V123c0,.3.06.84.11,1.63,0,.36.06,1,.1,1.84a11.07,11.07,0,0,0,.17,1.69,7.18,7.18,0,0,0,.88,2.68c.08.15.17.28.26.42a4.42,4.42,0,0,0-.62,1.82,5.45,5.45,0,0,0,.28,2.65c.53,1.45,1.88,3.32,5.32,3.94h0a12.63,12.63,0,0,0,2.16.19h.23A6.59,6.59,0,0,0,57.1,138a7.93,7.93,0,0,0,1.78-3.8c.13-.64.27-1.57.42-2.94v-.05c0-.34.09-.79.16-1.35a33.68,33.68,0,0,0,.46-5.69.28.28,0,0,1,0-.09l-.16-1.7-.06-.6a4.2,4.2,0,0,0-1.18-2.64,3.73,3.73,0,0,0-.43-.36,6.59,6.59,0,0,0-1.83-.81,5.22,5.22,0,0,0-1.39-.19Z"/><path class="cls-4" d="M64.18,120.78a11.09,11.09,0,0,1,4.63,1c.44.21.64.67.61,1.38a3.44,3.44,0,0,1-.5,1.72,1,1,0,0,1-.88.3,8.07,8.07,0,0,1-2-.35,9,9,0,0,0-2.38-.43,1.88,1.88,0,0,0-.76.12c-.51.24-.77.53-.79.88a4.34,4.34,0,0,0-.09.86c-.06.27.09.52.46.75a4.09,4.09,0,0,0,2.13.48,18.64,18.64,0,0,1,2.26.09,9.16,9.16,0,0,1,1.82.59,4.39,4.39,0,0,1,1.57,1,3.77,3.77,0,0,1,.88,2.59A6.25,6.25,0,0,1,71,133a4.1,4.1,0,0,1-.89,1.79,3.18,3.18,0,0,1-1.56,1.23,12.91,12.91,0,0,1-1.68.4l-1.41.11c-.59,0-1,.06-1.4.05a11.3,11.3,0,0,1-1.91-.32c-1.76-.41-2.65-1.06-2.65-2a2.07,2.07,0,0,1,.07-.45,1.61,1.61,0,0,1,.59-.91,2,2,0,0,1,1-.21,17.42,17.42,0,0,1,3.17.42,2.22,2.22,0,0,0,.89,0,3,3,0,0,0,1.31-.53,1.28,1.28,0,0,0,.64-1.15c0-.62-.62-1-1.73-1.18-.19,0-1-.06-2.36-.1a5.12,5.12,0,0,1-3.37-1,4.12,4.12,0,0,1-1.14-3.1,6.47,6.47,0,0,1,.5-2.45,4.31,4.31,0,0,1,1.66-2.14A6.49,6.49,0,0,1,64.18,120.78Z"/><path d="M64.18,120.78a11,11,0,0,1,4.63,1.06c.44.2.64.66.61,1.37a3.44,3.44,0,0,1-.5,1.72,1,1,0,0,1-.88.3,8.07,8.07,0,0,1-2-.35,9,9,0,0,0-2.38-.43,1.88,1.88,0,0,0-.76.12c-.51.24-.77.53-.79.88a4.34,4.34,0,0,0-.09.86c-.06.27.09.52.46.75a4.09,4.09,0,0,0,2.13.48,18.64,18.64,0,0,1,2.26.09,9.16,9.16,0,0,1,1.82.59,4.39,4.39,0,0,1,1.57,1,3.77,3.77,0,0,1,.88,2.59A6.25,6.25,0,0,1,71,133a4.1,4.1,0,0,1-.89,1.79,3.18,3.18,0,0,1-1.56,1.23,12.91,12.91,0,0,1-1.68.4l-1.41.11c-.47,0-.86.05-1.17.05H64.1a11.3,11.3,0,0,1-1.91-.32c-1.76-.41-2.65-1.06-2.65-2a2.07,2.07,0,0,1,.07-.45,1.61,1.61,0,0,1,.59-.91,2,2,0,0,1,1-.21,17.42,17.42,0,0,1,3.17.42,1.86,1.86,0,0,0,.42.05,2.59,2.59,0,0,0,.47-.05,3,3,0,0,0,1.31-.53,1.28,1.28,0,0,0,.64-1.15c0-.62-.62-1-1.73-1.18-.19,0-1-.06-2.36-.1a5.12,5.12,0,0,1-3.37-1,4.12,4.12,0,0,1-1.14-3.1,6.47,6.47,0,0,1,.5-2.45,4.31,4.31,0,0,1,1.66-2.14,6.49,6.49,0,0,1,3.37-.79m0-3a9.49,9.49,0,0,0-4.9,1.21,7.27,7.27,0,0,0-2.9,3.56,9.43,9.43,0,0,0-.73,3.61,7.08,7.08,0,0,0,2,5.16,5.06,5.06,0,0,0-1.07,3c0,1.4.65,3.9,5,4.89a13.14,13.14,0,0,0,2.49.4h.32c.4,0,.86,0,1.41-.06l1.38-.11a12.74,12.74,0,0,0,2.26-.49,6.07,6.07,0,0,0,3.14-2.3,6.9,6.9,0,0,0,1.48-3.1,10.3,10.3,0,0,0,.15-1.7,6.81,6.81,0,0,0-1.62-4.57,5.73,5.73,0,0,0-1-.89,6.52,6.52,0,0,0,.87-3,4.24,4.24,0,0,0-2.35-4.3,14.13,14.13,0,0,0-5.88-1.33Z"/><path class="cls-4" d="M81.67,129.22a4.12,4.12,0,0,1-2.43.75,7.91,7.91,0,0,1-3.19-.77,3.81,3.81,0,0,0,0,.59,4.87,4.87,0,0,0,.39,1.79c.42,1,1,1.59,1.74,1.67a6.62,6.62,0,0,0,2.64-.27,1.68,1.68,0,0,1,.5-.07c.6,0,.93.42,1,1.27.08,1-.63,1.81-2.15,2.3a5.56,5.56,0,0,1-1.73.29,5.38,5.38,0,0,1-2.63-.72c-1.43-.78-2.36-3-2.77-6.77a15.55,15.55,0,0,1-.11-1.94q0-4,2.34-5.67a4.62,4.62,0,0,1,3.06-1,10.16,10.16,0,0,1,2.11.25c2.22.5,3.34,1.77,3.36,3.79A5.06,5.06,0,0,1,81.67,129.22ZM77,125.59a1.33,1.33,0,0,0,.45,1,1.6,1.6,0,0,0,1,.44,1.87,1.87,0,0,0,1.43-.43.87.87,0,0,0,.29-.69,2.93,2.93,0,0,0-.25-1q-.37-.93-1.11-.93a1.66,1.66,0,0,0-.65.16C77.41,124.43,77,124.94,77,125.59Z"/><path d="M78.27,120.67a10.16,10.16,0,0,1,2.11.25c2.22.5,3.34,1.77,3.36,3.79a5.06,5.06,0,0,1-2.07,4.51,4.12,4.12,0,0,1-2.43.75,7.91,7.91,0,0,1-3.19-.77,3.81,3.81,0,0,0,0,.59,4.87,4.87,0,0,0,.39,1.79c.42,1,1,1.59,1.74,1.67.22,0,.45,0,.68,0a6.62,6.62,0,0,0,2-.3,1.68,1.68,0,0,1,.5-.07c.6,0,.93.42,1,1.27.08,1-.63,1.81-2.15,2.3a5.56,5.56,0,0,1-1.73.29,5.38,5.38,0,0,1-2.63-.72c-1.43-.78-2.36-3-2.77-6.77a15.55,15.55,0,0,1-.11-1.94q0-4,2.34-5.67a4.62,4.62,0,0,1,3.06-1M78.7,127a1.8,1.8,0,0,0,1.25-.44.87.87,0,0,0,.29-.69,2.93,2.93,0,0,0-.25-1q-.37-.93-1.11-.93a1.66,1.66,0,0,0-.65.16c-.82.34-1.22.85-1.19,1.5a1.33,1.33,0,0,0,.45,1,1.6,1.6,0,0,0,1,.44h.18m-.43-9.36a7.58,7.58,0,0,0-4.89,1.62c-1.63,1.18-3.51,3.52-3.51,8a21.16,21.16,0,0,0,.12,2.27c.35,3.07,1.17,7.34,4.31,9.07a8.46,8.46,0,0,0,4.08,1.09,8.81,8.81,0,0,0,2.66-.43c1.06-.34,4.5-1.75,4.21-5.4a4.46,4.46,0,0,0-1.14-2.83,8.09,8.09,0,0,0,2.63-6.43c0-3.44-2.12-5.87-5.7-6.68a12.58,12.58,0,0,0-2.77-.33Z"/><path class="cls-4" d="M89.38,124.37c0,1,0,1.74,0,2.24q.15,2.8.06,5.22c0,1-.06,1.94-.06,2.83a1.71,1.71,0,0,1-.1.82,2.33,2.33,0,0,1-.34.77,2.16,2.16,0,0,1-1,.31,1.26,1.26,0,0,1-1.14-.86,5.6,5.6,0,0,1-.56-2.17c-.13-1.29-.22-2.16-.27-2.63-.13-1.24-.23-2.49-.32-3.77-.07-1.1-.13-2.37-.19-3.81a4.85,4.85,0,0,1,.51-2.49,1.39,1.39,0,0,1,1.26-.84,2,2,0,0,1,.57.11C88.8,120.41,89.32,121.83,89.38,124.37Z"/><path d="M87.27,120a2,2,0,0,1,.57.11c1,.31,1.48,1.74,1.54,4.27,0,1,0,1.74,0,2.24q.15,2.8.06,5.22c0,1-.06,1.94-.06,2.83a1.71,1.71,0,0,1-.1.82,2.33,2.33,0,0,1-.34.77,2.16,2.16,0,0,1-1,.31,1.26,1.26,0,0,1-1.14-.86,5.6,5.6,0,0,1-.56-2.17c-.13-1.29-.22-2.16-.27-2.63-.13-1.24-.23-2.49-.32-3.77-.07-1.1-.13-2.37-.19-3.81a4.85,4.85,0,0,1,.51-2.49,1.39,1.39,0,0,1,1.26-.84m0-3a4.35,4.35,0,0,0-3.9,2.43,7.79,7.79,0,0,0-.87,4c.06,1.45.13,2.76.2,3.88.08,1.31.2,2.62.33,3.9l.16,1.56.11,1.06a8.36,8.36,0,0,0,.9,3.28A4.22,4.22,0,0,0,88,139.56a5,5,0,0,0,2.43-.68,3,3,0,0,0,.92-.78,5.13,5.13,0,0,0,.86-1.77,4.87,4.87,0,0,0,.22-1.84c0-.8,0-1.66,0-2.55.07-1.67.05-3.49,0-5.41,0-.51,0-1.26,0-2.23,0-1.47-.14-5.94-3.62-7.06a4.85,4.85,0,0,0-1.49-.25Z"/><path class="cls-4" d="M101,133.09c-.89,0-1.89-.08-3-.18q.09.93.09,1.59a3.65,3.65,0,0,1-.14,1.21,1.83,1.83,0,0,1-.76.93,2.36,2.36,0,0,1-1.24.06q-1.38-.19-1.26-3.45a2.56,2.56,0,0,1-.89.16,4.11,4.11,0,0,1-1.18-.2,1.43,1.43,0,0,1-1.2-1.43,1.6,1.6,0,0,1,.13-.61c.13-.48.55-.79,1.25-.93l1.72-.12c-.12-1.2-.32-2.78-.59-4.76a7.88,7.88,0,0,1-.08-1.15,4.47,4.47,0,0,1,.92-2.93,4,4,0,0,1,3-1.59,5.27,5.27,0,0,1,2.11.14,2.26,2.26,0,0,1,1.25,1.59,2.31,2.31,0,0,1,.09.61c0,1.1-.81,1.66-2.41,1.68-1,0-1.47.81-1.38,2.38s.16,2.71.25,3.78a10.19,10.19,0,0,1,3.2-.4q1.88,0,2.13.93a2.51,2.51,0,0,1,.09.63,2.7,2.7,0,0,1-.29,1.18A1.76,1.76,0,0,1,101,133.09Z"/><path d="M98.55,119.66a3.74,3.74,0,0,1,1.31.17,2.26,2.26,0,0,1,1.25,1.59,2.31,2.31,0,0,1,.09.61c0,1.1-.81,1.66-2.41,1.68-1,0-1.47.81-1.38,2.38s.16,2.71.25,3.78a9.87,9.87,0,0,1,3-.4h.16q1.88,0,2.13.93a2.51,2.51,0,0,1,.09.63,2.7,2.7,0,0,1-.29,1.18,1.74,1.74,0,0,1-1.72.88h0c-.89,0-1.89-.08-3-.18q.09.93.09,1.59a3.65,3.65,0,0,1-.14,1.21,1.91,1.91,0,0,1-.76.94,1.7,1.7,0,0,1-.62.1,5,5,0,0,1-.62-.05q-1.38-.19-1.26-3.45a2.56,2.56,0,0,1-.89.16,4.11,4.11,0,0,1-1.18-.2,1.43,1.43,0,0,1-1.2-1.43,1.6,1.6,0,0,1,.13-.61c.13-.48.55-.79,1.25-.93l1.72-.12c-.12-1.2-.32-2.78-.59-4.76a7.88,7.88,0,0,1-.08-1.15,4.47,4.47,0,0,1,.92-2.93,4,4,0,0,1,3-1.59l.8,0m0-3c-.31,0-.66,0-1,0a7.08,7.08,0,0,0-5.06,2.68,7.41,7.41,0,0,0-1.59,4.83,10.64,10.64,0,0,0,.11,1.57c.09.65.17,1.26.24,1.82a4.18,4.18,0,0,0-2.49,2.6,4.59,4.59,0,0,0-.29,1.58,4.43,4.43,0,0,0,3.34,4.31l.19,0a4.23,4.23,0,0,0,3.57,3.53,8,8,0,0,0,1,.08,4.36,4.36,0,0,0,1.88-.38,4.7,4.7,0,0,0,2.18-2.31,2.22,2.22,0,0,0,.14-.32,4.43,4.43,0,0,0,.18-.65h.09a4.69,4.69,0,0,0,4.4-2.54,5.66,5.66,0,0,0,.61-2.52,5.73,5.73,0,0,0-.19-1.39c-.26-1-1.26-3.13-5-3.17h-.21A4.48,4.48,0,0,0,104.2,122a5.39,5.39,0,0,0-.2-1.41,5.13,5.13,0,0,0-3-3.57,6.46,6.46,0,0,0-2.42-.39Z"/><path class="cls-4" d="M123.54,130.13a4.69,4.69,0,0,1-1.06.92c-.62.41-1,.69-1.16.82l1.09.84c.93.73,1.4,1.36,1.4,1.9a1.42,1.42,0,0,1-1.11,1.25,2.76,2.76,0,0,1-1.38-.43c-.13-.08-.53-.38-1.2-.88a5.29,5.29,0,0,1-.93-.89c-.72.56-1.65,1.23-2.77,2a3.05,3.05,0,0,1-1.73.39,2.9,2.9,0,0,1-1.2-.14l-.68-.22a2.72,2.72,0,0,1-1.58-1.37,2.85,2.85,0,0,1-.23-.9,3.72,3.72,0,0,1,0-.78,2.74,2.74,0,0,1,.37-.6c.23-.32.48-.65.75-1,.54-.51,1.33-1.28,2.38-2.32a12.89,12.89,0,0,1-1.52-2.25,5.85,5.85,0,0,1-.78-2.56,2.23,2.23,0,0,1,.75-1.68,3.8,3.8,0,0,1,1.67-.9,9,9,0,0,1,2.33-.27c2.26,0,3.78.6,4.58,1.79a2.53,2.53,0,0,1,.4,1.43,2.89,2.89,0,0,1-.74,1.75,13.93,13.93,0,0,1-1.51,1.51,12,12,0,0,0-1.5,1.51l1,1a9.75,9.75,0,0,0,1.2-.86c.24-.22.6-.54,1.1-1a2.09,2.09,0,0,1,1.11-.64,1.88,1.88,0,0,1,1.13.36,2,2,0,0,0,.26.32c.15.17.22.28.22.34A2.72,2.72,0,0,1,123.54,130.13Zm-7.57.67-1.78,1.93-.06.14a1.05,1.05,0,0,0,.2.45.62.62,0,0,0,.43.11.51.51,0,0,0,.3-.08q.66-.45,2-1.47Zm.54-3.71a25.46,25.46,0,0,0,1.63-2,1.61,1.61,0,0,0,.11-.76.52.52,0,0,0-.45-.53,3.41,3.41,0,0,0-.81-.06,1.48,1.48,0,0,0-1.34.61,1.13,1.13,0,0,0-.07.52A3.61,3.61,0,0,0,116.51,127.09Z"/><path d="M117,121.08c2.26,0,3.78.6,4.58,1.79a2.53,2.53,0,0,1,.4,1.43,2.89,2.89,0,0,1-.74,1.75,13.93,13.93,0,0,1-1.51,1.51,12,12,0,0,0-1.5,1.51l1,1a9.75,9.75,0,0,0,1.2-.86c.24-.22.6-.54,1.1-1a2.09,2.09,0,0,1,1.11-.64,1.88,1.88,0,0,1,1.13.36,2,2,0,0,0,.26.32c.15.17.22.28.22.34a2.72,2.72,0,0,1-.73,1.48,4.69,4.69,0,0,1-1.06.92c-.62.41-1,.69-1.16.82l1.09.84c.93.73,1.4,1.36,1.4,1.9a1.42,1.42,0,0,1-1.11,1.25,2.76,2.76,0,0,1-1.38-.43l-1.2-.88a5.29,5.29,0,0,1-.93-.89c-.72.56-1.65,1.23-2.77,2a3.05,3.05,0,0,1-1.73.39,2.9,2.9,0,0,1-1.2-.14l-.68-.22a2.75,2.75,0,0,1-1.58-1.37,2.85,2.85,0,0,1-.23-.9,3.72,3.72,0,0,1,0-.78,2.74,2.74,0,0,1,.37-.6c.23-.32.48-.65.75-1,.54-.51,1.33-1.28,2.38-2.32a12.89,12.89,0,0,1-1.52-2.25,5.85,5.85,0,0,1-.78-2.56,2.23,2.23,0,0,1,.75-1.68,3.8,3.8,0,0,1,1.67-.9,9,9,0,0,1,2.33-.27m-.48,6a25.46,25.46,0,0,0,1.63-2,1.61,1.61,0,0,0,.11-.76.52.52,0,0,0-.45-.53,3.41,3.41,0,0,0-.81-.06,1.48,1.48,0,0,0-1.34.61,1.13,1.13,0,0,0-.07.52,3.61,3.61,0,0,0,.93,2.18m-1.75,6.34a.51.51,0,0,0,.3-.08q.66-.45,2-1.47L116,130.8l-1.78,1.93-.06.14a1.05,1.05,0,0,0,.2.45.62.62,0,0,0,.43.11M117,118.08a12.31,12.31,0,0,0-3.1.37,6.69,6.69,0,0,0-3,1.62,5.2,5.2,0,0,0-1.69,3.86,8.57,8.57,0,0,0,1.13,3.95c.08.16.17.33.27.49l-.55.52a4.12,4.12,0,0,0-.28.31c-.3.39-.58.76-.83,1.11a4.65,4.65,0,0,0-.83,1.53,5.36,5.36,0,0,0-.15,1.6,5.46,5.46,0,0,0,.44,2,5.61,5.61,0,0,0,3.15,3l.31.11.46.15a7.25,7.25,0,0,0,5.8-.59l.89-.64c.42.31.56.41.66.47l.07,0a5.63,5.63,0,0,0,2.92.86,4,4,0,0,0,3.13-1.61l0,0a4.17,4.17,0,0,0,.94-2.6,4.5,4.5,0,0,0-.91-2.63h0a5.46,5.46,0,0,0,1.37-3.33,3.48,3.48,0,0,0-1-2.34l0,0a3.08,3.08,0,0,0-.72-.72,4.21,4.21,0,0,0-.64-.39,5,5,0,0,0,.08-.86,5.5,5.5,0,0,0-.9-3.09c-1.39-2.08-3.77-3.13-7.08-3.13Z"/><path class="cls-4" d="M141.44,120.65a2.63,2.63,0,0,1,.13.81,2,2,0,0,1-.2.89,2.32,2.32,0,0,1-.93,1.13,2,2,0,0,1-1,.2,5.63,5.63,0,0,1-.77-.06q.09,1,.09,2.13c0,.6.05,1.63.16,3.1s.13,2.38.11,3.07a4,4,0,0,0,0,.7c0,.39.07.57.19.54,1.55-.19,2.44.18,2.67,1.12a2.48,2.48,0,0,1,.05.45,1.8,1.8,0,0,1-1.16,1.65,5.57,5.57,0,0,1-2.09.52,10.36,10.36,0,0,1-2.86-.08,4.55,4.55,0,0,1-1.88-.75,1.94,1.94,0,0,1-.72-1.8c.09-1.08.61-1.61,1.58-1.61a2.18,2.18,0,0,1,.55.07l.48.09a18.75,18.75,0,0,0,0-2.4c0-1.18-.06-2-.05-2.41s0-1.3,0-2.2-.07-1.73-.07-2.2l-2-.25a1.35,1.35,0,0,1-.68-.56,3.49,3.49,0,0,1-.34-1.86c0-.87.83-1.45,2.46-1.73a11.45,11.45,0,0,1,2.11-.2,7.83,7.83,0,0,1,2.12.27C140.59,119.61,141.26,120.07,141.44,120.65Z"/><path d="M137.28,119a7.83,7.83,0,0,1,2.12.27c1.19.33,1.86.79,2,1.37a2.63,2.63,0,0,1,.13.81,2,2,0,0,1-.2.89,2.32,2.32,0,0,1-.93,1.13,2,2,0,0,1-1,.2,5.63,5.63,0,0,1-.77-.06q.09,1,.09,2.13c0,.6.05,1.63.16,3.1s.13,2.38.11,3.07a4,4,0,0,0,0,.7c0,.36.06.54.16.54h0a4.8,4.8,0,0,1,.73,0c1.1,0,1.75.39,1.94,1.17a2.48,2.48,0,0,1,.05.45,1.8,1.8,0,0,1-1.16,1.65,5.57,5.57,0,0,1-2.09.52c-.51,0-1,0-1.37,0a6.74,6.74,0,0,1-1.49-.13,4.55,4.55,0,0,1-1.88-.75,1.94,1.94,0,0,1-.72-1.8c.09-1.08.61-1.61,1.58-1.61a2.18,2.18,0,0,1,.55.07l.48.09a18.75,18.75,0,0,0,0-2.4c0-1.18-.06-2-.05-2.41s0-1.3,0-2.2-.07-1.73-.07-2.2l-2-.25a1.35,1.35,0,0,1-.68-.56,3.46,3.46,0,0,1-.34-1.86c0-.87.83-1.45,2.46-1.73a11.45,11.45,0,0,1,2.11-.2m0-3a15.39,15.39,0,0,0-2.63.24c-4.41.78-4.92,3.51-4.93,4.65a5.87,5.87,0,0,0,.87,3.6,4.18,4.18,0,0,0,2.2,1.7c0,.7,0,1.26,0,1.68s0,1.17,0,2.19a4.56,4.56,0,0,0-2.59,4,4.92,4.92,0,0,0,1.84,4.39,7.35,7.35,0,0,0,3.1,1.33,9.49,9.49,0,0,0,2.14.2q.72,0,1.59-.06a8.4,8.4,0,0,0,3.23-.84,4.73,4.73,0,0,0,2.8-4.32,4.82,4.82,0,0,0-.13-1.12,4.42,4.42,0,0,0-2.8-3.15c0-.54-.05-1.14-.1-1.82-.09-1.26-.13-2-.14-2.48l.1,0a5.24,5.24,0,0,0,2.2-2.48,5.1,5.1,0,0,0,.48-2.17,5.76,5.76,0,0,0-.26-1.68c-.49-1.62-1.87-2.76-4.09-3.39a11.17,11.17,0,0,0-2.94-.38Z"/></g><g class="cls-3"><path class="cls-4" d="M63.3,59q4-16.14,8.49-18.18a14.6,14.6,0,0,1,6-1.49c3.4,0,6.22,2.19,8.49,6.58Q89,51.22,89.61,64.09t.78,19.31q.49,10.68.28,15.64-.35,9.54-5.66,9.55a6.54,6.54,0,0,1-2.9-.85q-3.6-1.84-5-8.07a90.87,90.87,0,0,1-1.2-10Q75.61,86,75.25,78q-.21-4.95.07-19.25A119.08,119.08,0,0,0,71.72,77q-3.41,27.39-6.23,28.8a11.57,11.57,0,0,1-4.67,1.55A10.53,10.53,0,0,1,56.43,106a6.9,6.9,0,0,1-4.1-5.66Q51.55,94.5,50,86.66,49,81.71,47.17,73a67.85,67.85,0,0,0-4.88-15q-1,3.52-.07,15.56.84,13.31,1.27,20.58.49,8.22.35,9.13a7.07,7.07,0,0,1-5.8,6.3,6.08,6.08,0,0,1-1.41.21q-2.62,0-5.09-2.76-3.25-3.54-2.76-18.46.42-14.43,0-18.54-.44-3.75-.71-12a27.36,27.36,0,0,1,2.05-12.45q3-6.59,9.69-6.58a18.14,18.14,0,0,1,3,.28Q51,40.68,54,49.73q3.88,12,4.95,31Q61.75,65,63.3,59Z"/><path class="cls-4" d="M133.75,79.44a16.17,16.17,0,0,1-9.62,3,31.68,31.68,0,0,1-12.59-3,12.7,12.7,0,0,0-.21,2.33,19.24,19.24,0,0,0,1.56,7.08q2.48,6.15,6.86,6.58a25.86,25.86,0,0,0,10.47-1.06,6.63,6.63,0,0,1,2-.29c2.36,0,3.65,1.68,3.89,5q.49,6.22-8.49,9.12a21.85,21.85,0,0,1-6.86,1.13,21.41,21.41,0,0,1-10.4-2.83q-8.49-4.67-11-26.81A68.51,68.51,0,0,1,99,72q0-16,9.27-22.42,4.66-4,12.09-4a38.57,38.57,0,0,1,8.35,1q13.16,3,13.3,15T133.75,79.44ZM115.43,65.08A5.35,5.35,0,0,0,117.24,69a6.38,6.38,0,0,0,4.06,1.73A7.41,7.41,0,0,0,127,69a3.46,3.46,0,0,0,1.14-2.76,11.17,11.17,0,0,0-1-4.1q-1.48-3.68-4.38-3.68a6.59,6.59,0,0,0-2.55.64Q115.3,61.19,115.43,65.08Z"/></g><g class="cls-3"><path class="cls-4" d="M37,124.05q1-4.08,2.15-4.59a3.69,3.69,0,0,1,1.52-.38c.86,0,1.57.55,2.15,1.66a12.18,12.18,0,0,1,.84,4.6c.09,2.17.16,3.8.19,4.88.09,1.8.11,3.12.07,4,0,1.61-.53,2.41-1.43,2.41a1.64,1.64,0,0,1-.73-.21,2.82,2.82,0,0,1-1.27-2,23.26,23.26,0,0,1-.3-2.52c0-.64-.1-1.62-.16-3,0-.83,0-2.45,0-4.86a31.2,31.2,0,0,0-.91,4.6c-.57,4.61-1.1,7-1.57,7.28a3,3,0,0,1-1.18.39,2.72,2.72,0,0,1-1.11-.32,1.75,1.75,0,0,1-1-1.43c-.13-1-.33-2.15-.59-3.47q-.26-1.26-.72-3.45a17.31,17.31,0,0,0-1.23-3.8,14.71,14.71,0,0,0,0,3.94c.15,2.24.25,4,.32,5.2a20.79,20.79,0,0,1,.09,2.31,1.77,1.77,0,0,1-1.46,1.59,1.48,1.48,0,0,1-.36.06,1.8,1.8,0,0,1-1.29-.7c-.55-.6-.78-2.15-.7-4.67a42.31,42.31,0,0,0,0-4.69c-.07-.63-.13-1.64-.17-3a7,7,0,0,1,.51-3.15A2.53,2.53,0,0,1,31,119a4.46,4.46,0,0,1,.76.07,3.48,3.48,0,0,1,2.82,2.63,31.46,31.46,0,0,1,1.25,7.83Q36.56,125.58,37,124.05Z"/><path class="cls-4" d="M53.68,121a2.82,2.82,0,0,1,1.19-.3,1.77,1.77,0,0,1,.52.07,4,4,0,0,1,1,.41,1.37,1.37,0,0,1,.32.8c.09,1,.16,1.78.21,2.29a34.57,34.57,0,0,1-.43,5.1q-.12.91-.18,1.47c-.14,1.25-.26,2.13-.37,2.64a5.07,5.07,0,0,1-1.06,2.4,3.74,3.74,0,0,1-2.77,1,10.05,10.05,0,0,1-1.84-.15c-1.65-.3-2.66-1-3-2a2.5,2.5,0,0,1-.13-1.25,1.17,1.17,0,0,1,1.27-1.15,1,1,0,0,1,.57.15,6.3,6.3,0,0,1,.67.43,3.69,3.69,0,0,0,1.16.5l1.13,0a2.65,2.65,0,0,0,1.17-.39,1.62,1.62,0,0,0,.52-1,9,9,0,0,0,.29-1.79,1.84,1.84,0,0,0,0-.39,5.25,5.25,0,0,1-.6.52,4.34,4.34,0,0,1-2.76.53,7.19,7.19,0,0,1-1.3-.22,6.66,6.66,0,0,1-1.22-.38,2.75,2.75,0,0,1-.38-.24,1.81,1.81,0,0,1-.59-.7,4.32,4.32,0,0,1-.51-1.71,7.68,7.68,0,0,1-.13-1.31c-.05-.89-.08-1.51-.11-1.86,0-.81-.08-1.37-.1-1.68a2.08,2.08,0,0,1,.53-1.45,1.14,1.14,0,0,1,.93-.45,2.08,2.08,0,0,1,.57.11c.66.21,1,.56,1,1.06s0,.71,0,.77c0,.5,0,.77,0,.8,0,.61,0,1.18,0,1.72-.08,1.1.15,1.75.68,2a3.88,3.88,0,0,0,.89.19,6.63,6.63,0,0,0,.79,0,1.44,1.44,0,0,0,.82-.44,2.89,2.89,0,0,0,.43-.9,9,9,0,0,0,.12-2,8.46,8.46,0,0,1,.11-1.7A4.11,4.11,0,0,1,53.68,121Z"/><path class="cls-4" d="M64.18,120.78a11.09,11.09,0,0,1,4.63,1c.44.21.64.67.61,1.38a3.44,3.44,0,0,1-.5,1.72,1,1,0,0,1-.88.3,8.07,8.07,0,0,1-2-.35,9,9,0,0,0-2.38-.43,1.88,1.88,0,0,0-.76.12c-.51.24-.77.53-.79.88a4.34,4.34,0,0,0-.09.86c-.06.27.09.52.46.75a4.09,4.09,0,0,0,2.13.48,18.64,18.64,0,0,1,2.26.09,9.16,9.16,0,0,1,1.82.59,4.39,4.39,0,0,1,1.57,1,3.77,3.77,0,0,1,.88,2.59A6.25,6.25,0,0,1,71,133a4.1,4.1,0,0,1-.89,1.79,3.18,3.18,0,0,1-1.56,1.23,12.91,12.91,0,0,1-1.68.4l-1.41.11c-.59,0-1,.06-1.4.05a11.3,11.3,0,0,1-1.91-.32c-1.76-.41-2.65-1.06-2.65-2a2.07,2.07,0,0,1,.07-.45,1.61,1.61,0,0,1,.59-.91,2,2,0,0,1,1-.21,17.42,17.42,0,0,1,3.17.42,2.22,2.22,0,0,0,.89,0,3,3,0,0,0,1.31-.53,1.28,1.28,0,0,0,.64-1.15c0-.62-.62-1-1.73-1.18-.19,0-1-.06-2.36-.1a5.12,5.12,0,0,1-3.37-1,4.12,4.12,0,0,1-1.14-3.1,6.47,6.47,0,0,1,.5-2.45,4.31,4.31,0,0,1,1.66-2.14A6.49,6.49,0,0,1,64.18,120.78Z"/><path class="cls-4" d="M81.67,129.22a4.12,4.12,0,0,1-2.43.75,7.91,7.91,0,0,1-3.19-.77,3.81,3.81,0,0,0,0,.59,4.87,4.87,0,0,0,.39,1.79c.42,1,1,1.59,1.74,1.67a6.62,6.62,0,0,0,2.64-.27,1.68,1.68,0,0,1,.5-.07c.6,0,.93.42,1,1.27.08,1-.63,1.81-2.15,2.3a5.56,5.56,0,0,1-1.73.29,5.38,5.38,0,0,1-2.63-.72c-1.43-.78-2.36-3-2.77-6.77a15.55,15.55,0,0,1-.11-1.94q0-4,2.34-5.67a4.62,4.62,0,0,1,3.06-1,10.16,10.16,0,0,1,2.11.25c2.22.5,3.34,1.77,3.36,3.79A5.06,5.06,0,0,1,81.67,129.22ZM77,125.59a1.33,1.33,0,0,0,.45,1,1.6,1.6,0,0,0,1,.44,1.87,1.87,0,0,0,1.43-.43.87.87,0,0,0,.29-.69,2.93,2.93,0,0,0-.25-1q-.37-.93-1.11-.93a1.66,1.66,0,0,0-.65.16C77.41,124.43,77,124.94,77,125.59Z"/><path class="cls-4" d="M89.38,124.37c0,1,0,1.74,0,2.24q.15,2.8.06,5.22c0,1-.06,1.94-.06,2.83a1.71,1.71,0,0,1-.1.82,2.33,2.33,0,0,1-.34.77,2.16,2.16,0,0,1-1,.31,1.26,1.26,0,0,1-1.14-.86,5.6,5.6,0,0,1-.56-2.17c-.13-1.29-.22-2.16-.27-2.63-.13-1.24-.23-2.49-.32-3.77-.07-1.1-.13-2.37-.19-3.81a4.85,4.85,0,0,1,.51-2.49,1.39,1.39,0,0,1,1.26-.84,2,2,0,0,1,.57.11C88.8,120.41,89.32,121.83,89.38,124.37Z"/><path class="cls-4" d="M101,133.09c-.89,0-1.89-.08-3-.18q.09.93.09,1.59a3.65,3.65,0,0,1-.14,1.21,1.83,1.83,0,0,1-.76.93,2.36,2.36,0,0,1-1.24.06q-1.38-.19-1.26-3.45a2.56,2.56,0,0,1-.89.16,4.11,4.11,0,0,1-1.18-.2,1.43,1.43,0,0,1-1.2-1.43,1.6,1.6,0,0,1,.13-.61c.13-.48.55-.79,1.25-.93l1.72-.12c-.12-1.2-.32-2.78-.59-4.76a7.88,7.88,0,0,1-.08-1.15,4.47,4.47,0,0,1,.92-2.93,4,4,0,0,1,3-1.59,5.27,5.27,0,0,1,2.11.14,2.26,2.26,0,0,1,1.25,1.59,2.31,2.31,0,0,1,.09.61c0,1.1-.81,1.66-2.41,1.68-1,0-1.47.81-1.38,2.38s.16,2.71.25,3.78a10.19,10.19,0,0,1,3.2-.4q1.88,0,2.13.93a2.51,2.51,0,0,1,.09.63,2.7,2.7,0,0,1-.29,1.18A1.76,1.76,0,0,1,101,133.09Z"/><path class="cls-4" d="M123.54,130.13a4.69,4.69,0,0,1-1.06.92c-.62.41-1,.69-1.16.82l1.09.84c.93.73,1.4,1.36,1.4,1.9a1.42,1.42,0,0,1-1.11,1.25,2.76,2.76,0,0,1-1.38-.43c-.13-.08-.53-.38-1.2-.88a5.29,5.29,0,0,1-.93-.89c-.72.56-1.65,1.23-2.77,2a3.05,3.05,0,0,1-1.73.39,2.9,2.9,0,0,1-1.2-.14l-.68-.22a2.72,2.72,0,0,1-1.58-1.37,2.85,2.85,0,0,1-.23-.9,3.72,3.72,0,0,1,0-.78,2.74,2.74,0,0,1,.37-.6c.23-.32.48-.65.75-1,.54-.51,1.33-1.28,2.38-2.32a12.89,12.89,0,0,1-1.52-2.25,5.85,5.85,0,0,1-.78-2.56,2.23,2.23,0,0,1,.75-1.68,3.8,3.8,0,0,1,1.67-.9,9,9,0,0,1,2.33-.27c2.26,0,3.78.6,4.58,1.79a2.53,2.53,0,0,1,.4,1.43,2.89,2.89,0,0,1-.74,1.75,13.93,13.93,0,0,1-1.51,1.51,12,12,0,0,0-1.5,1.51l1,1a9.75,9.75,0,0,0,1.2-.86c.24-.22.6-.54,1.1-1a2.09,2.09,0,0,1,1.11-.64,1.88,1.88,0,0,1,1.13.36,2,2,0,0,0,.26.32c.15.17.22.28.22.34A2.72,2.72,0,0,1,123.54,130.13Zm-7.57.67-1.78,1.93-.06.14a1.05,1.05,0,0,0,.2.45.62.62,0,0,0,.43.11.51.51,0,0,0,.3-.08q.66-.45,2-1.47Zm.54-3.71a25.46,25.46,0,0,0,1.63-2,1.61,1.61,0,0,0,.11-.76.52.52,0,0,0-.45-.53,3.41,3.41,0,0,0-.81-.06,1.48,1.48,0,0,0-1.34.61,1.13,1.13,0,0,0-.07.52A3.61,3.61,0,0,0,116.51,127.09Z"/><path class="cls-4" d="M141.44,120.65a2.63,2.63,0,0,1,.13.81,2,2,0,0,1-.2.89,2.32,2.32,0,0,1-.93,1.13,2,2,0,0,1-1,.2,5.63,5.63,0,0,1-.77-.06q.09,1,.09,2.13c0,.6.05,1.63.16,3.1s.13,2.38.11,3.07a4,4,0,0,0,0,.7c0,.39.07.57.19.54,1.55-.19,2.44.18,2.67,1.12a2.48,2.48,0,0,1,.05.45,1.8,1.8,0,0,1-1.16,1.65,5.57,5.57,0,0,1-2.09.52,10.36,10.36,0,0,1-2.86-.08,4.55,4.55,0,0,1-1.88-.75,1.94,1.94,0,0,1-.72-1.8c.09-1.08.61-1.61,1.58-1.61a2.18,2.18,0,0,1,.55.07l.48.09a18.75,18.75,0,0,0,0-2.4c0-1.18-.06-2-.05-2.41s0-1.3,0-2.2-.07-1.73-.07-2.2l-2-.25a1.35,1.35,0,0,1-.68-.56,3.49,3.49,0,0,1-.34-1.86c0-.87.83-1.45,2.46-1.73a11.45,11.45,0,0,1,2.11-.2,7.83,7.83,0,0,1,2.12.27C140.59,119.61,141.26,120.07,141.44,120.65Z"/></g></g></g></svg>