<svg xmlns="http://www.w3.org/2000/svg" viewBox="0 0 170 170"><defs><style>.cls-1{fill:none;opacity:0.2;}.cls-2{fill:#ffefc1;}.cls-3{fill:#fff;}</style></defs><g id="Layer_2" data-name="Layer 2"><g id="Drawings"><rect id="Rectangle_2497" data-name="Rectangle 2497" class="cls-1" width="170" height="170"/><polygon class="cls-2" points="85 23.76 96.19 0 100.85 25.85 117.81 5.79 115.62 31.97 137.19 16.98 128.3 41.7 153.02 32.81 138.03 54.38 164.21 52.19 144.15 69.15 170 73.81 146.24 85 170 96.19 144.15 100.85 164.21 117.81 138.03 115.62 153.02 137.19 128.3 128.3 137.19 153.02 115.62 138.03 117.81 164.21 100.85 144.15 96.19 170 85 146.24 73.81 170 69.15 144.15 52.19 164.21 54.38 138.03 32.81 153.02 41.7 128.3 16.98 137.19 31.97 115.62 5.79 117.81 25.85 100.85 0 96.19 23.76 85 0 73.81 25.85 69.15 5.79 52.19 31.97 54.38 16.98 32.81 41.7 41.7 32.81 16.98 54.38 31.97 52.19 5.79 69.15 25.85 73.81 0 85 23.76"/><path id="Path_5253" data-name="Path 5253" class="cls-3" d="M68.39,112.19V110A56.71,56.71,0,0,0,65.74,92.6a96.72,96.72,0,0,0-5.62-13.23,89.47,89.47,0,0,1-4.2-9.49A30.09,30.09,0,0,1,54,59.59a32,32,0,0,1,8-21.07,29.26,29.26,0,0,1,9.89-7.25A32.91,32.91,0,0,1,85.46,28.5a31.07,31.07,0,0,1,13.46,2.89,28.29,28.29,0,0,1,9.58,7.43,31.86,31.86,0,0,1,5.63,10A32.63,32.63,0,0,1,116,59.47a30.12,30.12,0,0,1-1.88,10.19,91.32,91.32,0,0,1-4.18,9.51c-3.88,8-8.28,17.15-8.5,30.92l0,2.16Z"/><path d="M101.38,113.75h0l-33-.06a1.5,1.5,0,0,1-1.5-1.5V110a54.89,54.89,0,0,0-2.58-16.93,95.22,95.22,0,0,0-5.54-13,92.75,92.75,0,0,1-4.27-9.65,31.69,31.69,0,0,1-2-10.79,33.47,33.47,0,0,1,8.36-22.06A30.62,30.62,0,0,1,71.29,29.9,34.46,34.46,0,0,1,85.46,27a32.54,32.54,0,0,1,14.11,3,29.86,29.86,0,0,1,10.08,7.82,33.22,33.22,0,0,1,5.9,10.44,34.19,34.19,0,0,1,1.93,11.16,31.59,31.59,0,0,1-2,10.7,92.54,92.54,0,0,1-4.24,9.66c-3.81,7.9-8.14,16.86-8.35,30.3l0,2.16A1.49,1.49,0,0,1,101.38,113.75Zm-31.49-1.56h0Zm0-1.5,30,.06,0-.68c.23-14.1,4.7-23.37,8.65-31.55a89.06,89.06,0,0,0,4.11-9.36,28.47,28.47,0,0,0,1.8-9.69,31.26,31.26,0,0,0-1.76-10.18,30.19,30.19,0,0,0-5.37-9.5,26.88,26.88,0,0,0-9.07-7A29.68,29.68,0,0,0,85.46,30a31.41,31.41,0,0,0-12.94,2.64,27.52,27.52,0,0,0-9.39,6.88,30.44,30.44,0,0,0-7.61,20.07,28.87,28.87,0,0,0,1.81,9.79,91.89,91.89,0,0,0,4.12,9.31,96.06,96.06,0,0,1,5.71,13.46A57.79,57.79,0,0,1,69.89,110Z"/><path class="cls-2" d="M87.86,103.6a1.51,1.51,0,0,1-1.5-1.45c0-1-.63-18.85,2-31.9a42.05,42.05,0,0,1-6.24.28c2.5,13,1.6,30.67,1.55,31.65a1.5,1.5,0,0,1-3-.16c0-.24,1-19-1.63-31.73a22.09,22.09,0,0,1-5.76-1.42c-4.11-1.73-4.9-4.32-4.84-6.19a5.16,5.16,0,0,1,3.89-4.87,5.62,5.62,0,0,1,6.26,2.38,25.41,25.41,0,0,1,2.86,7.28,39.83,39.83,0,0,0,7.63-.36,22.8,22.8,0,0,1,3.42-8,5.45,5.45,0,0,1,4.94-2.08,5.28,5.28,0,0,1,4.27,3,4.76,4.76,0,0,1-1,5.62c-1.78,1.86-5.22,3.26-9.2,4.07a100.19,100.19,0,0,0-1.84,14.82c-.57,9.2-.28,17.4-.28,17.48a1.5,1.5,0,0,1-1.44,1.55Zm-14-43a2.94,2.94,0,0,0-.74.1,2.2,2.2,0,0,0-1.68,2.08c0,1.35,1,2.47,3,3.32a17.13,17.13,0,0,0,3.84,1A20.63,20.63,0,0,0,76,61.8,2.55,2.55,0,0,0,73.83,60.6Zm23-.58a2.43,2.43,0,0,0-2,.95,17.41,17.41,0,0,0-2.54,5.52c2.75-.68,5-1.66,6.2-2.89A1.81,1.81,0,0,0,99,61.33,2.3,2.3,0,0,0,97.09,60Z"/><rect class="cls-3" x="66.28" y="102.1" width="37.44" height="8.02" rx="4.01"/><path d="M99.71,111.61H70.29a5.51,5.51,0,1,1,0-11H99.71a5.51,5.51,0,1,1,0,11Zm-29.42-8a2.51,2.51,0,1,0,0,5H99.71a2.51,2.51,0,1,0,0-5Z"/><rect class="cls-3" x="66.28" y="110.11" width="37.44" height="8.02" rx="4.01"/><path d="M99.71,119.63H70.29a5.51,5.51,0,0,1,0-11H99.71a5.51,5.51,0,0,1,0,11Zm-29.42-8a2.51,2.51,0,0,0,0,5H99.71a2.51,2.51,0,1,0,0-5Z"/><rect class="cls-3" x="66.28" y="118.13" width="37.44" height="8.02" rx="4.01"/><path d="M99.71,127.65H70.29a5.51,5.51,0,0,1,0-11H99.71a5.51,5.51,0,0,1,0,11Zm-29.42-8a2.51,2.51,0,0,0,0,5H99.71a2.51,2.51,0,0,0,0-5Z"/><path class="cls-3" d="M91.12,134.77H78.88a5.42,5.42,0,0,1-5-3.25l-2.36-5.37H98.46l-2.36,5.37A5.42,5.42,0,0,1,91.12,134.77Z"/><path d="M91.12,136.27H78.88a7,7,0,0,1-6.36-4.15l-2.35-5.37a1.49,1.49,0,0,1,.11-1.42,1.52,1.52,0,0,1,1.26-.68H98.46a1.52,1.52,0,0,1,1.26.68,1.49,1.49,0,0,1,.11,1.42l-2.35,5.37A7,7,0,0,1,91.12,136.27Zm-17.28-8.62,1.43,3.26a3.93,3.93,0,0,0,3.61,2.36H91.12a3.94,3.94,0,0,0,3.61-2.36l1.43-3.26Z"/></g></g></svg>