<svg xmlns="http://www.w3.org/2000/svg" viewBox="0 0 170 170"><defs><style>.cls-1{fill:none;opacity:0.2;}.cls-2{fill:#ffefc1;}.cls-3{fill:#fff;}.cls-4{isolation:isolate;}</style></defs><g id="Layer_2" data-name="Layer 2"><g id="Drawings"><rect id="Rectangle_2497" data-name="Rectangle 2497" class="cls-1" width="170" height="170"/><polygon class="cls-2" points="85 0 91.25 25.83 102.77 1.86 103.49 28.41 119.76 7.35 114.91 33.47 135.24 16.23 125.03 40.78 148.51 28.12 133.4 50.03 159.02 42.5 139.66 60.8 166.28 58.73 143.52 72.63 170 76.11 144.83 85 170 93.89 143.52 97.37 166.28 111.27 139.66 109.2 159.02 127.5 133.4 119.97 148.51 141.88 125.03 129.22 135.24 153.77 114.91 136.53 119.76 162.65 103.49 141.59 102.77 168.14 91.25 144.17 85 170 78.75 144.17 67.23 168.14 66.51 141.59 50.24 162.65 55.09 136.53 34.76 153.77 44.97 129.22 21.48 141.88 36.6 119.97 10.98 127.5 30.34 109.2 3.71 111.27 26.48 97.37 0 93.89 25.17 85 0 76.11 26.48 72.63 3.71 58.73 30.34 60.8 10.98 42.5 36.6 50.03 21.48 28.12 44.97 40.78 34.76 16.23 55.09 33.47 50.24 7.35 66.51 28.41 67.23 1.86 78.75 25.83 85 0"/><polygon class="cls-2" points="144.93 65.41 124.13 22.31 72.77 22.31 55.34 56.03 22.57 72.51 22.57 123.54 65.91 145.18 109.26 124.2 109.26 108.84 123.3 108.84 144.93 65.41"/><polygon class="cls-3" points="72.77 22.31 124.13 22.31 144.93 65.41 123.3 108.84 100.51 108.84 51.6 63.27 72.77 22.31"/><path d="M123.3,110.34H100.51a1.49,1.49,0,0,1-1-.4L50.58,64.36a1.49,1.49,0,0,1-.31-1.78l21.16-41a1.53,1.53,0,0,1,1.34-.81h51.35a1.51,1.51,0,0,1,1.36.85l20.8,43.1a1.49,1.49,0,0,1,0,1.32l-21.63,43.43A1.49,1.49,0,0,1,123.3,110.34Zm-22.2-3h21.27L143.26,65.4,123.18,23.81H73.68L53.46,62.94Z"/><polygon class="cls-3" points="72.77 22.31 93.91 65.58 144.93 65.41 123.3 108.84 100.51 108.84 51.6 63.27 72.77 22.31"/><path d="M123.3,110.34H100.51a1.49,1.49,0,0,1-1-.4L50.58,64.36a1.49,1.49,0,0,1-.31-1.78l21.16-41a1.5,1.5,0,0,1,2.68,0L94.84,64.08l50.09-.17a1.65,1.65,0,0,1,1.28.71,1.49,1.49,0,0,1,.06,1.46l-21.63,43.43A1.49,1.49,0,0,1,123.3,110.34Zm-22.2-3h21.27l20.14-40.42-48.6.16h0a1.5,1.5,0,0,1-1.34-.84L72.73,25.65,53.46,62.94Z"/><ellipse cx="128.7" cy="75.79" rx="6.68" ry="4.71" transform="translate(-17.95 47.49) rotate(-19.57)"/><ellipse cx="128.7" cy="55.59" rx="4.71" ry="6.68" transform="translate(23.23 147.95) rotate(-64.57)"/><ellipse cx="108.99" cy="43.92" rx="4.71" ry="6.68" transform="translate(22.52 123.49) rotate(-64.57)"/><ellipse cx="89.29" cy="32.14" rx="4.71" ry="6.68" transform="translate(21.92 98.97) rotate(-64.57)"/><ellipse cx="116.59" cy="98.8" rx="6.68" ry="4.71" transform="translate(-26.36 44.76) rotate(-19.57)"/><polygon class="cls-3" points="22.57 72.52 22.57 123.54 65.91 145.18 109.26 124.2 109.26 72.52 65.91 50.72 22.57 72.52"/><path d="M65.91,146.67a1.59,1.59,0,0,1-.67-.15L21.9,124.88a1.49,1.49,0,0,1-.83-1.34v-51a1.52,1.52,0,0,1,.82-1.34L65.24,49.38a1.46,1.46,0,0,1,1.35,0l43.35,21.79a1.52,1.52,0,0,1,.82,1.34V124.2a1.5,1.5,0,0,1-.84,1.35l-43.35,21A1.66,1.66,0,0,1,65.91,146.67ZM24.07,122.61,65.92,143.5l41.84-20.24V73.44l-41.85-21-41.84,21Z"/><polygon class="cls-3" points="22.57 72.52 22.57 123.54 65.91 145.18 109.26 124.2 109.26 72.52 65.91 94.15 22.57 72.52"/><path d="M65.91,146.67a1.59,1.59,0,0,1-.67-.15L21.9,124.88a1.49,1.49,0,0,1-.83-1.34v-51a1.47,1.47,0,0,1,.71-1.27,1.52,1.52,0,0,1,1.46-.07l42.67,21.3,42.68-21.3a1.52,1.52,0,0,1,1.46.07,1.49,1.49,0,0,1,.71,1.27V124.2a1.5,1.5,0,0,1-.84,1.35l-43.35,21A1.66,1.66,0,0,1,65.91,146.67ZM24.07,122.61,65.92,143.5l41.84-20.24V74.94L66.58,95.49a1.5,1.5,0,0,1-1.34,0L24.07,74.94Z"/><path d="M65.91,121.41a1.5,1.5,0,0,1-1.5-1.5V94.15a1.5,1.5,0,0,1,3,0v25.76A1.5,1.5,0,0,1,65.91,121.41Z"/><path d="M65.91,146.67a1.5,1.5,0,0,1-1.5-1.5v-9.76a1.5,1.5,0,0,1,3,0v9.76A1.5,1.5,0,0,1,65.91,146.67Z"/><path d="M65.91,129.91a1.5,1.5,0,0,1-1.5-1.5v-2.76a1.5,1.5,0,0,1,3,0v2.76A1.5,1.5,0,0,1,65.91,129.91Z"/><ellipse cx="66.08" cy="72.02" rx="6.69" ry="4.13"/><g class="cls-4"><path d="M99.55,83.76A10.4,10.4,0,0,0,94.82,92c0,3,2.13,4.23,4.76,2.71a10.45,10.45,0,0,0,4.73-8.19c0-3-2.15-4.22-4.76-2.71"/></g><g class="cls-4"><path d="M32.33,83.76c-2.63-1.51-4.76-.3-4.77,2.71a10.42,10.42,0,0,0,4.74,8.2c2.61,1.51,4.75.3,4.75-2.72a10.45,10.45,0,0,0-4.72-8.19"/></g><g class="cls-4"><path d="M44.05,103.39c-2.62-1.51-4.76-.3-4.76,2.71A10.43,10.43,0,0,0,44,114.3c2.62,1.51,4.75.3,4.76-2.72a10.45,10.45,0,0,0-4.73-8.19"/></g><g class="cls-4"><path d="M55.78,123.27C53.15,121.76,51,123,51,126a10.43,10.43,0,0,0,4.73,8.2c2.62,1.51,4.76.3,4.76-2.72a10.46,10.46,0,0,0-4.72-8.19"/></g><g class="cls-4"><path d="M32.33,111.38c-2.63-1.51-4.76-.29-4.77,2.71a10.42,10.42,0,0,0,4.74,8.2c2.61,1.51,4.75.3,4.75-2.72a10.46,10.46,0,0,0-4.72-8.19"/></g><g class="cls-4"><path d="M55.78,95.38C53.15,93.87,51,95.09,51,98.09a10.43,10.43,0,0,0,4.73,8.2c2.62,1.51,4.76.3,4.76-2.72a10.46,10.46,0,0,0-4.72-8.19"/></g><g class="cls-4"><path d="M87.78,103.39a10.45,10.45,0,0,0-4.73,8.19c0,3,2.14,4.23,4.76,2.72a10.47,10.47,0,0,0,4.73-8.19c0-3-2.14-4.23-4.76-2.72"/></g><g class="cls-4"><path d="M76.5,121.73a10.43,10.43,0,0,0-4.73,8.19c0,3,2.15,4.22,4.76,2.71a10.39,10.39,0,0,0,4.73-8.19c0-3-2.13-4.23-4.76-2.71"/></g></g></g></svg>