<svg xmlns="http://www.w3.org/2000/svg" viewBox="0 0 170 170"><defs><style>.cls-1{fill:none;opacity:0.2;}.cls-2{fill:#ffefc1;}.cls-3{fill:#fff;}.cls-4{isolation:isolate;}</style></defs><g id="Layer_2" data-name="Layer 2"><g id="Drawings"><rect id="Rectangle_2497" data-name="Rectangle 2497" class="cls-1" width="170" height="170"/><circle class="cls-2" cx="85" cy="85" r="64.79"/><path class="cls-3" d="M117.93,2a49.66,49.66,0,0,1,41.84,76.42l8.06,22.66-23-7.64A49.67,49.67,0,1,1,117.93,2Z"/><path d="M117.93,102.85a51.2,51.2,0,1,1,43.49-24.23l7.82,22a1.5,1.5,0,0,1-1.88,1.93L145,95.1A51,51,0,0,1,117.93,102.85Zm0-99.34a48.17,48.17,0,1,0,26,88.68,1.48,1.48,0,0,1,1.29-.16l20.13,6.67-7-19.76a1.54,1.54,0,0,1,.15-1.32A48.15,48.15,0,0,0,117.93,3.51Z"/><g class="cls-4"><path d="M109.86,37.35V61.83h-5.31V51.55H93.26V61.83H88V37.35h5.31v9.9h11.29v-9.9Z"/><path d="M120.33,60.6a10.45,10.45,0,0,1-4.15-4.38,14.33,14.33,0,0,1-1.46-6.65,14.39,14.39,0,0,1,1.46-6.65,10.37,10.37,0,0,1,4.15-4.35,13.88,13.88,0,0,1,12.67,0,10.31,10.31,0,0,1,4.15,4.35,14.27,14.27,0,0,1,1.46,6.65,14.21,14.21,0,0,1-1.46,6.65A10.39,10.39,0,0,1,133,60.6a13.8,13.8,0,0,1-12.67,0Zm11.15-4.81a9.64,9.64,0,0,0,1.75-6.22,9.59,9.59,0,0,0-1.74-6.19,6.49,6.49,0,0,0-9.63,0c-1.15,1.42-1.72,3.49-1.72,6.19a9.7,9.7,0,0,0,1.74,6.22,5.79,5.79,0,0,0,4.79,2.15A5.86,5.86,0,0,0,131.48,55.79Z"/><path d="M143.44,37.35h5.42V61.83h-5.42Z"/></g><path class="cls-3" d="M51.56,68.54a49.79,49.79,0,0,0-41.69,77l-8,22.56L25,160.45A49.79,49.79,0,1,0,51.56,68.54Z"/><path d="M51.56,169.64A51.18,51.18,0,0,1,24.8,162.1L2.31,169.56a1.5,1.5,0,0,1-1.54-.38,1.48,1.48,0,0,1-.34-1.55l7.78-21.87a51.3,51.3,0,1,1,43.35,23.88ZM25,159a1.44,1.44,0,0,1,.8.24,48.33,48.33,0,1,0-14.67-14.44,1.5,1.5,0,0,1,.15,1.32l-7,19.67L24.52,159A1.61,1.61,0,0,1,25,159Z"/><g class="cls-4"><path d="M15.19,122.73a30.65,30.65,0,0,1-1-4.62,1.12,1.12,0,0,1-.15-.44,62.6,62.6,0,0,0,7.9-17.14l4.17,1q-1.63,4.47-3.43,8.65v25.92h-4V117.52A51.62,51.62,0,0,1,15.19,122.73Zm32.19-7a2.3,2.3,0,0,1-.9-.3c-1.39-.3-2.38-.5-3-.6l2.09-5.36H31.88a54,54,0,0,1-4.17,7.15,29,29,0,0,0-3.13-2.68,40.78,40.78,0,0,0,6.56-13.11l4.17.59c-.6,1.6-1.19,3-1.79,4.33H49.61v3.57Zm-19.07,15c-1-.5-2.24-1.05-3.73-1.64a110.71,110.71,0,0,0,5.22-12.37L33.37,118Q31.59,123.18,28.31,130.78Zm1.93,5.06A38.09,38.09,0,0,0,29.5,132h3.87c1.59.1,2.33-.6,2.24-2.09V112.15h4v18.63q.15,4.91-4.77,4.91c-.4,0-1.14.05-2.23.15Zm16.24-5.21a11.44,11.44,0,0,0-.59-1.64q-2.69-7.16-4.32-10.88l3.72-1.19q2.09,5.22,5.07,12.37Z"/><path d="M66.62,132.56a29.83,29.83,0,0,1-3.88-3.27,37.14,37.14,0,0,1-7.15,6.7c-1-1.19-1.89-2.18-2.68-3a25.88,25.88,0,0,0,7-6.26l-3-2.68-.45,1.49-3.42-1.34Q55,118,56.33,111.85h-3v-3.72h3.73c.4-2.58.74-5.11,1-7.6l4,.3q-.6,3.44-1.35,7.3h7.31v3.43q-.9,9.09-3.28,14.3c1.49,1.19,2.93,2.44,4.32,3.72Zm-2.39-20.71H60.06c-.2.8-.5,2-.89,3.58Q58.42,119,58,120.5c.3.2.7.49,1.2.89a21,21,0,0,0,2.68,2.09A34.16,34.16,0,0,0,64.23,111.85Zm4.32,8.8v-3.88h8.64V112.3l6-6H69.89v-3.72H88.07v4l-6.7,6.85v3.28h7.74v3.88H81.37v10.28c.09,3.17-1.59,4.76-5.07,4.76q-1.93.15-4.92.15a1.07,1.07,0,0,0-.15-.44,20.51,20.51,0,0,0-.59-3.43h4.17c1.69,0,2.48-.75,2.38-2.24v-9.08Z"/></g></g></g></svg>