<svg xmlns="http://www.w3.org/2000/svg" viewBox="0 0 170.07 170.07"><defs><style>.cls-1{fill:none;opacity:0.2;}.cls-2{fill:#ffefc1;}</style></defs><g id="Layer_2" data-name="Layer 2"><g id="Drawings"><rect id="Rectangle_2497" data-name="Rectangle 2497" class="cls-1" x="0.04" y="0.04" width="170" height="170"/><path class="cls-2" d="M85,17.94a1.5,1.5,0,0,1-1.5-1.5V1.5a1.5,1.5,0,0,1,3,0V16.44A1.5,1.5,0,0,1,85,17.94Z"/><path class="cls-2" d="M85,170.07a1.5,1.5,0,0,1-1.5-1.5V153.63a1.5,1.5,0,0,1,3,0v14.94A1.5,1.5,0,0,1,85,170.07Z"/><path class="cls-2" d="M67.28,20.28a1.48,1.48,0,0,1-1.44-1.11L63.78,11.5a1.5,1.5,0,1,1,2.9-.78l2,7.67a1.5,1.5,0,0,1-1.06,1.84A1.31,1.31,0,0,1,67.28,20.28Z"/><path class="cls-2" d="M104.85,160.47a1.5,1.5,0,0,1-1.45-1.12l-2.06-7.67a1.5,1.5,0,0,1,2.9-.78l2.06,7.68a1.52,1.52,0,0,1-1.07,1.84A1.73,1.73,0,0,1,104.85,160.47Z"/><path class="cls-2" d="M36.54,38a1.53,1.53,0,0,1-1.07-.44L29.86,32A1.5,1.5,0,0,1,32,29.86l5.62,5.61A1.51,1.51,0,0,1,36.54,38Z"/><path class="cls-2" d="M139.16,140.66a1.49,1.49,0,0,1-1.06-.44l-5.62-5.62a1.5,1.5,0,0,1,2.12-2.12l5.62,5.62a1.51,1.51,0,0,1,0,2.12A1.53,1.53,0,0,1,139.16,140.66Z"/><path class="cls-2" d="M18.78,68.78a1.31,1.31,0,0,1-.39,0l-7.67-2a1.5,1.5,0,0,1,.78-2.9l7.67,2.06a1.5,1.5,0,0,1-.39,2.94Z"/><path class="cls-2" d="M159,106.35a1.74,1.74,0,0,1-.39,0l-7.68-2.06a1.5,1.5,0,1,1,.78-2.9l7.67,2.06a1.5,1.5,0,0,1-.38,2.95Z"/><path class="cls-2" d="M11.11,106.35a1.5,1.5,0,0,1-1.45-1.12,1.49,1.49,0,0,1,1.06-1.83l7.67-2.06a1.5,1.5,0,1,1,.78,2.9L11.5,106.3A1.74,1.74,0,0,1,11.11,106.35Z"/><path class="cls-2" d="M151.29,68.78a1.5,1.5,0,0,1-.39-2.94l7.68-2.06a1.5,1.5,0,1,1,.77,2.9l-7.67,2A1.31,1.31,0,0,1,151.29,68.78Z"/><path class="cls-2" d="M30.92,140.66a1.5,1.5,0,0,1-1.06-2.56l5.61-5.62a1.5,1.5,0,0,1,2.13,2.12L32,140.22A1.53,1.53,0,0,1,30.92,140.66Z"/><path class="cls-2" d="M133.54,38a1.51,1.51,0,0,1-1.06-2.57l5.62-5.61a1.49,1.49,0,0,1,2.12,0,1.51,1.51,0,0,1,0,2.12L134.6,37.6A1.51,1.51,0,0,1,133.54,38Z"/><path class="cls-2" d="M65.23,160.47a1.74,1.74,0,0,1-.39-.05,1.5,1.5,0,0,1-1.06-1.84l2.06-7.68a1.5,1.5,0,1,1,2.89.78l-2,7.67A1.51,1.51,0,0,1,65.23,160.47Z"/><path class="cls-2" d="M102.79,20.28a1.31,1.31,0,0,1-.39-.05,1.5,1.5,0,0,1-1.06-1.84l2.06-7.67a1.49,1.49,0,0,1,1.83-1.06,1.51,1.51,0,0,1,1.07,1.84l-2.06,7.67A1.5,1.5,0,0,1,102.79,20.28Z"/><path class="cls-2" d="M50.74,27.13a1.48,1.48,0,0,1-1.3-.75L42,13.44a1.5,1.5,0,0,1,2.6-1.5L52,24.88a1.5,1.5,0,0,1-.55,2.05A1.46,1.46,0,0,1,50.74,27.13Z"/><path class="cls-2" d="M126.81,158.88a1.49,1.49,0,0,1-1.3-.75L118,145.19a1.5,1.5,0,0,1,2.6-1.5l7.47,12.94a1.5,1.5,0,0,1-.54,2.05A1.48,1.48,0,0,1,126.81,158.88Z"/><path class="cls-2" d="M25.63,52.24a1.48,1.48,0,0,1-.75-.2L11.94,44.57a1.5,1.5,0,0,1,1.5-2.6l12.94,7.47a1.5,1.5,0,0,1-.75,2.8Z"/><path class="cls-2" d="M157.38,128.31a1.5,1.5,0,0,1-.75-.21l-12.94-7.47a1.5,1.5,0,1,1,1.5-2.6l12.94,7.48a1.5,1.5,0,0,1-.75,2.8Z"/><path class="cls-2" d="M16.44,86.54H1.5a1.5,1.5,0,0,1,0-3H16.44a1.5,1.5,0,0,1,0,3Z"/><path class="cls-2" d="M168.57,86.54H153.63a1.5,1.5,0,0,1,0-3h14.94a1.5,1.5,0,0,1,0,3Z"/><path class="cls-2" d="M12.69,128.31a1.5,1.5,0,0,1-.75-2.8L24.88,118a1.51,1.51,0,0,1,2.05.55,1.49,1.49,0,0,1-.55,2L13.44,128.1A1.44,1.44,0,0,1,12.69,128.31Z"/><path class="cls-2" d="M144.44,52.24a1.5,1.5,0,0,1-.75-2.8L156.63,42a1.5,1.5,0,0,1,1.5,2.6L145.19,52A1.46,1.46,0,0,1,144.44,52.24Z"/><path class="cls-2" d="M43.27,158.88a1.43,1.43,0,0,1-.75-.2,1.5,1.5,0,0,1-.55-2.05l7.47-12.94a1.5,1.5,0,0,1,2.6,1.5l-7.47,12.94A1.5,1.5,0,0,1,43.27,158.88Z"/><path class="cls-2" d="M119.33,27.13a1.48,1.48,0,0,1-.75-.2,1.51,1.51,0,0,1-.55-2.05l7.48-12.94a1.5,1.5,0,1,1,2.59,1.5l-7.47,12.94A1.48,1.48,0,0,1,119.33,27.13Z"/><g id="Group_6148" data-name="Group 6148"><path id="Path_5299" data-name="Path 5299" class="cls-2" d="M125.22,83.54a23.78,23.78,0,0,1-14.38,37.87,14.2,14.2,0,0,1-27.28,3.09,14.21,14.21,0,0,1-27.23-2.7A20.51,20.51,0,0,1,43,86.82,17.53,17.53,0,0,1,47.46,59.9,14.19,14.19,0,0,1,58.26,43a13.91,13.91,0,0,1,2.15-.3,14.19,14.19,0,0,1,18.36-8.13A14.37,14.37,0,0,1,84,38.1a14.2,14.2,0,0,1,24,5.78,12.19,12.19,0,0,1,11.51,12.81A12.31,12.31,0,0,1,118,62.1a12.19,12.19,0,0,1,7.27,21.44Z"/><path d="M70.33,135A15.73,15.73,0,0,1,55.1,123.21,22,22,0,0,1,41,86.75,19,19,0,0,1,43.4,61a18.47,18.47,0,0,1,2.4-1.82A15.69,15.69,0,0,1,57.93,41.52a14.46,14.46,0,0,1,1.44-.25A15.72,15.72,0,0,1,84,36a15.71,15.71,0,0,1,21.09.32,15.73,15.73,0,0,1,4,6.15A13.69,13.69,0,0,1,121,56.77a13.54,13.54,0,0,1-.87,4.11,13.68,13.68,0,0,1,7,22.84,25.29,25.29,0,0,1-15.06,39,15.71,15.71,0,0,1-28.58,5.12A15.77,15.77,0,0,1,70.33,135Zm3.31-99.95a12.74,12.74,0,0,0-11.83,8.13,1.53,1.53,0,0,1-1.31,1,12.69,12.69,0,0,0-11.58,15.4,1.5,1.5,0,0,1-.72,1.63,15.69,15.69,0,0,0-2.8,2,16,16,0,0,0-1.3,22.61A1.49,1.49,0,0,1,44,87.88a19,19,0,0,0,12.38,32.43,1.5,1.5,0,0,1,1.39,1.23,12.77,12.77,0,0,0,7.89,9.62A12.7,12.7,0,0,0,82.16,124,1.5,1.5,0,0,1,85,124a12.71,12.71,0,0,0,24.41-2.76,1.49,1.49,0,0,1,1.2-1.25A22.29,22.29,0,0,0,124,84.45a1.49,1.49,0,0,1,.21-2,10.68,10.68,0,0,0-6.37-18.81,1.49,1.49,0,0,1-1.22-2.24,10.82,10.82,0,0,0,1.4-4.74A10.69,10.69,0,0,0,108,45.38a1.52,1.52,0,0,1-1.37-1.09,12.71,12.71,0,0,0-21.48-5.17A1.47,1.47,0,0,1,84,39.6h0a1.49,1.49,0,0,1-1.1-.48,12.72,12.72,0,0,0-9.28-4Z"/><path d="M83.56,126a1.5,1.5,0,0,1-1.5-1.5V81.75a1.5,1.5,0,0,1,3,0V124.5A1.51,1.51,0,0,1,83.56,126Z"/><path d="M83.56,63.25a1.5,1.5,0,0,1-1.5-1.5V38a1.5,1.5,0,0,1,3,0V61.75A1.51,1.51,0,0,1,83.56,63.25Z"/><path d="M83.56,76.48a1.5,1.5,0,0,1-1.5-1.5V69.23a1.5,1.5,0,0,1,3,0V75A1.5,1.5,0,0,1,83.56,76.48Z"/><path d="M130.15,99.55h0a1.51,1.51,0,0,1-1.5-1.5,22.32,22.32,0,0,0-22.29-22.3,1.5,1.5,0,0,1,0-3h0a25.32,25.32,0,0,1,25.29,25.3A1.5,1.5,0,0,1,130.15,99.55Z"/><path d="M56.1,94.23A19.05,19.05,0,0,1,37,75.17a1.5,1.5,0,0,1,3,0,16.06,16.06,0,0,0,28.38,10.3,1.5,1.5,0,0,1,2.3,1.92A19,19,0,0,1,56.1,94.23Z"/><path d="M119.56,57.55a1.5,1.5,0,0,1-1.5-1.5,10.71,10.71,0,0,0-21.41,0,1.5,1.5,0,0,1-3,0,13.71,13.71,0,0,1,27.41,0A1.5,1.5,0,0,1,119.56,57.55Z"/><path d="M53.5,74.75a1.5,1.5,0,0,1-.3-3A16.12,16.12,0,0,0,66,56.05a1.5,1.5,0,0,1,1.5-1.5h0a1.5,1.5,0,0,1,1.5,1.5A19.14,19.14,0,0,1,53.81,74.72,1.63,1.63,0,0,1,53.5,74.75Z"/><path d="M99.64,112.45a1.5,1.5,0,0,1-1.5-1.5,16.45,16.45,0,0,1,16.44-16.44,1.5,1.5,0,0,1,0,3A13.46,13.46,0,0,0,101.14,111,1.5,1.5,0,0,1,99.64,112.45Z"/><path d="M72.88,116.12a1.51,1.51,0,0,1-1.47-1.2,11.14,11.14,0,0,0-13.16-8.65c-.32.07-.63.15-.94.24a1.49,1.49,0,0,1-1.86-1,1.5,1.5,0,0,1,1-1.87c.39-.11.79-.21,1.19-.3a14.16,14.16,0,0,1,16.71,11,1.49,1.49,0,0,1-1.16,1.77Z"/></g></g></g></svg>