<svg xmlns="http://www.w3.org/2000/svg" viewBox="0 0 170 170"><defs><style>.cls-1{fill:none;opacity:0.2;}.cls-2{fill:#fff;}.cls-3{fill:#ffefc1;}</style></defs><g id="Layer_2" data-name="Layer 2"><g id="Drawings"><rect id="Rectangle_2497" data-name="Rectangle 2497" class="cls-1" width="170" height="170"/><rect class="cls-2" x="32.6" y="41.68" width="104.81" height="93.81" rx="6.53"/><path d="M130.87,137H39.13a8,8,0,0,1-8-8V48.2a8,8,0,0,1,8-8h91.74a8,8,0,0,1,8,8V129A8,8,0,0,1,130.87,137ZM39.13,43.18a5,5,0,0,0-5,5V129a5,5,0,0,0,5,5h91.74a5,5,0,0,0,5-5V48.2a5,5,0,0,0-5-5Z"/><circle class="cls-2" cx="75.43" cy="84.21" r="35.15"/><path d="M75.43,120.86a36.65,36.65,0,1,1,36.65-36.65A36.69,36.69,0,0,1,75.43,120.86Zm0-70.29a33.65,33.65,0,1,0,33.65,33.64A33.68,33.68,0,0,0,75.43,50.57Z"/><path d="M55.59,85.71a1.5,1.5,0,0,1-1.5-1.5A21.36,21.36,0,0,1,75.43,62.87a1.5,1.5,0,0,1,0,3A18.36,18.36,0,0,0,57.09,84.21,1.5,1.5,0,0,1,55.59,85.71Z"/><path d="M48.29,85.71a1.5,1.5,0,0,1-1.5-1.5A28.68,28.68,0,0,1,75.43,55.57a1.5,1.5,0,0,1,0,3A25.67,25.67,0,0,0,49.79,84.21,1.5,1.5,0,0,1,48.29,85.71Z"/><circle class="cls-2" cx="75.43" cy="84.21" r="13.01"/><path d="M75.43,98.73A14.52,14.52,0,1,1,90,84.21,14.53,14.53,0,0,1,75.43,98.73Zm0-26A11.52,11.52,0,1,0,87,84.21,11.53,11.53,0,0,0,75.43,72.7Z"/><circle class="cls-2" cx="75.43" cy="84.21" r="5.14"/><path d="M75.43,90.85a6.64,6.64,0,1,1,6.64-6.64A6.64,6.64,0,0,1,75.43,90.85Zm0-10.27a3.64,3.64,0,1,0,3.64,3.63A3.64,3.64,0,0,0,75.43,80.58Z"/><circle class="cls-2" cx="43.67" cy="124.59" r="3.39"/><path d="M43.67,129.48a4.89,4.89,0,1,1,4.89-4.89A4.89,4.89,0,0,1,43.67,129.48Zm0-6.78a1.89,1.89,0,1,0,1.89,1.89A1.89,1.89,0,0,0,43.67,122.7Z"/><circle class="cls-2" cx="55.67" cy="124.59" r="3.39"/><path d="M55.67,129.48a4.89,4.89,0,1,1,4.89-4.89A4.89,4.89,0,0,1,55.67,129.48Zm0-6.78a1.89,1.89,0,1,0,1.89,1.89A1.89,1.89,0,0,0,55.67,122.7Z"/><polyline class="cls-2" points="122.67 54.95 122.67 87.31 108.36 101.62"/><path d="M109.42,102.68l-2.12-2.12,13.87-13.87V55h3V87.31a1.5,1.5,0,0,1-.44,1.06Z"/><circle class="cls-2" cx="122.67" cy="54.95" r="4.42"/><path d="M122.67,60.86A5.92,5.92,0,1,1,128.58,55,5.92,5.92,0,0,1,122.67,60.86Zm0-8.83A2.92,2.92,0,1,0,125.58,55,2.92,2.92,0,0,0,122.67,52Z"/><rect class="cls-2" x="96.42" y="101.9" width="16.39" height="6.89" transform="translate(253.08 105.85) rotate(135)"/><path d="M101.26,115.07a1.49,1.49,0,0,1-1.06-.44l-4.87-4.87a1.5,1.5,0,0,1,0-2.12l11.59-11.59a1.49,1.49,0,0,1,2.12,0l4.87,4.87a1.5,1.5,0,0,1,0,2.12l-11.59,11.59A1.51,1.51,0,0,1,101.26,115.07Zm-2.75-6.37,2.75,2.75,9.47-9.47L108,99.23Z"/><path d="M124.46,128.81a1.5,1.5,0,0,1-1.5-1.5V104.19a1.5,1.5,0,0,1,3,0v23.12A1.5,1.5,0,0,1,124.46,128.81Z"/><rect class="cls-2" x="120.05" y="112.31" width="8.83" height="6.89"/><path d="M128.88,120.69h-8.83a1.5,1.5,0,0,1-1.5-1.5v-6.88a1.5,1.5,0,0,1,1.5-1.5h8.83a1.5,1.5,0,0,1,1.5,1.5v6.88A1.5,1.5,0,0,1,128.88,120.69Zm-7.33-3h5.83v-3.88h-5.83Z"/><path class="cls-3" d="M113.6,21.87s0-.08,0-.13V2A2,2,0,0,0,111,.11l-17.45,6A2,2,0,0,0,92.18,8V22.59a4.85,4.85,0,0,0-1.09-.13,5.08,5.08,0,1,0,5,5.74,1.91,1.91,0,0,0,.06-.48v-.14s0,0,0,0,0,0,0,0V9.39l13.47-4.62V17.26a5.31,5.31,0,0,0-1.07-.12,5.08,5.08,0,1,0,5.07,5.07C113.63,22.1,113.61,22,113.6,21.87Z"/><path class="cls-3" d="M44.63,27a.28.28,0,0,0,0-.09V12.45a1.45,1.45,0,0,0-1.92-1.38L30,15.44a1.46,1.46,0,0,0-1,1.38V27.49a4.07,4.07,0,0,0-.79-.09,3.71,3.71,0,1,0,3.65,4.19,1.34,1.34,0,0,0,0-.35V17.85l9.84-3.37V23.6a4.05,4.05,0,0,0-.78-.09,3.71,3.71,0,1,0,3.7,3.71A1.9,1.9,0,0,0,44.63,27Z"/><path class="cls-3" d="M158,153s0-.07,0-.1V138a1.5,1.5,0,0,0-2-1.42l-13.19,4.52a1.51,1.51,0,0,0-1,1.42v11.05a3.68,3.68,0,0,0-.82-.09,3.83,3.83,0,1,0,3.78,4.33,1.49,1.49,0,0,0,.05-.36V143.55L155,140.06v9.43a4.27,4.27,0,0,0-.81-.09,3.84,3.84,0,1,0,3.83,3.84C158.06,153.15,158,153.06,158,153Z"/><path class="cls-3" d="M28.79,153.46V139.32A1.41,1.41,0,0,0,26.92,138l-12.41,4.25a1.42,1.42,0,0,0-.95,1.34V154a3.33,3.33,0,0,0-.78-.09A3.61,3.61,0,1,0,16.34,158a1.14,1.14,0,0,0,.05-.33v-13L26,141.3v8.88a3.86,3.86,0,0,0-.77-.09,3.61,3.61,0,1,0,3.61,3.61C28.81,153.62,28.79,153.54,28.79,153.46Z"/><path class="cls-3" d="M169.58,102.22s0-.06,0-.09V87.88a1.43,1.43,0,0,0-1.9-1.36l-12.58,4.32a1.43,1.43,0,0,0-1,1.35v10.55a3.48,3.48,0,0,0-.79-.09,3.66,3.66,0,1,0,3.61,4.13,1.27,1.27,0,0,0,0-.34V93.22l9.71-3.33v9a3.94,3.94,0,0,0-.77-.08,3.66,3.66,0,1,0,3.66,3.66A1.9,1.9,0,0,0,169.58,102.22Z"/><path class="cls-3" d="M23.12,83.05s0-.06,0-.1V66.39a1.67,1.67,0,0,0-2.21-1.58l-14.63,5A1.66,1.66,0,0,0,5.17,71.4V83.66a4,4,0,0,0-.92-.11,4.26,4.26,0,1,0,4.2,4.81A1.75,1.75,0,0,0,8.5,88V72.59l11.29-3.87V79.19a4.41,4.41,0,0,0-.89-.1,4.26,4.26,0,1,0,4.25,4.25C23.15,83.24,23.12,83.15,23.12,83.05Z"/><path class="cls-3" d="M159.82,31.15s0-.06,0-.09V16.53a1.47,1.47,0,0,0-.61-1.19,1.44,1.44,0,0,0-1.33-.19l-12.83,4.39a1.48,1.48,0,0,0-1,1.39V31.68a3.5,3.5,0,0,0-.8-.09A3.73,3.73,0,1,0,147,35.8a1.27,1.27,0,0,0,.05-.34V22l9.91-3.39v9.18a4.16,4.16,0,0,0-.79-.09,3.73,3.73,0,1,0,3.73,3.73A2.13,2.13,0,0,0,159.82,31.15Z"/><path class="cls-3" d="M100.84,160.14a.5.5,0,0,0,0-.12V141.88a1.83,1.83,0,0,0-2.42-1.72l-16,5.49a1.83,1.83,0,0,0-1.23,1.73V160.8a4.71,4.71,0,0,0-1-.11A4.66,4.66,0,1,0,84.77,166a1.54,1.54,0,0,0,.06-.43v-.14s0,0,0,0V148.68l12.37-4.24v11.47a4.46,4.46,0,0,0-1-.11,4.66,4.66,0,1,0,4.66,4.66C100.88,160.35,100.85,160.25,100.84,160.14Z"/></g></g></svg>