<svg xmlns="http://www.w3.org/2000/svg" viewBox="0 0 170.21 170.02"><defs><style>.cls-1{fill:none;opacity:0.2;}.cls-2{fill:#ffefc1;}.cls-3{fill:#fff;}</style></defs><g id="Layer_2" data-name="Layer 2"><g id="Drawings"><rect id="Rectangle_2497" data-name="Rectangle 2497" class="cls-1" x="0.21" width="170" height="170"/><g id="ukuOiH.tif"><path class="cls-2" d="M75.61,159.52c.16-1.72.29-3.44.49-5.15a1.56,1.56,0,0,1,1.4-1.57c.84-.07,1.35.53,1.64,1.3.67,1.76,1.2,3.59,1.9,5.34A9.67,9.67,0,0,0,82.53,162a3.33,3.33,0,0,0,5.57-.88,8.24,8.24,0,0,0,.4-3.71c-.2-2.07-.76-4.09-1-6.15a24.11,24.11,0,0,1-.15-4.25c0-.49.54-.95.83-1.43.41.41,1,.74,1.18,1.25.76,1.63,1.3,3.39,2.11,5,1.52,3,3.82,4.58,6.91,4.57a3.09,3.09,0,0,0,2.85-1.83,3.44,3.44,0,0,0-.27-3.58c-.88-1.45-1.91-2.8-2.72-4.29a35.82,35.82,0,0,1-2.28-5,7.18,7.18,0,0,1-.22-3,1.53,1.53,0,0,1,2.63-1.1,25.5,25.5,0,0,1,3.21,4.68c2.88,5.41,4.82,11.33,6.94,17.16,1.53,4.22,3.88,7.54,7.63,9.5,4.64,2.42,10.79-.91,12-6.59,1-4.54-.66-8.19-2.81-11.72s-5.39-5.74-8.37-8.24a22.79,22.79,0,0,1-5.36-6c-1-1.74-1.07-3.37-.18-4.6a2.9,2.9,0,0,1,3.77-.35c2.86,1.76,5.67,3.64,8.48,5.51a5.71,5.71,0,0,0,4.6.92c2.87-.68,4-3.34,2.94-6.55a13.3,13.3,0,0,1-.56-2.44c-.15-1,.65-1.76,1.59-1.33a11.91,11.91,0,0,1,2.54,1.63,10,10,0,0,0,5.85,2.32c4.08.17,6.49-3.42,6.16-8.07-.22-3-1.81-5.16-3.37-7.36a18.9,18.9,0,0,0-5.77-5.1,13.74,13.74,0,0,1-4.42-4.15c-.88-1.34-.42-2.78,1-2.74a10.27,10.27,0,0,1,3.58,1c1.52.65,2.95,1.18,4.62.59,3.59-1.28,4-4.7,1.92-7.55a9.26,9.26,0,0,0-4.12-2.81,11.12,11.12,0,0,1-4.67-3.46c-1.58-2.17-.94-4.69,1.47-5.15a4.57,4.57,0,0,1,3.14,1.17,32.25,32.25,0,0,1,4,3.87,91.33,91.33,0,0,0,13.56,12.86,11.71,11.71,0,0,0,5.93,2.45c4.5.35,7.06-4,6.19-8.3-1.41-7.06-5.78-11-11.46-13.57-3.9-1.72-8-2.3-12.06-2.82a12.76,12.76,0,0,1-7.5-3.4c-1.45-1.4-1.29-2.35.54-3a28.34,28.34,0,0,1,2.75-.69c2.45-.59,3.45-1.95,3.61-4.84a10.65,10.65,0,0,0,.06-2c-.32-2.54-2.09-3.12-3.88-3.51a15.59,15.59,0,0,1-7.25-3.24c-1.75-1.51-1.7-3.11,0-4.71a24.23,24.23,0,0,1,6.3-4.24,7.76,7.76,0,0,0,4.34-6.57c.63-6-2.63-10.2-7-11.17a5.3,5.3,0,0,0-4.9,1.65,47.61,47.61,0,0,0-3.87,4.68c-1.22,1.56-2.36,3.22-4.23,3.78a5.63,5.63,0,0,1-5.81-1.73,2.47,2.47,0,0,1,.06-3.17c.88-1.3,1.91-2.48,2.82-3.77a13.34,13.34,0,0,0,2.83-5.75c.37-2.4-.55-5.09-2.52-5.95-2.12-.93-4.13-.14-5.36,2.26-1,1.88-1.89,3.81-2.84,5.72a4.08,4.08,0,0,1-.49.87c-.5.57-.87,1.52-1.81,1.06a2.59,2.59,0,0,1-1.29-2.93,15.67,15.67,0,0,1,1.86-3.62c1.86-2.59,4-4.91,5.74-7.6a11.15,11.15,0,0,0,.93-10.92,4.8,4.8,0,0,0-5.48-3.14c-1.83.33-3.5,2.28-3.93,4.74-.73,4.08-1.44,8.18-2.08,12.28-.49,3.12-2.32,5.31-5,5.82a5.77,5.77,0,0,1-1.88.2c-1.63-.26-2.24-1.66-2.51-3.32-.43-2.63.24-5.16.5-7.73a17.18,17.18,0,0,0,0-5c-.62-3.23-4.7-4.44-6.71-1.86A16.25,16.25,0,0,1,90,13.79c-.64.57-1.27.42-1.75-.32a13.48,13.48,0,0,1-1.16-1.89c-.89-1.95-2.35-2.44-3.55-2.21-1.54.28-2.53,1.55-3,3.5a15.77,15.77,0,0,1-.84,2.6c-.34.86-1,1-1.58.4a14.15,14.15,0,0,1-1.85-2.07c-1-1.36-3.58-2.2-4.89-1.36a4.7,4.7,0,0,0-1.94,3c-.49,1.88-.66,3.87-1.16,5.74a21.65,21.65,0,0,1-1.81,5c-1.06,1.93-2.82,2-4.93.54a13.05,13.05,0,0,1-5-7.36c-.69-2.4-1-5-1.52-7.42-.7-3.45-1.3-7-3.52-9.69C48.39-1.74,43.4,0,42.29,4.84c-1.17,5.11-.53,10,3.31,13.71a26.93,26.93,0,0,1,5.93,7.93,8.21,8.21,0,0,1,.85,5.66c-.5,1.94-2.85,3.45-4.6,3-2.58-.67-4.27-2.66-5.78-4.91-.86-1.26-1.49-2.72-2.27-4.05-1.22-2-3.17-2.67-4.74-1.61S33,28,34,30.06a49.63,49.63,0,0,0,2.89,4.53c.62.95,1.28,1.88,1.85,2.87a3.26,3.26,0,0,1,0,3.34,2,2,0,0,1-3,.44A25.13,25.13,0,0,1,31.74,37a53.82,53.82,0,0,0-7.18-8.66c-2.7-2.42-5.68-3.71-9.11-3.05A8.28,8.28,0,0,0,8.75,34a10.34,10.34,0,0,0,3.85,6.91c2.27,2,5,2.91,7.67,4a30.1,30.1,0,0,1,5.81,2.85,9.18,9.18,0,0,1,2.59,3.56c.72,1.5,0,2.54-1.47,2.64A10.38,10.38,0,0,1,21,52a39.07,39.07,0,0,0-4.59-2.85c-2.73-1.22-5.14-.73-6.34,2.67a4.65,4.65,0,0,0,1.41,5.51c1.45,1.38,3.23,1.62,5,2a30.89,30.89,0,0,1,3.57.85c.83.28,1.74.76,1.78,2a2.47,2.47,0,0,1-1.5,2.39,7.64,7.64,0,0,1-2.53.73,15.73,15.73,0,0,1-8.62-1.59,4.23,4.23,0,0,0-2.63-.54c-2.14.5-3,3.27-1.77,5.52.85,1.52,1.91,2.87,2.88,4.3,1.2,1.77,1,2.53-.76,3.55A16.69,16.69,0,0,0,4.39,78a2.41,2.41,0,0,0-.77,2.45c.31,1.82.45,3.69,1.59,5.17a2.49,2.49,0,0,0,.32.44c2,1.61,1.91,3.63-.31,6A17.13,17.13,0,0,1,2.08,94.6a4.24,4.24,0,0,0-2,4.62,19.89,19.89,0,0,0,1.25,4.22A4.36,4.36,0,0,0,5.08,106a8.12,8.12,0,0,0,6.73-2.15c1.92-1.63,3.78-3.34,5.78-4.81a7.57,7.57,0,0,1,3.35-1.38,3.53,3.53,0,0,1,3.81,2.42,5.1,5.1,0,0,1-.64,5.1c-1.29,1.86-3.16,2.61-4.92,3.66a18.79,18.79,0,0,0-4.51,3.56c-3.56,4-2,9.63,1.1,12.46,2.27,2,5.36,1.51,7.19-1.07,2-2.87,4.11-5.69,6.19-8.51a5.45,5.45,0,0,1,1.09-1c1.7-1.31,2.8-1,4,.93a8.64,8.64,0,0,1,.2,9.14,32.26,32.26,0,0,1-4.21,5.84,15.13,15.13,0,0,0-3.41,7.67,17.87,17.87,0,0,0,1.07,9.38,8.12,8.12,0,0,0,5.7,5.16c5.87,1.78,10.35-2.54,12.29-7.88a41.61,41.61,0,0,0,1.55-6.92c.47-2.72.66-5.51,1.85-8,.8-1.68,1.76-2.35,2.94-2.08a4.12,4.12,0,0,1,3,3.53,11.89,11.89,0,0,1-2.08,7.43A25.1,25.1,0,0,0,50,145.81,7.79,7.79,0,0,0,52.49,153a8.09,8.09,0,0,0,4.57,2c3.54.24,6.21-2.28,5.92-7a53.3,53.3,0,0,1-.39-5.32,14.12,14.12,0,0,1,.93-4.21c.67-1.77,2.24-1.84,3-.12A20.38,20.38,0,0,1,68,143.56a22.69,22.69,0,0,1-1.15,9.8c-1.15,3.72-2.19,7.5-1.91,11.55A5.24,5.24,0,0,0,69.28,170c3.68.44,6.08-2.1,6.41-6.58.1-1.27,0-2.56,0-3.85Z"/><path class="cls-2" d="M129.43,141.83a9.33,9.33,0,0,0,4.28,7.86c1.42,1,2.86,1.55,4.48.67a4,4,0,0,0,1.84-3.68c-.16-4.5-3.95-7.94-6.83-8.45A3.34,3.34,0,0,0,129.43,141.83Z"/><path class="cls-2" d="M13.26,130.63c.32-3.52-2.72-4.1-4.95-2.66a23.28,23.28,0,0,0-4,3.49c-1.7,1.77-1,5.75.12,7s2.76,1.2,4.52.2c1.56-.88,2.42-2.52,3.2-4.17.56-1.19.91-2.5,1.36-3.76Z"/><path class="cls-2" d="M55.3,162.63c-.23-1-.52-2.12-.73-3.24-.39-2.11-4.37-3.21-5.63-1.86a7.8,7.8,0,0,0,.17,9.78,3.48,3.48,0,0,0,3.52,1.24c1.33-.35,1.9-1.71,2.18-3.17C55,164.52,55.12,163.66,55.3,162.63Z"/><path class="cls-2" d="M34.2,20.17c-.34-1.76-.7-3.93-2.36-5.39a1.93,1.93,0,0,0-2.44-.38A2.65,2.65,0,0,0,28,17c.21,2.48,1,4.62,3.14,5.77C32.84,23.7,34.22,22.71,34.2,20.17Z"/><path class="cls-2" d="M70.11,4.29c0,1.73.49,2.49,1.43,2.61S73.1,6.57,73.35,5a6.13,6.13,0,0,0,.1-1.6c-.08-.73-.06-1.62-1-1.75a1.72,1.72,0,0,0-2,1.18A7.34,7.34,0,0,0,70.11,4.29Z"/></g><path class="cls-3" d="M44,65.08C44,53.78,56.35,41.34,77,41.34s46.55,15.37,46.55,48.33S94,133.5,78.74,133.5,43.8,123.67,43.8,111.11s14-13.49,14-22.8S44,77.74,44,65.08Z"/><path d="M78.74,135c-16.51,0-36.44-10.66-36.44-23.89,0-7.44,4.42-11.15,8.33-14.42,3-2.56,5.69-4.78,5.69-8.38s-2.6-5.9-5.61-8.54c-3.84-3.37-8.2-7.19-8.2-14.69,0-6.25,3.39-12.55,9.31-17.28,6.43-5.14,15.36-8,25.14-8,23.3,0,48.05,17.46,48.05,49.83C125,123.92,93.84,135,78.74,135ZM77,42.84c-19.43,0-31.45,11.54-31.45,22.24,0,6.14,3.49,9.2,7.18,12.44,3.26,2.86,6.63,5.81,6.63,10.79S55.88,96.2,52.55,99c-3.73,3.13-7.25,6.09-7.25,12.13C45.3,122.36,63.69,132,78.74,132,92.86,132,122,121.65,122,89.67,122,55.55,94.38,42.84,77,42.84Z"/><circle class="cls-3" cx="83.32" cy="59.03" r="6.12"/><path d="M83.32,66.65A7.62,7.62,0,1,1,90.94,59,7.63,7.63,0,0,1,83.32,66.65Zm0-12.24A4.62,4.62,0,1,0,87.94,59,4.62,4.62,0,0,0,83.32,54.41Z"/><circle class="cls-3" cx="63.26" cy="64.74" r="6.12"/><path d="M63.26,72.36a7.62,7.62,0,1,1,7.62-7.62A7.63,7.63,0,0,1,63.26,72.36Zm0-12.24a4.62,4.62,0,1,0,4.62,4.62A4.63,4.63,0,0,0,63.26,60.12Z"/><circle class="cls-3" cx="102.19" cy="70.07" r="6.12"/><path d="M102.19,77.69a7.62,7.62,0,1,1,7.62-7.62A7.62,7.62,0,0,1,102.19,77.69Zm0-12.24a4.62,4.62,0,1,0,4.62,4.62A4.62,4.62,0,0,0,102.19,65.45Z"/><circle class="cls-2" cx="82.14" cy="115.69" r="6.12"/><path d="M82.14,123.31a7.62,7.62,0,1,1,7.62-7.62A7.62,7.62,0,0,1,82.14,123.31Zm0-12.24a4.62,4.62,0,1,0,4.62,4.62A4.62,4.62,0,0,0,82.14,111.07Z"/><circle class="cls-3" cx="61.89" cy="111.1" r="6.12"/><path d="M61.89,118.72a7.62,7.62,0,1,1,7.62-7.62A7.62,7.62,0,0,1,61.89,118.72Zm0-12.24a4.62,4.62,0,1,0,4.62,4.62A4.62,4.62,0,0,0,61.89,106.48Z"/><path class="cls-2" d="M106.39,109.19c6.13-6.13,4.63-10.84.8-14.67s-8.54-5.33-14.67.8-1.87,13.06-8.86,20.05C86.15,117.86,100.26,115.32,106.39,109.19Z"/><path d="M87.56,117.86c-2.19,0-4-.44-5-1.43a1.49,1.49,0,0,1,0-2.12c3.27-3.28,3.81-6.48,4.39-9.87s1.17-6.88,4.47-10.18c5.84-5.84,11.49-6.11,16.79-.8s5,11-.8,16.79h0C103.39,114.31,93.81,117.86,87.56,117.86Zm-1.39-3.07c4,.45,14.24-1.74,19.16-6.66,3.3-3.3,6-7.37.8-12.55s-9.25-2.5-12.55.8C91,99,90.49,101.75,90,104.94S88.85,111.38,86.17,114.79Z"/><path class="cls-3" d="M111.62,99l-8.86-8.86S156,40,158.83,42.88,111.62,99,111.62,99Z"/><path d="M111.62,100.45a1.52,1.52,0,0,1-1.06-.44l-8.86-8.86a1.49,1.49,0,0,1-.44-1.09,1.55,1.55,0,0,1,.47-1.07c.13-.12,13.48-12.66,27-24.69C157.11,39,158.52,40.46,159.89,41.82s2.86,2.87-22.43,31.21c-12.05,13.51-24.62,26.82-24.75,27a1.47,1.47,0,0,1-1.07.47Zm-6.71-10.33,6.68,6.68c19.67-20.86,40.31-44.09,44.92-51.56C149.06,49.92,125.81,70.51,104.91,90.12Z"/><path d="M115,95.44A1.51,1.51,0,0,1,114,95l-7.9-7.9a1.51,1.51,0,0,1,0-2.12,1.49,1.49,0,0,1,2.12,0l7.9,7.9A1.5,1.5,0,0,1,115,95.44Z"/></g></g></svg>