<svg xmlns="http://www.w3.org/2000/svg" viewBox="0 0 170 170"><defs><style>.cls-1{fill:none;opacity:0.2;}.cls-2{fill:#fff;}.cls-3{fill:#ffefc1;}</style></defs><g id="Layer_2" data-name="Layer 2"><g id="Drawings"><rect id="Rectangle_2497" data-name="Rectangle 2497" class="cls-1" width="170" height="170"/><path class="cls-2" d="M168.37,134.07c-8.18.06-14.6,3.64-18.71,5.93a144.61,144.61,0,0,0-15.91,10.65c-12.25,9.06-21.1,15.61-41.73,11.44-7.75-1.57-12.94-5-15.43-10.12-4.43-9.18.89-21.19.94-21.31a2.52,2.52,0,0,0-1.09-3.35,2.43,2.43,0,0,0-3.29,1.08c-.06.14-6.56,14-1,25.67,3.17,6.68,9.54,11,18.93,12.93,22.75,4.61,33.33-3.23,45.58-12.3A138.86,138.86,0,0,1,152,144.39c3.83-2.14,9.35-5.22,16.34-5.27Z"/><path d="M103.67,169.86a65,65,0,0,1-12.91-1.4c-9.87-2-16.6-6.62-20-13.75-5.82-12.24,1-26.85,1-27A3.94,3.94,0,0,1,77.13,126a4,4,0,0,1,1.75,5.35c0,.09-5,11.56-.94,20,2.27,4.7,7.11,7.83,14.38,9.3,20,4,28.15-2,40.53-11.17a146.26,146.26,0,0,1,16.08-10.76c4.06-2.26,10.86-6.06,19.43-6.12h0a1.52,1.52,0,0,1,1.06.43,1.54,1.54,0,0,1,.44,1.07v5.05a1.5,1.5,0,0,1-1.49,1.5c-6.61,0-11.82,2.95-15.62,5.08a137.88,137.88,0,0,0-15.23,10.2C127.56,163.28,118.66,169.86,103.67,169.86ZM75.33,128.54a.86.86,0,0,0-.28,0,1,1,0,0,0-.56.49c0,.11-6.23,13.37-1,24.35,3,6.23,9,10.3,17.88,12.1,22.09,4.47,32.42-3.18,44.39-12a138.47,138.47,0,0,1,15.55-10.41c3.59-2,8.9-5,15.57-5.4v-2.06c-7.09.45-12.69,3.58-16.48,5.69a146.08,146.08,0,0,0-15.75,10.54c-12.56,9.3-21.63,16-42.92,11.71-8.23-1.67-13.78-5.35-16.48-10.94-4.74-9.82.89-22.5,1-22.62a1,1,0,0,0-.43-1.36A.94.94,0,0,0,75.33,128.54Z"/><path class="cls-3" d="M64.93,56.58,49.87,62.06l-.47,8.28L42.19,73l3.09-37.8L51,33.08l26.67,27-7.08,2.57ZM60.62,52,51,41.77l-.77,14Z"/><path class="cls-3" d="M156.25,34.83a8.66,8.66,0,0,1-.85,5.53,8.31,8.31,0,0,1-5.87,4.82c-2.66.61-5.68.09-9.05-1.53l-14.75-7.1,14.93-31L155,12.39q4.85,2.32,6.64,5.86a7.77,7.77,0,0,1,0,7.26,7.88,7.88,0,0,1-3.34,3.63,8.25,8.25,0,0,1-4.87.94A8.69,8.69,0,0,1,156.25,34.83Zm-15-13.47,6.47,3.12a7.44,7.44,0,0,0,4.33,1,3.49,3.49,0,0,0,2.58-2.15,3.61,3.61,0,0,0,.11-3.44,7.41,7.41,0,0,0-3.46-2.78L144.84,14ZM146.62,39a3.9,3.9,0,0,0,2.67-2.4,4,4,0,0,0,.23-3.63A7.14,7.14,0,0,0,146,30.1l-7.27-3.5-3.81,7.93,7.27,3.5A7.46,7.46,0,0,0,146.62,39Z"/><path class="cls-3" d="M134.91,127.65a14.87,14.87,0,0,1-7.34-4.5,21.82,21.82,0,0,1-4.71-18,14.64,14.64,0,0,1,4.2-7.49,18.42,18.42,0,0,1,8.26-4.42,20.36,20.36,0,0,1,6.6-.64,14,14,0,0,1,5.71,1.51l-1,5.87a16.31,16.31,0,0,0-5-1.28,13.85,13.85,0,0,0-4.66.41,8.7,8.7,0,0,0-6.09,4.63q-1.65,3.47-.21,9t4.58,7.72a8.67,8.67,0,0,0,7.58,1.06,13.73,13.73,0,0,0,4.27-1.92,16.35,16.35,0,0,0,3.69-3.55l3.74,4.63a13.88,13.88,0,0,1-4.23,4.11,20.3,20.3,0,0,1-6.06,2.68A18.28,18.28,0,0,1,134.91,127.65Z"/><path class="cls-2" d="M101.67,111.38l-4.27-4.9a53.83,53.83,0,1,0-70.59,0l-4.26,4.9a60.33,60.33,0,1,1,79.12,0Z"/><path d="M101.67,112.88a1.51,1.51,0,0,1-1.14-.51l-4.26-4.91a1.49,1.49,0,0,1-.36-1.09,1.46,1.46,0,0,1,.51-1,52.33,52.33,0,1,0-68.62,0,1.5,1.5,0,0,1,.15,2.11l-4.27,4.91a1.49,1.49,0,0,1-2.11.14,61.83,61.83,0,1,1,81.08,0A1.46,1.46,0,0,1,101.67,112.88Zm-2.16-6.27,2.29,2.64a58.83,58.83,0,1,0-79.39,0l2.3-2.64a55.33,55.33,0,1,1,74.8,0Z"/><path class="cls-3" d="M25.9,28.93a7.22,7.22,0,0,1-4.59-12.8,64.31,64.31,0,0,1,81.6,0,7.22,7.22,0,0,1-9.17,11.16,49.85,49.85,0,0,0-63.26,0A7.17,7.17,0,0,1,25.9,28.93Z"/><path d="M98.31,30.43a8.67,8.67,0,0,1-5.52-2,48.35,48.35,0,0,0-61.36,0A8.72,8.72,0,0,1,20.35,15a65.82,65.82,0,0,1,83.51,0,8.72,8.72,0,0,1-4.68,15.42A8.44,8.44,0,0,1,98.31,30.43Zm-36.2-16A51.41,51.41,0,0,1,94.69,26.13a5.7,5.7,0,0,0,8-.79A5.62,5.62,0,0,0,104,21.16,5.68,5.68,0,0,0,102,17.29a62.81,62.81,0,0,0-79.7,0,5.72,5.72,0,1,0,7.26,8.84A51.44,51.44,0,0,1,62.11,14.47Z"/><rect class="cls-3" x="35.6" y="81.28" width="10.85" height="48.41" rx="3.46" transform="translate(-33.6 20.39) rotate(-20)"/><path d="M46.27,130.61a5,5,0,0,1-4.66-3.26l-14.19-39a5,5,0,0,1,3-6.35l3.69-1.35a5,5,0,0,1,6.36,3l14.19,39a5,5,0,0,1-3,6.36L48,130.31A5,5,0,0,1,46.27,130.61ZM35.78,83.35a1.93,1.93,0,0,0-.67.12l-3.7,1.35a2,2,0,0,0-1.17,2.51l14.19,39a2,2,0,0,0,1,1.11,1.93,1.93,0,0,0,1.49.06l3.7-1.34h0a2,2,0,0,0,1.11-1,1.93,1.93,0,0,0,.06-1.49l-14.19-39A2,2,0,0,0,35.78,83.35Z"/><path class="cls-2" d="M29.4,89.39a21.58,21.58,0,0,0,13.06,35.9Z"/><path d="M42.46,126.79l-.2,0a23.08,23.08,0,0,1-14-38.39,1.51,1.51,0,0,1,2.53.5l13.06,35.89a1.51,1.51,0,0,1-.24,1.46A1.53,1.53,0,0,1,42.46,126.79ZM28.9,92.41a20.07,20.07,0,0,0,11.24,30.88Z"/><path class="cls-2" d="M25.09,111.28a21.3,21.3,0,0,1-1.3-7.6l-.12,0A7.59,7.59,0,1,0,28.87,118l.11,0A21.31,21.31,0,0,1,25.09,111.28Z"/><path d="M26.28,120a9.09,9.09,0,0,1-3.12-17.64l.16-.06a1.49,1.49,0,0,1,2,1.45,20,20,0,0,0,1.2,7.07h0a20,20,0,0,0,3.63,6.2,1.51,1.51,0,0,1,.31,1.34,1.5,1.5,0,0,1-.91,1l-.14.06A9.09,9.09,0,0,1,26.28,120Zm-3.89-13.81a6.24,6.24,0,0,0-1.65,2.14,6,6,0,0,0-.2,4.66,6.1,6.1,0,0,0,5.78,4,23.28,23.28,0,0,1-3.93-10.81Z"/><rect class="cls-3" x="78.66" y="81.28" width="10.85" height="48.41" rx="3.46" transform="translate(127.02 233.36) rotate(-160)"/><path d="M78.83,130.61a5,5,0,0,1-1.69-.3L73.44,129h0a5,5,0,0,1-3-6.36l14.19-39a4.9,4.9,0,0,1,2.56-2.8,5,5,0,0,1,3.8-.17L94.72,82a5,5,0,0,1,3,6.35l-14.2,39A5,5,0,0,1,78.83,130.61Zm-4.36-4.46,3.69,1.34a2,2,0,0,0,2.52-1.17l14.19-39a2,2,0,0,0-1.17-2.51L90,83.47a2,2,0,0,0-2.51,1.17l-14.19,39a2,2,0,0,0,1.17,2.51Z"/><path class="cls-2" d="M95.71,89.39a21.58,21.58,0,0,1-13.06,35.9Z"/><path d="M82.65,126.79a1.53,1.53,0,0,1-1.17-.56,1.51,1.51,0,0,1-.24-1.46L94.3,88.88a1.5,1.5,0,0,1,2.52-.5,23.08,23.08,0,0,1-14,38.39ZM96.21,92.41,85,123.29A20.08,20.08,0,0,0,96.21,92.41Z"/><path class="cls-2" d="M100,111.28a21.3,21.3,0,0,0,1.3-7.6l.12,0A7.59,7.59,0,1,1,96.24,118l-.11,0A21.31,21.31,0,0,0,100,111.28Z"/><path d="M98.83,120a9.09,9.09,0,0,1-3.1-.55l-.16-.06a1.5,1.5,0,0,1-.9-1A1.49,1.49,0,0,1,95,117a19.73,19.73,0,0,0,3.62-6.2h0a19.81,19.81,0,0,0,1.21-7.07,1.53,1.53,0,0,1,.63-1.24,1.5,1.5,0,0,1,1.36-.2l.14,0A9.09,9.09,0,0,1,98.83,120Zm0-3a6.2,6.2,0,0,0,5.79-4,6.1,6.1,0,0,0-1.85-6.79,23,23,0,0,1-1.29,5.65h0A22.68,22.68,0,0,1,98.78,117Z"/></g></g></svg>