<svg xmlns="http://www.w3.org/2000/svg" viewBox="0 0 170 170.05"><defs><style>.cls-1{fill:none;opacity:0.2;}.cls-2{fill:#fff;}.cls-3{fill:#ffefc1;}</style></defs><g id="Layer_2" data-name="Layer 2"><g id="Drawings"><rect id="Rectangle_2497" data-name="Rectangle 2497" class="cls-1" width="170" height="170"/><circle class="cls-2" cx="24.15" cy="66.3" r="17.12"/><path class="cls-3" d="M72.08,170.05H.28l35.9-62.44Z"/><path class="cls-3" d="M169.85,170.05H95.41l37.22-64.73Z"/><path class="cls-3" d="M131.54,170.05H34.7L83.12,85.84Z"/><path class="cls-2" d="M40.06,120.19l-3.14,2-3.14-2.81-5.48,2,7.88-13.71,7.59,13.19Z"/><path class="cls-2" d="M142.11,129.76l-4.4-3.79-5.08,4-6.87-4.46-6.08,2.37,12.95-22.52,13,22.62Z"/><path class="cls-2" d="M96.56,118l-4.48,4.13-9-3.47-6.57,3.47-11.86-4.28,18.43-32,18.63,32.4Z"/><path class="cls-2" d="M149.69,37.81l-.53,0a9.67,9.67,0,0,0-19-.8,5.54,5.54,0,0,0-8.21,6.62,6.84,6.84,0,0,0,.92,13.62h26.84a9.73,9.73,0,0,0,0-19.46Z"/><path d="M1.56,47.72a1.5,1.5,0,0,1-.38-2.95L168.05.06a1.49,1.49,0,0,1,1.83,1.06A1.5,1.5,0,0,1,168.82,3L2,47.67A1.31,1.31,0,0,1,1.56,47.72Z"/><path class="cls-3" d="M100.11,19.9,72.32,27.35a4.7,4.7,0,0,1-5.91-4.54h0a4.7,4.7,0,0,1,3.48-4.53l27.79-7.45a4.7,4.7,0,0,1,5.91,4.54h0A4.7,4.7,0,0,1,100.11,19.9Z"/><path d="M71.09,29A6.2,6.2,0,0,1,69.5,16.83L97.29,9.39a6.19,6.19,0,0,1,7.8,6,6.2,6.2,0,0,1-4.59,6h0L72.71,28.79A6,6,0,0,1,71.09,29ZM98.9,12.17a3.32,3.32,0,0,0-.83.11L70.28,19.73a3.19,3.19,0,1,0,1.65,6.17l27.79-7.45a3.19,3.19,0,0,0-.82-6.28Zm1.21,7.73h0Z"/><path d="M85,48.7a1.5,1.5,0,0,1-1.5-1.5V24.09a1.5,1.5,0,0,1,3,0V47.2A1.5,1.5,0,0,1,85,48.7Z"/><path d="M75.24,65.8a1.59,1.59,0,0,1-.75-.2,1.51,1.51,0,0,1-.55-2L83.28,47.2a1.5,1.5,0,0,1,2.61,1.49L76.54,65A1.51,1.51,0,0,1,75.24,65.8Z"/><path d="M94.93,65.8A1.53,1.53,0,0,1,93.62,65L84.28,48.69a1.5,1.5,0,0,1,2.6-1.49l9.35,16.35a1.5,1.5,0,0,1-.56,2A1.52,1.52,0,0,1,94.93,65.8Z"/><rect class="cls-2" x="50.32" y="59.09" width="69.36" height="54.06" rx="11.86"/><path d="M107.82,114.66H62.18A13.38,13.38,0,0,1,48.82,101.3V71A13.38,13.38,0,0,1,62.18,57.59h45.64A13.38,13.38,0,0,1,121.18,71V101.3A13.38,13.38,0,0,1,107.82,114.66ZM62.18,60.59A10.38,10.38,0,0,0,51.82,71V101.3a10.37,10.37,0,0,0,10.36,10.36h45.64a10.37,10.37,0,0,0,10.36-10.36V71a10.38,10.38,0,0,0-10.36-10.37Z"/><path class="cls-3" d="M50.32,86.09h69.36a0,0,0,0,1,0,0v15.2a11.86,11.86,0,0,1-11.86,11.86H62.18A11.86,11.86,0,0,1,50.32,101.3V86.09A0,0,0,0,1,50.32,86.09Z"/><path d="M107.82,114.66H62.18A13.38,13.38,0,0,1,48.82,101.3V86.09a1.5,1.5,0,0,1,1.5-1.5h69.36a1.5,1.5,0,0,1,1.5,1.5V101.3A13.38,13.38,0,0,1,107.82,114.66Zm-56-27.07V101.3a10.37,10.37,0,0,0,10.36,10.36h45.64a10.37,10.37,0,0,0,10.36-10.36V87.59Z"/><path d="M73.44,114.4a1.5,1.5,0,0,1-1.5-1.5V59.78a1.5,1.5,0,0,1,3,0V112.9A1.5,1.5,0,0,1,73.44,114.4Z"/><path d="M96.56,114a1.5,1.5,0,0,1-1.5-1.5V59.4a1.5,1.5,0,0,1,3,0v53.12A1.5,1.5,0,0,1,96.56,114Z"/><path d="M119.05,87.63H51a1.5,1.5,0,1,1,0-3h68a1.5,1.5,0,1,1,0,3Z"/></g></g></svg>