<?xml version="1.0" standalone="no"?>
<!DOCTYPE svg PUBLIC "-//W3C//DTD SVG 20010904//EN"
 "http://www.w3.org/TR/2001/REC-SVG-20010904/DTD/svg10.dtd">
<svg version="1.0" xmlns="http://www.w3.org/2000/svg"
 width="1080.000000pt" height="1080.000000pt" viewBox="0 0 1080.000000 1080.000000"
 preserveAspectRatio="xMidYMid meet">
<metadata>
Created by potrace 1.11, written by Peter Selinger 2001-2013
</metadata>
<g transform="translate(0.000000,1080.000000) scale(0.100000,-0.100000)"
fill="#000000" stroke="none">
<path d="M5315 10425 c-44 -30 -105 -72 -135 -92 -30 -21 -57 -40 -60 -43 -3
-3 -41 -29 -85 -59 -78 -53 -211 -151 -263 -195 -150 -124 -485 -464 -551
-559 -9 -12 -26 -34 -39 -48 -12 -14 -49 -62 -82 -105 -33 -44 -64 -84 -70
-91 -9 -11 -124 -182 -202 -303 -111 -170 -272 -488 -367 -723 -50 -124 -128
-341 -136 -382 -3 -11 -9 -31 -15 -45 -30 -75 -114 -442 -145 -630 -4 -25 -9
-54 -11 -64 -6 -32 -23 -167 -29 -231 -4 -33 -8 -78 -10 -100 -9 -83 -17 -246
-20 -400 -3 -126 -6 -159 -17 -157 -7 2 -78 27 -158 56 -168 62 -453 152 -510
161 -3 1 -30 7 -60 13 -30 7 -65 14 -78 17 -13 2 -31 6 -40 9 -19 6 -34 9
-192 36 -63 11 -131 22 -150 24 -19 2 -57 7 -85 10 -272 34 -759 40 -950 12
-16 -3 -48 -7 -70 -10 -22 -3 -87 -14 -145 -25 -58 -11 -125 -22 -150 -26 -24
-4 -47 -8 -50 -10 -3 -2 -26 -6 -50 -10 -25 -3 -90 -15 -145 -26 -55 -10 -101
-19 -101 -19 -1 0 -7 -30 -14 -67 -16 -87 -18 -97 -30 -163 -5 -30 -12 -68
-15 -85 -27 -136 -66 -394 -72 -473 -14 -189 -8 -633 12 -792 2 -19 7 -57 10
-85 3 -27 10 -75 15 -105 5 -30 11 -75 14 -100 4 -25 9 -56 12 -70 3 -14 7
-36 10 -50 8 -47 45 -215 55 -255 5 -22 12 -49 14 -60 12 -56 88 -303 123
-401 106 -297 234 -567 417 -882 142 -244 387 -573 608 -817 504 -555 1078
-975 1712 -1255 77 -34 154 -68 172 -76 17 -8 34 -14 38 -14 4 0 21 -6 38 -14
95 -43 461 -157 616 -192 36 -8 73 -16 81 -18 29 -8 165 -35 200 -40 19 -3 58
-10 85 -15 28 -6 70 -13 95 -16 56 -7 201 -23 257 -29 130 -14 351 -20 788
-20 550 0 814 11 985 39 14 2 46 7 73 10 95 11 142 17 148 21 3 2 34 8 70 13
254 42 624 148 928 268 495 194 1022 511 1401 842 158 139 361 336 484 471 33
36 76 83 96 105 141 155 427 546 526 720 15 28 31 52 34 55 3 3 12 19 20 35 8
17 25 47 37 67 34 56 156 300 203 408 130 295 241 643 304 950 3 14 7 36 10
50 3 14 8 36 11 50 9 42 14 73 20 115 4 22 8 51 10 65 39 261 50 409 50 690 0
264 -16 484 -40 570 -2 8 -6 33 -10 55 -6 41 -15 95 -22 130 -9 45 -32 172
-37 200 -21 125 -28 161 -34 166 -7 7 -138 35 -202 43 -19 3 -73 12 -120 22
-47 9 -96 18 -110 19 -14 2 -50 8 -80 15 -159 32 -335 45 -610 45 -226 0 -382
-8 -515 -25 -44 -6 -98 -13 -120 -16 -119 -15 -344 -58 -518 -99 -132 -31
-400 -115 -546 -172 -62 -24 -116 -41 -120 -38 -3 3 -6 54 -7 113 -2 128 -13
385 -19 427 -2 17 -6 57 -9 90 -13 123 -15 142 -31 245 -13 90 -25 156 -51
290 -3 14 -21 88 -40 165 -19 77 -37 150 -39 162 -13 55 -129 395 -176 511
-62 154 -205 450 -284 587 -99 171 -306 479 -408 605 -193 239 -445 501 -612
635 -28 22 -52 43 -55 46 -7 8 -168 122 -285 202 -55 38 -142 97 -194 133 -51
35 -97 64 -100 64 -3 0 -42 -25 -86 -55z m141 -2262 c27 -42 54 -85 59 -94 95
-165 152 -274 212 -414 47 -107 130 -342 154 -435 11 -41 26 -98 34 -126 8
-28 17 -68 20 -90 4 -21 13 -70 21 -109 13 -65 24 -148 39 -285 3 -30 8 -73
10 -95 6 -51 6 -416 1 -475 -3 -25 -7 -74 -11 -110 -8 -87 -26 -223 -30 -230
-2 -3 -6 -26 -10 -50 -30 -206 -141 -569 -242 -795 -75 -166 -186 -368 -278
-505 l-34 -51 -18 28 c-10 15 -20 30 -23 33 -35 30 -248 431 -308 580 -79 196
-162 469 -191 630 -7 36 -16 83 -21 105 -5 22 -12 67 -15 100 -4 33 -8 67 -10
75 -20 78 -28 602 -12 750 15 138 15 140 57 375 48 278 215 726 370 995 23 41
48 84 54 95 29 52 112 175 117 175 3 0 28 -35 55 -77z m-3636 -3347 c476 -92
1009 -331 1365 -614 6 -4 30 -23 55 -42 180 -141 529 -492 619 -624 8 -12 18
-23 21 -26 4 -3 24 -30 46 -60 252 -347 423 -691 542 -1095 25 -83 63 -237 69
-281 l4 -32 -48 9 c-26 5 -59 11 -73 14 -14 2 -70 16 -125 30 -55 15 -108 28
-119 30 -46 10 -272 91 -380 137 -201 84 -416 200 -579 312 -48 34 -95 66
-105 71 -9 6 -73 55 -142 110 -150 119 -393 360 -511 505 -111 137 -267 359
-296 420 -4 8 -24 43 -45 78 -157 258 -326 712 -383 1035 -8 43 -13 41 85 23z
m7250 2 c0 -20 -29 -165 -46 -232 -129 -506 -359 -954 -690 -1346 -69 -82
-269 -288 -369 -381 -267 -245 -654 -486 -1005 -624 -178 -70 -468 -154 -625
-179 -22 -4 -48 -10 -59 -13 -15 -4 -17 -1 -12 24 3 15 8 39 10 53 6 28 10 46
25 110 7 25 14 54 16 65 3 11 19 65 36 120 167 535 450 1005 848 1410 158 161
247 243 366 336 55 44 105 83 110 87 25 20 246 162 300 193 53 31 286 147 340
170 186 78 432 157 570 184 17 3 57 12 90 19 78 18 95 19 95 4z"/>
</g>
</svg>
