<svg xmlns="http://www.w3.org/2000/svg" viewBox="0 0 170.21 170"><defs><style>.cls-1{fill:none;opacity:0.2;}.cls-2{fill:#fff;}.cls-3{fill:#a9eeec;}</style></defs><g id="Layer_2" data-name="Layer 2"><g id="Drawings"><rect id="Rectangle_2497" data-name="Rectangle 2497" class="cls-1" x="0.21" width="170" height="170"/><path class="cls-2" d="M159,1h0a5.88,5.88,0,0,1,5.88,5.88V20.38a0,0,0,0,1,0,0H153.15a0,0,0,0,1,0,0V6.93A5.88,5.88,0,0,1,159,1Z" transform="translate(169.75 -148.32) rotate(90)"/><path d="M162.82,18.09H149.37a1.5,1.5,0,0,1-1.5-1.5V4.83a1.5,1.5,0,0,1,1.5-1.5h13.45a7.38,7.38,0,0,1,0,14.76Zm-11.95-3h11.95a4.38,4.38,0,0,0,0-8.76H150.87Z"/><path class="cls-2" d="M141,13.25h11.76a0,0,0,0,1,0,0V26.7a5.88,5.88,0,0,1-5.88,5.88h0A5.88,5.88,0,0,1,141,26.7V13.25a0,0,0,0,1,0,0Z"/><path d="M146.83,34.08a7.39,7.39,0,0,1-7.38-7.38V13.25a1.5,1.5,0,0,1,1.5-1.5h11.76a1.5,1.5,0,0,1,1.5,1.5V26.7A7.39,7.39,0,0,1,146.83,34.08Zm-4.38-19.33v12a4.38,4.38,0,1,0,8.76,0V14.75Z"/><rect class="cls-2" x="145.07" y="-1.64" width="11.76" height="33.39" rx="5.88" transform="translate(33.56 111.15) rotate(-45)"/><path d="M158.59,30.08a7.32,7.32,0,0,1-5.21-2.16l-15.3-15.29A7.38,7.38,0,0,1,148.52,2.19l15.29,15.3a7.38,7.38,0,0,1,0,10.43h0A7.36,7.36,0,0,1,158.59,30.08ZM143.3,3a4.38,4.38,0,0,0-3.1,7.48L155.5,25.8a4.38,4.38,0,0,0,6.19-6.19L146.4,4.31A4.4,4.4,0,0,0,143.3,3Zm19.45,23.83h0Z"/><path d="M141.4,14.3a1.53,1.53,0,0,1-1.06-.44,1.51,1.51,0,0,1,0-2.12l7.8-7.8a1.5,1.5,0,0,1,2.12,2.12l-7.8,7.8A1.49,1.49,0,0,1,141.4,14.3Z"/><path d="M147.31,20.2a1.5,1.5,0,0,1-1.06-2.56L154,9.84A1.5,1.5,0,0,1,156.17,12l-7.8,7.8A1.53,1.53,0,0,1,147.31,20.2Z"/><path d="M153.21,26.1a1.5,1.5,0,0,1-1.06-2.56l7.8-7.8a1.5,1.5,0,0,1,2.12,2.12l-7.8,7.8A1.51,1.51,0,0,1,153.21,26.1Z"/><path class="cls-2" d="M27.41,109.09h0a7,7,0,0,1,7,7V132a0,0,0,0,1,0,0H20.44a0,0,0,0,1,0,0V116.06A7,7,0,0,1,27.41,109.09Z" transform="translate(54.82 241.09) rotate(180)"/><path d="M27.41,133.5A8.48,8.48,0,0,1,18.94,125V109.09a1.5,1.5,0,0,1,1.5-1.5H34.38a1.5,1.5,0,0,1,1.5,1.5V125A8.48,8.48,0,0,1,27.41,133.5Zm-5.47-22.91V125a5.47,5.47,0,0,0,10.94,0V110.59Z"/><path class="cls-2" d="M6,94.63H19.92a0,0,0,0,1,0,0v15.94a7,7,0,0,1-7,7h0a7,7,0,0,1-7-7V94.63a0,0,0,0,1,0,0Z" transform="translate(119.04 93.13) rotate(90)"/><path d="M24.4,114.55H8.47a8.47,8.47,0,1,1,0-16.93H24.4a1.5,1.5,0,0,1,1.5,1.5v13.93A1.5,1.5,0,0,1,24.4,114.55ZM8.47,100.62a5.47,5.47,0,1,0,0,10.93H22.9V100.62Z"/><rect class="cls-2" x="15.29" y="91.18" width="13.93" height="39.56" rx="6.97" transform="translate(84.98 16.76) rotate(45)"/><path d="M13.2,128.48a8.42,8.42,0,0,1-6-2.47h0a8.45,8.45,0,0,1,0-12L25.33,95.92a8.47,8.47,0,0,1,12,0,8.46,8.46,0,0,1,0,12L19.19,126A8.44,8.44,0,0,1,13.2,128.48Zm18.12-32A5.41,5.41,0,0,0,27.46,98L9.34,116.16a5.44,5.44,0,0,0,0,7.73h0a5.47,5.47,0,0,0,7.73,0l18.12-18.12a5.47,5.47,0,0,0-3.87-9.33Z"/><path d="M34.18,110.4a1.51,1.51,0,0,1-1.06-.44l-9.24-9.24A1.5,1.5,0,1,1,26,98.59l9.24,9.24a1.51,1.51,0,0,1-1.06,2.57Z"/><path d="M27.19,117.39a1.49,1.49,0,0,1-1.06-.44l-9.24-9.24A1.5,1.5,0,0,1,19,105.59l9.24,9.24a1.5,1.5,0,0,1-1.06,2.56Z"/><path d="M20.19,124.38a1.53,1.53,0,0,1-1.06-.44L9.89,114.7A1.5,1.5,0,0,1,12,112.58l9.24,9.24a1.51,1.51,0,0,1,0,2.12A1.53,1.53,0,0,1,20.19,124.38Z"/><path d="M85.21,170a1.5,1.5,0,0,1-1.5-1.5V88.43a1.5,1.5,0,0,1,3,0V168.5A1.5,1.5,0,0,1,85.21,170Z"/><ellipse class="cls-3" cx="85.21" cy="20.29" rx="7.77" ry="18.55"/><path d="M85.21,40.34c-5.29,0-9.27-8.62-9.27-20.05s4-20,9.27-20,9.27,8.62,9.27,20.05S90.49,40.34,85.21,40.34Zm0-37.1c-3,0-6.27,7.29-6.27,17s3.31,17.05,6.27,17.05,6.27-7.29,6.27-17.05S88.17,3.24,85.21,3.24Z"/><ellipse class="cls-3" cx="85.21" cy="94.49" rx="7.77" ry="18.55"/><path d="M85.21,114.55c-5.29,0-9.27-8.62-9.27-20.06s4-20,9.27-20,9.27,8.62,9.27,20S90.49,114.55,85.21,114.55Zm0-37.11c-3,0-6.27,7.3-6.27,17s3.31,17.06,6.27,17.06,6.27-7.3,6.27-17.06S88.17,77.44,85.21,77.44Z"/><ellipse class="cls-3" cx="66.66" cy="25.26" rx="7.77" ry="18.55" transform="translate(-3.7 36.71) rotate(-30)"/><path d="M74.11,43.29c-4.57,0-10.73-5.17-15.48-13.39a36.76,36.76,0,0,1-4.78-13.06c-.56-4.41.43-7.58,2.78-8.94s5.6-.63,9.13,2.06a36.48,36.48,0,0,1,8.92,10.67c5.72,9.9,6.58,19.35,2,22A5.12,5.12,0,0,1,74.11,43.29ZM59.23,10.23a2.16,2.16,0,0,0-1.1.27c-1.2.69-1.69,2.92-1.3,6a33.71,33.71,0,0,0,4.4,11.94c4.88,8.45,11.39,13.11,14,11.63s1.78-9.45-3.09-17.9h0A33.66,33.66,0,0,0,64,12.35,8.75,8.75,0,0,0,59.23,10.23Z"/><ellipse class="cls-3" cx="103.76" cy="89.52" rx="7.77" ry="18.55" transform="translate(-30.86 63.87) rotate(-30)"/><path d="M111.2,107.56c-1.93,0-4.17-.93-6.55-2.74a36.45,36.45,0,0,1-8.92-10.66A36.76,36.76,0,0,1,91,81.1c-.56-4.41.43-7.58,2.78-8.94,4.58-2.64,12.34,2.83,18,12.73h0A36.38,36.38,0,0,1,116.56,98c.56,4.4-.42,7.58-2.78,8.94A5.14,5.14,0,0,1,111.2,107.56ZM96.35,74.49a2.14,2.14,0,0,0-1.12.27c-1.2.69-1.69,2.92-1.3,6a33.57,33.57,0,0,0,4.4,11.94,33.64,33.64,0,0,0,8.14,9.78c2.44,1.85,4.61,2.54,5.81,1.85s1.69-2.92,1.31-6a33.57,33.57,0,0,0-4.4-11.94C104.91,79,99.38,74.49,96.35,74.49Z"/><ellipse class="cls-3" cx="53.08" cy="38.84" rx="7.77" ry="18.55" transform="matrix(0.5, -0.87, 0.87, 0.5, -7.1, 65.39)"/><path d="M63.74,51.8c-4.17,0-9.66-1.68-15.3-4.93A36.45,36.45,0,0,1,37.78,38c-2.69-3.54-3.43-6.78-2.07-9.13s4.54-3.34,8.94-2.78a36.38,36.38,0,0,1,13.06,4.78c9.9,5.71,15.37,13.47,12.73,18C69.3,50.84,66.9,51.8,63.74,51.8ZM42.34,28.88c-2,0-3.49.51-4,1.44-.69,1.2,0,3.37,1.85,5.81a33.64,33.64,0,0,0,9.78,8.14c8.45,4.88,16.42,5.66,17.9,3.1s-3.18-9.08-11.63-14h0A33.57,33.57,0,0,0,44.27,29,16.9,16.9,0,0,0,42.34,28.88Z"/><ellipse class="cls-3" cx="117.34" cy="75.94" rx="7.77" ry="18.55" transform="translate(-7.1 139.59) rotate(-60)"/><path d="M128.06,88.9a18.85,18.85,0,0,1-2.3-.15A36.57,36.57,0,0,1,112.7,84c-9.9-5.71-15.37-13.48-12.73-18s12.1-3.72,22,2h0a36.48,36.48,0,0,1,10.67,8.92c2.69,3.53,3.42,6.77,2.06,9.13C133.59,87.89,131.27,88.9,128.06,88.9ZM106.54,66c-2,0-3.42.49-4,1.43-1.48,2.56,3.18,9.07,11.63,14a33.51,33.51,0,0,0,11.94,4.4c3,.39,5.27-.1,6-1.3s0-3.38-1.85-5.82a33.51,33.51,0,0,0-9.78-8.13h0C115.13,67.43,110,66,106.54,66Z"/><ellipse class="cls-3" cx="48.11" cy="57.39" rx="18.55" ry="7.77"/><path d="M48.11,66.66c-11.43,0-20-4-20-9.27s8.62-9.27,20.05-9.27,20,4,20,9.27S59.54,66.66,48.11,66.66Zm0-15.54c-9.76,0-17,3.31-17,6.27s7.29,6.27,17.05,6.27,17-3.31,17-6.27S57.86,51.12,48.11,51.12Z"/><ellipse class="cls-3" cx="122.31" cy="57.39" rx="18.55" ry="7.77"/><path d="M122.31,66.66c-11.43,0-20-4-20-9.27s8.62-9.27,20-9.27,20.05,4,20.05,9.27S133.74,66.66,122.31,66.66Zm0-15.54c-9.76,0-17,3.31-17,6.27s7.29,6.27,17,6.27,17.05-3.31,17.05-6.27S132.07,51.12,122.31,51.12Z"/><ellipse class="cls-3" cx="53.08" cy="75.94" rx="18.55" ry="7.77" transform="translate(-30.86 36.71) rotate(-30)"/><path d="M42.35,88.9c-3.21,0-5.53-1-6.64-2.93-1.36-2.36-.62-5.6,2.07-9.13a36.3,36.3,0,0,1,10.66-8.92h0c9.9-5.72,19.36-6.58,22-2S67.61,78.26,57.71,84a36.57,36.57,0,0,1-13.06,4.78A18.73,18.73,0,0,1,42.35,88.9Zm7.59-18.38a33.78,33.78,0,0,0-9.78,8.13c-1.85,2.44-2.54,4.62-1.85,5.82s2.92,1.69,6,1.3a33.38,33.38,0,0,0,11.94-4.4c8.45-4.88,13.11-11.39,11.63-14s-9.45-1.78-17.9,3.1Z"/><ellipse class="cls-3" cx="117.34" cy="38.84" rx="18.55" ry="7.77" transform="translate(-3.7 63.87) rotate(-30)"/><path d="M106.67,51.8c-3.15,0-5.56-1-6.7-2.93-2.64-4.58,2.83-12.34,12.73-18A36.38,36.38,0,0,1,125.76,26c4.41-.56,7.58.42,8.94,2.78s.63,5.59-2.06,9.13A36.64,36.64,0,0,1,122,46.87C116.34,50.12,110.85,51.8,106.67,51.8Zm21.4-22.92a17,17,0,0,0-1.93.13,33.71,33.71,0,0,0-11.94,4.4h0c-8.45,4.88-13.11,11.39-11.63,14s9.45,1.78,17.9-3.1a33.38,33.38,0,0,0,9.78-8.14c1.86-2.44,2.55-4.61,1.85-5.81C131.57,29.39,130.11,28.88,128.07,28.88Zm-14.62,3.23h0Z"/><ellipse class="cls-3" cx="66.66" cy="89.52" rx="18.55" ry="7.77" transform="translate(-44.2 102.49) rotate(-60)"/><path d="M59.22,107.56a5.15,5.15,0,0,1-2.59-.67c-2.35-1.36-3.34-4.54-2.78-8.94a36.76,36.76,0,0,1,4.78-13.06h0C64.35,75,72.1,69.52,76.68,72.16,79,73.52,80,76.69,79.46,81.1a36.57,36.57,0,0,1-4.78,13.06,36.3,36.3,0,0,1-8.92,10.66C63.39,106.63,61.15,107.56,59.22,107.56Zm2-21.17a33.57,33.57,0,0,0-4.4,11.94c-.39,3,.1,5.27,1.3,6s3.38,0,5.82-1.85a33.8,33.8,0,0,0,8.14-9.78,33.34,33.34,0,0,0,4.39-11.94c.39-3-.09-5.27-1.3-6-2.56-1.48-9.07,3.18-14,11.63Z"/><ellipse class="cls-3" cx="103.76" cy="25.26" rx="18.55" ry="7.77" transform="translate(30 102.49) rotate(-60)"/><path d="M96.3,43.29a5.15,5.15,0,0,1-2.57-.66c-4.57-2.65-3.71-12.1,2-22h0A36.64,36.64,0,0,1,104.65,10c3.54-2.69,6.78-3.42,9.13-2.06s3.34,4.53,2.78,8.94a36.38,36.38,0,0,1-4.78,13.06C107,38.12,100.88,43.29,96.3,43.29Zm14.88-33.06a8.7,8.7,0,0,0-4.71,2.12,33.51,33.51,0,0,0-8.14,9.78h0c-4.88,8.45-5.66,16.42-3.1,17.9s9.08-3.18,14-11.63a33.71,33.71,0,0,0,4.4-11.94c.38-3-.1-5.27-1.31-6A2.14,2.14,0,0,0,111.18,10.23ZM97,21.38h0Z"/><circle class="cls-2" cx="85.21" cy="57.39" r="22.25"/><path d="M85.21,81.14A23.75,23.75,0,1,1,109,57.39,23.77,23.77,0,0,1,85.21,81.14Zm0-44.49A20.75,20.75,0,1,0,106,57.39,20.77,20.77,0,0,0,85.21,36.65Z"/><path class="cls-3" d="M54,146.33c11.61,11.6,30,12,30,12s-.43-18.38-12-30-30-12-30-12S42.38,134.72,54,146.33Z"/><path d="M84,159.86h0c-.78,0-19.12-.58-31-12.47h0c-11.89-11.89-12.45-30.24-12.47-31a1.51,1.51,0,0,1,.44-1.1,1.49,1.49,0,0,1,1.1-.44c.77,0,19.12.58,31,12.47s12.45,30.24,12.47,31a1.5,1.5,0,0,1-1.5,1.53ZM55,145.27c9.08,9.07,22.65,11.06,27.32,11.48-.43-4.67-2.43-18.26-11.48-27.32S48.24,118.38,43.56,118C44,122.63,46,136.22,55,145.27Z"/><path class="cls-3" d="M116.43,146.33c-11.6,11.6-30,12-30,12s.43-18.38,12-30,30-12,30-12S128,134.72,116.43,146.33Z"/><path d="M86.44,159.86a1.5,1.5,0,0,1-1.5-1.53c0-.78.58-19.12,12.48-31s30.23-12.45,31-12.47a1.5,1.5,0,0,1,1.53,1.54c0,.77-.58,19.12-12.47,31s-30.24,12.45-31,12.47ZM126.85,118c-4.67.43-18.26,2.43-27.31,11.48s-11.06,22.65-11.49,27.32c4.68-.43,18.27-2.43,27.32-11.48h0C124.42,136.22,126.42,122.63,126.85,118Z"/></g></g></svg>