<svg xmlns="http://www.w3.org/2000/svg" viewBox="0 0 170.25 170"><defs><style>.cls-1{fill:none;opacity:0.2;}.cls-2{fill:#a9eeec;}.cls-3{fill:#fff;}</style></defs><g id="Layer_2" data-name="Layer 2"><g id="Drawings"><rect id="Rectangle_2497" data-name="Rectangle 2497" class="cls-1" width="170" height="170"/><polygon class="cls-2" points="47.12 79.85 47.12 66.88 19.72 66.88 19.72 138.54 71.02 138.54 71.02 79.85 47.12 79.85"/><rect class="cls-2" x="92.61" y="102.36" width="3.04" height="35.15"/><path class="cls-2" d="M94.13,67.48c10,0,19.89,14.88,19.89,27s-8.9,16.76-19.89,16.76S74.24,106.5,74.24,94.43,84.19,67.48,94.13,67.48Z"/><rect class="cls-2" x="127.06" y="94.87" width="42.94" height="43.67"/><polygon class="cls-2" points="170 81.58 151.19 62.77 117.06 96.9 170 96.9 170 81.58"/><rect class="cls-2" y="52.68" width="40.22" height="85.86"/><rect class="cls-2" x="3.67" y="47.03" width="27.72" height="16.38"/><rect class="cls-3" y="138.54" width="170" height="31.46"/><path d="M168.46,140H43.13a1.5,1.5,0,1,1,0-3H168.46a1.5,1.5,0,0,1,0,3Z"/><path d="M8.48,140H1.53a1.5,1.5,0,0,1,0-3h7a1.5,1.5,0,0,1,0,3Z"/><path d="M29.41,140h-9a1.5,1.5,0,1,1,0-3h9a1.5,1.5,0,0,1,0,3Z"/><path d="M15.41,140H13.46a1.5,1.5,0,0,1,0-3h1.95a1.5,1.5,0,0,1,0,3Z"/><circle class="cls-3" cx="46.17" cy="128.84" r="20.55"/><path d="M46.17,150.89a22,22,0,1,1,22-22A22.07,22.07,0,0,1,46.17,150.89Zm0-41.1a19,19,0,1,0,19,19A19.07,19.07,0,0,0,46.17,109.79Z"/><circle class="cls-3" cx="119.83" cy="128.84" r="20.55"/><path d="M119.83,150.89a22,22,0,1,1,22-22A22.07,22.07,0,0,1,119.83,150.89Zm0-41.1a19,19,0,1,0,19,19A19.07,19.07,0,0,0,119.83,109.79Z"/><path d="M83,130.34a1.5,1.5,0,0,1-1.32-.78L59,88.28a1.5,1.5,0,1,1,2.63-1.44l22.66,41.28a1.51,1.51,0,0,1-.59,2A1.57,1.57,0,0,1,83,130.34Z"/><path d="M119.83,130.34a1.51,1.51,0,0,1-1.32-.78L94,85a1.5,1.5,0,0,1,2.63-1.44l24.48,44.6a1.5,1.5,0,0,1-.59,2A1.57,1.57,0,0,1,119.83,130.34Z"/><path d="M46.17,130.34a1.5,1.5,0,0,1-1.32-2.22L63.28,94.56a1.49,1.49,0,0,1,2-.6,1.51,1.51,0,0,1,.6,2L47.48,129.56A1.48,1.48,0,0,1,46.17,130.34Z"/><path d="M83,130.34a1.57,1.57,0,0,1-.72-.18,1.51,1.51,0,0,1-.59-2l18.42-33.56A1.5,1.5,0,1,1,102.75,96L84.33,129.56A1.5,1.5,0,0,1,83,130.34Z"/><path d="M83,130.34H46.17a1.5,1.5,0,1,1,0-3H83a1.5,1.5,0,1,1,0,3Z"/><path d="M101.44,96.76H64.59a1.5,1.5,0,0,1,0-3h36.85a1.5,1.5,0,0,1,0,3Z"/><path d="M66.46,89.06H54.25a1.5,1.5,0,0,1,0-3H66.46a1.5,1.5,0,0,1,0,3Z"/><path d="M107.55,96.76a1.5,1.5,0,0,1,0-3,4,4,0,0,0,0-8H95.33a1.5,1.5,0,0,1,0-3h12.22a7,7,0,0,1,0,14Z"/><circle class="cls-3" cx="83.01" cy="128.84" r="4.99"/><path d="M83,135.33a6.49,6.49,0,1,1,6.5-6.49A6.5,6.5,0,0,1,83,135.33Zm0-10a3.49,3.49,0,1,0,3.5,3.49A3.5,3.5,0,0,0,83,125.35Z"/><path class="cls-3" d="M154.31,13.69c-.3,0-.59,0-.88,0a15.85,15.85,0,0,0-31.18-1.31,9.09,9.09,0,0,0-13.46,10.85,11.21,11.21,0,0,0,1.52,22.32h44a15.95,15.95,0,0,0,0-31.89Z"/><path class="cls-3" d="M34.15,19h-.41a7.44,7.44,0,0,0-14.64-.61,4.22,4.22,0,0,0-2.33-.69A4.27,4.27,0,0,0,12.5,22a4.22,4.22,0,0,0,.28,1.51A5.26,5.26,0,0,0,13.49,34H34.15a7.49,7.49,0,1,0,0-15Z"/><path class="cls-3" d="M74.33,45.83h-.27a4.77,4.77,0,0,0-9.38-.39,2.74,2.74,0,0,0-4.23,2.3,2.65,2.65,0,0,0,.18,1,3.37,3.37,0,0,0,.45,6.71H74.33a4.8,4.8,0,0,0,0-9.6Z"/></g></g></svg>