<svg xmlns="http://www.w3.org/2000/svg" viewBox="0 0 170 170"><defs><style>.cls-1{fill:none;opacity:0.2;}.cls-2{fill:#a9eeec;}.cls-3{fill:#fff;}</style></defs><g id="Layer_2" data-name="Layer 2"><g id="Drawings"><rect id="Rectangle_2497" data-name="Rectangle 2497" class="cls-1" width="170" height="170"/><path class="cls-2" d="M0,170H170V104.29a413.07,413.07,0,0,0-170,0Z"/><path class="cls-3" d="M21.76,98.58A16.09,16.09,0,0,0,47.48,111.5,38.94,38.94,0,0,0,125,106.14v-23c0-9-17.44-16.26-38.95-16.26S47.1,74.11,47.1,83.09v2.29a16.11,16.11,0,0,0-25.34,13.2Zm6.91,0a9.21,9.21,0,1,1,9.21,9.21A9.21,9.21,0,0,1,28.67,98.58Z"/><polygon class="cls-2" points="59.28 87.16 72.18 92.02 86.05 92.8 105.66 91.29 113.63 87.25 102.62 83.13 81.68 81.52 68.04 83.62 59.28 87.16"/><polygon class="cls-3" points="54.77 83.27 59.28 87.16 68.04 83.62 84.72 81.52 107.73 84.34 113.63 87.25 116.41 84.34 115.65 80.82 107.12 76.31 90.32 73.73 79.73 73.73 66.83 75.95 59 78.94 54.77 83.27"/><path d="M86,94.3c-15.44,0-31.86-3.86-31.86-11s16.42-11,31.86-11,31.87,3.87,31.87,11S101.49,94.3,86,94.3Zm0-19.07c-17.88,0-28.86,4.68-28.86,8s11,8,28.86,8,28.87-4.68,28.87-8S103.93,75.23,86,75.23Z"/><path d="M58.32,88.66a1.5,1.5,0,0,1-.86-2.73C62.67,82.29,73.62,80,86,80s23.18,2.23,28.44,5.81a1.5,1.5,0,0,1-1.69,2.48C108.07,85.1,97.58,83,86,83s-22.2,2.11-26.86,5.37A1.51,1.51,0,0,1,58.32,88.66Z"/><path d="M86,146.58A40.58,40.58,0,0,1,46.38,114a17.61,17.61,0,1,1-.77-31.24C46,73,63.62,65.33,86,65.33c22.68,0,40.45,7.8,40.45,17.76v23A40.49,40.49,0,0,1,86,146.58ZM47.48,110a1.51,1.51,0,0,1,.58.12,1.47,1.47,0,0,1,.9,1.18,37.44,37.44,0,0,0,74.53-5.16v-23c0-7.13-15-14.76-37.45-14.76S48.6,76,48.6,83.09v2.29a1.5,1.5,0,0,1-2.36,1.23,14.62,14.62,0,1,0,.34,23.69A1.5,1.5,0,0,1,47.48,110Zm-9.6-1.63a9.79,9.79,0,1,1,9.79-9.79A9.8,9.8,0,0,1,37.88,108.37Zm0-16.58a6.79,6.79,0,1,0,6.79,6.79A6.8,6.8,0,0,0,37.88,91.79Z"/><path class="cls-2" d="M110.37,14.41a10.82,10.82,0,0,0-19.27-8A10.81,10.81,0,0,0,70.48,9.49c-2,15.8,16,24.68,17.1,25.23v0h0l0,0v0C88.88,34.47,108.42,30.22,110.37,14.41Z"/><path class="cls-2" d="M56.72,39a4.83,4.83,0,0,1,8.6-3.56,4.82,4.82,0,0,1,9.2,1.37c.87,7.05-7.12,11-7.63,11.26h0C66.31,48,57.59,46.08,56.72,39Z"/><path class="cls-2" d="M86.52,54a3,3,0,0,0-2.65-3.39,3,3,0,0,0-2.77,1.15,3,3,0,0,0-5.81.86c-.55,4.45,4.5,6.94,4.82,7.1h0C80.47,59.62,86,58.42,86.52,54Z"/></g></g></svg>