<svg xmlns="http://www.w3.org/2000/svg" viewBox="0 0 170 170"><defs><style>.cls-1{fill:none;opacity:0.2;}.cls-2{fill:#a9eeec;}.cls-3{fill:#fff;}</style></defs><g id="Layer_2" data-name="Layer 2"><g id="Drawings"><rect id="Rectangle_2497" data-name="Rectangle 2497" class="cls-1" width="170" height="170"/><path class="cls-2" d="M168,8.58c-5.21,7-10.12,13.41-13.35,17.16C143,39.23,95.37,83.16,95.37,83.16c-3.33,3.34,5.58,1.68,8.92,5l16.42,22.41c3.33,3.33,9.86-1.53,13.2-4.86L168,71.63Z"/><path d="M123.59,113.18a5.39,5.39,0,0,1-3.94-1.54.8.8,0,0,1-.15-.17L103.15,89.16c-1.21-1.13-3.56-1.56-5.46-1.9-2.22-.4-4-.72-4.46-2.25a3,3,0,0,1,1.08-2.91c.52-.48,47.76-44.07,59.2-57.34,2.85-3.3,7.32-9,13.29-17.08a1.5,1.5,0,0,1,2.7.9V71.63a1.5,1.5,0,0,1-.44,1.06L135,106.78C130.29,111.46,126.43,113.18,123.59,113.18Zm-1.75-3.59c2.33,2.13,7.84-1.76,11-4.93L166.5,71V13.09c-4.68,6.22-8.27,10.8-10.72,13.63C144.58,39.72,101,80,96.67,84c.48.11,1.07.22,1.56.31,2.35.42,5.27,1,7.12,2.8.05.06.1.11.15.18Z"/><path class="cls-3" d="M62.77,149.18c-12.89,8.69-18,.89-18,.89L28.93,121,27.6,92.05l5.79-15.73-5.79-12L59.21,43.08l54.6,47.63,5.13,7.66,12.12,18.25A7.34,7.34,0,0,1,129,126.79h0a7.34,7.34,0,0,1-10.17-2.06l-12.11-18.24,3.29,4.93,12.68,19.09a7.33,7.33,0,0,1-2.06,10.17h0a7.33,7.33,0,0,1-10.16-2.05L97.79,119.54l0,0,19.35,29.13a7.34,7.34,0,0,1-2,10.17h0a7.34,7.34,0,0,1-10.17-2L85.53,127.63h0L105,156.91a7.34,7.34,0,0,1-2,10.17h0A7.34,7.34,0,0,1,92.77,165L73.32,135.74Z"/><path d="M98.89,169.8a8.82,8.82,0,0,1-7.37-3.94L73.22,138.3,64,150.1a1.7,1.7,0,0,1-.34.32c-5.3,3.57-10.06,5-14.14,4.14a9.6,9.6,0,0,1-5.92-3.67l0-.1L27.62,121.7a1.63,1.63,0,0,1-.19-.65L26.1,92.12a1.49,1.49,0,0,1,.09-.59L31.76,76.4,26.25,65a1.5,1.5,0,0,1,.51-1.9L58.37,41.83a1.49,1.49,0,0,1,1.82.12L114.8,89.58a1.48,1.48,0,0,1,.26.3l5.13,7.66,12.11,18.25a8.83,8.83,0,0,1-8.53,13.64l.17.25a8.83,8.83,0,0,1-8.58,13.63l3,4.51a8.83,8.83,0,0,1-10.63,13.09,9.26,9.26,0,0,1-.18,1.81,8.82,8.82,0,0,1-8.65,7.08ZM73.32,134.24h.06a1.5,1.5,0,0,1,1.19.67L94,164.2a5.84,5.84,0,0,0,10.58-2.07,5.78,5.78,0,0,0-.76-4.22l-.21-.31L84.28,128.46a1.51,1.51,0,0,1-.2-1.19,1.49,1.49,0,0,1,.73-1,1.5,1.5,0,0,1,2,.48l19.45,29.28.08.13a5.84,5.84,0,0,0,9.53-6.73L96.51,120.35a1.5,1.5,0,0,1,1.93-2.17,1.61,1.61,0,0,1,.6.53l12.68,19.09a5.84,5.84,0,1,0,9.72-6.46L117.88,126l-.3-.43-12.11-18.24a1.5,1.5,0,1,1,2.5-1.66l12.36,18.59a5.85,5.85,0,0,0,7.84,1.29,5.85,5.85,0,0,0,1.64-8.09L112.68,91.71,59.09,45,29.51,64.82l5.23,10.85a1.53,1.53,0,0,1,0,1.17L29.11,92.28l1.31,28.29,15.67,28.71c.38.53,4.73,6,15.64-1.22l10.41-13.25A1.51,1.51,0,0,1,73.32,134.24ZM62.77,149.18h0Z"/><path class="cls-3" d="M58.25,112.46l-8,8h0a4.87,4.87,0,0,0-6.9,0h0a9.4,9.4,0,0,0,0,13.29l1.35,1.35a6.43,6.43,0,0,0,9.08,0l13.57-13.57a6.43,6.43,0,0,0,0-9.09h0A6.42,6.42,0,0,0,58.25,112.46Z"/><path d="M49.22,138.49a7.9,7.9,0,0,1-5.6-2.31l-1.35-1.35a10.91,10.91,0,0,1,0-15.41,6.31,6.31,0,0,1,4.51-1.87h0a6.33,6.33,0,0,1,3.33.93l7.08-7.08a7.92,7.92,0,0,1,11.2,0,7.94,7.94,0,0,1,0,11.21L54.82,136.18A7.9,7.9,0,0,1,49.22,138.49Zm-2.44-17.94a3.36,3.36,0,0,0-2.39,1,7.91,7.91,0,0,0,0,11.17l1.35,1.35a4.92,4.92,0,0,0,7,0l13.57-13.57a4.93,4.93,0,0,0-3.48-8.41,4.88,4.88,0,0,0-3.48,1.44h0l-8,8a1.5,1.5,0,0,1-1.06.44h0a1.5,1.5,0,0,1-1.06-.44A3.36,3.36,0,0,0,46.78,120.55Zm11.47-8.09h0Z"/><rect class="cls-3" x="58.55" y="113.85" width="12.85" height="38.24" rx="5.9" transform="translate(113.06 -6.99) rotate(45)"/><path d="M56,150.1a7.35,7.35,0,0,1-5.23-2.17l-.74-.74a7.39,7.39,0,0,1,0-10.46L68.72,118a7.41,7.41,0,0,1,10.46,0l.75.75a7.41,7.41,0,0,1,0,10.46l-18.71,18.7A7.34,7.34,0,0,1,56,150.1Zm18-31.24a4.37,4.37,0,0,0-3.11,1.28l-18.7,18.71a4.39,4.39,0,0,0,0,6.22l.74.74a4.39,4.39,0,0,0,6.22,0l18.7-18.7a4.39,4.39,0,0,0,0-6.22l-.74-.75A4.37,4.37,0,0,0,74,118.86Z"/><rect class="cls-3" x="63.65" y="129.17" width="12.85" height="33.79" rx="5.9" transform="translate(123.81 -6.77) rotate(45)"/><path d="M62.67,161.61h0a7.37,7.37,0,0,1-5.23-2.16l-.75-.75a7.41,7.41,0,0,1,0-10.46l15.56-15.55a7.39,7.39,0,0,1,10.46,0l.74.74a7.39,7.39,0,0,1,0,10.46L67.9,159.45A7.37,7.37,0,0,1,62.67,161.61Zm14.81-28.09a4.38,4.38,0,0,0-3.11,1.29L58.82,150.36a4.39,4.39,0,0,0,0,6.22l.74.74h0a4.39,4.39,0,0,0,6.22,0l15.55-15.55a4.39,4.39,0,0,0,0-6.22l-.74-.74A4.39,4.39,0,0,0,77.48,133.52Z"/><rect class="cls-3" x="72.29" y="142.17" width="12.85" height="26.82" rx="5.9" transform="translate(133.07 -10.09) rotate(45)"/><path d="M73.77,168.66a7.36,7.36,0,0,1-5.23-2.16h0l-.75-.75a7.41,7.41,0,0,1,0-10.46l10.63-10.62a7.39,7.39,0,0,1,10.46,0l.74.74a7.39,7.39,0,0,1,0,10.46L79,166.5A7.38,7.38,0,0,1,73.77,168.66Zm-3.11-4.28a4.41,4.41,0,0,0,6.22,0L87.5,153.75a4.39,4.39,0,0,0,0-6.22l-.74-.74a4.39,4.39,0,0,0-6.22,0L69.91,157.41a4.41,4.41,0,0,0,0,6.22Z"/><path d="M45,120.3a1.48,1.48,0,0,1-1.26-.69L40,113.78a1.5,1.5,0,0,1,2.52-1.62L46.27,118A1.5,1.5,0,0,1,45,120.3Z"/><path class="cls-2" d="M45.48,2H2V44.63L17.39,67.8A7.83,7.83,0,0,0,28.25,70L65,45.58a7.84,7.84,0,0,0,2.19-10.86Z"/><path d="M23.93,72.81a9.78,9.78,0,0,1-1.86-.19,9.28,9.28,0,0,1-5.93-4L.75,45.46a1.55,1.55,0,0,1-.25-.83V2A1.5,1.5,0,0,1,2,.5H45.48a1.48,1.48,0,0,1,1.25.67L68.46,33.89a9.35,9.35,0,0,1-2.61,12.94L29.08,71.25A9.35,9.35,0,0,1,23.93,72.81ZM3.5,44.18,18.64,67a6.34,6.34,0,0,0,8.78,1.78L64.19,44.33A6.34,6.34,0,0,0,66,35.55L44.68,3.5H3.5Z"/></g></g></svg>