<svg xmlns="http://www.w3.org/2000/svg" viewBox="0 0 170 170"><defs><style>.cls-1{fill:none;opacity:0.2;}.cls-2{fill:#a9eeec;}.cls-3{fill:#fff;}</style></defs><g id="Layer_2" data-name="Layer 2"><g id="Drawings"><rect id="Rectangle_2497" data-name="Rectangle 2497" class="cls-1" width="170" height="170"/><rect class="cls-2" x="34.38" y="65.27" width="5.68" height="65.77"/><path class="cls-2" d="M37.23,0C55.84,0,74.45,27.84,74.45,50.43S57.78,81.79,37.23,81.79,0,73,0,50.43,18.61,0,37.23,0Z"/><circle class="cls-3" cx="134.15" cy="25.98" r="13.65"/><path d="M134.15,41.13A15.16,15.16,0,1,1,149.3,26,15.17,15.17,0,0,1,134.15,41.13Zm0-27.31A12.16,12.16,0,1,0,146.3,26,12.17,12.17,0,0,0,134.15,13.82Z"/><path d="M134.15,9.47a1.5,1.5,0,0,1-1.5-1.5V1.65a1.5,1.5,0,0,1,3,0V8A1.5,1.5,0,0,1,134.15,9.47Z"/><path d="M134.15,51.8a1.5,1.5,0,0,1-1.5-1.5V44a1.5,1.5,0,1,1,3,0V50.3A1.5,1.5,0,0,1,134.15,51.8Z"/><path d="M125.15,11.89a1.49,1.49,0,0,1-1.3-.75l-3.17-5.48a1.5,1.5,0,1,1,2.6-1.5l3.16,5.48a1.48,1.48,0,0,1-.55,2A1.43,1.43,0,0,1,125.15,11.89Z"/><path d="M146.31,48.54a1.5,1.5,0,0,1-1.3-.75l-3.16-5.47a1.5,1.5,0,1,1,2.6-1.5l3.16,5.47a1.51,1.51,0,0,1-.55,2.05A1.48,1.48,0,0,1,146.31,48.54Z"/><path d="M118.55,18.47a1.42,1.42,0,0,1-.74-.2l-5.48-3.16a1.5,1.5,0,0,1,1.5-2.6l5.48,3.17a1.49,1.49,0,0,1,.54,2A1.47,1.47,0,0,1,118.55,18.47Z"/><path d="M155.21,39.64a1.56,1.56,0,0,1-.75-.2L149,36.28a1.5,1.5,0,1,1,1.5-2.6L156,36.84a1.5,1.5,0,0,1-.75,2.8Z"/><path d="M116.14,27.48h-6.32a1.5,1.5,0,0,1,0-3h6.32a1.5,1.5,0,0,1,0,3Z"/><path d="M158.47,27.48h-6.32a1.5,1.5,0,0,1,0-3h6.32a1.5,1.5,0,0,1,0,3Z"/><path d="M113.08,39.64a1.5,1.5,0,0,1-.75-2.8l5.48-3.16a1.48,1.48,0,0,1,2,.55,1.5,1.5,0,0,1-.54,2.05l-5.48,3.16A1.56,1.56,0,0,1,113.08,39.64Z"/><path d="M149.74,18.47a1.49,1.49,0,0,1-.75-2.79l5.47-3.17a1.5,1.5,0,0,1,1.5,2.6l-5.47,3.16A1.48,1.48,0,0,1,149.74,18.47Z"/><path d="M122,48.54a1.48,1.48,0,0,1-.75-.2,1.51,1.51,0,0,1-.55-2.05l3.17-5.47a1.5,1.5,0,1,1,2.59,1.5l-3.16,5.47A1.5,1.5,0,0,1,122,48.54Z"/><path d="M143.14,11.89a1.43,1.43,0,0,1-.74-.21,1.48,1.48,0,0,1-.55-2L145,4.16a1.5,1.5,0,0,1,2.6,1.5l-3.16,5.48A1.52,1.52,0,0,1,143.14,11.89Z"/><path class="cls-2" d="M0,170H170V129.84a245.42,245.42,0,0,0-170,0Z"/><path class="cls-3" d="M48.87,101.18h.24a2.66,2.66,0,0,1,2.66,2.66v27.33a0,0,0,0,1,0,0H46.21a0,0,0,0,1,0,0V103.84a2.66,2.66,0,0,1,2.66-2.66Z"/><path d="M51.77,132.67H46.21a1.5,1.5,0,0,1-1.5-1.5V103.84a4.17,4.17,0,0,1,4.16-4.16h.24a4.17,4.17,0,0,1,4.16,4.16v27.33A1.5,1.5,0,0,1,51.77,132.67Zm-4.06-3h2.56V103.84a1.16,1.16,0,0,0-1.16-1.16h-.24a1.16,1.16,0,0,0-1.16,1.16Z"/><path class="cls-3" d="M120.89,101.18h.24a2.66,2.66,0,0,1,2.66,2.66v27.33a0,0,0,0,1,0,0h-5.56a0,0,0,0,1,0,0V103.84A2.66,2.66,0,0,1,120.89,101.18Z"/><path d="M123.79,132.67h-5.56a1.5,1.5,0,0,1-1.5-1.5V103.84a4.17,4.17,0,0,1,4.16-4.16h.24a4.17,4.17,0,0,1,4.16,4.16v27.33A1.5,1.5,0,0,1,123.79,132.67Zm-4.06-3h2.56V103.84a1.16,1.16,0,0,0-1.16-1.16h-.24a1.16,1.16,0,0,0-1.16,1.16Z"/><rect class="cls-3" x="36.44" y="97.39" width="97.13" height="10.34"/><path d="M133.56,109.23H36.44a1.5,1.5,0,0,1-1.5-1.5V97.39a1.5,1.5,0,0,1,1.5-1.5h97.12a1.5,1.5,0,0,1,1.5,1.5v10.34A1.5,1.5,0,0,1,133.56,109.23Zm-95.62-3h94.12V98.89H37.94Z"/><path class="cls-3" d="M55.19,58.37h.24A2.66,2.66,0,0,1,58.09,61V97.39a0,0,0,0,1,0,0H52.52a0,0,0,0,1,0,0V61A2.66,2.66,0,0,1,55.19,58.37Z"/><path d="M58.09,98.89H52.52a1.5,1.5,0,0,1-1.5-1.5V61a4.17,4.17,0,0,1,4.17-4.16h.23A4.17,4.17,0,0,1,59.59,61V97.39A1.5,1.5,0,0,1,58.09,98.89Zm-4.07-3h2.57V61a1.16,1.16,0,0,0-1.17-1.16h-.23A1.17,1.17,0,0,0,54,61Z"/><path class="cls-3" d="M114.58,58.37h.24A2.66,2.66,0,0,1,117.48,61V97.39a0,0,0,0,1,0,0h-5.56a0,0,0,0,1,0,0V61A2.66,2.66,0,0,1,114.58,58.37Z"/><path d="M117.48,98.89h-5.57a1.5,1.5,0,0,1-1.5-1.5V61a4.17,4.17,0,0,1,4.17-4.16h.23A4.17,4.17,0,0,1,119,61V97.39A1.5,1.5,0,0,1,117.48,98.89Zm-4.07-3H116V61a1.17,1.17,0,0,0-1.17-1.16h-.23A1.17,1.17,0,0,0,113.41,61Z"/><rect class="cls-3" x="43.85" y="81.75" width="82.31" height="8.87"/><path d="M126.15,92.12H43.85a1.5,1.5,0,0,1-1.5-1.5V81.75a1.5,1.5,0,0,1,1.5-1.5h82.3a1.5,1.5,0,0,1,1.5,1.5v8.87A1.5,1.5,0,0,1,126.15,92.12Zm-80.8-3h79.3V83.25H45.35Z"/><rect class="cls-3" x="43.85" y="72.87" width="82.31" height="8.87"/><path d="M126.15,83.25H43.85a1.5,1.5,0,0,1-1.5-1.5V72.87a1.5,1.5,0,0,1,1.5-1.5h82.3a1.5,1.5,0,0,1,1.5,1.5v8.88A1.5,1.5,0,0,1,126.15,83.25Zm-80.8-3h79.3V74.37H45.35Z"/><rect class="cls-3" x="43.85" y="64" width="82.31" height="8.87"/><path d="M126.15,74.37H43.85a1.5,1.5,0,0,1-1.5-1.5V64a1.5,1.5,0,0,1,1.5-1.5h82.3a1.5,1.5,0,0,1,1.5,1.5v8.87A1.5,1.5,0,0,1,126.15,74.37Zm-80.8-3h79.3V65.5H45.35Z"/></g></g></svg>