<svg xmlns="http://www.w3.org/2000/svg" viewBox="0 0 170 170.04"><defs><style>.cls-1{fill:none;opacity:0.2;}.cls-2{fill:#fff;}.cls-3{fill:#a9eeec;}</style></defs><g id="Layer_2" data-name="Layer 2"><g id="Drawings"><rect id="Rectangle_2497" data-name="Rectangle 2497" class="cls-1" y="0.02" width="170" height="170"/><circle class="cls-2" cx="24.15" cy="66.29" r="17.12"/><path class="cls-3" d="M72.08,170H.28l35.9-62.44Z"/><path class="cls-3" d="M169.85,170H95.41l37.22-64.72Z"/><path class="cls-3" d="M131.54,170H34.7L83.12,85.83Z"/><path class="cls-2" d="M40.06,120.18l-3.14,2-3.14-2.81-5.48,2,7.88-13.72,7.59,13.19Z"/><path class="cls-2" d="M142.11,129.76l-4.4-3.8-5.08,4-6.87-4.46-6.08,2.38,12.95-22.52,13,22.61Z"/><path class="cls-2" d="M96.56,118l-4.48,4.13-9-3.47-6.57,3.47-11.86-4.28,18.43-32,18.63,32.4Z"/><path class="cls-2" d="M149.69,37.81h-.53a9.67,9.67,0,0,0-19-.79,5.5,5.5,0,0,0-3-.9,5.53,5.53,0,0,0-5.19,7.52,6.84,6.84,0,0,0,.92,13.61h26.84a9.73,9.73,0,1,0,0-19.45Z"/><path d="M1.56,47.71a1.5,1.5,0,0,1-.38-3L168.05.05a1.5,1.5,0,0,1,.77,2.9L2,47.66A1.31,1.31,0,0,1,1.56,47.71Z"/><path class="cls-3" d="M100.11,19.89,72.32,27.34a4.7,4.7,0,0,1-5.91-4.54h0a4.7,4.7,0,0,1,3.48-4.53l27.79-7.44a4.69,4.69,0,0,1,5.91,4.53h0A4.7,4.7,0,0,1,100.11,19.89Z"/><path d="M71.09,29A6.2,6.2,0,0,1,69.5,16.82L97.29,9.38a6.19,6.19,0,1,1,3.21,12h0L72.71,28.79A6.43,6.43,0,0,1,71.09,29ZM98.9,12.17a2.91,2.91,0,0,0-.83.11L70.28,19.72a3.19,3.19,0,1,0,1.65,6.17l27.79-7.45a3.19,3.19,0,0,0,1.12-5.61A3.16,3.16,0,0,0,98.9,12.17Zm1.21,7.72h0Z"/><path d="M85,48.7a1.5,1.5,0,0,1-1.5-1.5V24.08a1.5,1.5,0,0,1,3,0V47.2A1.5,1.5,0,0,1,85,48.7Z"/><path d="M75.24,65.79a1.59,1.59,0,0,1-.75-.2,1.51,1.51,0,0,1-.55-2.05L83.28,47.2a1.5,1.5,0,0,1,2.61,1.48L76.54,65A1.49,1.49,0,0,1,75.24,65.79Z"/><path d="M94.93,65.79A1.51,1.51,0,0,1,93.62,65L84.28,48.68a1.5,1.5,0,1,1,2.6-1.48l9.35,16.34a1.5,1.5,0,0,1-.56,2.05A1.52,1.52,0,0,1,94.93,65.79Z"/><rect class="cls-2" x="50.32" y="59.09" width="69.36" height="54.06" rx="11.86"/><path d="M107.82,114.65H62.18a13.37,13.37,0,0,1-13.36-13.36V71A13.37,13.37,0,0,1,62.18,57.59h45.64A13.37,13.37,0,0,1,121.18,71v30.34A13.37,13.37,0,0,1,107.82,114.65ZM62.18,60.59A10.37,10.37,0,0,0,51.82,71v30.34a10.37,10.37,0,0,0,10.36,10.36h45.64a10.37,10.37,0,0,0,10.36-10.36V71a10.37,10.37,0,0,0-10.36-10.36Z"/><path class="cls-3" d="M50.32,86.09h69.36a0,0,0,0,1,0,0v15.2a11.86,11.86,0,0,1-11.86,11.86H62.18a11.86,11.86,0,0,1-11.86-11.86V86.09A0,0,0,0,1,50.32,86.09Z"/><path d="M107.82,114.65H62.18a13.37,13.37,0,0,1-13.36-13.36V86.09a1.5,1.5,0,0,1,1.5-1.5h69.36a1.5,1.5,0,0,1,1.5,1.5v15.2A13.37,13.37,0,0,1,107.82,114.65Zm-56-27.06v13.7a10.37,10.37,0,0,0,10.36,10.36h45.64a10.37,10.37,0,0,0,10.36-10.36V87.59Z"/><path d="M73.44,114.39a1.5,1.5,0,0,1-1.5-1.5V59.77a1.5,1.5,0,0,1,3,0v53.12A1.5,1.5,0,0,1,73.44,114.39Z"/><path d="M96.56,114a1.5,1.5,0,0,1-1.5-1.5V59.39a1.5,1.5,0,1,1,3,0v53.13A1.5,1.5,0,0,1,96.56,114Z"/><path d="M119.05,87.62H51a1.5,1.5,0,1,1,0-3h68a1.5,1.5,0,1,1,0,3Z"/></g></g></svg>