<svg xmlns="http://www.w3.org/2000/svg" viewBox="0 0 170 170"><defs><style>.cls-1{fill:none;opacity:0.2;}.cls-2,.cls-4{fill:#a9eeec;}.cls-3{fill:#fff;}.cls-4{isolation:isolate;}</style></defs><g id="Layer_2" data-name="Layer 2"><g id="Drawings"><rect id="Rectangle_2497" data-name="Rectangle 2497" class="cls-1" width="170" height="170"/><path class="cls-2" d="M170,170V141.56a413.07,413.07,0,0,0-170,0V170Z"/><path class="cls-3" d="M157.6,18.58h-.67a12,12,0,0,0-23.64-1,6.81,6.81,0,0,0-3.76-1.12,6.9,6.9,0,0,0-6.45,9.35,8.5,8.5,0,0,0,1.15,16.92H157.6a12.09,12.09,0,1,0,0-24.18Z"/><path class="cls-3" d="M100.66,153.64s0,2.19-15.66,2.19-15.66-2.19-15.66-2.19,5.47-36.51,5.47-49.52c0-6.19,20.38-6.19,20.38,0C95.19,117.13,100.66,153.64,100.66,153.64Z"/><path d="M85,157.33c-15.21,0-17.16-2-17.16-3.69a1.55,1.55,0,0,1,0-.22c.06-.37,5.46-36.55,5.46-49.3C73.31,99.88,79.18,98,85,98s11.69,1.9,11.69,6.14c0,12.75,5.4,48.93,5.46,49.3a1.55,1.55,0,0,1,0,.22C102.16,155.36,100.21,157.33,85,157.33ZM70.94,153c1,.41,4.29,1.29,14.06,1.29s13-.88,14.06-1.29c-.83-5.62-5.37-36.88-5.37-48.92,0-1.7-4-3.14-8.69-3.14s-8.69,1.44-8.69,3.14C76.31,116.16,71.77,147.42,70.94,153Z"/><path class="cls-2" d="M16.33,14.43A1.5,1.5,0,0,1,15,13.56a6.52,6.52,0,0,1,8.22-8.82,6.42,6.42,0,0,1,3.65,3.4,1.49,1.49,0,1,1-2.72,1.24,3.53,3.53,0,0,0-6.42,2.93,1.49,1.49,0,0,1-1.36,2.12Z"/><path class="cls-2" d="M25.47,10.26a1.48,1.48,0,0,1-1.36-.88A6.52,6.52,0,1,1,36,4a1.5,1.5,0,0,1-2.73,1.24,3.52,3.52,0,0,0-4.67-1.74,3.54,3.54,0,0,0-1.75,4.67,1.49,1.49,0,0,1-1.36,2.12Z"/><path id="Path_5267" data-name="Path 5267" class="cls-4" d="M91.7,133.51l-6.27,6.27a.63.63,0,0,1-.86,0l-6.26-6.26A5,5,0,0,1,76.6,130a4.5,4.5,0,0,1,8.4-2.26A4.5,4.5,0,0,1,93.4,130,5.09,5.09,0,0,1,91.7,133.51Z"/><path class="cls-2" d="M145,62.06a18.89,18.89,0,0,0-18.89-18.89h0a18.89,18.89,0,0,0-18.87-18.28A20.91,20.91,0,0,0,105,25a18.89,18.89,0,0,0-36-5.33,18.85,18.85,0,0,0-23,21,18.89,18.89,0,0,0-6.29,37.2c0,.16,0,.31,0,.47A18.91,18.91,0,0,0,66,95.76a18.89,18.89,0,0,0,33.8,2.83A18.89,18.89,0,0,0,129.4,83a20,20,0,0,0-.15-2.33A18.89,18.89,0,0,0,145,62.06Z"/><path d="M83.6,109.27a20.26,20.26,0,0,1-18.4-11.6,20.18,20.18,0,0,1-6.6,1.1,20.43,20.43,0,0,1-20.39-19.7,20.39,20.39,0,0,1,5.66-40h.47c0-.33,0-.67,0-1A20.42,20.42,0,0,1,64.71,17.7a19.63,19.63,0,0,1,3.41.29,20.39,20.39,0,0,1,38.13,5.42c.34,0,.66,0,1,0a20.28,20.28,0,0,1,20.28,18.32,20.4,20.4,0,0,1,3.35,40.19c0,.38,0,.75,0,1.12a20.4,20.4,0,0,1-30.65,17.63A20.54,20.54,0,0,1,83.6,109.27ZM66,94.26a1.51,1.51,0,0,1,1.39.95,17.4,17.4,0,0,0,31.12,2.61,1.48,1.48,0,0,1,1-.7,1.52,1.52,0,0,1,1.17.24A17.4,17.4,0,0,0,127.9,83a17.59,17.59,0,0,0-.14-2.14A1.51,1.51,0,0,1,129,79.21a17.39,17.39,0,0,0-2.87-34.54,1.53,1.53,0,0,1-1.52-1.46,17.3,17.3,0,0,0-17.37-16.82,18.49,18.49,0,0,0-2.07.12,1.5,1.5,0,0,1-1.67-1.3A17.39,17.39,0,0,0,70.34,20.3a1.51,1.51,0,0,1-1.71.85A17.39,17.39,0,0,0,47.31,38.09a18.1,18.1,0,0,0,.17,2.41,1.48,1.48,0,0,1-.41,1.26,1.5,1.5,0,0,1-1.24.44,19,19,0,0,0-2-.11A17.39,17.39,0,0,0,40,76.45,1.49,1.49,0,0,1,41.21,78v.43a17.4,17.4,0,0,0,24.22,16A1.45,1.45,0,0,1,66,94.26Z"/></g></g></svg>