<svg xmlns="http://www.w3.org/2000/svg" viewBox="0 0 170 170"><defs><style>.cls-1{fill:none;opacity:0.2;}.cls-2{fill:#a9eeec;}.cls-3{fill:#fff;}</style></defs><g id="Layer_2" data-name="Layer 2"><g id="Drawings"><rect id="Rectangle_2497" data-name="Rectangle 2497" class="cls-1" width="170" height="170"/><circle class="cls-2" cx="85" cy="85" r="85"/><path id="Path_5299" data-name="Path 5299" class="cls-2" d="M86.58,87.84a14,14,0,0,1-8.45,22.26,8.35,8.35,0,0,1-16,1.82,8.35,8.35,0,0,1-16-1.59,12.06,12.06,0,0,1-7.85-20.56,10.3,10.3,0,0,1,.84-14.54,10.85,10.85,0,0,1,1.79-1.29A8.34,8.34,0,0,1,47.22,64a9.1,9.1,0,0,1,1.26-.18,8.33,8.33,0,0,1,13.88-2.69,8.35,8.35,0,0,1,11.8-.4,8.47,8.47,0,0,1,2.32,3.8,7.15,7.15,0,0,1,5.83,10.7,7.16,7.16,0,0,1,4.27,12.61Z"/><path d="M54.3,118.73a9.75,9.75,0,0,1-3.57-.68,9.92,9.92,0,0,1-5.85-6.33,13.56,13.56,0,0,1-11.65-14.2,13.59,13.59,0,0,1,3.05-7.82,11.81,11.81,0,0,1,1.8-15.59,11.21,11.21,0,0,1,1.15-.91A9.85,9.85,0,0,1,46.9,62.53l.56-.1a9.84,9.84,0,0,1,12.36-4.79,10,10,0,0,1,2.54,1.46,9.85,9.85,0,0,1,15.23,4,8.62,8.62,0,0,1,6.82,10.94A8.66,8.66,0,0,1,88.53,88a15.47,15.47,0,0,1-9.12,23.35,9.86,9.86,0,0,1-17.32,3.57A9.89,9.89,0,0,1,54.3,118.73Zm2-58.75a6.88,6.88,0,0,0-6.39,4.38,1.5,1.5,0,0,1-1.3,1,7.22,7.22,0,0,0-1,.14,6.84,6.84,0,0,0-5.2,8.16,1.51,1.51,0,0,1-.73,1.63,8.79,8.79,0,0,0-2.25,13.52,1.5,1.5,0,0,1-.06,2.06,10.55,10.55,0,0,0,6.87,18,1.5,1.5,0,0,1,1.39,1.24,6.85,6.85,0,0,0,13.13,1.3,1.51,1.51,0,0,1,2.8,0,6.85,6.85,0,0,0,13.16-1.49,1.49,1.49,0,0,1,1.2-1.25,12.67,12.67,0,0,0,5.27-2.37,12.5,12.5,0,0,0,2.27-17.51,1.49,1.49,0,0,1,.22-2,5.67,5.67,0,0,0-3.38-10A1.5,1.5,0,0,1,81,76a1.49,1.49,0,0,1,0-1.46A5.75,5.75,0,0,0,81.75,72a5.66,5.66,0,0,0-5.35-6A1.48,1.48,0,0,1,75,64.94a6.84,6.84,0,0,0-11.58-2.79,1.53,1.53,0,0,1-1.1.48h0a1.51,1.51,0,0,1-1.09-.48,6.83,6.83,0,0,0-5-2.17Z"/><path d="M78.4,77.89a1.5,1.5,0,0,1-1.5-1.5,7.35,7.35,0,0,0-14.7,0,1.5,1.5,0,0,1-3,0,10.35,10.35,0,0,1,20.7,0A1.5,1.5,0,0,1,78.4,77.89Z"/><path d="M50.69,82a1.48,1.48,0,0,1-1.06-.44,1.51,1.51,0,0,1,0-2.12,15.41,15.41,0,0,1,21.77,0,1.5,1.5,0,1,1-2.12,2.12,12.42,12.42,0,0,0-17.53,0A1.45,1.45,0,0,1,50.69,82Z"/><polygon class="cls-3" points="82.17 64.82 78.55 67.38 76.59 78.23 76.59 100.96 76.59 109.2 80.86 110.89 103.12 110.89 104.76 107 105.53 82.64 105.05 71.17 101.48 64.82 98.11 66.61 94.93 66.82 91.06 64.82 88.43 65.92 85.72 67.03 83.78 66.26 82.17 64.82"/><rect class="cls-2" x="83.99" y="45.97" width="13.67" height="5.83" rx="1.5"/><path d="M96.15,53.3H85.49a3,3,0,0,1-3-3V47.48a3,3,0,0,1,3-3H96.15a3,3,0,0,1,3,3v2.81A3,3,0,0,1,96.15,53.3ZM85.49,47.47v2.82H96.16V47.48Z"/><path d="M95.75,68.42a4.85,4.85,0,0,1-3.39-1.34,2,2,0,0,0-1.49-.66,2,2,0,0,0-1.48.66,4.95,4.95,0,0,1-6.77,0,2,2,0,0,0-1.48-.66,1.5,1.5,0,0,1,0-3,4.87,4.87,0,0,1,3.39,1.35,2,2,0,0,0,1.47.65,2,2,0,0,0,1.49-.65,4.92,4.92,0,0,1,6.77,0,2,2,0,0,0,1.49.65,2,2,0,0,0,1.48-.65,4.85,4.85,0,0,1,3.39-1.35,1.5,1.5,0,0,1,0,3,2,2,0,0,0-1.49.66A4.85,4.85,0,0,1,95.75,68.42Z"/><path d="M101.29,112.69H80.36a5.27,5.27,0,0,1-5.27-5.26V75a17.11,17.11,0,0,1,2.76-9.32l6.54-10.08V51.8a1.5,1.5,0,0,1,1.5-1.5h9.86a1.5,1.5,0,0,1,1.5,1.5v3.75l6.54,10.08A17,17,0,0,1,106.55,75v32.48A5.27,5.27,0,0,1,101.29,112.69ZM87.39,53.3V56a1.45,1.45,0,0,1-.24.81L80.37,67.27A14,14,0,0,0,78.09,75v32.48a2.27,2.27,0,0,0,2.27,2.26h20.93a2.26,2.26,0,0,0,2.26-2.26V75a14,14,0,0,0-2.27-7.68L94.5,56.81a1.46,1.46,0,0,1-.25-.81V53.3Z"/><path d="M82.17,99.63a1.5,1.5,0,0,1-1.5-1.5V75a17.06,17.06,0,0,1,.68-4.76,1.5,1.5,0,0,1,2.88.83A14.14,14.14,0,0,0,83.67,75V98.13A1.5,1.5,0,0,1,82.17,99.63Z"/><path d="M82.17,107.07a1.5,1.5,0,0,1-1.5-1.5v-3a1.5,1.5,0,0,1,3,0v3A1.5,1.5,0,0,1,82.17,107.07Z"/><polygon class="cls-3" points="107.42 70.61 103.8 73.17 101.84 84.02 101.84 106.74 101.84 114.98 106.1 116.67 128.37 116.67 130 112.78 130.77 88.42 130.29 76.96 126.72 70.61 123.35 72.4 120.18 72.61 116.3 70.61 113.68 71.71 110.96 72.81 109.02 72.04 107.42 70.61"/><rect class="cls-2" x="109.23" y="51.76" width="13.67" height="5.83" rx="1.5"/><path d="M121.4,59.08H110.73a3,3,0,0,1-3-3V53.26a3,3,0,0,1,3-3H121.4a3,3,0,0,1,3,3v2.82A3,3,0,0,1,121.4,59.08Zm-10.67-5.82v2.82H121.4V53.26Z"/><path d="M121,74.21a4.85,4.85,0,0,1-3.39-1.34,2,2,0,0,0-1.48-.66,2,2,0,0,0-1.49.66,4.95,4.95,0,0,1-6.77,0,2,2,0,0,0-1.48-.66,1.5,1.5,0,0,1,0-3,4.9,4.9,0,0,1,3.39,1.34,2,2,0,0,0,3,0,4.95,4.95,0,0,1,6.77,0,2,2,0,0,0,1.49.66,2,2,0,0,0,1.48-.66,4.92,4.92,0,0,1,3.39-1.34,1.5,1.5,0,0,1,0,3,2,2,0,0,0-1.48.66A4.87,4.87,0,0,1,121,74.21Z"/><path d="M126.53,118.48H105.6a5.27,5.27,0,0,1-5.26-5.26V80.73a17.09,17.09,0,0,1,2.75-9.31l6.55-10.08V57.58a1.5,1.5,0,0,1,1.5-1.5H121a1.51,1.51,0,0,1,1.5,1.5v3.76L129,71.42a17.09,17.09,0,0,1,2.75,9.31v32.49A5.27,5.27,0,0,1,126.53,118.48Zm-13.89-59.4v2.7a1.52,1.52,0,0,1-.25.82l-6.78,10.45a14.05,14.05,0,0,0-2.27,7.68v32.49a2.26,2.26,0,0,0,2.26,2.26h20.93a2.26,2.26,0,0,0,2.26-2.26V80.73a14.05,14.05,0,0,0-2.27-7.68L119.74,62.6a1.51,1.51,0,0,1-.24-.82v-2.7Z"/><path d="M107.42,105.42a1.5,1.5,0,0,1-1.5-1.5V80.73a16.93,16.93,0,0,1,.67-4.75,1.5,1.5,0,1,1,2.88.83,14.11,14.11,0,0,0-.55,3.92v23.19A1.5,1.5,0,0,1,107.42,105.42Z"/><path d="M107.42,112.86a1.5,1.5,0,0,1-1.5-1.5v-3a1.5,1.5,0,0,1,3,0v3A1.5,1.5,0,0,1,107.42,112.86Z"/><path class="cls-3" d="M112.2,147.4H57.8a16.55,16.55,0,0,1-16.29-13.63L34.66,95.69H135.34l-6.85,38.08A16.55,16.55,0,0,1,112.2,147.4Z"/><path d="M112.2,148.9H57.8A18,18,0,0,1,40,134L33.18,96a1.5,1.5,0,0,1,1.48-1.76H135.34A1.5,1.5,0,0,1,136.82,96L130,134A18,18,0,0,1,112.2,148.9ZM36.45,97.19,43,133.5A15.06,15.06,0,0,0,57.8,145.9h54.4A15.06,15.06,0,0,0,127,133.5l6.53-36.31Z"/><rect class="cls-3" x="27.68" y="83.81" width="114.63" height="11.87" rx="3.52"/><path d="M138.8,97.19H31.2a5,5,0,0,1-5-5V87.33a5,5,0,0,1,5-5H138.8a5,5,0,0,1,5,5v4.84A5,5,0,0,1,138.8,97.19ZM31.2,85.31a2,2,0,0,0-2,2v4.84a2,2,0,0,0,2,2H138.8a2,2,0,0,0,2-2V87.33a2,2,0,0,0-2-2Z"/><rect class="cls-3" x="22.69" y="54.59" width="70.5" height="6.54" rx="3.27" transform="translate(-17.13 90.57) rotate(-68.5)"/><path d="M46.22,92.39a4.85,4.85,0,0,1-1.75-.33,4.79,4.79,0,0,1-2.69-6.19L65.23,26.36a4.75,4.75,0,0,1,6.18-2.69,4.76,4.76,0,0,1,2.69,6.18L50.66,89.37A4.76,4.76,0,0,1,48.12,92,4.66,4.66,0,0,1,46.22,92.39ZM69.66,26.33a1.69,1.69,0,0,0-.7.15,1.77,1.77,0,0,0-.94,1L44.58,87a1.76,1.76,0,0,0,1,2.29,1.74,1.74,0,0,0,1.36,0,1.75,1.75,0,0,0,.94-1L71.31,28.75h0a1.77,1.77,0,0,0-1-2.29A1.84,1.84,0,0,0,69.66,26.33Z"/><rect class="cls-3" x="76.81" y="54.19" width="70.5" height="6.54" rx="3.27" transform="translate(99.67 182.78) rotate(-111.5)"/><path d="M123.78,92a4.83,4.83,0,0,1-1.9-.4A4.75,4.75,0,0,1,119.34,89L95.9,29.45a4.77,4.77,0,1,1,8.87-3.5l23.45,59.52a4.78,4.78,0,0,1-2.69,6.18A4.86,4.86,0,0,1,123.78,92ZM100.33,25.93a1.81,1.81,0,0,0-.64.12,1.79,1.79,0,0,0-1,.95,1.75,1.75,0,0,0,0,1.35h0l23.44,59.51a1.77,1.77,0,1,0,3.29-1.29L102,27.05A1.77,1.77,0,0,0,100.33,25.93Z"/><rect class="cls-3" x="81.59" y="102.91" width="6.82" height="37.26" rx="3.41"/><path d="M85,141.67a4.91,4.91,0,0,1-4.91-4.91V106.32a4.91,4.91,0,0,1,9.82,0v30.44A4.91,4.91,0,0,1,85,141.67Zm0-37.26a1.92,1.92,0,0,0-1.91,1.91v30.44a1.91,1.91,0,0,0,3.82,0V106.32A1.92,1.92,0,0,0,85,104.41Z"/><rect class="cls-3" x="67.64" y="102.91" width="6.82" height="37.26" rx="3.41"/><path d="M71.05,141.67a4.92,4.92,0,0,1-4.91-4.91V106.32a4.91,4.91,0,0,1,9.82,0v30.44A4.91,4.91,0,0,1,71.05,141.67Zm0-37.26a1.92,1.92,0,0,0-1.91,1.91v30.44a1.91,1.91,0,0,0,3.82,0V106.32A1.91,1.91,0,0,0,71.05,104.41Z"/><rect class="cls-3" x="53.7" y="102.91" width="6.82" height="37.26" rx="3.41"/><path d="M57.11,141.67a4.91,4.91,0,0,1-4.91-4.91V106.32a4.91,4.91,0,0,1,9.82,0v30.44A4.92,4.92,0,0,1,57.11,141.67Zm0-37.26a1.91,1.91,0,0,0-1.91,1.91v30.44a1.91,1.91,0,0,0,3.82,0V106.32A1.92,1.92,0,0,0,57.11,104.41Z"/><rect class="cls-3" x="95.54" y="102.91" width="6.82" height="37.26" rx="3.41"/><path d="M99,141.67A4.91,4.91,0,0,1,94,136.76V106.32a4.91,4.91,0,0,1,9.82,0v30.44A4.92,4.92,0,0,1,99,141.67Zm0-37.26A1.91,1.91,0,0,0,97,106.32v30.44a1.91,1.91,0,0,0,3.82,0V106.32A1.92,1.92,0,0,0,99,104.41Z"/><rect class="cls-3" x="109.48" y="102.91" width="6.82" height="37.26" rx="3.41"/><path d="M112.89,141.67a4.92,4.92,0,0,1-4.91-4.91V106.32a4.91,4.91,0,0,1,9.82,0v30.44A4.91,4.91,0,0,1,112.89,141.67Zm0-37.26a1.92,1.92,0,0,0-1.91,1.91v30.44a1.91,1.91,0,0,0,3.82,0V106.32A1.91,1.91,0,0,0,112.89,104.41Z"/></g></g></svg>