<svg xmlns="http://www.w3.org/2000/svg" viewBox="0 0 170 170"><defs><style>.cls-1{fill:none;opacity:0.2;}.cls-2{fill:#fdcaa6;}.cls-3{fill:#fff;}</style></defs><g id="Layer_2" data-name="Layer 2"><g id="Drawings"><rect id="Rectangle_2497" data-name="Rectangle 2497" class="cls-1" width="170" height="170"/><path class="cls-2" d="M0,170H170V129.84a245.42,245.42,0,0,0-170,0Z"/><path class="cls-3" d="M154.05,13.69q-.44,0-.87,0A15.85,15.85,0,0,0,122,12.41a9.09,9.09,0,0,0-13.46,10.85,11.21,11.21,0,0,0,1.51,22.32h44a15.95,15.95,0,1,0,0-31.89Z"/><path class="cls-3" d="M40,95.56h.85a3,3,0,0,1,3,3v34.13a0,0,0,0,1,0,0H37a0,0,0,0,1,0,0V98.58a3,3,0,0,1,3-3Z"/><path d="M43.84,134.21H37a1.5,1.5,0,0,1-1.5-1.5V98.58A4.52,4.52,0,0,1,40,94.06h.85a4.52,4.52,0,0,1,4.52,4.52v34.13A1.5,1.5,0,0,1,43.84,134.21Zm-5.38-3h3.88V98.58a1.52,1.52,0,0,0-1.52-1.52H40a1.52,1.52,0,0,0-1.51,1.52Z"/><path class="cls-3" d="M129.18,95.56H130a3,3,0,0,1,3,3v34.13a0,0,0,0,1,0,0h-6.89a0,0,0,0,1,0,0V98.58A3,3,0,0,1,129.18,95.56Z"/><path d="M133,134.21h-6.88a1.5,1.5,0,0,1-1.5-1.5V98.58a4.52,4.52,0,0,1,4.52-4.52H130a4.52,4.52,0,0,1,4.51,4.52v34.13A1.5,1.5,0,0,1,133,134.21Zm-5.38-3h3.88V98.58A1.52,1.52,0,0,0,130,97.06h-.85a1.52,1.52,0,0,0-1.52,1.52Z"/><rect class="cls-3" x="24.85" y="90.88" width="120.3" height="12.81"/><path d="M145.15,105.18H24.85a1.5,1.5,0,0,1-1.5-1.5V90.88a1.5,1.5,0,0,1,1.5-1.5h120.3a1.5,1.5,0,0,1,1.5,1.5v12.8A1.5,1.5,0,0,1,145.15,105.18Zm-118.8-3h117.3v-9.8H26.35Z"/><path class="cls-3" d="M48.22,42.54h0A3.44,3.44,0,0,1,51.67,46V90.88a0,0,0,0,1,0,0H44.78a0,0,0,0,1,0,0V46A3.44,3.44,0,0,1,48.22,42.54Z"/><path d="M51.67,92.38H44.78a1.5,1.5,0,0,1-1.5-1.5V46a4.95,4.95,0,0,1,9.89,0v44.9A1.51,1.51,0,0,1,51.67,92.38Zm-5.39-3h3.89V46a1.95,1.95,0,0,0-3.89,0Z"/><path class="cls-3" d="M121.78,42.54h0A3.44,3.44,0,0,1,125.22,46V90.88a0,0,0,0,1,0,0h-6.89a0,0,0,0,1,0,0V46A3.44,3.44,0,0,1,121.78,42.54Z"/><path d="M125.22,92.38h-6.89a1.51,1.51,0,0,1-1.5-1.5V46a4.95,4.95,0,0,1,9.89,0v44.9A1.5,1.5,0,0,1,125.22,92.38Zm-5.39-3h3.89V46a1.95,1.95,0,0,0-3.89,0Z"/><rect class="cls-3" x="34.03" y="71.49" width="101.94" height="10.99"/><path d="M136,84H34a1.5,1.5,0,0,1-1.5-1.5v-11A1.5,1.5,0,0,1,34,70H136a1.5,1.5,0,0,1,1.5,1.5v11A1.5,1.5,0,0,1,136,84ZM35.53,81h98.94V73H35.53Z"/><rect class="cls-3" x="34.03" y="60.51" width="101.94" height="10.99"/><path d="M136,73H34a1.5,1.5,0,0,1-1.5-1.5v-11A1.5,1.5,0,0,1,34,59H136a1.5,1.5,0,0,1,1.5,1.5v11A1.5,1.5,0,0,1,136,73ZM35.53,70h98.94V62H35.53Z"/><rect class="cls-3" x="34.03" y="49.52" width="101.94" height="10.99"/><path d="M136,62H34a1.5,1.5,0,0,1-1.5-1.5v-11A1.5,1.5,0,0,1,34,48H136a1.5,1.5,0,0,1,1.5,1.5v11A1.5,1.5,0,0,1,136,62ZM35.53,59h98.94V51H35.53Z"/><path class="cls-3" d="M30.5,33.8h-.32a5.86,5.86,0,0,0-11.52-.48,3.31,3.31,0,0,0-1.83-.55,3.37,3.37,0,0,0-3.37,3.36,3.45,3.45,0,0,0,.22,1.2,4.14,4.14,0,0,0,.56,8.24H30.5a5.89,5.89,0,0,0,0-11.78Z"/><path class="cls-3" d="M74.07,15.83h-.26a4.77,4.77,0,0,0-9.39-.39,2.74,2.74,0,0,0-4.23,2.3,2.88,2.88,0,0,0,.18,1,3.37,3.37,0,0,0,.46,6.71H74.07a4.8,4.8,0,1,0,0-9.6Z"/></g></g></svg>