<svg xmlns="http://www.w3.org/2000/svg" viewBox="0 0 170.55 170"><defs><style>.cls-1{fill:none;opacity:0.2;}.cls-2{fill:#fdcaa6;}.cls-3{fill:#fff;}</style></defs><g id="Layer_2" data-name="Layer 2"><g id="Drawings"><rect id="Rectangle_2497" data-name="Rectangle 2497" class="cls-1" x="0.55" width="170" height="170"/><rect class="cls-2" x="0.55" width="39.63" height="20.55"/><rect class="cls-2" x="43.97" width="39.63" height="20.55"/><rect class="cls-2" x="87.39" width="39.63" height="20.55"/><rect class="cls-2" x="130.81" width="39.63" height="20.55"/><rect class="cls-2" x="0.55" y="49.04" width="39.63" height="20.55"/><rect class="cls-2" x="43.97" y="49.04" width="39.63" height="20.55"/><rect class="cls-2" x="87.39" y="49.04" width="39.63" height="20.55"/><rect class="cls-2" x="130.81" y="49.04" width="39.63" height="20.55"/><rect class="cls-2" x="0.55" y="99.32" width="39.63" height="20.55"/><rect class="cls-2" x="43.97" y="99.32" width="39.63" height="20.55"/><rect class="cls-2" x="87.39" y="99.32" width="39.63" height="20.55"/><rect class="cls-2" x="130.81" y="99.32" width="39.63" height="20.55"/><rect class="cls-2" x="0.55" y="149.45" width="39.63" height="20.55"/><rect class="cls-2" x="43.97" y="149.45" width="39.63" height="20.55"/><rect class="cls-2" x="87.39" y="149.45" width="39.63" height="20.55"/><rect class="cls-2" x="130.81" y="149.45" width="39.63" height="20.55"/><rect class="cls-2" x="22.5" y="24.73" width="39.63" height="20.55"/><rect class="cls-2" x="65.93" y="24.73" width="39.63" height="20.55"/><rect class="cls-2" x="109.35" y="24.73" width="39.63" height="20.55"/><rect class="cls-2" x="22.5" y="74.1" width="39.63" height="20.55"/><rect class="cls-2" x="65.93" y="74.1" width="39.63" height="20.55"/><rect class="cls-2" x="109.35" y="74.1" width="39.63" height="20.55"/><rect class="cls-2" x="22.5" y="124.38" width="39.63" height="20.55"/><rect class="cls-2" x="65.93" y="124.38" width="39.63" height="20.55"/><rect class="cls-2" x="109.35" y="124.38" width="39.63" height="20.55"/><path d="M117.24,55.59a1.51,1.51,0,0,1-1.06-.44L86.57,25.55,57,55.15A1.5,1.5,0,1,1,54.85,53L85.51,22.36a1.51,1.51,0,0,1,2.12,0L118.3,53a1.49,1.49,0,0,1,0,2.12A1.51,1.51,0,0,1,117.24,55.59Z"/><rect class="cls-3" x="25.75" y="52.81" width="119.58" height="86.39"/><path d="M142.34,55.81V136.2H28.75V55.81H142.34m3-3H25.75V139.2H145.34V52.81Z"/><rect class="cls-3" x="34.43" y="61.48" width="102.17" height="69.04"/><path d="M133.59,64.48v63.05H37.43v-63h96.16m3-3H34.43v69.05H136.59V61.48Z"/><rect x="29.7" y="52.11" width="3" height="12.29" transform="translate(-32.06 39.13) rotate(-45)"/><rect x="133.83" y="56.97" width="11.71" height="3" transform="translate(-0.43 115.89) rotate(-45)"/><rect x="138.33" y="127.63" width="3" height="12.12" transform="translate(-53.58 138.03) rotate(-45)"/><rect x="25.4" y="132.11" width="11.89" height="3" transform="translate(-85.29 61.29) rotate(-45)"/><circle class="cls-3" cx="86.57" cy="23.42" r="5.57"/><path d="M86.57,20.85A2.58,2.58,0,1,1,84,23.42a2.58,2.58,0,0,1,2.57-2.57m0-3a5.58,5.58,0,1,0,5.57,5.57,5.58,5.58,0,0,0-5.57-5.57Z"/><circle class="cls-2" cx="60.11" cy="85.91" r="6.09"/><circle class="cls-2" cx="46.18" cy="90.64" r="6.63"/><circle class="cls-2" cx="78.26" cy="92.42" r="6.01"/><circle class="cls-2" cx="92.14" cy="81.41" r="6.63"/><circle class="cls-2" cx="109.91" cy="88.73" r="5.92"/><circle class="cls-2" cx="125.52" cy="88.65" r="6.63"/><path class="cls-2" d="M37.46,127.91h96.08V101.33a9.66,9.66,0,0,0-15.32-.92,9.66,9.66,0,0,0-14.75-2.25,11.72,11.72,0,0,0-11.33-8.8h0a11.69,11.69,0,0,0-11.65,10.82,9.55,9.55,0,0,0-1.61-.15h0a9.66,9.66,0,0,0-7.28,3.31A11.69,11.69,0,0,0,50.12,99.5a9.8,9.8,0,0,0-3.94-.84,9.7,9.7,0,0,0-8.72,5.49Z"/><rect class="cls-2" x="152.77" y="24.73" width="17.68" height="20.55"/><rect class="cls-2" x="152.77" y="74.1" width="17.68" height="20.55"/><rect class="cls-2" x="152.77" y="124.38" width="17.68" height="20.55"/><rect class="cls-2" y="24.73" width="18.32" height="20.55"/><rect class="cls-2" y="74.1" width="18.32" height="20.55"/><rect class="cls-2" y="124.38" width="18.32" height="20.55"/></g></g></svg>