<svg xmlns="http://www.w3.org/2000/svg" viewBox="0 0 170 170"><defs><style>.cls-1{fill:none;opacity:0.2;}.cls-2{fill:#fdcaa6;}.cls-3{fill:#fff;}.cls-4{isolation:isolate;}</style></defs><g id="Layer_2" data-name="Layer 2"><g id="Drawings"><rect id="Rectangle_2497" data-name="Rectangle 2497" class="cls-1" width="170" height="170"/><polygon class="cls-2" points="85 23.76 96.19 0 100.85 25.85 117.81 5.79 115.62 31.97 137.19 16.98 128.3 41.7 153.02 32.81 138.03 54.38 164.21 52.19 144.15 69.15 170 73.81 146.24 85 170 96.19 144.15 100.85 164.21 117.81 138.03 115.62 153.02 137.19 128.3 128.3 137.19 153.02 115.62 138.03 117.81 164.21 100.85 144.15 96.19 170 85 146.24 73.81 170 69.15 144.15 52.19 164.21 54.38 138.03 32.81 153.02 41.7 128.3 16.98 137.19 31.97 115.62 5.79 117.81 25.85 100.85 0 96.19 23.76 85 0 73.81 25.85 69.15 5.79 52.19 31.97 54.38 16.98 32.81 41.7 41.7 32.81 16.98 54.38 31.97 52.19 5.79 69.15 25.85 73.81 0 85 23.76"/><path class="cls-3" d="M26.51,170V41.46a4.87,4.87,0,0,1,4.86-4.86h0a4.86,4.86,0,0,1,4.86,4.86V170"/><path d="M37.73,170h-3V41.46a3.36,3.36,0,1,0-6.72,0V170H25V41.46a6.36,6.36,0,1,1,12.72,0Z"/><path class="cls-3" d="M155.93,121.74c-44.29,30.18-88.58-29.46-132.87.72v-72c44.29-29.7,88.58,30.41,132.87.71-3.88,14.36-7.75,28.05-11.62,41.19C148.18,102.79,152.05,112.62,155.93,121.74Z"/><path d="M127.55,132c-13,0-25.88-4.29-38.53-8.5-22.41-7.45-43.58-14.49-65.11.18a1.51,1.51,0,0,1-2.35-1.24v-72a1.5,1.5,0,0,1,.67-1.25C45,34,67.86,41.81,90,49.4c22.41,7.7,43.59,15,65.11.53a1.5,1.5,0,0,1,2.28,1.64c-3.68,13.66-7.54,27.36-11.48,40.75,3.9,10.48,7.74,20.18,11.42,28.84a1.49,1.49,0,0,1-.54,1.82A50.28,50.28,0,0,1,127.55,132ZM51.43,112.18c13,0,25.88,4.29,38.54,8.5,22.06,7.33,42.91,14.27,64.09.5-3.6-8.53-7.35-18-11.16-28.28a1.54,1.54,0,0,1,0-1c3.63-12.32,7.19-24.91,10.61-37.48-21.67,12.46-43.42,5-64.47-2.23-22.19-7.61-43.15-14.81-64.45-1V119.7A50.07,50.07,0,0,1,51.43,112.18Z"/><g class="cls-4"><path d="M58.87,69.64V96.86q-2.92-.12-5.87,0V85.4A63.41,63.41,0,0,0,40.52,87V98.43a56.56,56.56,0,0,0-5.88,1.7V72.79a56.41,56.41,0,0,1,5.88-1.68v11A64.93,64.93,0,0,1,53,80.6v-11Q55.94,69.52,58.87,69.64Z"/><path d="M65,70.09c6.22.63,12.44,1.73,18.67,2.83v4.65c-4.28-.75-8.56-1.5-12.83-2.1v6.35c4,.56,8,1.25,12.06,2v4.65c-4-.7-8-1.38-12.06-1.94V93.3c4.27.58,8.55,1.32,12.83,2V100C77.46,98.93,71.24,97.87,65,97.27Z"/><path d="M88.56,73.78c2,.34,4,.67,6,1V96.9c4,.59,8.07,1.07,12.1,1.3v4.85a169.15,169.15,0,0,1-18.09-2.22Z"/><path d="M111,76.27a68.61,68.61,0,0,0,12.45-.86c2.94-.49,5.23-.35,6.87.64s2.46,2.73,2.46,5.37a10.55,10.55,0,0,1-2.46,7,11.12,11.12,0,0,1-6.87,3.8,61.56,61.56,0,0,1-6.45.75V103c-2,.14-4,.19-6,.17ZM122.63,87.8c3-.48,4.49-2.17,4.49-4.72A2.94,2.94,0,0,0,126,80.4a5,5,0,0,0-3.38-.33c-1.89.29-3.79.49-5.68.61v7.74C118.84,88.3,120.74,88.09,122.63,87.8Z"/></g></g></g></svg>