<svg xmlns="http://www.w3.org/2000/svg" xmlns:xlink="http://www.w3.org/1999/xlink" viewBox="0 0 170 170"><defs><style>.cls-1,.cls-2{fill:none;}.cls-2{opacity:0.2;}.cls-3{fill:#fdcaa6;}.cls-4{fill:#fff;}.cls-5{clip-path:url(#clip-path);}.cls-6{clip-path:url(#clip-path-2);}</style><clipPath id="clip-path"><path class="cls-1" d="M118.24,128.88l-13.81-8.19s3.72-15.55,5.87-20.52c2.93-6.76,12.29-20.73,23.85-13.88s3.8,21.77-.72,27.58C130.1,118.14,118.24,128.88,118.24,128.88Z"/></clipPath><clipPath id="clip-path-2"><path class="cls-1" d="M76.31,148.5l-14.72-6.43s1.79-15.89,3.32-21.09c2.07-7.06,9.64-22.08,22-16.7s6.44,21.14,2.67,27.46C86.76,136.39,76.31,148.5,76.31,148.5Z"/></clipPath></defs><g id="Layer_2" data-name="Layer 2"><g id="Drawings"><rect id="Rectangle_2497" data-name="Rectangle 2497" class="cls-2" width="170" height="170"/><path class="cls-3" d="M170,0H56.41C56.41,26.53,27.18,59.15,0,91.34V170H113.59c0-26.53,29.23-59.15,56.41-91.34Z"/><path class="cls-4" d="M30.09,72.36H48a0,0,0,0,1,0,0v9a9,9,0,0,1-9,9h0a9,9,0,0,1-9-9v-9a0,0,0,0,1,0,0Z" transform="translate(50.31 -8.19) rotate(32.81)"/><path d="M37.28,73.08l10,6.47-3.24,5A6,6,0,0,1,34,78.1l3.24-5m-.9-4.15-4.86,7.55A9,9,0,0,0,46.6,86.2l4.87-7.54L36.38,68.93Z"/><path class="cls-4" d="M53.69,74.86,38.81,65.27s4.75-17,7.32-22.37C49.63,35.58,60.52,20.58,73,28.61S76.26,52.75,71,59C67.19,63.53,53.69,74.86,53.69,74.86Z"/><path d="M65.69,26.31v3h0a10.24,10.24,0,0,1,5.66,1.82,9.74,9.74,0,0,1,4.74,7c.43,2.88-.25,6.45-2,10.32A38.26,38.26,0,0,1,68.74,57c-2.85,3.39-11.59,11-15.29,14.11L42.3,64c1.35-4.67,4.63-15.76,6.54-19.75,2.86-6,9.71-14.89,16.85-14.89v-3m0,0c-9.25,0-16.76,10.75-19.56,16.59-2.57,5.39-7.32,22.37-7.32,22.37l14.88,9.59S67.19,63.53,71,59C76.26,52.75,85.43,36.64,73,28.61a13.27,13.27,0,0,0-7.29-2.3Z"/><path d="M63.17,64.84a1.5,1.5,0,0,1-.81-.24L45.15,53.5A1.5,1.5,0,1,1,46.78,51L64,62.07a1.5,1.5,0,0,1-.82,2.77Z"/><path d="M58.17,69.23a1.52,1.52,0,0,1-.81-.24L42.75,59.56A1.5,1.5,0,0,1,44.37,57L59,66.47a1.5,1.5,0,0,1,.45,2.07A1.52,1.52,0,0,1,58.17,69.23Z"/><path d="M68.42,60.6a1.42,1.42,0,0,1-.81-.24l-21.1-13.6a1.5,1.5,0,0,1,1.62-2.52l21.1,13.6a1.5,1.5,0,0,1-.81,2.76Z"/><path d="M72.22,55.44a1.56,1.56,0,0,1-.82-.24L50,41.38a1.5,1.5,0,0,1,1.62-2.52L73,52.68a1.5,1.5,0,0,1-.81,2.76Z"/><path d="M74.94,49.58a1.5,1.5,0,0,1-.81-.24L53.44,36a1.5,1.5,0,0,1,1.63-2.52L75.75,46.82a1.5,1.5,0,0,1-.81,2.76Z"/><path d="M77,43.32a1.49,1.49,0,0,1-.81-.23L59,32a1.5,1.5,0,1,1,1.63-2.52L77.86,40.56a1.51,1.51,0,0,1,.44,2.08A1.49,1.49,0,0,1,77,43.32Z"/><path class="cls-4" d="M85,53.07H103a0,0,0,0,1,0,0v9a9,9,0,0,1-9,9h0a9,9,0,0,1-9-9v-9A0,0,0,0,1,85,53.07Z" transform="translate(44.77 -39.26) rotate(30.65)"/><path d="M91.92,53.86,102.2,60l-3,5.14A6,6,0,1,1,88.87,59l3-5.14m-1-4.11-4.58,7.72a9,9,0,1,0,15.44,9.15l4.58-7.72L90.87,49.75Z"/><path class="cls-4" d="M108.38,55,93.15,46s4.11-17.14,6.48-22.62c3.22-7.45,13.54-22.85,26.29-15.3s4.19,24-.8,30.4C121.45,43.2,108.38,55,108.38,55Z"/><path d="M119,9.05h0a10.57,10.57,0,0,1,5.39,1.61,9.71,9.71,0,0,1,5,6.77c.54,2.86,0,6.45-1.58,10.39a38.35,38.35,0,0,1-5,8.82C120,40.13,111.58,48,108,51.31L96.59,44.55c1.17-4.72,4-15.92,5.79-20,2.7-6.24,9.35-15.52,16.62-15.52m0-3c-9.47,0-16.76,11.28-19.37,17.33C97.26,28.86,93.15,46,93.15,46l15.23,9s13.07-11.83,16.74-16.55c5-6.4,13.54-22.85.8-30.4a13.47,13.47,0,0,0-6.92-2Z"/><path d="M117.26,44.43a1.5,1.5,0,0,1-.76-.21L98.89,33.78a1.5,1.5,0,1,1,1.53-2.58L118,41.64a1.5,1.5,0,0,1-.77,2.79Z"/><path d="M112.43,49a1.41,1.41,0,0,1-.76-.21l-15-8.86a1.5,1.5,0,1,1,1.53-2.58l15,8.86a1.5,1.5,0,0,1-.77,2.79Z"/><path d="M122.34,40a1.5,1.5,0,0,1-.76-.21L100,27a1.49,1.49,0,0,1-.53-2,1.51,1.51,0,0,1,2.06-.53l21.59,12.8a1.5,1.5,0,0,1-.77,2.79Z"/><path d="M126,34.7a1.54,1.54,0,0,1-.77-.21l-21.93-13a1.5,1.5,0,1,1,1.53-2.58l21.93,13A1.5,1.5,0,0,1,126,34.7Z"/><path d="M128.45,28.74a1.44,1.44,0,0,1-.77-.21L106.51,16A1.5,1.5,0,0,1,108,13.4L129.21,26a1.5,1.5,0,0,1-.76,2.79Z"/><path d="M130.31,22.41a1.5,1.5,0,0,1-.76-.21L111.93,11.76a1.5,1.5,0,0,1,1.53-2.58l17.62,10.44a1.5,1.5,0,0,1-.77,2.79Z"/><path class="cls-4" d="M97.07,127.1h16.28a0,0,0,0,1,0,0v8.14a8.14,8.14,0,0,1-8.14,8.14h0a8.14,8.14,0,0,1-8.14-8.14V127.1A0,0,0,0,1,97.07,127.1Z" transform="translate(83.66 -34.74) rotate(30.65)"/><path d="M103.41,128.2l8.84,5.24-2.62,4.42a5.16,5.16,0,0,1-4.43,2.52,5,5,0,0,1-2.61-.72,5.13,5.13,0,0,1-1.8-7l2.62-4.42m-1-4.11-4.15,7a8.14,8.14,0,1,0,14,8.3l4.15-7-14-8.3Z"/><path class="cls-4" d="M118.24,128.88l-13.81-8.19s3.72-15.55,5.87-20.52c2.93-6.76,12.29-20.73,23.85-13.88s3.8,21.77-.72,27.58C130.1,118.14,118.24,128.88,118.24,128.88Z"/><path d="M127.88,87.45h0a9.26,9.26,0,0,1,4.74,1.42A8.52,8.52,0,0,1,137,94.82c1.16,6.09-3.39,13.92-5.95,17.21-2.24,2.87-9.24,9.48-13.2,13.13l-10-5.92c1.3-5.23,3.74-14.54,5.19-17.88,2.41-5.59,8.36-13.91,14.82-13.91m0-3c-8.58,0-15.2,10.23-17.57,15.72-2.15,5-5.87,20.52-5.87,20.52l13.81,8.19s11.86-10.74,15.19-15c4.52-5.81,12.28-20.72.72-27.58a12.2,12.2,0,0,0-6.28-1.84Z"/><g class="cls-5"><path d="M118.79,90.8a1.5,1.5,0,0,1-.37-3l5.5-1.41a1.5,1.5,0,0,1,.74,2.91l-5.5,1.4A1.18,1.18,0,0,1,118.79,90.8Z"/><path d="M122.24,92.85a1.49,1.49,0,0,1-1.45-1.13l-1.41-5.5a1.5,1.5,0,0,1,2.91-.74L123.7,91a1.5,1.5,0,0,1-1.08,1.82A1.65,1.65,0,0,1,122.24,92.85Z"/><path d="M127.16,95.76a1.5,1.5,0,0,1-.37-3l5.5-1.41a1.5,1.5,0,1,1,.74,2.91l-5.5,1.41A1.5,1.5,0,0,1,127.16,95.76Z"/><path d="M130.62,97.81a1.51,1.51,0,0,1-1.46-1.13l-1.4-5.5a1.5,1.5,0,0,1,2.9-.74l1.41,5.5A1.5,1.5,0,0,1,131,97.76,1.22,1.22,0,0,1,130.62,97.81Z"/><path d="M135.53,100.73a1.5,1.5,0,0,1-.37-3l5.5-1.4a1.5,1.5,0,1,1,.75,2.9l-5.5,1.41A1.65,1.65,0,0,1,135.53,100.73Z"/><path d="M139,102.77a1.51,1.51,0,0,1-1.46-1.13l-1.4-5.5a1.5,1.5,0,1,1,2.9-.74l1.41,5.5a1.51,1.51,0,0,1-1.08,1.83A1.61,1.61,0,0,1,139,102.77Z"/><path d="M114.38,98.24a1.5,1.5,0,0,1-.37-2.95l5.5-1.41a1.5,1.5,0,0,1,.74,2.91l-5.5,1.41A1.55,1.55,0,0,1,114.38,98.24Z"/><path d="M117.83,100.29a1.49,1.49,0,0,1-1.45-1.13L115,93.66a1.5,1.5,0,0,1,2.91-.74l1.41,5.5a1.52,1.52,0,0,1-1.46,1.87Z"/><path d="M122.75,103.21a1.5,1.5,0,0,1-.37-3l5.5-1.4a1.5,1.5,0,0,1,.74,2.9l-5.5,1.41A1.57,1.57,0,0,1,122.75,103.21Z"/><path d="M126.2,105.25a1.51,1.51,0,0,1-1.45-1.13l-1.4-5.5a1.5,1.5,0,0,1,2.9-.74l1.41,5.5a1.51,1.51,0,0,1-1.08,1.83A1.64,1.64,0,0,1,126.2,105.25Z"/><path d="M131.12,108.17a1.49,1.49,0,0,1-1.45-1.13,1.51,1.51,0,0,1,1.08-1.83l5.5-1.4a1.5,1.5,0,1,1,.75,2.9l-5.5,1.41A1.65,1.65,0,0,1,131.12,108.17Z"/><path d="M134.58,110.21a1.52,1.52,0,0,1-1.46-1.12l-1.4-5.5a1.5,1.5,0,1,1,2.9-.75l1.41,5.5a1.51,1.51,0,0,1-1.08,1.83A1.61,1.61,0,0,1,134.58,110.21Z"/><path d="M110,105.69a1.5,1.5,0,0,1-.37-3l5.5-1.4a1.5,1.5,0,0,1,.74,2.9l-5.5,1.41A1.57,1.57,0,0,1,110,105.69Z"/><path d="M113.42,107.73A1.49,1.49,0,0,1,112,106.6l-1.41-5.5a1.5,1.5,0,0,1,2.91-.74l1.41,5.5a1.5,1.5,0,0,1-1.09,1.82A1.18,1.18,0,0,1,113.42,107.73Z"/><path d="M118.34,110.65a1.5,1.5,0,0,1-.37-3l5.5-1.4a1.5,1.5,0,0,1,.74,2.9l-5.5,1.41A1.57,1.57,0,0,1,118.34,110.65Z"/><path d="M121.79,112.69a1.5,1.5,0,0,1-1.45-1.12l-1.4-5.5a1.5,1.5,0,1,1,2.9-.75l1.41,5.5a1.51,1.51,0,0,1-1.08,1.83A1.64,1.64,0,0,1,121.79,112.69Z"/><path d="M126.71,115.61a1.5,1.5,0,0,1-.37-3l5.5-1.41a1.5,1.5,0,1,1,.74,2.91l-5.49,1.4A1.65,1.65,0,0,1,126.71,115.61Z"/><path d="M130.17,117.66a1.52,1.52,0,0,1-1.46-1.13l-1.4-5.5a1.5,1.5,0,1,1,2.9-.75l1.41,5.5a1.51,1.51,0,0,1-1.08,1.83A1.64,1.64,0,0,1,130.17,117.66Z"/><path d="M105.56,113.13a1.5,1.5,0,0,1-.37-3l5.5-1.4a1.5,1.5,0,0,1,.74,2.9l-5.5,1.41A1.57,1.57,0,0,1,105.56,113.13Z"/><path d="M109,115.17a1.49,1.49,0,0,1-1.45-1.13l-1.41-5.49a1.5,1.5,0,1,1,2.91-.75l1.41,5.5a1.51,1.51,0,0,1-1.09,1.83A1.55,1.55,0,0,1,109,115.17Z"/><path d="M113.93,118.09a1.5,1.5,0,0,1-.37-3l5.5-1.41a1.5,1.5,0,0,1,.74,2.91l-5.5,1.4A1.57,1.57,0,0,1,113.93,118.09Z"/><path d="M117.38,120.14a1.5,1.5,0,0,1-1.45-1.13l-1.41-5.5a1.5,1.5,0,0,1,2.91-.75l1.41,5.5a1.51,1.51,0,0,1-1.08,1.83A1.65,1.65,0,0,1,117.38,120.14Z"/><path d="M122.3,123.05a1.5,1.5,0,0,1-.37-3l5.5-1.41a1.5,1.5,0,1,1,.74,2.91l-5.5,1.4A1.14,1.14,0,0,1,122.3,123.05Z"/><path d="M125.75,125.1A1.51,1.51,0,0,1,124.3,124l-1.4-5.5a1.5,1.5,0,1,1,2.9-.74l1.41,5.5a1.5,1.5,0,0,1-1.08,1.82A1.65,1.65,0,0,1,125.75,125.1Z"/><path d="M101.15,120.57a1.5,1.5,0,0,1-.37-2.95l5.5-1.41a1.5,1.5,0,0,1,.74,2.91l-5.5,1.4A1.57,1.57,0,0,1,101.15,120.57Z"/><path d="M104.6,122.62a1.5,1.5,0,0,1-1.45-1.13l-1.41-5.5a1.5,1.5,0,0,1,2.91-.75l1.4,5.5a1.49,1.49,0,0,1-1.08,1.83A1.57,1.57,0,0,1,104.6,122.62Z"/><path d="M109.52,125.53a1.5,1.5,0,0,1-.37-3l5.5-1.41a1.5,1.5,0,0,1,.74,2.91l-5.5,1.4A1.18,1.18,0,0,1,109.52,125.53Z"/><path d="M113,127.58a1.49,1.49,0,0,1-1.45-1.13l-1.41-5.5a1.5,1.5,0,1,1,2.91-.74l1.41,5.5a1.5,1.5,0,0,1-1.08,1.82A1.65,1.65,0,0,1,113,127.58Z"/><path d="M117.89,130.49a1.5,1.5,0,0,1-.37-3l5.5-1.41a1.5,1.5,0,0,1,.74,2.91l-5.5,1.41A1.55,1.55,0,0,1,117.89,130.49Z"/><path d="M121.34,132.54a1.51,1.51,0,0,1-1.45-1.13l-1.4-5.5a1.5,1.5,0,1,1,2.9-.74l1.41,5.5a1.5,1.5,0,0,1-1.08,1.82A1.65,1.65,0,0,1,121.34,132.54Z"/></g><path class="cls-4" d="M56,148.28H72.29a0,0,0,0,1,0,0v8.14a8.14,8.14,0,0,1-8.14,8.14h0A8.14,8.14,0,0,1,56,156.42v-8.14a0,0,0,0,1,0,0Z" transform="translate(68 -12.6) rotate(23.61)"/><path d="M61.5,149.65l9.42,4.11-2.06,4.71a5.13,5.13,0,0,1-4.71,3.09,5,5,0,0,1-2.05-.44,5.14,5.14,0,0,1-2.66-6.76l2.06-4.71m-1.55-4-3.25,7.46a8.13,8.13,0,1,0,14.91,6.51l3.26-7.45L60,145.7Z"/><path class="cls-4" d="M76.31,148.5l-14.72-6.43s1.79-15.89,3.32-21.09c2.07-7.06,9.64-22.08,22-16.7s6.44,21.14,2.67,27.46C86.76,136.39,76.31,148.5,76.31,148.5Z"/><path d="M81.75,106.14h0a9.82,9.82,0,0,1,3.92.89,8.57,8.57,0,0,1,5.09,5.37c1.89,5.89-1.66,14.22-3.8,17.8-1.87,3.13-8,10.55-11.49,14.66l-10.64-4.65c.65-5.35,1.93-14.89,3-18.39,1.84-6.3,7.09-15.68,14-15.68m0-3c-9.3,0-15.08,11.81-16.84,17.84-1.53,5.2-3.32,21.09-3.32,21.09l14.72,6.43s10.45-12.11,13.23-16.76c3.77-6.32,9.64-22.07-2.67-27.46a12.74,12.74,0,0,0-5.12-1.14Z"/><g class="cls-6"><path d="M72,110.65a1.5,1.5,0,0,1-.55-2.89l5.29-2.07a1.5,1.5,0,1,1,1.09,2.79l-5.29,2.07A1.47,1.47,0,0,1,72,110.65Z"/><path d="M75.68,112.26a1.5,1.5,0,0,1-1.4-1L72.21,106A1.5,1.5,0,0,1,75,104.93l2.07,5.28a1.51,1.51,0,0,1-.85,2A1.47,1.47,0,0,1,75.68,112.26Z"/><path d="M80.92,114.55a1.5,1.5,0,0,1-.55-2.9l5.28-2.07a1.5,1.5,0,1,1,1.1,2.8l-5.29,2.07A1.47,1.47,0,0,1,80.92,114.55Z"/><path d="M84.59,116.16a1.49,1.49,0,0,1-1.39-1l-2.07-5.29a1.5,1.5,0,1,1,2.79-1.09L86,114.11a1.49,1.49,0,0,1-1.4,2Z"/><path d="M89.83,118.45a1.5,1.5,0,0,1-.54-2.9l5.28-2.07a1.5,1.5,0,0,1,1.94.85,1.48,1.48,0,0,1-.85,1.94l-5.28,2.07A1.35,1.35,0,0,1,89.83,118.45Z"/><path d="M93.51,120.06a1.52,1.52,0,0,1-1.4-1L90,113.82a1.5,1.5,0,1,1,2.8-1.1L94.91,118a1.5,1.5,0,0,1-.85,1.94A1.54,1.54,0,0,1,93.51,120.06Z"/><path d="M68.53,118.58a1.5,1.5,0,0,1-.54-2.9l5.28-2.07a1.5,1.5,0,1,1,1.1,2.8l-5.29,2.07A1.49,1.49,0,0,1,68.53,118.58Z"/><path d="M72.21,120.19a1.51,1.51,0,0,1-1.4-1L68.74,114a1.5,1.5,0,0,1,2.8-1.09l2.07,5.28a1.5,1.5,0,0,1-.85,1.94A1.35,1.35,0,0,1,72.21,120.19Z"/><path d="M77.45,122.48a1.5,1.5,0,0,1-.55-2.9l5.29-2.07a1.5,1.5,0,0,1,1.09,2.79L78,122.37A1.54,1.54,0,0,1,77.45,122.48Z"/><path d="M81.13,124.09a1.51,1.51,0,0,1-1.4-1l-2.07-5.28a1.5,1.5,0,1,1,2.79-1.1L82.53,122a1.5,1.5,0,0,1-.85,1.94A1.54,1.54,0,0,1,81.13,124.09Z"/><path d="M86.37,126.38a1.5,1.5,0,0,1-.55-2.9l5.29-2.07a1.5,1.5,0,1,1,1.09,2.79l-5.28,2.07A1.54,1.54,0,0,1,86.37,126.38Z"/><path d="M90.05,128a1.5,1.5,0,0,1-1.4-1l-2.07-5.29a1.5,1.5,0,0,1,2.79-1.09l2.07,5.29a1.5,1.5,0,0,1-.85,1.94A1.47,1.47,0,0,1,90.05,128Z"/><path d="M65.07,126.51a1.5,1.5,0,0,1-.55-2.9l5.29-2.07a1.5,1.5,0,0,1,1.09,2.79l-5.28,2.07A1.54,1.54,0,0,1,65.07,126.51Z"/><path d="M68.75,128.12a1.51,1.51,0,0,1-1.4-1l-2.07-5.28a1.5,1.5,0,1,1,2.79-1.1l2.07,5.29a1.52,1.52,0,0,1-1.39,2.05Z"/><path d="M74,130.4a1.5,1.5,0,0,1-.55-2.89l5.28-2.07a1.5,1.5,0,1,1,1.1,2.79l-5.29,2.07A1.47,1.47,0,0,1,74,130.4Z"/><path d="M77.66,132a1.5,1.5,0,0,1-1.39-.95l-2.07-5.29A1.5,1.5,0,1,1,77,124.68L79.06,130a1.51,1.51,0,0,1-.85,1.95A1.49,1.49,0,0,1,77.66,132Z"/><path d="M82.9,134.3a1.5,1.5,0,0,1-.54-2.89l5.28-2.08a1.5,1.5,0,0,1,1.1,2.8l-5.29,2.07A1.49,1.49,0,0,1,82.9,134.3Z"/><path d="M86.58,135.91a1.49,1.49,0,0,1-1.39-.95l-2.08-5.29a1.5,1.5,0,0,1,2.8-1.09L88,133.86a1.49,1.49,0,0,1-1.4,2Z"/><path d="M61.61,134.43a1.5,1.5,0,0,1-.55-2.89l5.28-2.07a1.5,1.5,0,1,1,1.1,2.79l-5.29,2.07A1.47,1.47,0,0,1,61.61,134.43Z"/><path d="M65.28,136a1.49,1.49,0,0,1-1.39-.95l-2.07-5.29a1.49,1.49,0,0,1,.84-1.94,1.51,1.51,0,0,1,2,.85L66.68,134a1.51,1.51,0,0,1-.85,1.95A1.49,1.49,0,0,1,65.28,136Z"/><path d="M70.52,138.33a1.5,1.5,0,0,1-.54-2.9l5.28-2.07a1.5,1.5,0,0,1,1.09,2.8l-5.28,2.07A1.52,1.52,0,0,1,70.52,138.33Z"/><path d="M74.2,139.94a1.51,1.51,0,0,1-1.4-.95l-2.07-5.29a1.5,1.5,0,0,1,2.8-1.09l2.07,5.28a1.49,1.49,0,0,1-1.4,2.05Z"/><path d="M79.44,142.23a1.5,1.5,0,0,1-.55-2.9l5.29-2.07a1.5,1.5,0,1,1,1.09,2.79L80,142.12A1.35,1.35,0,0,1,79.44,142.23Z"/><path d="M83.12,143.84a1.51,1.51,0,0,1-1.4-1l-2.07-5.28a1.5,1.5,0,1,1,2.79-1.1l2.07,5.29a1.48,1.48,0,0,1-.85,1.94A1.45,1.45,0,0,1,83.12,143.84Z"/><path d="M58.14,142.36a1.5,1.5,0,0,1-.55-2.9l5.29-2.07a1.5,1.5,0,0,1,1.09,2.8l-5.28,2.07A1.52,1.52,0,0,1,58.14,142.36Z"/><path d="M61.82,144a1.5,1.5,0,0,1-1.4-.95l-2.07-5.29a1.5,1.5,0,0,1,.85-1.94,1.48,1.48,0,0,1,1.94.85l2.08,5.28a1.5,1.5,0,0,1-.85,1.94A1.35,1.35,0,0,1,61.82,144Z"/><path d="M67.06,146.26a1.5,1.5,0,0,1-.55-2.9l5.29-2.07a1.5,1.5,0,0,1,1.09,2.79l-5.28,2.07A1.54,1.54,0,0,1,67.06,146.26Z"/><path d="M70.74,147.87a1.51,1.51,0,0,1-1.4-1l-2.07-5.28a1.5,1.5,0,1,1,2.79-1.1l2.07,5.29a1.52,1.52,0,0,1-1.39,2.05Z"/><path d="M76,150.16a1.5,1.5,0,0,1-.55-2.9l5.28-2.07a1.5,1.5,0,1,1,1.1,2.79l-5.29,2.07A1.49,1.49,0,0,1,76,150.16Z"/><path d="M79.65,151.76a1.49,1.49,0,0,1-1.39-.95l-2.07-5.29a1.48,1.48,0,0,1,.85-1.94,1.5,1.5,0,0,1,1.94.85l2.07,5.29a1.49,1.49,0,0,1-1.4,2Z"/></g></g></g></svg>