<svg xmlns="http://www.w3.org/2000/svg" viewBox="0 0 170 170"><defs><style>.cls-1{fill:none;opacity:0.2;}.cls-2,.cls-4{fill:#fdcaa6;}.cls-2{isolation:isolate;}.cls-3{fill:#fff;}</style></defs><g id="Layer_2" data-name="Layer 2"><g id="Drawings"><rect id="Rectangle_2497" data-name="Rectangle 2497" class="cls-1" width="170" height="170"/><path id="Path_5267" data-name="Path 5267" class="cls-2" d="M109.24,50.51,69.75,90A3.85,3.85,0,0,1,67,91.13,3.81,3.81,0,0,1,64.32,90L24.89,50.57c-5.73-6.19-10.77-12.46-10.77-22.2A28.37,28.37,0,0,1,67,14.13,28.38,28.38,0,0,1,120,28.37C120,38,114.53,45,109.24,50.51Z"/><g id="Group_6130" data-name="Group 6130"><path id="Path_5285" data-name="Path 5285" class="cls-3" d="M134,109.65S113.28,86.9,109.62,85.26a21.76,21.76,0,0,0-7.53-1.73s-12.53-.6-17-.6-8.47,4.14-8.47,4.14l-21,0a9,9,0,0,0-6.79,2.74l-.8-.57c-3.7-1.82-13.7-6.55-14.71-7.26-4-11.75-13.06-13.68-18.31-15S.15,67.79,1.85,71.43,16.2,90.13,22.07,96.56c4.26,4.68,18.57,17.82,26.07,24.65a18.38,18.38,0,0,0,11,4.75c12.72,1,40.61,3.19,44.19,3.22.31,0,6.36,4.49,6.64,4.52Z"/><path d="M109.92,135.2h-.17c-.49-.06-.51-.06-3.71-2.33-1-.74-2.55-1.8-3.15-2.19-4.92-.15-32.17-2.28-43.92-3.21a20,20,0,0,1-11.84-5.14c-8-7.24-21.92-20.09-26.17-24.75C15.86,92,2.38,76.13.49,72.06A3.37,3.37,0,0,1,1,68.35c2.42-2.92,9.93-4,14.38-2.88l.53.14C21.34,67,30.36,69.27,34.56,80.94c1.52.83,6.64,3.3,9.83,4.84,1.69.81,3.23,1.55,4.27,2.07a10.84,10.84,0,0,1,7.05-2.31l20.27,0c1.28-1.17,4.92-4.14,9.08-4.14h0c4.51,0,16.55.57,17.06.6a23.05,23.05,0,0,1,8,1.85c3.78,1.69,21.38,20.92,24.87,24.76a1.52,1.52,0,0,1-.05,2.07l-24,24A1.5,1.5,0,0,1,109.92,135.2ZM11.47,68C8,68,4.34,69,3.32,70.26c-.23.28-.18.39-.11.54,1.57,3.38,14.06,18.28,20,24.75,4.16,4.57,18.06,17.34,26,24.56a16.92,16.92,0,0,0,10.06,4.35c9.41.75,40.39,3.19,44.08,3.22.6,0,.64,0,4.48,2.73l1.94,1.37,22.18-22.18c-8-8.75-20.52-21.92-22.88-23A20.17,20.17,0,0,0,102,85c-.13,0-12.48-.6-16.92-.6h0c-3.8,0-7.37,3.65-7.4,3.68a1.55,1.55,0,0,1-1.09.46l-21,0A7.59,7.59,0,0,0,50,90.76,1.49,1.49,0,0,1,48,91l-.7-.5-4.17-2c-6.78-3.27-9.93-4.81-10.63-5.3a1.6,1.6,0,0,1-.56-.75C28.31,71.84,20.41,69.84,15.19,68.51l-.55-.13A12.77,12.77,0,0,0,11.47,68Z"/><path id="Path_5286" data-name="Path 5286" class="cls-4" d="M146.29,106.15a6.24,6.24,0,0,0-8.83,0L106.58,137a6.24,6.24,0,0,0,0,8.83h0l22.06,22.06,39.71-39.71Z"/><path d="M128.64,169.42a1.5,1.5,0,0,1-1.06-.44l-22.06-22.06a7.74,7.74,0,0,1,0-10.95l30.88-30.88a7.75,7.75,0,0,1,10.95,0h0l22.06,22.06a1.49,1.49,0,0,1,0,2.12L129.7,169A1.5,1.5,0,0,1,128.64,169.42Zm13.24-63.6a4.68,4.68,0,0,0-3.35,1.39l-30.89,30.88a4.75,4.75,0,0,0,0,6.71l21,21,37.59-37.59-21-21A4.7,4.7,0,0,0,141.88,105.82Z"/></g><path d="M79.19,104.35H54.8a9.4,9.4,0,1,1,.09-18.8,1.5,1.5,0,0,1,0,3,6.4,6.4,0,1,0-.09,12.8H79.19a1.5,1.5,0,0,1,0,3Z"/><path d="M89.34,104.35H85.6a1.5,1.5,0,0,1,0-3h3.74a1.5,1.5,0,0,1,0,3Z"/></g></g></svg>