<svg xmlns="http://www.w3.org/2000/svg" viewBox="0 0 170 170"><defs><style>.cls-1{fill:none;opacity:0.2;}.cls-2{fill:#fff;}.cls-3{fill:#fdcaa6;}</style></defs><g id="Layer_2" data-name="Layer 2"><g id="Drawings"><rect id="Rectangle_2497" data-name="Rectangle 2497" class="cls-1" width="170" height="170"/><ellipse class="cls-2" cx="84.33" cy="121.99" rx="68.04" ry="38.92"/><path d="M84.33,162.41C46,162.41,14.79,144.28,14.79,122S46,81.57,84.33,81.57,153.87,99.7,153.87,122,122.68,162.41,84.33,162.41Zm0-77.84c-36.69,0-66.54,16.79-66.54,37.42s29.85,37.42,66.54,37.42,66.54-16.79,66.54-37.42S121,84.57,84.33,84.57Z"/><path class="cls-2" d="M139.18,117.15c0,17.58-24.92,31.83-55.65,31.83"/><path d="M83.53,150.48a1.5,1.5,0,0,1,0-3c29.86,0,54.15-13.61,54.15-30.33a1.5,1.5,0,0,1,3,0C140.68,135.53,115,150.48,83.53,150.48Z"/><path d="M84.33,169.67c-38.34,0-69.54-18.13-69.54-40.42v-8.71a1.5,1.5,0,0,1,3,0v8.71c0,20.63,29.85,37.42,66.54,37.42s66.54-16.79,66.54-37.42V122a1.5,1.5,0,0,1,3,0v7.26C153.87,151.54,122.68,169.67,84.33,169.67Z"/><polygon class="cls-3" points="37.09 108.92 37.09 125.61 132.66 96.92 132.66 80.15 37.09 108.92"/><polygon class="cls-2" points="37.09 91.78 37.09 108.46 132.66 79.78 132.66 63 37.09 91.78"/><polygon class="cls-2" points="37.09 125.2 37.09 141.88 132.66 113.19 132.66 96.42 37.09 125.2"/><polygon class="cls-3" points="75.34 33.77 37.09 79.26 38.09 96.55 45.92 89.86 53.27 88.92 61.8 89.9 70.95 82.26 75.92 81.37 82.67 83.08 88.09 80.15 94.67 75.42 100.17 74.62 106.92 75.51 115.45 69.65 121.49 67.16 126.73 68.14 132.66 67.61 132.31 48.11 75.34 33.77"/><path d="M37.09,80.76a1.52,1.52,0,0,1-1.25-.66,1.5,1.5,0,0,1,.1-1.8L74.19,32.8a1.49,1.49,0,0,1,1.51-.49L133,46.54a1.5,1.5,0,0,1,.1,2.88L37.55,80.69A1.47,1.47,0,0,1,37.09,80.76Zm38.8-45.31L41.62,76.2l85.61-28Z"/><path d="M37.09,142.69a1.5,1.5,0,0,1-1.5-1.5V79.26a1.5,1.5,0,0,1,1-1.43l95.57-31.26a1.5,1.5,0,0,1,2,1.43v64.69a1.51,1.51,0,0,1-1.07,1.44l-95.58,28.5A1.52,1.52,0,0,1,37.09,142.69Zm1.5-62.34v58.83l92.57-27.61V50.06Z"/><path d="M37.09,126.56a1.5,1.5,0,0,1-.43-2.94l95.57-28.5a1.5,1.5,0,0,1,.86,2.87l-95.58,28.5A1.23,1.23,0,0,1,37.09,126.56Z"/><path d="M37.09,110.42a1.5,1.5,0,0,1-.43-2.94L132.23,79a1.5,1.5,0,0,1,.86,2.87L37.51,110.36A1.52,1.52,0,0,1,37.09,110.42Z"/><path d="M37.63,97.7a1.5,1.5,0,0,1-.43-2.94,8.84,8.84,0,0,0,4.64-3.14,12.48,12.48,0,0,1,13.26-4,9.48,9.48,0,0,0,10.25-3.11,12.45,12.45,0,0,1,13.25-4,9.45,9.45,0,0,0,10.25-3.1,12.44,12.44,0,0,1,13.24-4,8.82,8.82,0,0,0,5.61,0,8.73,8.73,0,0,0,4.64-3.14,12.45,12.45,0,0,1,13.25-4,8.78,8.78,0,0,0,5.6,0,1.5,1.5,0,0,1,.87,2.87,11.77,11.77,0,0,1-7.23,0,9.44,9.44,0,0,0-10.25,3.11,12.46,12.46,0,0,1-13.24,4,9.48,9.48,0,0,0-10.25,3.11,12.45,12.45,0,0,1-13.25,4,9.45,9.45,0,0,0-10.25,3.1,12.45,12.45,0,0,1-13.25,4,8.82,8.82,0,0,0-5.61,0,8.91,8.91,0,0,0-4.65,3.14,11.67,11.67,0,0,1-6,4A1.35,1.35,0,0,1,37.63,97.7Z"/><circle class="cls-3" cx="82.93" cy="86.88" r="1.15"/><circle class="cls-3" cx="110.65" cy="82.22" r="1.15"/><circle class="cls-3" cx="99.1" cy="80.42" r="1.15"/><circle class="cls-3" cx="127.81" cy="77.35" r="1.15"/><circle class="cls-3" cx="90.84" cy="86.88" r="1.15"/><circle class="cls-3" cx="121.15" cy="75.42" r="1.15"/><circle class="cls-3" cx="72.73" cy="86.88" r="1.15"/><circle class="cls-3" cx="62.16" cy="95.06" r="1.15"/><circle class="cls-3" cx="70.79" cy="93.52" r="1.15"/><circle class="cls-3" cx="49.58" cy="95.06" r="1.15"/><circle class="cls-3" cx="43.15" cy="100.99" r="1.15"/><circle class="cls-3" cx="55.23" cy="98.74" r="1.15"/><circle class="cls-3" cx="82.93" cy="119.15" r="1.15"/><circle class="cls-3" cx="110.65" cy="114.49" r="1.15"/><circle class="cls-3" cx="99.1" cy="112.69" r="1.15"/><circle class="cls-3" cx="127.81" cy="109.62" r="1.15"/><circle class="cls-3" cx="90.84" cy="119.15" r="1.15"/><circle class="cls-3" cx="121.15" cy="107.69" r="1.15"/><circle class="cls-3" cx="72.73" cy="119.15" r="1.15"/><circle class="cls-3" cx="62.16" cy="127.34" r="1.15"/><circle class="cls-3" cx="70.79" cy="125.79" r="1.15"/><circle class="cls-3" cx="49.58" cy="127.34" r="1.15"/><circle class="cls-3" cx="43.15" cy="133.27" r="1.15"/><circle class="cls-3" cx="55.23" cy="131.01" r="1.15"/><path class="cls-3" d="M85,18.19a1.5,1.5,0,0,1-1.5-1.5V1.75a1.5,1.5,0,0,1,3,0V16.69A1.5,1.5,0,0,1,85,18.19Z"/><path class="cls-3" d="M67.25,20.53a1.49,1.49,0,0,1-1.45-1.11l-2.06-7.67a1.5,1.5,0,1,1,2.9-.78l2.06,7.67a1.5,1.5,0,0,1-1.06,1.84A1.35,1.35,0,0,1,67.25,20.53Z"/><path class="cls-3" d="M36.5,38.28a1.48,1.48,0,0,1-1.06-.43l-5.62-5.62a1.5,1.5,0,0,1,2.12-2.12l5.62,5.61a1.52,1.52,0,0,1,0,2.13A1.5,1.5,0,0,1,36.5,38.28Z"/><path class="cls-3" d="M133.5,38.28a1.5,1.5,0,0,1-1.06-.43,1.52,1.52,0,0,1,0-2.13l5.62-5.61a1.5,1.5,0,0,1,2.12,2.12l-5.62,5.62A1.48,1.48,0,0,1,133.5,38.28Z"/><path class="cls-3" d="M102.75,20.53a1.35,1.35,0,0,1-.39-.05,1.5,1.5,0,0,1-1.06-1.84L103.36,11a1.5,1.5,0,0,1,2.9.78l-2.06,7.67A1.49,1.49,0,0,1,102.75,20.53Z"/><path class="cls-3" d="M50.71,27.38a1.5,1.5,0,0,1-1.31-.75L41.93,13.69a1.5,1.5,0,1,1,2.6-1.5L52,25.13a1.49,1.49,0,0,1-.55,2.05A1.42,1.42,0,0,1,50.71,27.38Z"/><path class="cls-3" d="M25.6,52.49a1.43,1.43,0,0,1-.75-.2L11.9,44.82a1.5,1.5,0,0,1-.54-2,1.48,1.48,0,0,1,2-.55l13,7.47a1.5,1.5,0,0,1-.75,2.8Z"/><path class="cls-3" d="M144.4,52.49a1.5,1.5,0,0,1-.75-2.8l12.95-7.47a1.48,1.48,0,0,1,2,.55,1.5,1.5,0,0,1-.54,2l-12.95,7.47A1.43,1.43,0,0,1,144.4,52.49Z"/><path class="cls-3" d="M119.29,27.38a1.42,1.42,0,0,1-.74-.2,1.49,1.49,0,0,1-.55-2.05l7.47-12.94a1.5,1.5,0,0,1,2.6,1.5L120.6,26.63A1.5,1.5,0,0,1,119.29,27.38Z"/></g></g></svg>