<svg xmlns="http://www.w3.org/2000/svg" viewBox="0 0 170.07 170.42"><defs><style>.cls-1{fill:none;opacity:0.2;}.cls-2{fill:#fdcaa6;}.cls-3{fill:#fff;}</style></defs><g id="Layer_2" data-name="Layer 2"><g id="Drawings"><rect id="Rectangle_2497" data-name="Rectangle 2497" class="cls-1" x="0.07" y="0.42" width="170" height="170"/><polygon class="cls-2" points="169.54 116.26 112.55 0 0 89.83 64.17 169.98 169.54 116.26"/><polygon class="cls-3" points="7.38 124.29 105.47 168.88 168.55 35.12 73.43 4.07 7.38 124.29"/><path d="M105.47,170.38a1.5,1.5,0,0,1-.62-.13L6.76,125.66a1.49,1.49,0,0,1-.7-2.09L72.12,3.35a1.49,1.49,0,0,1,1.78-.7l95.12,31a1.54,1.54,0,0,1,.91.84,1.51,1.51,0,0,1,0,1.23L106.82,169.52A1.49,1.49,0,0,1,105.47,170.38Zm-96-46.78,95.27,43.3L166.47,36,74.15,5.89Z"/><path class="cls-2" d="M146.94,53.08a1.67,1.67,0,0,1-.49-.08,6.11,6.11,0,0,0-3.39-.29,10,10,0,0,1-8.79-3A6.85,6.85,0,0,0,128,47.51a9.93,9.93,0,0,1-8.78-3A6.85,6.85,0,0,0,113,42.31a9.13,9.13,0,0,1-4.77-.42,9,9,0,0,1-4-2.62A6.92,6.92,0,0,0,98,37.11a9.85,9.85,0,0,1-8.78-3A6.87,6.87,0,0,0,83,31.92a9.92,9.92,0,0,1-8.77-3A6.24,6.24,0,0,0,71.4,27a1.5,1.5,0,1,1,1-2.83,9.08,9.08,0,0,1,4,2.62,6.87,6.87,0,0,0,6.22,2.15,9.05,9.05,0,0,1,4.77.43,8.93,8.93,0,0,1,4,2.61,6.92,6.92,0,0,0,6.23,2.16,9.85,9.85,0,0,1,8.78,3,6.16,6.16,0,0,0,2.84,1.87,6.3,6.3,0,0,0,3.39.29,9.85,9.85,0,0,1,8.78,3,6.87,6.87,0,0,0,6.23,2.15,9.9,9.9,0,0,1,8.78,3,6.95,6.95,0,0,0,6.24,2.16,9,9,0,0,1,4.77.42,1.5,1.5,0,0,1-.49,2.92Z"/><path class="cls-2" d="M142,64.08a1.58,1.58,0,0,1-.52-.09,6.13,6.13,0,0,0-3.35-.33,8.88,8.88,0,0,1-4.74-.49,9.05,9.05,0,0,1-3.95-2.67,6,6,0,0,0-2.78-1.91,6.13,6.13,0,0,0-3.35-.33,9.77,9.77,0,0,1-8.68-3.16,6.76,6.76,0,0,0-6.13-2.24,9.77,9.77,0,0,1-8.68-3.16,6.76,6.76,0,0,0-6.13-2.24A9.7,9.7,0,0,1,85,44.3a6.1,6.1,0,0,0-2.78-1.9,6,6,0,0,0-3.35-.33,9.76,9.76,0,0,1-8.67-3.16A6.09,6.09,0,0,0,67.39,37a1.5,1.5,0,1,1,1-2.82,9,9,0,0,1,3.94,2.68,6.78,6.78,0,0,0,6.12,2.23,9.77,9.77,0,0,1,8.68,3.16,6.76,6.76,0,0,0,6.13,2.24A9.77,9.77,0,0,1,102,47.65a6.79,6.79,0,0,0,6.13,2.23,9.74,9.74,0,0,1,8.68,3.17,6.1,6.1,0,0,0,2.78,1.9,6,6,0,0,0,3.35.33,9.74,9.74,0,0,1,8.68,3.17,6.16,6.16,0,0,0,2.78,1.9,6.07,6.07,0,0,0,3.36.33,9.09,9.09,0,0,1,4.74.49,1.5,1.5,0,0,1-.51,2.91Z"/><path class="cls-2" d="M135.66,74.4a1.47,1.47,0,0,1-.54-.1,6,6,0,0,0-3.31-.37,9.69,9.69,0,0,1-8.59-3.29,5.91,5.91,0,0,0-2.72-1.94,6.07,6.07,0,0,0-3.31-.38A9.61,9.61,0,0,1,108.61,65a6.63,6.63,0,0,0-6-2.31,8.94,8.94,0,0,1-4.71-.56A8.82,8.82,0,0,1,94,59.44a6,6,0,0,0-2.72-1.94A6,6,0,0,0,88,57.13a9.65,9.65,0,0,1-8.58-3.29,6.7,6.7,0,0,0-6-2.31,8.79,8.79,0,0,1-4.7-.55,8.92,8.92,0,0,1-3.88-2.73,5.87,5.87,0,0,0-2.71-1.94,1.5,1.5,0,1,1,1.07-2.8A8.92,8.92,0,0,1,67,46.24a6.6,6.6,0,0,0,6,2.31,8.86,8.86,0,0,1,4.71.56,8.72,8.72,0,0,1,3.87,2.73,6.67,6.67,0,0,0,6,2.31,9.64,9.64,0,0,1,8.58,3.28,5.87,5.87,0,0,0,2.71,1.94,6,6,0,0,0,3.32.37A9.68,9.68,0,0,1,110.84,63a6.61,6.61,0,0,0,6,2.31,9.65,9.65,0,0,1,8.58,3.29,6.64,6.64,0,0,0,6,2.31,9,9,0,0,1,4.71.56,1.5,1.5,0,0,1-.54,2.9Z"/><path class="cls-2" d="M129.68,84.41a1.55,1.55,0,0,1-.56-.11,5.88,5.88,0,0,0-3.29-.42,9.57,9.57,0,0,1-8.48-3.42,5.92,5.92,0,0,0-2.66-2,6,6,0,0,0-3.28-.42,9.53,9.53,0,0,1-8.48-3.41A6.55,6.55,0,0,0,97,72.28a9.57,9.57,0,0,1-8.47-3.41,6.55,6.55,0,0,0-5.93-2.39,9.5,9.5,0,0,1-8.48-3.41,5.94,5.94,0,0,0-2.65-2,6,6,0,0,0-3.28-.42,9.5,9.5,0,0,1-8.47-3.41,6,6,0,0,0-2.66-2,1.5,1.5,0,0,1,1.12-2.79A9,9,0,0,1,62,55.31a6.52,6.52,0,0,0,5.92,2.39,9.5,9.5,0,0,1,8.48,3.41,6.55,6.55,0,0,0,5.93,2.38A9.6,9.6,0,0,1,90.8,66.9a6.53,6.53,0,0,0,5.93,2.39,9.5,9.5,0,0,1,8.47,3.41,6.55,6.55,0,0,0,5.93,2.39,9.54,9.54,0,0,1,8.49,3.41,5.86,5.86,0,0,0,2.66,2,5.93,5.93,0,0,0,3.28.42,8.72,8.72,0,0,1,4.68.63,1.5,1.5,0,0,1-.56,2.89Z"/><path class="cls-2" d="M124.7,95.42a1.44,1.44,0,0,1-.6-.13,6,6,0,0,0-3.31-.51A8.88,8.88,0,0,1,116.1,94a9,9,0,0,1-3.77-2.89,6.7,6.7,0,0,0-6-2.56,9.69,9.69,0,0,1-8.46-3.64,6,6,0,0,0-2.64-2A6,6,0,0,0,92,82.38a9.65,9.65,0,0,1-8.45-3.64,6.76,6.76,0,0,0-6-2.56,9.71,9.71,0,0,1-8.46-3.63A6.69,6.69,0,0,0,63.15,70a9.65,9.65,0,0,1-8.45-3.64,6.12,6.12,0,0,0-2.65-2,1.5,1.5,0,1,1,1.19-2.75A8.73,8.73,0,0,1,57,64.44a6,6,0,0,0,2.65,2A5.9,5.9,0,0,0,63,67a9.69,9.69,0,0,1,8.46,3.64,6.67,6.67,0,0,0,6,2.56,9.69,9.69,0,0,1,8.46,3.64,5.94,5.94,0,0,0,2.64,2,6,6,0,0,0,3.31.52A9.68,9.68,0,0,1,100.22,83a6.7,6.7,0,0,0,6,2.56,9.69,9.69,0,0,1,8.46,3.64,6.74,6.74,0,0,0,6,2.57,8.85,8.85,0,0,1,4.69.75,1.5,1.5,0,0,1-.59,2.88Z"/><path class="cls-2" d="M84,92.7a1.43,1.43,0,0,1-.56-.11,9.21,9.21,0,0,1-3.91-2.83,6.28,6.28,0,0,0-2.78-2,6.35,6.35,0,0,0-3.42-.47,10.09,10.09,0,0,1-8.68-3.52,7,7,0,0,0-6.2-2.51,10.09,10.09,0,0,1-8.68-3.52,6.33,6.33,0,0,0-2.78-2,1.51,1.51,0,1,1,1.13-2.79A9.17,9.17,0,0,1,52,75.72a7.09,7.09,0,0,0,6.2,2.51,10,10,0,0,1,8.68,3.51,7.06,7.06,0,0,0,6.2,2.52,10,10,0,0,1,8.68,3.51,6.24,6.24,0,0,0,2.79,2A1.5,1.5,0,0,1,84,92.7Z"/><line class="cls-3" x1="81.73" y1="88.86" x2="83.86" y2="91.18"/><path d="M83.86,92.68a1.5,1.5,0,0,1-1.11-.49l-2.12-2.32a1.5,1.5,0,1,1,2.21-2L85,90.17a1.5,1.5,0,0,1-1.11,2.51Z"/><path class="cls-3" d="M8.12,3.85A8.12,8.12,0,0,1,17,6L74.92,69.24c5.55,6.06,10.16,16.55,6.81,19.62h0c-3.35,3.06-13.39-2.45-18.94-8.51L4.86,17.07A8.12,8.12,0,0,1,3.28,8.63"/><path d="M79.06,91.24a15.88,15.88,0,0,1-6.63-1.86,37.82,37.82,0,0,1-10.75-8L3.76,18.09a9.57,9.57,0,0,1-1.88-10,1.5,1.5,0,1,1,2.8,1.08A6.6,6.6,0,0,0,6,16.06L63.9,79.33a34.85,34.85,0,0,0,9.84,7.35c3.29,1.59,6,2,7,1.07,2.27-2.08-1.47-11.56-6.91-17.5L15.89,7A6.62,6.62,0,0,0,8.65,5.25,1.5,1.5,0,1,1,7.6,2.44,9.6,9.6,0,0,1,18.1,5L76,68.23C81.69,74.41,87.12,86,82.75,90A5.26,5.26,0,0,1,79.06,91.24Z"/><rect class="cls-3" x="-5.55" y="18.26" width="50.74" height="6.8" rx="3.4" transform="translate(17.23 50.91) rotate(-132.48)"/><path d="M34.66,42.77h-.22A4.88,4.88,0,0,1,31,41.18L1.37,8.77a4.91,4.91,0,0,1,.31-6.93,4.89,4.89,0,0,1,6.92.31L38.27,34.56a4.9,4.9,0,0,1-3.61,8.21ZM5,3.56a1.89,1.89,0,0,0-1.4,3.18L33.26,39.15a1.89,1.89,0,0,0,2.68.12A1.86,1.86,0,0,0,36.56,38a1.92,1.92,0,0,0-.5-1.37L6.39,4.17h0a1.88,1.88,0,0,0-1.32-.61Z"/></g></g></svg>