<svg xmlns="http://www.w3.org/2000/svg" viewBox="0 0 170 170"><defs><style>.cls-1{fill:none;opacity:0.2;}.cls-2,.cls-4{fill:#fff;}.cls-3{fill:#fdcaa6;}.cls-4{isolation:isolate;}</style></defs><g id="Layer_2" data-name="Layer 2"><g id="Drawings"><rect id="Rectangle_2497" data-name="Rectangle 2497" class="cls-1" width="170" height="170"/><polygon class="cls-2" points="170 138.7 121.56 138.7 121.56 22.56 42.77 22.56 42.77 138.7 0 138.7 0 170 170 170 170 138.7"/><rect class="cls-3" x="42.77" y="22.56" width="78.79" height="95.14"/><path d="M168.48,140.2H121.56a1.5,1.5,0,0,1-1.5-1.5V24.06H44.27V138.7a1.5,1.5,0,0,1-1.5,1.5H13.52a1.5,1.5,0,0,1,0-3H41.27V22.56a1.5,1.5,0,0,1,1.5-1.5h78.79a1.5,1.5,0,0,1,1.5,1.5V137.2h45.42a1.5,1.5,0,0,1,0,3Z"/><polygon class="cls-2" points="152.77 153.7 152.77 2.56 121.56 22.56 121.56 138.7 152.77 153.7"/><path d="M152.77,155.2a1.51,1.51,0,0,1-.65-.15l-31.21-15a1.49,1.49,0,0,1-.85-1.35V22.56a1.5,1.5,0,0,1,.69-1.26L152,1.3a1.5,1.5,0,0,1,2.31,1.26V153.7a1.49,1.49,0,0,1-.7,1.27A1.52,1.52,0,0,1,152.77,155.2Zm-29.71-17.44,28.21,13.55V5.31L123.06,23.38Z"/><path id="Path_5267" data-name="Path 5267" class="cls-4" d="M101.34,73.7,83.27,91.76a1.77,1.77,0,0,1-1.24.52,1.73,1.73,0,0,1-1.24-.52l-18-18c-2.62-2.83-4.93-5.69-4.93-10.15A13,13,0,0,1,82,57.05a13,13,0,0,1,24.21,6.52C106.24,68,103.76,71.16,101.34,73.7Z"/><path d="M121.56,119.32H42.77a1.5,1.5,0,0,1,0-3h78.79a1.5,1.5,0,0,1,0,3Z"/><path d="M5.42,140.2H1.52a1.5,1.5,0,0,1,0-3h3.9a1.5,1.5,0,0,1,0,3Z"/></g></g></svg>