<svg xmlns="http://www.w3.org/2000/svg" viewBox="0 0 170.19 170"><defs><style>.cls-1{fill:none;opacity:0.2;}.cls-2{fill:#aae0b9;}.cls-3{fill:#fff;}</style></defs><g id="Layer_2" data-name="Layer 2"><g id="Drawings"><rect id="Rectangle_2497" data-name="Rectangle 2497" class="cls-1" width="170" height="170"/><path class="cls-2" d="M38.47,1.78h93.35a0,0,0,0,1,0,0V168.22a0,0,0,0,1,0,0H1.65a0,0,0,0,1,0,0V38.61A36.82,36.82,0,0,1,38.47,1.78Z"/><path d="M131.82,169.72H1.65a1.5,1.5,0,0,1-1.5-1.5V38.61A38.37,38.37,0,0,1,38.47.28h93.35a1.5,1.5,0,0,1,1.5,1.5V168.22A1.5,1.5,0,0,1,131.82,169.72Zm-128.67-3H130.32V3.28H38.47A35.36,35.36,0,0,0,3.15,38.61Z"/><path class="cls-3" d="M46.38,119.81a1.52,1.52,0,0,1-1.06-.44L31.18,105.23a1.5,1.5,0,0,1,0-2.12L45.32,89a1.52,1.52,0,0,1,1.06-.44h0a1.5,1.5,0,0,1,1.06.44l14.14,14.14a1.49,1.49,0,0,1,0,2.12L47.44,119.37A1.5,1.5,0,0,1,46.38,119.81Zm-12-15.64,12,12,12-12-12-12Z"/><rect class="cls-3" x="42.26" y="100.05" width="8.24" height="8.24" transform="translate(-60.07 63.31) rotate(-45)"/><path class="cls-3" d="M86.38,121.81a1.52,1.52,0,0,1-1.06-.44L71.18,107.23a1.5,1.5,0,0,1,0-2.12L85.32,91a1.52,1.52,0,0,1,1.06-.44h0a1.5,1.5,0,0,1,1.06.44l14.14,14.14a1.49,1.49,0,0,1,0,2.12L87.44,121.37A1.5,1.5,0,0,1,86.38,121.81Zm-12-15.64,12,12,12-12-12-12Z"/><rect class="cls-3" x="82.26" y="102.05" width="8.24" height="8.24" transform="translate(-49.77 92.18) rotate(-45)"/><path class="cls-3" d="M26.38,91.81a1.52,1.52,0,0,1-1.06-.44L11.18,77.23a1.5,1.5,0,0,1,0-2.12L25.32,61a1.52,1.52,0,0,1,1.06-.44h0a1.5,1.5,0,0,1,1.06.44L41.58,75.11a1.49,1.49,0,0,1,0,2.12L27.44,91.37A1.5,1.5,0,0,1,26.38,91.81Zm-12-15.64,12,12,12-12-12-12Z"/><rect class="cls-3" x="22.26" y="72.05" width="8.24" height="8.24" transform="translate(-46.13 40.96) rotate(-45)"/><path class="cls-3" d="M66.38,91.81a1.52,1.52,0,0,1-1.06-.44L51.18,77.23a1.5,1.5,0,0,1,0-2.12L65.32,61a1.52,1.52,0,0,1,1.06-.44h0a1.5,1.5,0,0,1,1.06.44L81.58,75.11a1.49,1.49,0,0,1,0,2.12L67.44,91.37A1.5,1.5,0,0,1,66.38,91.81Zm-12-15.64,12,12,12-12-12-12Z"/><rect class="cls-3" x="62.26" y="72.05" width="8.24" height="8.24" transform="translate(-34.42 69.25) rotate(-45)"/><path class="cls-3" d="M106.38,91.81a1.52,1.52,0,0,1-1.06-.44L91.18,77.23a1.5,1.5,0,0,1,0-2.12L105.32,61a1.52,1.52,0,0,1,1.06-.44h0a1.5,1.5,0,0,1,1.06.44l14.14,14.14a1.49,1.49,0,0,1,0,2.12L107.44,91.37A1.5,1.5,0,0,1,106.38,91.81Zm-12-15.64,12,12,12-12-12-12Z"/><rect class="cls-3" x="102.26" y="72.05" width="8.24" height="8.24" transform="translate(-22.7 97.53) rotate(-45)"/><polygon class="cls-3" points="3.15 43.58 3.15 48.76 6.38 51.99 12.21 46.17 6.38 40.34 3.15 43.58"/><path class="cls-3" d="M46.38,61.81a1.52,1.52,0,0,1-1.06-.44L31.18,47.23a1.5,1.5,0,0,1,0-2.12L45.32,31a1.52,1.52,0,0,1,1.06-.44h0a1.5,1.5,0,0,1,1.06.44L61.58,45.11a1.49,1.49,0,0,1,0,2.12L47.44,61.37A1.5,1.5,0,0,1,46.38,61.81Zm-12-15.64,12,12,12-12-12-12Z"/><rect class="cls-3" x="42.26" y="42.05" width="8.24" height="8.24" transform="translate(-19.06 46.32) rotate(-45)"/><rect class="cls-3" x="22.26" y="12.05" width="8.24" height="8.24" transform="translate(-3.7 23.39) rotate(-45)"/><path class="cls-3" d="M66.38,31.81a1.52,1.52,0,0,1-1.06-.44L51.18,17.23a1.5,1.5,0,0,1,0-2.12L65.32,1A1.52,1.52,0,0,1,66.38.53h0A1.5,1.5,0,0,1,67.44,1L81.58,15.11a1.49,1.49,0,0,1,0,2.12L67.44,31.37A1.5,1.5,0,0,1,66.38,31.81Zm-12-15.64,12,12,12-12-12-12Z"/><rect class="cls-3" x="62.26" y="12.05" width="8.24" height="8.24" transform="translate(8.01 51.68) rotate(-45)"/><path class="cls-3" d="M26.38,149.81a1.52,1.52,0,0,1-1.06-.44L11.18,135.23a1.5,1.5,0,0,1,0-2.12L25.32,119a1.52,1.52,0,0,1,1.06-.44h0a1.5,1.5,0,0,1,1.06.44l14.14,14.14a1.49,1.49,0,0,1,0,2.12L27.44,149.37A1.5,1.5,0,0,1,26.38,149.81Zm-12-15.64,12,12,12-12-12-12Z"/><rect class="cls-3" x="22.26" y="130.05" width="8.24" height="8.24" transform="translate(-87.14 57.95) rotate(-45)"/><path class="cls-3" d="M66.38,149.81a1.52,1.52,0,0,1-1.06-.44L51.18,135.23a1.5,1.5,0,0,1,0-2.12L65.32,119a1.52,1.52,0,0,1,1.06-.44h0a1.5,1.5,0,0,1,1.06.44l14.14,14.14a1.49,1.49,0,0,1,0,2.12L67.44,149.37A1.5,1.5,0,0,1,66.38,149.81Zm-12-15.64,12,12,12-12-12-12Z"/><rect class="cls-3" x="62.26" y="130.05" width="8.24" height="8.24" transform="translate(-75.43 86.24) rotate(-45)"/><path class="cls-3" d="M106.38,151.81a1.52,1.52,0,0,1-1.06-.44L91.18,137.23a1.5,1.5,0,0,1,0-2.12L105.32,121a1.52,1.52,0,0,1,1.06-.44h0a1.5,1.5,0,0,1,1.06.44l14.14,14.14a1.49,1.49,0,0,1,0,2.12l-14.14,14.14A1.5,1.5,0,0,1,106.38,151.81Zm-12-15.64,12,12,12-12-12-12Z"/><rect class="cls-3" x="102.26" y="132.05" width="8.24" height="8.24" transform="translate(-65.13 115.11) rotate(-45)"/><path class="cls-3" d="M38.52,1.78a36.88,36.88,0,1,1,0,73.75h93.3a36.88,36.88,0,0,0,0-73.75Z"/><path d="M131.82,77H38.52a1.5,1.5,0,0,1,0-3,35.38,35.38,0,1,0,0-70.75,1.5,1.5,0,0,1,0-3h93.3a38.38,38.38,0,0,1,0,76.75ZM53.4,74h78.42a35.38,35.38,0,0,0,0-70.75H53.4A38.38,38.38,0,0,1,53.4,74Z"/><path class="cls-3" d="M41.58,15.11,30.64,4.17a33.74,33.74,0,0,0-3.31.92L38.4,16.17l-12,12-12-12,9.88-9.89A35.54,35.54,0,0,0,10.83,16.65a1.51,1.51,0,0,0,.35.58L25.32,31.37a1.52,1.52,0,0,0,1.06.44,1.5,1.5,0,0,0,1.06-.44L41.58,17.23A1.49,1.49,0,0,0,41.58,15.11Z"/><path class="cls-3" d="M7.44,31a1.5,1.5,0,0,0-1.06-.44A1.52,1.52,0,0,0,5.32,31L3.67,32.62a35.26,35.26,0,0,0-.49,4.73l3.2-3.2,12,12-12,12L3.15,55v4.24l2.17,2.18a1.52,1.52,0,0,0,1.06.44,1.5,1.5,0,0,0,1.06-.44L21.58,47.23a1.49,1.49,0,0,0,0-2.12Z"/><polygon class="cls-3" points="3.15 101.58 3.15 106.76 6.38 109.99 12.21 104.17 6.38 98.34 3.15 101.58"/><path class="cls-3" d="M7.44,89a1.5,1.5,0,0,0-1.06-.44A1.52,1.52,0,0,0,5.32,89L3.15,91.14v4.24l3.23-3.23,12,12-12,12L3.15,113v4.24l2.17,2.18a1.52,1.52,0,0,0,1.06.44,1.5,1.5,0,0,0,1.06-.44l14.14-14.14a1.49,1.49,0,0,0,0-2.12Z"/><polygon class="cls-3" points="11.66 166.72 12.21 166.17 6.38 160.34 3.15 163.58 3.15 166.72 11.66 166.72"/><path class="cls-3" d="M18.4,166.17l-.55.55h4.07a1.49,1.49,0,0,0-.34-1.61L7.44,151a1.5,1.5,0,0,0-1.06-.44,1.52,1.52,0,0,0-1.06.44l-2.17,2.17v4.24l3.23-3.23Z"/><polygon class="cls-3" points="51.66 166.72 52.21 166.17 46.38 160.34 40.56 166.17 41.11 166.72 51.66 166.72"/><path class="cls-3" d="M34.92,166.72l-.55-.55,12-12,12,12-.55.55h4.07a1.49,1.49,0,0,0-.34-1.61L47.44,151a1.5,1.5,0,0,0-1.06-.44,1.52,1.52,0,0,0-1.06.44L31.18,165.11a1.48,1.48,0,0,0-.33,1.61Z"/><polygon class="cls-3" points="91.66 166.72 92.21 166.17 86.38 160.34 80.56 166.17 81.11 166.72 91.66 166.72"/><path class="cls-3" d="M74.92,166.72l-.55-.55,12-12,12,12-.55.55h4.07a1.49,1.49,0,0,0-.34-1.61L87.44,151a1.5,1.5,0,0,0-1.06-.44,1.52,1.52,0,0,0-1.06.44L71.18,165.11a1.48,1.48,0,0,0-.33,1.61Z"/><polygon class="cls-3" points="130.32 164.28 126.38 160.34 120.56 166.17 121.11 166.72 130.32 166.72 130.32 164.28"/><path class="cls-3" d="M130.32,158.09v-4.25L127.44,151a1.5,1.5,0,0,0-1.06-.44,1.52,1.52,0,0,0-1.06.44l-14.14,14.14a1.48,1.48,0,0,0-.33,1.61h4.07l-.55-.55,12-12Z"/><polygon class="cls-3" points="130.32 104.28 126.38 100.34 120.56 106.17 126.38 111.99 130.32 108.06 130.32 104.28"/><path class="cls-3" d="M130.32,114.25l-3.94,3.94-12-12,12-12,3.94,3.94V93.84L127.44,91a1.5,1.5,0,0,0-1.06-.44,1.52,1.52,0,0,0-1.06.44l-14.14,14.14a1.5,1.5,0,0,0,0,2.12l14.14,14.14a1.52,1.52,0,0,0,1.06.44,1.5,1.5,0,0,0,1.06-.44l2.88-2.88Z"/></g></g></svg>