<svg xmlns="http://www.w3.org/2000/svg" viewBox="0 0 170.9 170"><defs><style>.cls-1{fill:none;opacity:0.2;}.cls-2{fill:#aae0b9;}.cls-3{fill:#fff;}</style></defs><g id="Layer_2" data-name="Layer 2"><g id="Drawings"><rect id="Rectangle_2497" data-name="Rectangle 2497" class="cls-1" x="0.9" width="170" height="170"/><path class="cls-2" d="M85.66,0H46.58A46.57,46.57,0,0,0,0,46.58V84l53.87,53.87L138.68,53Z"/><path class="cls-3" d="M134.78,103.5h13a0,0,0,0,1,0,0v67.36a6.49,6.49,0,0,1-6.49,6.49h0a6.49,6.49,0,0,1-6.49-6.49V103.5A0,0,0,0,1,134.78,103.5Z" transform="translate(-57.91 141.02) rotate(-45)"/><path d="M162.79,169.92a8,8,0,0,1-5.65-2.34L109.52,120a1.49,1.49,0,0,1,0-2.12l9.17-9.18a1.51,1.51,0,0,1,2.12,0l47.63,47.63a8,8,0,0,1-5.65,13.63Zm-50.09-51,46.56,46.56a5,5,0,1,0,7.06-7.05l-46.57-46.56Z"/><rect class="cls-3" x="42.11" y="93.01" width="119.94" height="16.43" transform="translate(-41.68 101.83) rotate(-45)"/><path d="M65.48,150.94a1.48,1.48,0,0,1-1.06-.44L52.81,138.89a1.49,1.49,0,0,1,0-2.12L137.62,52a1.51,1.51,0,0,1,2.12,0l11.62,11.62a1.51,1.51,0,0,1,0,2.12L66.54,150.5A1.45,1.45,0,0,1,65.48,150.94ZM56,137.83l9.49,9.49,82.69-82.69-9.49-9.49Z"/><path class="cls-3" d="M119.6,83.71l-35,35,11.61,11.62,2.55-2.54a8.2,8.2,0,0,1,11.61,0h0l18.35-18.35h0a8.21,8.21,0,0,1,0-11.62l2.54-2.54Z"/><path d="M96.17,131.87a1.53,1.53,0,0,1-1.06-.44L83.5,119.81a1.49,1.49,0,0,1,0-2.12l35-35a1.55,1.55,0,0,1,2.12,0l11.62,11.62a1.52,1.52,0,0,1,.44,1.06,1.5,1.5,0,0,1-.44,1.06l-2.54,2.55a6.71,6.71,0,0,0,0,9.49,1.49,1.49,0,0,1,0,2.12l-18.35,18.35a1.55,1.55,0,0,1-2.12,0,6.7,6.7,0,0,0-9.49,0l-2.54,2.54A1.53,1.53,0,0,1,96.17,131.87Zm-9.49-13.12,9.49,9.5,1.49-1.48a9.7,9.7,0,0,1,12.59-1l16.39-16.39a9.73,9.73,0,0,1,1-12.6l1.48-1.48-9.5-9.49Z"/><path d="M99,117.44a1.5,1.5,0,0,1-1.06-2.56L103,109.8a1.51,1.51,0,0,1,2.12,0,1.49,1.49,0,0,1,0,2.12L100.05,117A1.51,1.51,0,0,1,99,117.44Z"/><path d="M111.72,104.71a1.5,1.5,0,0,1-1.06-2.56l5.07-5.07a1.5,1.5,0,1,1,2.12,2.12l-5.07,5.07A1.53,1.53,0,0,1,111.72,104.71Z"/><path d="M107.07,109.35a1.48,1.48,0,0,1-1.06-.44,1.51,1.51,0,0,1,0-2.12l1.63-1.63a1.51,1.51,0,0,1,2.12,0,1.49,1.49,0,0,1,0,2.12l-1.63,1.63A1.45,1.45,0,0,1,107.07,109.35Z"/><path d="M49.12,134.58a1.49,1.49,0,0,1-1.06-.44L3,89.1A1.5,1.5,0,1,1,5.14,87l45,45a1.5,1.5,0,0,1-1.06,2.56Z"/><path d="M133.55,50.15a1.49,1.49,0,0,1-1.06-.44L87.39,4.61a1.49,1.49,0,0,1,0-2.12,1.51,1.51,0,0,1,2.12,0l45.1,45.1a1.51,1.51,0,0,1,0,2.12A1.53,1.53,0,0,1,133.55,50.15Z"/><circle class="cls-3" cx="43.65" cy="30.07" r="21.04"/><circle class="cls-3" cx="84.56" cy="59.92" r="14.11"/><circle class="cls-3" cx="30.57" cy="74.02" r="9.68"/></g></g></svg>