<svg xmlns="http://www.w3.org/2000/svg" viewBox="0 0 170 170"><defs><style>.cls-1{fill:none;opacity:0.2;}.cls-2{fill:#fff;}.cls-3{fill:#aae0b9;}</style></defs><g id="Layer_2" data-name="Layer 2"><g id="Drawings"><rect id="Rectangle_2497" data-name="Rectangle 2497" class="cls-1" width="170" height="170"/><polygon class="cls-2" points="37.34 86.19 1.97 46.19 1.97 35.81 37.34 75.81 37.34 86.19"/><polygon class="cls-2" points="37.34 102.19 1.97 62.19 1.97 51.81 37.34 91.81 37.34 102.19"/><polygon class="cls-2" points="132.23 86.19 167.6 46.19 167.6 35.81 132.23 75.81 132.23 86.19"/><polygon class="cls-2" points="132.23 102.19 167.6 62.19 167.6 51.81 132.23 91.81 132.23 102.19"/><path class="cls-3" d="M41.65,133h85.87V112a114.06,114.06,0,0,0-85.87.34Z"/><path class="cls-2" d="M110.81,55.11h-.38a6.86,6.86,0,0,0-13.5-.56,3.93,3.93,0,0,0-6.08,3.3,4,4,0,0,0,.26,1.39,4.85,4.85,0,0,0,.66,9.66h19a6.9,6.9,0,0,0,0-13.8Z"/><path class="cls-3" d="M104.79,86.13a6.35,6.35,0,0,0,.65-2.82,6.46,6.46,0,1,0-12.92,0c0,.12,0,.24,0,.37A8.22,8.22,0,0,0,95,99.75h7.09a7.08,7.08,0,0,0,2.73-13.62Z"/><path d="M102.06,101.25H95A9.73,9.73,0,0,1,91,82.63a8,8,0,0,1,15.9.68,8.31,8.31,0,0,1-.28,2.11,8.58,8.58,0,0,1-4.6,15.83ZM99,78.34a5,5,0,0,0-5,5v.28a1.5,1.5,0,0,1-1,1.52,6.72,6.72,0,0,0,2,13.14h7.09a5.59,5.59,0,0,0,2.15-10.74,1.51,1.51,0,0,1-.77-2,4.89,4.89,0,0,0,.5-2.16A5,5,0,0,0,99,78.34Z"/><path d="M98,109.81a1.5,1.5,0,0,1-1.5-1.5V99.75a1.5,1.5,0,0,1,3,0v8.56A1.5,1.5,0,0,1,98,109.81Z"/><path class="cls-2" d="M37.82,31.82V138.18h94.36V31.82Zm85.41,97.41H46.77V40.77h76.46Z"/><path d="M132.18,139.68H37.82a1.5,1.5,0,0,1-1.5-1.5V31.82a1.5,1.5,0,0,1,1.5-1.5h94.36a1.5,1.5,0,0,1,1.5,1.5V138.18A1.5,1.5,0,0,1,132.18,139.68Zm-92.86-3h91.36V33.32H39.32Zm83.91-6H46.77a1.5,1.5,0,0,1-1.5-1.5V40.77a1.5,1.5,0,0,1,1.5-1.5h76.46a1.5,1.5,0,0,1,1.5,1.5v88.46A1.5,1.5,0,0,1,123.23,130.73Zm-75-3h73.46V42.27H48.27Z"/><path d="M167.65,159.68a1.51,1.51,0,0,1-.74-.19l-35.46-20a1.51,1.51,0,0,1-.77-1.31V31.82a1.51,1.51,0,0,1,.77-1.31l35.46-20a1.51,1.51,0,0,1,1.5,0,1.5,1.5,0,0,1,.74,1.3V158.18a1.48,1.48,0,0,1-1.5,1.5Zm-34-22.37,32.47,18.31V14.38L133.68,32.69Z"/><path d="M2,159.68a1.47,1.47,0,0,1-.76-.2,1.5,1.5,0,0,1-.74-1.3V11.82A1.49,1.49,0,0,1,2.7,10.51l35.85,20a1.5,1.5,0,0,1,.77,1.31V138.18a1.5,1.5,0,0,1-.77,1.31l-35.85,20A1.47,1.47,0,0,1,2,159.68ZM3.47,14.37V155.63L36.32,137.3V32.7Z"/><path class="cls-3" d="M89,74.65A10.36,10.36,0,0,0,90,70.06a10.51,10.51,0,0,0-21,0c0,.21,0,.41,0,.61a13.36,13.36,0,0,0,4,26.11H84.54A11.51,11.51,0,0,0,89,74.65Z"/><path d="M84.54,98.28H73a14.86,14.86,0,0,1-5.49-28.67A12,12,0,1,1,90.9,73.92a13,13,0,0,1-6.36,24.36Zm-5-37.22a9,9,0,0,0-9,9c0,.18,0,.35,0,.52a1.5,1.5,0,0,1-1,1.52A11.86,11.86,0,0,0,73,95.28H84.54A10,10,0,0,0,88.4,76a1.43,1.43,0,0,1-.82-.85,1.49,1.49,0,0,1,0-1.19,8.89,8.89,0,0,0,.91-3.93A9,9,0,0,0,79.54,61.06Z"/><path d="M77.86,112.57a1.5,1.5,0,0,1-1.5-1.5V96.78a1.5,1.5,0,0,1,3,0v14.29A1.5,1.5,0,0,1,77.86,112.57Z"/></g></g></svg>