<svg xmlns="http://www.w3.org/2000/svg" viewBox="0 0 170.05 170"><defs><style>.cls-1{fill:none;opacity:0.2;}.cls-2{fill:#aae0b9;}.cls-3{fill:#fff;}</style></defs><g id="Layer_2" data-name="Layer 2"><g id="Drawings"><rect id="Rectangle_2497" data-name="Rectangle 2497" class="cls-1" x="0.05" width="170" height="170"/><rect class="cls-2" x="65.05" y="63.97" width="78.62" height="84.43"/><path d="M143.68,149.9H65.05a1.5,1.5,0,0,1-1.5-1.5V64a1.5,1.5,0,0,1,1.5-1.5h78.63a1.5,1.5,0,0,1,1.5,1.5V148.4A1.5,1.5,0,0,1,143.68,149.9Zm-77.13-3h75.63V65.47H66.55Z"/><polygon class="cls-2" points="65.05 148.4 26.43 168.4 26.43 83.97 65.05 63.97 65.05 148.4"/><path d="M26.43,169.9a1.46,1.46,0,0,1-.78-.22,1.48,1.48,0,0,1-.72-1.28V84a1.5,1.5,0,0,1,.81-1.33l38.62-20A1.5,1.5,0,0,1,66.55,64V148.4a1.48,1.48,0,0,1-.81,1.33l-38.62,20A1.41,1.41,0,0,1,26.43,169.9Zm1.5-85v81.06l35.62-18.45V66.44ZM65.05,148.4h0Z"/><path class="cls-3" d="M69.32,96.09c.34-2.06-.64-6.55-.32-8.42s3.51-7.21,4.16-11l1.17-7a3.5,3.5,0,0,0,1-1.46c.47-1.14,1.67-4.74,1-5.72a5.76,5.76,0,0,0-2.08-1.94c-.82-.28-10.22-2.81-11-2.84a3.41,3.41,0,0,0-2.39,1,7.4,7.4,0,0,1-1.53,1.09s-11-4.64-19.77-6.1c-4.12-.69-16.48-.37-19.13,1.52-1.59,1.13-1.93,1.79-2.09,2.73a1.78,1.78,0,0,0,.82,2,3.32,3.32,0,0,1,1,1.51s-.35,3,.61,4.44a6.29,6.29,0,0,0,3.68,2.73c1.9.7,11.81,2.48,15.73,7.84s5.94,11.67,5.16,16.35c0,0-2.19,6.76,2,7.47S52,96.47,52,96.47l-.12-2.71s0-.77.4-.7,1.16,2.31,1.16,2.31a2.21,2.21,0,0,0,1.12,1.92,39.5,39.5,0,0,0,6.85,1.63c1.88.31,6,1,6.93-.58A5.64,5.64,0,0,0,69.32,96.09Z"/><path d="M48.21,101.79a7.52,7.52,0,0,1-1.11-.09,4.28,4.28,0,0,1-3-2c-1.54-2.52-.46-6.45-.21-7.28.66-4.21-1.26-10.13-4.9-15.12-2.93-4-9.91-5.9-13.27-6.81-.8-.21-1.38-.37-1.77-.51a7.7,7.7,0,0,1-4.42-3.33,8.81,8.81,0,0,1-.87-5,1.72,1.72,0,0,0-.36-.51,3.26,3.26,0,0,1-1.42-3.43c.25-1.49,1-2.46,2.7-3.7,3.27-2.33,16.19-2.46,20.24-1.78,7.63,1.27,16.79,4.85,19.4,5.91a7.76,7.76,0,0,0,.64-.52,4.86,4.86,0,0,1,3.47-1.44c1.1,0,10.9,2.75,11.4,2.91a6.37,6.37,0,0,1,2.81,2.49c1.34,1.82-.41,6.29-.78,7.17a5.62,5.62,0,0,1-1,1.63l-1.1,6.53a33.79,33.79,0,0,1-2.8,7.7,21.76,21.76,0,0,0-1.35,3.35,18.86,18.86,0,0,0,.17,3.63,21.24,21.24,0,0,1,.16,4.74,7.55,7.55,0,0,1-1.16,2.83c-1.35,2.27-5.07,1.85-8.46,1.28-.94-.15-5.71-1-7.28-1.76a3.52,3.52,0,0,1-.75-.51,5.8,5.8,0,0,1-1.88,2.68A5,5,0,0,1,48.21,101.79ZM19.79,58.44a.83.83,0,0,0,.25.23A4.72,4.72,0,0,1,21.59,61a1.44,1.44,0,0,1,.05.62A6.87,6.87,0,0,0,22,65,4.83,4.83,0,0,0,25,67.15c.27.1.84.26,1.51.44,3.69,1,11.36,3.07,14.91,7.93C45.57,81.26,47.65,88,46.81,93a1.8,1.8,0,0,1-.06.22c-.41,1.29-.81,3.78-.12,4.92a1.27,1.27,0,0,0,1,.6,2.29,2.29,0,0,0,1.85-.32,3.39,3.39,0,0,0,1.07-2l-.12-2.58V93.7a2.39,2.39,0,0,1,.77-1.76,1.72,1.72,0,0,1,1.38-.36c.83.13,1.42.68,2.33,3.3a1.77,1.77,0,0,1,.08.52h0s0,.41.29.55a38.78,38.78,0,0,0,6.43,1.49c4.25.71,5.2.31,5.42.11A5.76,5.76,0,0,0,67.82,96s0-.08,0-.11a20.15,20.15,0,0,0-.18-4,19.07,19.07,0,0,1-.14-4.43,20.44,20.44,0,0,1,1.58-4.1,32.34,32.34,0,0,0,2.58-6.95l1.17-7a1.53,1.53,0,0,1,.61-1,2.68,2.68,0,0,0,.5-.82A12.8,12.8,0,0,0,75,63.2c-.85-1.14-1.27-1.31-1.28-1.31-.95-.32-9.7-2.65-10.62-2.77a2.05,2.05,0,0,0-1.25.66A9,9,0,0,1,60,61.11a1.53,1.53,0,0,1-1.24,0c-.11,0-11-4.6-19.44-6-4.13-.7-15.92-.23-18,1.26-1.35,1-1.41,1.32-1.48,1.76a.72.72,0,0,0,0,.28ZM69.31,96.19h0Z"/><path class="cls-3" d="M74.33,69.59s-26.56-8.26-32.84-9.31S31.38,58.6,28,58.85c-2,.16-8,1.65-8,1.65"/><path d="M74.33,71.09a1.31,1.31,0,0,1-.44-.07c-.27-.08-26.54-8.24-32.64-9.26S31.34,60.1,28.1,60.35A76.36,76.36,0,0,0,20.38,62a1.5,1.5,0,0,1-.73-2.91,77.77,77.77,0,0,1,8.23-1.69c3.6-.28,7.68.41,13.86,1.44s31.95,9,33,9.36a1.5,1.5,0,0,1-.45,2.93Z"/><rect x="43.36" y="84.25" width="6.91" height="3.04" rx="1.24" transform="translate(111.93 158.63) rotate(166.83)"/><rect x="40.22" y="76.83" width="6.91" height="3.04" rx="1.24" transform="translate(120.46 124.73) rotate(150.27)"/><rect x="34.86" y="70.72" width="6.91" height="3.04" rx="1.24" transform="translate(118.44 88.63) rotate(129.5)"/><polygon class="cls-3" points="35.32 46.02 1.5 24.11 22.63 9.88 39.66 20.92 35.32 46.02"/><path d="M35.32,47.52a1.56,1.56,0,0,1-.81-.24L.68,25.37A1.48,1.48,0,0,1,0,24.13a1.5,1.5,0,0,1,.66-1.26L21.79,8.64a1.5,1.5,0,0,1,1.65,0l17,11a1.5,1.5,0,0,1,.66,1.51L36.8,46.27a1.51,1.51,0,0,1-.88,1.12A1.58,1.58,0,0,1,35.32,47.52ZM4.22,24.09l30,19.43L38,21.64l-15.37-10Z"/><path class="cls-3" d="M41.62,11,30.92,4A3.78,3.78,0,0,0,25.7,5.14L22.63,9.89l17,11,3.08-4.75A3.78,3.78,0,0,0,41.62,11Z"/><path d="M39.66,22.42a1.54,1.54,0,0,1-.81-.24l-17-11a1.5,1.5,0,0,1-.44-2.07l3.08-4.75a5.26,5.26,0,0,1,7.28-1.56L42.44,9.7A5.26,5.26,0,0,1,44,17l-3.08,4.75a1.49,1.49,0,0,1-.94.65A1.17,1.17,0,0,1,39.66,22.42Zm-15-13,14.52,9.4,2.26-3.49a2.28,2.28,0,0,0-.67-3.14L30.1,5.28A2.27,2.27,0,0,0,27,6Z"/><path class="cls-3" d="M39.82,2h0a3,3,0,0,0-4.2.9l-1.9,2.93,5.1,3.3,1.9-2.93A3,3,0,0,0,39.82,2Z"/><path d="M38.82,10.64A1.56,1.56,0,0,1,38,10.4L32.91,7.1a1.53,1.53,0,0,1-.66-.95A1.55,1.55,0,0,1,32.46,5l1.9-2.93a4.55,4.55,0,0,1,2.86-2A4.54,4.54,0,0,1,42.6,3.61,4.46,4.46,0,0,1,42,7L40.08,10A1.49,1.49,0,0,1,38.82,10.64Zm-3-5.25,2.57,1.67,1.09-1.67a1.55,1.55,0,0,0,.21-1.15,1.54,1.54,0,0,0-2.79-.52Z"/><path d="M80.8,43.45a1.52,1.52,0,0,1-.81-.24l-38.58-25A1.5,1.5,0,1,1,43,15.7l38.58,25a1.5,1.5,0,0,1-.82,2.76Z"/><path d="M91.76,83.75a1.49,1.49,0,0,1-1.46-1.19L82,43.68a1.5,1.5,0,0,1,2.93-.63l8.32,38.89a1.5,1.5,0,0,1-1.15,1.78Z"/><circle class="cls-3" cx="83.15" cy="43.46" r="4.92"/><path d="M83.13,49.88a6.39,6.39,0,1,1,1.36-.14A6.28,6.28,0,0,1,83.13,49.88Zm0-9.84a3.53,3.53,0,0,0-.72.08,3.42,3.42,0,0,0,1.43,6.69,3.42,3.42,0,0,0,2.63-4.06A3.43,3.43,0,0,0,83.15,40Z"/><rect class="cls-3" x="100.49" y="51.79" width="29.5" height="35.4" transform="translate(54.68 -50.69) rotate(32.17)"/><path class="cls-3" d="M139.55,51.78l-1.49,39.41a7.27,7.27,0,0,1-7.54,7h0a7.28,7.28,0,0,1-7-7.55l.59-15.57"/><path d="M130.8,99.69h-.34a8.78,8.78,0,0,1-8.43-9.1L122.62,75a1.5,1.5,0,0,1,3,.11L125,90.7a5.77,5.77,0,0,0,11.54.44l1.49-39.41a1.5,1.5,0,1,1,3,.11l-1.49,39.41a8.77,8.77,0,0,1-8.76,8.44Z"/><path class="cls-3" d="M120.69,39.92,85.81,58.34a7.26,7.26,0,0,0-3,9.82h0a7.28,7.28,0,0,0,9.83,3l13.78-7.28"/><path d="M89.22,73.54a9,9,0,0,1-2.6-.39A8.78,8.78,0,0,1,85.11,57L120,38.59a1.5,1.5,0,1,1,1.4,2.66L86.51,59.66a5.77,5.77,0,0,0-2.41,7.8,5.79,5.79,0,0,0,7.81,2.41l13.78-7.28a1.51,1.51,0,0,1,2,.63,1.5,1.5,0,0,1-.63,2L93.31,72.52A8.7,8.7,0,0,1,89.22,73.54Z"/><circle class="cls-3" cx="125.3" cy="17.38" r="10.54"/><path d="M125.28,29.42a12.1,12.1,0,1,1,2.7-.31A11.84,11.84,0,0,1,125.28,29.42Zm0-21.08a8.7,8.7,0,0,0-2,.23A9,9,0,0,0,120.49,25a9,9,0,0,0,13.62-9.66,9,9,0,0,0-8.79-7Z"/><circle class="cls-3" cx="157.87" cy="37.86" r="10.54"/><path d="M157.85,49.9a12,12,0,1,1,2.7-.3A12.41,12.41,0,0,1,157.85,49.9Zm0-21.08a9.27,9.27,0,0,0-2,.23,9,9,0,1,0,4,17.62,9.05,9.05,0,0,0,6.81-10.82,9,9,0,0,0-8.8-7Z"/><circle class="cls-3" cx="94.63" cy="79.38" r="12.19"/><path d="M94.61,93.08a13.76,13.76,0,1,1,3.06-.35A13.88,13.88,0,0,1,94.61,93.08Zm0-24.4a10.26,10.26,0,0,0-2.39.28,10.69,10.69,0,1,0,11.42,16.11h0a10.7,10.7,0,0,0-9-16.39Z"/><circle class="cls-3" cx="115.27" cy="92.36" r="12.19"/><path d="M115.25,106.06a13.76,13.76,0,1,1,3.06-.35A13.88,13.88,0,0,1,115.25,106.06Zm0-24.39a10.69,10.69,0,1,0,9,16.38h0a10.69,10.69,0,0,0-9-16.38Z"/><circle class="cls-3" cx="132.34" cy="42.32" r="23.59"/><path d="M132.29,67.43a25.12,25.12,0,1,1,21.29-11.75h0a24.91,24.91,0,0,1-15.67,11.11A25.56,25.56,0,0,1,132.29,67.43Zm.09-47.21a22.64,22.64,0,0,0-4.95.56A22.09,22.09,0,1,0,151,54.09h0a22.11,22.11,0,0,0-18.66-33.87Z"/><circle cx="124.43" cy="34.77" r="2.88"/><circle cx="142.57" cy="46.18" r="2.88"/><ellipse cx="128" cy="49.22" rx="2.48" ry="4.14" transform="translate(18.19 131.37) rotate(-57.83)"/><path d="M123.31,54.38a5.77,5.77,0,0,1-3.08-.89,1.5,1.5,0,0,1,1.6-2.54,2.78,2.78,0,0,0,2.12.36,2.81,2.81,0,0,0,1.75-1.24,1.5,1.5,0,1,1,2.54,1.6,5.83,5.83,0,0,1-3.63,2.57A6.31,6.31,0,0,1,123.31,54.38Z"/><path d="M128.32,58.3a1.46,1.46,0,0,1-.8-.23,5.79,5.79,0,0,1-1.82-8,1.5,1.5,0,1,1,2.54,1.6,2.8,2.8,0,0,0,.88,3.86,1.5,1.5,0,0,1-.8,2.77Z"/><polygon class="cls-2" points="143.68 148.4 105.05 168.4 105.05 83.97 143.68 63.97 143.68 148.4"/><path d="M105.05,169.9a1.46,1.46,0,0,1-.78-.22,1.5,1.5,0,0,1-.72-1.28V84a1.51,1.51,0,0,1,.81-1.33l38.63-20a1.51,1.51,0,0,1,1.47,0,1.49,1.49,0,0,1,.72,1.28V148.4a1.48,1.48,0,0,1-.81,1.33l-38.63,20A1.38,1.38,0,0,1,105.05,169.9Zm1.5-85v81.06l35.63-18.45V66.44Zm37.13,63.52h0Z"/><path class="cls-3" d="M26.43,84V168.4h78.62V84Zm48.43,26.61H56.63a5.42,5.42,0,1,1,0-10.83H74.86a5.42,5.42,0,0,1,0,10.83Z"/><path d="M105.05,169.9H26.43a1.5,1.5,0,0,1-1.5-1.5V84a1.5,1.5,0,0,1,1.5-1.5h78.62a1.5,1.5,0,0,1,1.5,1.5V168.4A1.5,1.5,0,0,1,105.05,169.9Zm-77.12-3h75.62V85.47H27.93Zm46.93-54.82H56.63a6.92,6.92,0,1,1,0-13.83H74.86a6.92,6.92,0,0,1,0,13.83ZM56.63,101.25a3.92,3.92,0,1,0,0,7.83H74.86a3.92,3.92,0,0,0,0-7.83Z"/><circle class="cls-2" cx="74.49" cy="17.5" r="2.51"/><circle class="cls-2" cx="53.18" cy="42.32" r="2.51"/><circle class="cls-2" cx="65.74" cy="48.38" r="2.51"/><circle class="cls-2" cx="10.2" cy="49.06" r="2.51"/><circle class="cls-2" cx="59" cy="14.99" r="2.51"/><circle class="cls-2" cx="98.48" cy="27.95" r="2.51"/><circle class="cls-2" cx="155.94" cy="69.48" r="2.51"/><circle class="cls-2" cx="147.34" cy="12.17" r="2.51"/><circle class="cls-2" cx="98.48" cy="12.48" r="2.51"/></g></g></svg>