<svg xmlns="http://www.w3.org/2000/svg" viewBox="0 0 170 170.16"><defs><style>.cls-1{fill:none;opacity:0.2;}.cls-2{fill:#aae0b9;}.cls-3{fill:#fff;}</style></defs><g id="Layer_2" data-name="Layer 2"><g id="Drawings"><rect id="Rectangle_2497" data-name="Rectangle 2497" class="cls-1" y="0.14" width="170" height="170"/><path id="Ellipse_2206" data-name="Ellipse 2206" class="cls-2" d="M56.51,57c30.24-4.55,53.42-1.86,68.82-3.19,15.47-.08,23.16-4.17,23.89,6.7-1.65,10.43-6.51,21.31-5.3,37,.12,15.07,6.31,35,1.78,48.66-4.66,11.72-5.73,14.29-21.95,15.48-14.66.22-44.46-1-70.76-19C28.9,125,17.58,112.24,16.66,96.38,16.25,81.47,26.24,63.41,56.51,57Z"/><path class="cls-3" d="M94.25,11.94h29.18a6.78,6.78,0,0,1,6.78,6.78v31a0,0,0,0,1,0,0H87.47a0,0,0,0,1,0,0v-31a6.78,6.78,0,0,1,6.78-6.78Z" transform="translate(53.66 -67.94) rotate(45)"/><path d="M110.61,60.75a1.5,1.5,0,0,1-1.06-.44L79.33,30.09a1.51,1.51,0,0,1,0-2.12L101.22,6.08a8.29,8.29,0,0,1,11.7,0l20.63,20.64a8.26,8.26,0,0,1,0,11.7L111.67,60.31A1.52,1.52,0,0,1,110.61,60.75ZM82.51,29l28.1,28.09L131.43,36.3a5.26,5.26,0,0,0,0-7.46L110.8,8.21a5.28,5.28,0,0,0-7.46,0Z"/><path class="cls-3" d="M124.55,42.23h29.18A6.78,6.78,0,0,1,160.5,49V80a0,0,0,0,1,0,0H117.77a0,0,0,0,1,0,0V49A6.78,6.78,0,0,1,124.55,42.23Z" transform="translate(83.95 -80.49) rotate(45)"/><path d="M140.9,91a1.5,1.5,0,0,1-1.06-.44L109.63,60.39a1.49,1.49,0,0,1,0-2.12l21.89-21.89a8.28,8.28,0,0,1,11.7,0L163.85,57a8.29,8.29,0,0,1,0,11.71L142,90.6A1.5,1.5,0,0,1,140.9,91ZM112.81,59.33,140.9,87.42l20.83-20.83a5.29,5.29,0,0,0,0-7.46L141.1,38.5a5.28,5.28,0,0,0-7.46,0Z"/><path class="cls-2" d="M84,36.56h29.18A6.78,6.78,0,0,1,120,43.34v2.1a0,0,0,0,1,0,0H77.27a0,0,0,0,1,0,0v-2.1A6.78,6.78,0,0,1,84,36.56Z" transform="translate(57.88 -57.74) rotate(45)"/><path d="M110.61,60.75a1.49,1.49,0,0,1-1.06-.44L79.33,30.09a1.51,1.51,0,0,1,0-2.12l1.49-1.48a8.26,8.26,0,0,1,11.7,0l20.63,20.63a8.27,8.27,0,0,1,0,11.7l-1.48,1.49A1.53,1.53,0,0,1,110.61,60.75ZM82.51,29l28.1,28.09.42-.42a5.28,5.28,0,0,0,0-7.46L90.4,28.61a5.26,5.26,0,0,0-7.46,0Z"/><path class="cls-2" d="M114.34,66.86h29.18a6.78,6.78,0,0,1,6.78,6.78v2.1a0,0,0,0,1,0,0H107.57a0,0,0,0,1,0,0v-2.1a6.78,6.78,0,0,1,6.78-6.78Z" transform="translate(88.18 -70.29) rotate(45)"/><path d="M140.9,91a1.48,1.48,0,0,1-1.06-.44L109.63,60.39a1.49,1.49,0,0,1,0-2.12l1.48-1.49a8.31,8.31,0,0,1,11.71,0l20.63,20.63a8.29,8.29,0,0,1,0,11.71L142,90.6A1.45,1.45,0,0,1,140.9,91ZM112.81,59.33,140.9,87.42l.43-.42a5.29,5.29,0,0,0,0-7.46L120.7,58.9a5.31,5.31,0,0,0-7.47,0Z"/><path class="cls-3" d="M165.74,77.69a9.18,9.18,0,0,0-13,0L140.9,89.54,80.39,29,92.24,17.18a9.18,9.18,0,0,0,0-13h0a9.18,9.18,0,0,0-13,0L67.4,16,58,25.5a5,5,0,0,0,0,7.07L67.4,42l60.51,60.51,9.46,9.46a5,5,0,0,0,7.07,0l9.45-9.46,11.85-11.85A9.18,9.18,0,0,0,165.74,77.69Z"/><path d="M140.9,115a6.45,6.45,0,0,1-4.59-1.9L56.89,33.63a6.49,6.49,0,0,1,0-9.19L78.19,3.13A10.68,10.68,0,1,1,93.3,18.24L82.51,29,140.9,87.42l10.79-10.79A10.68,10.68,0,1,1,166.8,91.74l-21.3,21.31A6.47,6.47,0,0,1,140.9,115ZM85.75,3a7.67,7.67,0,0,0-5.44,2.25L59,26.56a3.49,3.49,0,0,0,0,5l79.42,79.42a3.51,3.51,0,0,0,4.95,0l21.3-21.31a7.69,7.69,0,0,0,0-10.87,7.7,7.7,0,0,0-10.87,0L142,90.6a1.53,1.53,0,0,1-2.12,0L79.33,30.09a1.51,1.51,0,0,1,0-2.12L91.18,16.12A7.69,7.69,0,0,0,85.75,3Z"/><polygon class="cls-3" points="56.19 47.14 59.24 50.19 69.17 43.79 62.59 37.21 56.19 47.14"/><path d="M59.24,51.69a1.49,1.49,0,0,1-1.06-.44l-3-3a1.5,1.5,0,0,1-.2-1.87l6.39-9.94a1.5,1.5,0,0,1,2.33-.24l6.58,6.58A1.5,1.5,0,0,1,70,45.05l-9.93,6.4A1.5,1.5,0,0,1,59.24,51.69Zm-1.13-4.76,1.33,1.34,7.35-4.73-4-4Z"/><polygon class="cls-3" points="122.8 113.75 119.75 110.7 126.14 100.77 132.73 107.35 122.8 113.75"/><path d="M122.8,115.25a1.49,1.49,0,0,1-1.06-.44l-3-3a1.5,1.5,0,0,1-.2-1.88l6.39-9.93a1.5,1.5,0,0,1,2.32-.25l6.59,6.59a1.5,1.5,0,0,1-.25,2.32l-9.93,6.4A1.5,1.5,0,0,1,122.8,115.25Zm-1.14-4.76,1.34,1.34,7.35-4.73-3.95-4Z"/><rect class="cls-3" x="1.28" y="94.9" width="105.69" height="7.95" transform="translate(-20.31 14.22) rotate(-12.63)"/><path d="M3.42,115.81a1.44,1.44,0,0,1-.8-.24,1.52,1.52,0,0,1-.66-.94L.22,106.88a1.5,1.5,0,0,1,1.14-1.79L104.49,82a1.5,1.5,0,0,1,1.79,1.14L108,90.88a1.46,1.46,0,0,1-.2,1.13,1.52,1.52,0,0,1-.94.66L3.75,115.77A1.86,1.86,0,0,1,3.42,115.81Zm.06-8.13,1.08,4.83,100.2-22.44-1.08-4.83Z"/><rect class="cls-3" x="10.34" y="102.66" width="91.05" height="7.95" transform="translate(-21.96 14.79) rotate(-12.63)"/><path d="M12.31,122a1.55,1.55,0,0,1-.81-.23,1.52,1.52,0,0,1-.66-.94L9.1,113a1.5,1.5,0,0,1,1.14-1.79l88.84-19.9a1.48,1.48,0,0,1,1.14.2,1.52,1.52,0,0,1,.66.94l1.73,7.75a1.49,1.49,0,0,1-1.13,1.79L12.63,121.93A1.66,1.66,0,0,1,12.31,122Zm0-8.12,1.08,4.83L99.36,99.43l-1.08-4.84Z"/><polygon class="cls-3" points="20.06 118.73 28.91 167.36 23.1 168.66 12.31 120.46 20.06 118.73"/><path d="M23.1,170.16A1.5,1.5,0,0,1,21.64,169l-10.8-48.2A1.5,1.5,0,0,1,12,119l7.76-1.74a1.46,1.46,0,0,1,1.15.22,1.48,1.48,0,0,1,.65,1l8.85,48.63a1.5,1.5,0,0,1-1.15,1.73l-5.81,1.3A1.24,1.24,0,0,1,23.1,170.16Zm-9-48.56,10.14,45.27,2.94-.66-8.31-45.68Z"/><polygon class="cls-3" points="101.15 100.56 111.95 148.76 106.14 150.06 93.39 102.3 101.15 100.56"/><path d="M106.14,151.56a1.5,1.5,0,0,1-1.45-1.12L91.94,102.69a1.54,1.54,0,0,1,.17-1.17,1.51,1.51,0,0,1,1-.69l7.76-1.73a1.49,1.49,0,0,1,1.79,1.13l10.8,48.2a1.46,1.46,0,0,1-.2,1.13,1.49,1.49,0,0,1-.93.66l-5.81,1.3A1.24,1.24,0,0,1,106.14,151.56Zm-10.9-48.14,12,44.86,2.94-.66L100,102.35Z"/><polygon class="cls-3" points="51.32 41.79 16.38 30.82 18.23 21.56 55.1 33.12 51.32 41.79"/><path d="M51.32,43.29a1.41,1.41,0,0,1-.45-.07l-34.94-11a1.51,1.51,0,0,1-1-1.73l1.85-9.27a1.45,1.45,0,0,1,.71-1,1.51,1.51,0,0,1,1.21-.15L55.55,31.69a1.5,1.5,0,0,1,.92,2L52.7,42.39A1.51,1.51,0,0,1,51.32,43.29ZM18.12,29.8,50.49,40l2.57-5.89L19.38,23.49Z"/><path d="M13.53,58.19a1.37,1.37,0,0,1-.34,0,1.49,1.49,0,0,1-1.12-1.79l5.72-25a1.5,1.5,0,1,1,2.92.67L15,57A1.5,1.5,0,0,1,13.53,58.19Z"/><path d="M38.88,66.15a1.64,1.64,0,0,1-.56-.11,1.5,1.5,0,0,1-.83-2l9.57-23.76a1.5,1.5,0,0,1,2.79,1.12L40.28,65.21A1.52,1.52,0,0,1,38.88,66.15Z"/><path d="M26.21,62.17a1.41,1.41,0,0,1-.45-.07,1.5,1.5,0,0,1-1-1.88l7.64-24.36a1.5,1.5,0,1,1,2.86.9L27.64,61.12A1.51,1.51,0,0,1,26.21,62.17Z"/><path d="M19.87,60.18a1.31,1.31,0,0,1-.39,0,1.5,1.5,0,0,1-1.06-1.84L25.1,33.62a1.5,1.5,0,0,1,2.9.79L21.32,59.07A1.51,1.51,0,0,1,19.87,60.18Z"/><path d="M32.55,64.16a1.52,1.52,0,0,1-.51-.09,1.5,1.5,0,0,1-.91-1.92l8.61-24.06a1.5,1.5,0,1,1,2.83,1L34,63.16A1.5,1.5,0,0,1,32.55,64.16Z"/><rect class="cls-3" x="4.76" y="59.28" width="41.4" height="7.57" transform="translate(20.05 -4.73) rotate(17.42)"/><path d="M44.07,74.37a1.41,1.41,0,0,1-.45-.07L4.13,61.91a1.5,1.5,0,0,1-.88-.74A1.53,1.53,0,0,1,3.14,60l2.27-7.21a1.52,1.52,0,0,1,1.88-1l39.5,12.4a1.5,1.5,0,0,1,1,1.88L45.5,73.32A1.5,1.5,0,0,1,44.07,74.37ZM6.46,59.49,43.09,71l1.37-4.36L7.82,55.14Z"/><rect class="cls-3" x="-5.39" y="73.06" width="26.91" height="5.23" transform="translate(-66.55 60.71) rotate(-72.58)"/><path d="M6.53,90.79a1.41,1.41,0,0,1-.45-.07l-5-1.56a1.53,1.53,0,0,1-.88-.74,1.5,1.5,0,0,1-.1-1.14L8.17,61.6a1.5,1.5,0,0,1,1.88-1l5,1.57a1.49,1.49,0,0,1,1,1.88L8,89.74A1.5,1.5,0,0,1,6.53,90.79ZM3.42,86.74l2.13.67L12.71,64.6l-2.13-.67Z"/><rect class="cls-3" x="18.95" y="80.69" width="26.91" height="5.23" transform="translate(-56.79 89.28) rotate(-72.58)"/><path d="M30.87,98.43a1.41,1.41,0,0,1-.45-.07l-5-1.57a1.45,1.45,0,0,1-.88-.73,1.53,1.53,0,0,1-.1-1.15L32.5,69.24a1.5,1.5,0,0,1,.74-.88,1.48,1.48,0,0,1,1.15-.1l5,1.56a1.56,1.56,0,0,1,.88.74,1.5,1.5,0,0,1,.1,1.14L32.3,97.38A1.5,1.5,0,0,1,30.87,98.43Zm-3.11-4.05,2.13.67,7.16-22.81-2.13-.67Z"/><path d="M32,77.26a1.74,1.74,0,0,1-.45-.06L12.23,71.12a1.5,1.5,0,1,1,.9-2.86l19.35,6.07A1.5,1.5,0,0,1,32,77.26Z"/></g></g></svg>