<svg xmlns="http://www.w3.org/2000/svg" viewBox="0 0 170 170"><defs><style>.cls-1{fill:none;opacity:0.2;}.cls-2{fill:#fff;}.cls-3{fill:#aae0b9;}</style></defs><g id="Layer_2" data-name="Layer 2"><g id="Drawings"><rect id="Rectangle_2497" data-name="Rectangle 2497" class="cls-1" width="170" height="170"/><path class="cls-2" d="M85,68.4a85,85,0,0,0-85,85H170A85,85,0,0,0,85,68.4Z"/><path d="M137.39,116.46a1.5,1.5,0,0,1-1.5-1.5V76.9a1.5,1.5,0,0,1,3,0V115A1.5,1.5,0,0,1,137.39,116.46Z"/><path class="cls-3" d="M33.3,42.24h0A11.89,11.89,0,0,1,45.19,54.13v78.11a0,0,0,0,1,0,0H21.41a0,0,0,0,1,0,0V54.13A11.89,11.89,0,0,1,33.3,42.24Z"/><path d="M45.19,133.74H21.41a1.5,1.5,0,0,1-1.5-1.5V54.13a13.39,13.39,0,0,1,26.78,0v78.11A1.5,1.5,0,0,1,45.19,133.74Zm-22.28-3H43.69V54.13a10.39,10.39,0,0,0-20.78,0Z"/><path class="cls-3" d="M128,130.4c0-23.36-6.42-42.27-14.35-42.27,11.95,0,21.61,18.91,21.61,42.27Z"/><path d="M135.23,131.9H128a1.5,1.5,0,0,1-1.5-1.5c0-11.14-1.47-21.58-4.12-29.41-2.42-7.11-5.68-11.36-8.73-11.36a1.5,1.5,0,0,1,0-3c13,0,23.11,19.23,23.11,43.77A1.5,1.5,0,0,1,135.23,131.9Zm-5.76-1.5Zm0-1.5h4.26c-.28-15.38-4.78-28.62-11.22-35.07C126.4,100.76,129.29,112.6,129.46,128.9Z"/><path class="cls-3" d="M123,130.4c0-13.4-6.42-24.25-14.34-24.25,11.94,0,21.6,10.85,21.6,24.25Z"/><path d="M130.28,131.9H123a1.5,1.5,0,0,1-1.5-1.5c0-12.54-5.76-22.75-12.84-22.75a1.5,1.5,0,0,1,0-3c12.74,0,23.1,11.55,23.1,25.75A1.5,1.5,0,0,1,130.28,131.9Zm-5.76-1.5h0Zm0-1.5h4.25A23.41,23.41,0,0,0,119.23,111C122.28,115.42,124.25,121.73,124.49,128.9Z"/><path class="cls-3" d="M146.82,130.4c0-23.36,6.42-42.27,14.34-42.27-11.94,0-21.6,18.91-21.6,42.27Z"/><path d="M146.82,131.9h-7.26a1.5,1.5,0,0,1-1.5-1.5c0-24.54,10.15-43.77,23.1-43.77a1.5,1.5,0,0,1,0,3c-3,0-6.31,4.25-8.72,11.36-2.66,7.83-4.12,18.27-4.12,29.41A1.5,1.5,0,0,1,146.82,131.9Zm-5.75-3h4.26c.17-16.3,3.06-28.14,6.95-35.07C145.85,100.28,141.35,113.52,141.07,128.9Z"/><path class="cls-3" d="M151.77,130.4c0-13.4,6.41-24.25,14.34-24.25-11.94,0-21.61,10.85-21.61,24.25Z"/><path d="M151.77,131.9H144.5a1.5,1.5,0,0,1-1.5-1.5c0-14.2,10.37-25.75,23.11-25.75a1.5,1.5,0,0,1,0,3c-7.08,0-12.84,10.21-12.84,22.75A1.5,1.5,0,0,1,151.77,131.9Zm-5.72-3h4.25c.24-7.17,2.21-13.48,5.26-17.86A23.35,23.35,0,0,0,146.05,128.9Z"/><path class="cls-3" d="M133.82,130.4c0-31.48-6.41-56.95-14.34-56.95,11.94,0,21.61,25.47,21.61,57Z"/><path d="M141.09,131.9h-7.27a1.5,1.5,0,0,1-1.5-1.5c0-32.67-6.77-55.45-12.84-55.45a1.5,1.5,0,0,1,0-3h0c13,0,23.11,25.68,23.11,58.45A1.5,1.5,0,0,1,141.09,131.9Zm-5.77-1.5h0Zm0-1.5h4.27c-.22-21.18-5-39.84-11.65-48.62C132.65,90.91,135.19,110.17,135.31,128.9Z"/><polygon class="cls-2" points="47.14 168.24 19.47 168.24 15.47 132.78 51.14 132.78 47.14 168.24"/><path d="M47.14,169.74H19.47A1.49,1.49,0,0,1,18,168.41L14,133a1.5,1.5,0,0,1,1.49-1.67H51.14A1.5,1.5,0,0,1,52.63,133l-4,35.46A1.5,1.5,0,0,1,47.14,169.74Zm-26.33-3h25l3.66-32.46H17.15Z"/><polygon class="cls-2" points="53.76 140.06 12.84 140.06 11.84 130.41 54.76 130.41 53.76 140.06"/><path d="M53.76,141.56H12.84a1.5,1.5,0,0,1-1.49-1.35l-1-9.65a1.54,1.54,0,0,1,.38-1.16,1.48,1.48,0,0,1,1.11-.5H54.76a1.49,1.49,0,0,1,1.49,1.66l-1,9.65A1.5,1.5,0,0,1,53.76,141.56Zm-39.56-3H52.41l.69-6.66H13.51Z"/><path class="cls-2" d="M143.25,168.24H131.37a8.68,8.68,0,0,1-8.63-7.86l-3.26-34.85h35.67l-3.27,34.85A8.66,8.66,0,0,1,143.25,168.24Z"/><path d="M143.25,169.74H131.37a10.12,10.12,0,0,1-10.12-9.22L118,125.67a1.51,1.51,0,0,1,.38-1.15,1.47,1.47,0,0,1,1.11-.49h35.67a1.49,1.49,0,0,1,1.11.49,1.51,1.51,0,0,1,.38,1.15l-3.26,34.85A10.13,10.13,0,0,1,143.25,169.74ZM121.13,127l3.11,33.21a7.12,7.12,0,0,0,7.13,6.5h11.88a7.13,7.13,0,0,0,7.14-6.5L153.5,127Z"/><path class="cls-2" d="M63.75,115h42.5a0,0,0,0,1,0,0v40.52a12.76,12.76,0,0,1-12.76,12.76h-17a12.76,12.76,0,0,1-12.76-12.76V115A0,0,0,0,1,63.75,115Z"/><path d="M93.48,169.74h-17a14.28,14.28,0,0,1-14.27-14.26V115a1.5,1.5,0,0,1,1.5-1.5h42.5a1.5,1.5,0,0,1,1.5,1.5v40.52A14.28,14.28,0,0,1,93.48,169.74ZM65.25,116.46v39a11.28,11.28,0,0,0,11.27,11.26h17a11.28,11.28,0,0,0,11.27-11.26v-39Z"/><path d="M85,116.46a1.5,1.5,0,0,1-1.5-1.5V26.22a1.5,1.5,0,0,1,3,0V115A1.5,1.5,0,0,1,85,116.46Z"/><path class="cls-3" d="M97.22,96.44c-4.73,4.72-12.22,4.9-12.22,4.9s.18-7.49,4.9-12.22,12.23-4.91,12.23-4.91S102,91.71,97.22,96.44Z"/><path d="M85,102.84a1.5,1.5,0,0,1-1.5-1.54c0-.33.25-8.15,5.34-13.24s12.92-5.34,13.25-5.35a1.55,1.55,0,0,1,1.1.44,1.51,1.51,0,0,1,.44,1.1c0,.33-.25,8.15-5.35,13.25h0c-5.09,5.09-12.91,5.33-13.25,5.34Zm15.45-17c-2.33.34-6.55,1.35-9.49,4.29S87,97.33,86.67,99.67c2.33-.35,6.55-1.36,9.49-4.3h0C99.1,92.44,100.11,88.22,100.45,85.89ZM97.22,96.44h0Z"/><path class="cls-3" d="M97.22,66.44C92.49,71.16,85,71.34,85,71.34s.18-7.49,4.9-12.22,12.23-4.91,12.23-4.91S102,61.71,97.22,66.44Z"/><path d="M85,72.84a1.5,1.5,0,0,1-1.5-1.54c0-.33.25-8.15,5.34-13.24s12.92-5.34,13.25-5.35a1.5,1.5,0,0,1,1.54,1.54c0,.33-.25,8.15-5.35,13.25h0C93.19,72.59,85.37,72.83,85,72.84Zm15.45-17c-2.33.34-6.55,1.35-9.49,4.29S87,67.33,86.67,69.67c2.33-.35,6.55-1.36,9.49-4.3h0C99.1,62.44,100.11,58.22,100.45,55.89ZM97.22,66.44h0Z"/><path class="cls-3" d="M97.22,36.44C92.49,41.16,85,41.34,85,41.34s.18-7.49,4.9-12.22,12.23-4.91,12.23-4.91S102,31.71,97.22,36.44Z"/><path d="M85,42.84a1.5,1.5,0,0,1-1.5-1.54c0-.33.25-8.15,5.34-13.24s12.92-5.34,13.25-5.35a1.5,1.5,0,0,1,1.54,1.54c0,.33-.25,8.15-5.35,13.25h0C93.19,42.59,85.37,42.83,85,42.84Zm15.45-17c-2.33.34-6.55,1.35-9.49,4.29S87,37.33,86.67,39.67c2.33-.35,6.55-1.36,9.49-4.3h0C99.1,32.44,100.11,28.22,100.45,25.89ZM97.22,36.44h0Z"/><path class="cls-3" d="M72.78,108.44c4.73,4.72,12.22,4.9,12.22,4.9s-.18-7.49-4.9-12.22-12.23-4.91-12.23-4.91S68.05,103.71,72.78,108.44Z"/><path d="M85,114.84h0c-.33,0-8.15-.25-13.24-5.34s-5.34-12.92-5.35-13.25a1.5,1.5,0,0,1,1.54-1.54c.33,0,8.15.25,13.25,5.35S86.49,113,86.5,113.31a1.5,1.5,0,0,1-1.5,1.53Zm-15.45-17c.34,2.33,1.35,6.55,4.29,9.48s7.15,3.95,9.49,4.3c-.35-2.33-1.36-6.55-4.3-9.49S71.88,98.23,69.55,97.89Z"/><path class="cls-3" d="M72.78,78.44C77.51,83.16,85,83.34,85,83.34s-.18-7.49-4.9-12.22-12.23-4.91-12.23-4.91S68.05,73.71,72.78,78.44Z"/><path d="M85,84.84h0c-.33,0-8.15-.25-13.24-5.34s-5.34-12.92-5.35-13.25a1.5,1.5,0,0,1,1.54-1.54c.33,0,8.15.25,13.25,5.35S86.49,83,86.5,83.31A1.5,1.5,0,0,1,85,84.84Zm-15.45-17c.34,2.33,1.35,6.55,4.29,9.48s7.15,3.95,9.49,4.3C83,79.34,82,75.12,79,72.18S71.88,68.23,69.55,67.89Z"/><path class="cls-3" d="M72.78,48.44C77.51,53.16,85,53.34,85,53.34s-.18-7.49-4.9-12.22-12.23-4.91-12.23-4.91S68.05,43.71,72.78,48.44Z"/><path d="M85,54.84h0c-.33,0-8.15-.25-13.24-5.34s-5.34-12.92-5.35-13.25a1.51,1.51,0,0,1,.44-1.1,1.55,1.55,0,0,1,1.1-.44c.33,0,8.15.25,13.25,5.35S86.49,53,86.5,53.31A1.5,1.5,0,0,1,85,54.84Zm-15.45-17c.34,2.33,1.35,6.55,4.29,9.48s7.15,4,9.49,4.3C83,49.34,82,45.12,79,42.18S71.88,38.23,69.55,37.89Z"/><path class="cls-3" d="M90.17,13.71C90.17,20.4,85,25.82,85,25.82s-5.17-5.42-5.17-12.11S85,1.6,85,1.6,90.17,7,90.17,13.71Z"/><path d="M85,27.32a1.5,1.5,0,0,1-1.09-.46c-.22-.24-5.58-5.94-5.58-13.15S83.69.81,83.91.57a1.55,1.55,0,0,1,2.17,0c.23.24,5.59,5.94,5.59,13.14s-5.36,12.91-5.59,13.15A1.47,1.47,0,0,1,85,27.32ZM85,4c-1.4,1.89-3.67,5.59-3.67,9.74s2.26,7.87,3.67,9.75c1.4-1.89,3.67-5.59,3.67-9.75S86.41,5.85,85,4Z"/><path d="M137.39,75.44a1.48,1.48,0,0,1-1.08-.47c-.15-.15-3.54-3.75-3.54-8.33s3.39-8.19,3.54-8.34a1.55,1.55,0,0,1,2.17,0c.14.15,3.53,3.76,3.53,8.34s-3.39,8.18-3.53,8.33A1.5,1.5,0,0,1,137.39,75.44Zm0-13.64a9.28,9.28,0,0,0-1.62,4.84,9.28,9.28,0,0,0,1.62,4.83A9.16,9.16,0,0,0,139,66.64,9.2,9.2,0,0,0,137.39,61.8Z"/><path d="M138.43,77.59a1.5,1.5,0,0,1-1.5-1.53c0-.21.15-5.16,3.39-8.4s8.19-3.39,8.4-3.39a1.5,1.5,0,0,1,1.53,1.53c0,.21-.15,5.16-3.39,8.4h0c-3.24,3.24-8.19,3.39-8.4,3.39ZM147,67.51a8,8,0,0,0-6.84,6.84A8,8,0,0,0,147,67.51Zm-1.21,5.63h0Z"/><path d="M136.36,77.59h0c-.21,0-5.16-.15-8.4-3.39h0c-3.24-3.24-3.39-8.19-3.4-8.4a1.53,1.53,0,0,1,.44-1.09,1.51,1.51,0,0,1,1.1-.44c.21,0,5.16.15,8.39,3.39s3.4,8.19,3.4,8.4a1.49,1.49,0,0,1-.44,1.09A1.46,1.46,0,0,1,136.36,77.59Zm-6.31-5.51a9.25,9.25,0,0,0,4.56,2.27,8,8,0,0,0-6.83-6.84,9.28,9.28,0,0,0,2.27,4.57Z"/><path d="M33.3,131.9a1.5,1.5,0,0,1-1.5-1.5v-48a1.5,1.5,0,0,1,3,0v48A1.5,1.5,0,0,1,33.3,131.9Z"/><path d="M33.3,67.71a1.5,1.5,0,0,1-1.5-1.5V49.32a1.5,1.5,0,1,1,3,0V66.21A1.5,1.5,0,0,1,33.3,67.71Z"/><path d="M33.3,78.4a1.5,1.5,0,0,1-1.5-1.5V72a1.5,1.5,0,0,1,3,0V76.9A1.5,1.5,0,0,1,33.3,78.4Z"/><path d="M38.9,131.9a1.5,1.5,0,0,1-1.5-1.5V87.14a1.5,1.5,0,0,1,3,0V130.4A1.5,1.5,0,0,1,38.9,131.9Z"/><path d="M38.9,74.09a1.5,1.5,0,0,1-1.5-1.5V57.38a1.5,1.5,0,0,1,3,0V72.59A1.5,1.5,0,0,1,38.9,74.09Z"/><path d="M38.9,83.71a1.5,1.5,0,0,1-1.5-1.5v-4.4a1.5,1.5,0,0,1,3,0v4.4A1.5,1.5,0,0,1,38.9,83.71Z"/><path d="M27.56,131.9a1.5,1.5,0,0,1-1.5-1.5V87.14a1.5,1.5,0,0,1,3,0V130.4A1.5,1.5,0,0,1,27.56,131.9Z"/><path d="M27.56,74.09a1.5,1.5,0,0,1-1.5-1.5V57.38a1.5,1.5,0,0,1,3,0V72.59A1.5,1.5,0,0,1,27.56,74.09Z"/><path d="M27.56,83.71a1.5,1.5,0,0,1-1.5-1.5v-4.4a1.5,1.5,0,0,1,3,0v4.4A1.5,1.5,0,0,1,27.56,83.71Z"/><path d="M21.41,65.22H18a1.5,1.5,0,0,1,0-3h3.43a1.5,1.5,0,0,1,0,3Z"/><path d="M21.41,55.22H18a1.5,1.5,0,0,1,0-3h3.43a1.5,1.5,0,0,1,0,3Z"/><path d="M48.62,55.22H45.19a1.5,1.5,0,0,1,0-3h3.43a1.5,1.5,0,1,1,0,3Z"/><path d="M41.71,46.81a1.51,1.51,0,0,1-1.06-.44,1.49,1.49,0,0,1,0-2.12l2.42-2.42A1.5,1.5,0,1,1,45.2,44l-2.43,2.42A1.51,1.51,0,0,1,41.71,46.81Z"/><path d="M33.3,43.33a1.5,1.5,0,0,1-1.5-1.5V38.4a1.5,1.5,0,1,1,3,0v3.43A1.5,1.5,0,0,1,33.3,43.33Z"/><path d="M24.9,46.81a1.53,1.53,0,0,1-1.07-.44L21.41,44a1.5,1.5,0,1,1,2.12-2.12L26,44.25a1.51,1.51,0,0,1,0,2.12A1.53,1.53,0,0,1,24.9,46.81Z"/><path d="M21.41,75.22H18a1.5,1.5,0,0,1,0-3h3.43a1.5,1.5,0,0,1,0,3Z"/><path d="M21.41,85.22H18a1.5,1.5,0,0,1,0-3h3.43a1.5,1.5,0,0,1,0,3Z"/><path d="M21.41,95.22H18a1.5,1.5,0,0,1,0-3h3.43a1.5,1.5,0,0,1,0,3Z"/><path d="M21.41,105.22H18a1.5,1.5,0,0,1,0-3h3.43a1.5,1.5,0,0,1,0,3Z"/><path d="M21.41,115.22H18a1.5,1.5,0,1,1,0-3h3.43a1.5,1.5,0,0,1,0,3Z"/><path d="M21.41,125.22H18a1.5,1.5,0,1,1,0-3h3.43a1.5,1.5,0,0,1,0,3Z"/><path d="M48.62,65.22H45.19a1.5,1.5,0,0,1,0-3h3.43a1.5,1.5,0,1,1,0,3Z"/><path d="M48.62,75.22H45.19a1.5,1.5,0,0,1,0-3h3.43a1.5,1.5,0,1,1,0,3Z"/><path d="M48.62,85.22H45.19a1.5,1.5,0,0,1,0-3h3.43a1.5,1.5,0,1,1,0,3Z"/><path d="M48.62,95.22H45.19a1.5,1.5,0,0,1,0-3h3.43a1.5,1.5,0,1,1,0,3Z"/><path d="M48.62,105.22H45.19a1.5,1.5,0,0,1,0-3h3.43a1.5,1.5,0,1,1,0,3Z"/><path d="M48.62,115.22H45.19a1.5,1.5,0,0,1,0-3h3.43a1.5,1.5,0,1,1,0,3Z"/><path d="M48.62,125.22H45.19a1.5,1.5,0,0,1,0-3h3.43a1.5,1.5,0,1,1,0,3Z"/><path class="cls-2" d="M135.71,31.8h0A4.18,4.18,0,0,1,139.89,36v9.57a0,0,0,0,1,0,0h-8.37a0,0,0,0,1,0,0V36A4.18,4.18,0,0,1,135.71,31.8Z" transform="translate(271.42 77.35) rotate(180)"/><path d="M135.71,47.05A5.69,5.69,0,0,1,130,41.37V31.8a1.5,1.5,0,0,1,1.5-1.5h8.36a1.5,1.5,0,0,1,1.5,1.5v9.57A5.68,5.68,0,0,1,135.71,47.05ZM133,33.3v8.07a2.68,2.68,0,0,0,5.36,0V33.3Z"/><path class="cls-2" d="M122.85,23.12h8.37a0,0,0,0,1,0,0v9.57A4.18,4.18,0,0,1,127,36.87h0a4.18,4.18,0,0,1-4.18-4.18V23.12a0,0,0,0,1,0,0Z" transform="translate(157.02 -97.04) rotate(90)"/><path d="M133.91,35.68h-9.57a5.69,5.69,0,1,1,0-11.37h9.57a1.5,1.5,0,0,1,1.5,1.5v8.37A1.5,1.5,0,0,1,133.91,35.68Zm-9.57-8.37a2.69,2.69,0,1,0,0,5.37h8.07V27.31Z"/><rect class="cls-2" x="128.44" y="21.05" width="8.37" height="23.75" rx="4.18" transform="translate(62.12 -84.13) rotate(45)"/><path d="M127.18,44a5.65,5.65,0,0,1-4-1.66h0a5.7,5.7,0,0,1,0-8L134,23.46a5.69,5.69,0,0,1,8,8L131.2,42.38A5.65,5.65,0,0,1,127.18,44ZM138.06,24.8a2.69,2.69,0,0,0-1.9.78L125.28,36.46a2.7,2.7,0,0,0,0,3.8h0a2.76,2.76,0,0,0,3.8,0L140,29.38a2.69,2.69,0,0,0,0-3.79A2.66,2.66,0,0,0,138.06,24.8Z"/><path d="M139.78,33.18a1.49,1.49,0,0,1-1.06-.44l-5.55-5.55a1.49,1.49,0,0,1,0-2.12,1.51,1.51,0,0,1,2.12,0l5.55,5.55a1.51,1.51,0,0,1,0,2.12A1.53,1.53,0,0,1,139.78,33.18Z"/><path d="M135.58,37.38a1.49,1.49,0,0,1-1.06-.44L129,31.39a1.49,1.49,0,0,1,0-2.12,1.51,1.51,0,0,1,2.12,0l5.55,5.55a1.5,1.5,0,0,1-1.06,2.56Z"/><path d="M131.38,41.58a1.49,1.49,0,0,1-1.06-.44l-5.55-5.55a1.5,1.5,0,0,1,2.12-2.12L132.44,39a1.49,1.49,0,0,1,0,2.12A1.51,1.51,0,0,1,131.38,41.58Z"/><path d="M152.85,134.28H120.16a1.5,1.5,0,0,1,0-3h32.69a1.5,1.5,0,0,1,0,3Z"/></g></g></svg>