<svg xmlns="http://www.w3.org/2000/svg" viewBox="0 0 170 170"><defs><style>.cls-1{fill:none;opacity:0.2;}.cls-2,.cls-4{fill:#aae0b9;}.cls-3{fill:#fff;}.cls-4{isolation:isolate;}</style></defs><g id="Layer_2" data-name="Layer 2"><g id="Drawings"><rect id="Rectangle_2497" data-name="Rectangle 2497" class="cls-1" width="170" height="170"/><ellipse class="cls-2" cx="85" cy="140.36" rx="85" ry="29.64"/><rect class="cls-3" x="43.39" y="59.58" width="83.23" height="83.23"/><path d="M126.61,144.31H43.39a1.5,1.5,0,0,1-1.5-1.5V59.58a1.5,1.5,0,0,1,1.5-1.5h83.22a1.5,1.5,0,0,1,1.5,1.5v83.23A1.5,1.5,0,0,1,126.61,144.31Zm-81.72-3h80.22V61.08H44.89Z"/><rect class="cls-3" x="76.08" y="22.37" width="17.83" height="92.25" transform="translate(16.5 153.5) rotate(-90)"/><path d="M131.12,78.92H38.88a1.5,1.5,0,0,1-1.5-1.5V59.58a1.5,1.5,0,0,1,1.5-1.5h92.24a1.5,1.5,0,0,1,1.5,1.5V77.42A1.5,1.5,0,0,1,131.12,78.92Zm-90.74-3h89.24V61.08H40.38Z"/><path d="M85,61.08H61.23a13.39,13.39,0,1,1,0-26.77c.44,0,.89,0,1.32.06a25.24,25.24,0,0,1,24,25.21A1.5,1.5,0,0,1,85,61.08ZM61.23,37.31a10.39,10.39,0,1,0,0,20.77H83.45A22.23,22.23,0,0,0,62.37,37.37h-.08A9.4,9.4,0,0,0,61.23,37.31Z"/><path d="M108.77,61.08H85a1.5,1.5,0,0,1-1.5-1.5,25.24,25.24,0,0,1,24-25.21c.43,0,.88-.06,1.32-.06a13.39,13.39,0,1,1,0,26.77Zm-22.22-3h22.22a10.39,10.39,0,1,0,0-20.77,9.29,9.29,0,0,0-1.06,0h-.07A22.23,22.23,0,0,0,86.55,58.08Zm21-22.21h0Z"/><path id="Path_5267" data-name="Path 5267" class="cls-4" d="M24.3,45.86,14.21,56a1,1,0,0,1-.69.29,1,1,0,0,1-.7-.29L2.75,45.88C1.29,44.29,0,42.69,0,40.2a7.25,7.25,0,0,1,13.52-3.63A7.25,7.25,0,0,1,27,40.2,8.18,8.18,0,0,1,24.3,45.86Z"/><path id="Path_5267-2" data-name="Path 5267" class="cls-4" d="M95.78,12.9,85.69,23a1,1,0,0,1-1.38,0L74.23,12.92c-1.46-1.58-2.75-3.18-2.75-5.67A7.25,7.25,0,0,1,85,3.61,7.25,7.25,0,0,1,98.52,7.25,8.12,8.12,0,0,1,95.78,12.9Z"/><path id="Path_5267-3" data-name="Path 5267" class="cls-4" d="M167.26,44.43,157.17,54.51a1,1,0,0,1-1.38,0L145.71,44.44c-1.46-1.58-2.75-3.18-2.75-5.67a7.25,7.25,0,0,1,13.52-3.64A7.25,7.25,0,0,1,170,38.77,8.16,8.16,0,0,1,167.26,44.43Z"/><polygon class="cls-4" points="125.11 101.66 44.89 128.86 44.89 118.86 125.11 91.66 125.11 101.66"/><polygon class="cls-4" points="44.89 78.97 44.89 88.86 74.05 78.97 44.89 78.97"/><polygon class="cls-4" points="103.55 78.97 44.89 98.86 44.89 108.86 125.11 81.66 125.11 78.97 103.55 78.97"/><polygon class="cls-4" points="125.11 141.27 125.11 131.66 96.78 141.27 125.11 141.27"/><polygon class="cls-4" points="67.28 141.27 125.11 121.66 125.11 111.66 44.89 138.86 44.89 141.27 67.28 141.27"/><rect class="cls-3" x="76.08" y="59.58" width="17.83" height="83.23"/><path d="M93.92,144.31H76.08a1.5,1.5,0,0,1-1.5-1.5V59.58a1.5,1.5,0,0,1,1.5-1.5H93.92a1.5,1.5,0,0,1,1.5,1.5v83.23A1.5,1.5,0,0,1,93.92,144.31Zm-16.34-3H92.42V61.08H77.58Z"/></g></g></svg>