<svg xmlns="http://www.w3.org/2000/svg" viewBox="0 0 170 170"><defs><style>.cls-1{fill:none;opacity:0.2;}.cls-2{fill:#aae0b9;}.cls-3{fill:#fff;}</style></defs><g id="Layer_2" data-name="Layer 2"><g id="Drawings"><rect id="Rectangle_2497" data-name="Rectangle 2497" class="cls-1" width="170" height="170"/><path class="cls-2" d="M150.87,141.08a7.49,7.49,0,0,0,2.71-5.32c0-8.68-20.59-15.72-46-15.72s-46,7-46,15.72,20.59,15.71,46,15.71a125.11,125.11,0,0,0,18.23-1.29c2.12,3.46,11.08,6,21.81,6,12.31,0,22.29-3.41,22.29-7.62C169.92,144.78,161.65,141.61,150.87,141.08Z"/><ellipse class="cls-2" cx="103.55" cy="167.36" rx="8.71" ry="2.64"/><ellipse class="cls-2" cx="87.49" cy="151.35" rx="16.06" ry="4.88"/><ellipse class="cls-2" cx="159.16" cy="122.05" rx="6.63" ry="2.01"/><circle class="cls-3" cx="58.2" cy="84.39" r="9.56"/><path d="M58.2,95.45A11.06,11.06,0,1,1,69.26,84.39,11.08,11.08,0,0,1,58.2,95.45Zm0-19.12a8.06,8.06,0,1,0,8.06,8.06A8.07,8.07,0,0,0,58.2,76.33Z"/><circle class="cls-3" cx="40.56" cy="85.09" r="16.24"/><path d="M40.56,102.83A17.74,17.74,0,1,1,58.3,85.09,17.76,17.76,0,0,1,40.56,102.83Zm0-32.48A14.74,14.74,0,1,0,55.3,85.09,14.75,14.75,0,0,0,40.56,70.35Z"/><circle class="cls-3" cx="20.62" cy="84.39" r="9.56"/><path d="M20.62,95.45A11.06,11.06,0,1,1,31.68,84.39,11.08,11.08,0,0,1,20.62,95.45Zm0-19.12a8.06,8.06,0,1,0,8.06,8.06A8.07,8.07,0,0,0,20.62,76.33Z"/><polygon class="cls-3" points="64.26 151.72 16.86 151.72 6.26 82.53 74.86 82.53 64.26 151.72"/><path d="M64.26,153.22H16.86A1.5,1.5,0,0,1,15.38,152L4.78,82.75A1.5,1.5,0,0,1,6.27,81H74.86a1.5,1.5,0,0,1,1.48,1.72L65.75,152A1.51,1.51,0,0,1,64.26,153.22Zm-46.11-3H63L73.11,84H8Z"/><circle cx="40.56" cy="101.33" r="4.2"/><path d="M6.25,135.41a6.18,6.18,0,0,1-4.37-10.54l8.65-8.64a1.49,1.49,0,0,1,2.12,0,1.51,1.51,0,0,1,0,2.12L4,127a3.17,3.17,0,0,0,4.49,4.49l31-31a1.51,1.51,0,0,1,2.12,0,1.49,1.49,0,0,1,0,2.12l-31,31A6.12,6.12,0,0,1,6.25,135.41Z"/><rect class="cls-3" x="47.65" y="-17.53" width="9.06" height="139.42" rx="4.53" transform="translate(125.98 52.19) rotate(135)"/><path d="M98.27,104.3A6,6,0,0,1,94,102.54L1.83,10.36a6,6,0,0,1,0-8.53h0a6,6,0,0,1,8.52,0L102.53,94a6,6,0,0,1-4.26,10.29ZM4,4A3,3,0,0,0,4,8.24l92.18,92.18a3,3,0,1,0,4.28-4.29L8.23,4A3,3,0,0,0,4,4Z"/><path class="cls-3" d="M136.76,127a12,12,0,0,1-12-12c0-.07,0-.14,0-.21a21,21,0,0,0-21-20.86h-2a21,21,0,0,0-21,21v2a21,21,0,0,0,21,21h24a23,23,0,0,0,23-22.93A12,12,0,0,1,136.76,127Z"/><path d="M125.75,139.49h-24A22.56,22.56,0,0,1,79.24,117v-2a22.56,22.56,0,0,1,22.54-22.54h2a22.6,22.6,0,0,1,22.53,22.34s0,.18,0,.22a10.49,10.49,0,0,0,21,.06h0a1.5,1.5,0,0,1,1.5-1.5h0a1.51,1.51,0,0,1,1.5,1.51h0A24.55,24.55,0,0,1,125.75,139.49Zm-24-44A19.56,19.56,0,0,0,82.24,115v2a19.56,19.56,0,0,0,19.54,19.54h24a21.51,21.51,0,0,0,18.18-10.05,13.34,13.34,0,0,1-7.17,2.08A13.51,13.51,0,0,1,123.27,115a1.62,1.62,0,0,1,0-.22,19.58,19.58,0,0,0-19.53-19.35Z"/><path class="cls-3" d="M148.75,115h0v0Z"/><path d="M148.75,116.5h0a1.49,1.49,0,0,1-1.48-1.42V115a1.5,1.5,0,0,1,3,0V115A1.5,1.5,0,0,1,148.75,116.5Zm.1-1.49,1.37.28Z"/><path d="M111.59,139.49A22.56,22.56,0,0,1,89.05,117v-2a22.44,22.44,0,0,1,.76-5.84,1.5,1.5,0,0,1,2.9.77,19.59,19.59,0,0,0-.66,5.07v2a19.55,19.55,0,0,0,19.54,19.54,1.5,1.5,0,0,1,0,3Z"/><path d="M121.39,139.49a22.56,22.56,0,0,1-21.77-16.7,1.5,1.5,0,1,1,2.89-.77,19.57,19.57,0,0,0,18.88,14.47,1.5,1.5,0,0,1,0,3Z"/><circle class="cls-3" cx="20.62" cy="63.54" r="3.67"/><circle class="cls-3" cx="28.97" cy="53" r="2.46"/><circle class="cls-3" cx="41.35" cy="61.56" r="2.46"/><path d="M40.56,91.21H7.36a1.5,1.5,0,1,1,0-3h33.2a1.5,1.5,0,0,1,0,3Z"/><path d="M50.56,91.21h-3.2a1.5,1.5,0,0,1,0-3h3.2a1.5,1.5,0,0,1,0,3Z"/><path d="M72.7,91.21H56.6a1.5,1.5,0,0,1,0-3H72.7a1.5,1.5,0,0,1,0,3Z"/></g></g></svg>