<svg xmlns="http://www.w3.org/2000/svg" viewBox="0 0 170 170"><defs><style>.cls-1{fill:none;opacity:0.2;}.cls-2{fill:#aae0b9;}.cls-3{fill:#fff;}</style></defs><g id="Layer_2" data-name="Layer 2"><g id="Drawings"><rect id="Rectangle_2497" data-name="Rectangle 2497" class="cls-1" width="170" height="170"/><circle id="Ellipse_2206" data-name="Ellipse 2206" class="cls-2" cx="85" cy="85" r="85"/><path class="cls-3" d="M126,156.48,89.69,46.84a3.57,3.57,0,0,1-.1-.35,63.07,63.07,0,0,0-8-17C74.46,19,65.48,13.64,54.9,13.64c-5.18,0-14.28,1.19-17,9.2C34.8,32.18,41.25,49.65,62.8,65.92c36.24,27.38,33,47.46,26,67.31l-.14.4L78.25,130l.14-.4C83.6,114.79,89,99.49,56.17,74.7,33.28,57.41,22,35.68,27.51,19.34,31.07,8.73,41.05,2.64,54.9,2.64c14.35,0,26.79,7.23,36,20.92a73.57,73.57,0,0,1,9.3,20L136.46,153Z"/><path d="M126,158a1.44,1.44,0,0,1-.67-.16,1.54,1.54,0,0,1-.75-.87L88.27,47.31a3.19,3.19,0,0,1-.13-.44,62.05,62.05,0,0,0-7.8-16.58C73.52,20.24,65,15.14,54.9,15.14c-4.78,0-13.16,1.06-15.54,8.18-3,8.84,3.38,25.58,24.34,41.4,37.05,28,33.67,48.62,26.48,69l-.14.4a1.5,1.5,0,0,1-1.92.91l-10.37-3.65a1.5,1.5,0,0,1-.92-1.91l.14-.4C82.24,114.14,87.21,100,55.26,75.9c-23.41-17.69-34.86-40.07-29.18-57C29.86,7.6,40.36,1.14,54.9,1.14c14.88,0,27.75,7.46,37.22,21.59a75,75,0,0,1,9.51,20.4l36.26,109.42a1.5,1.5,0,0,1-.95,1.89L126.5,157.9A1.34,1.34,0,0,1,126,158ZM54.9,12.14c11.11,0,20.51,5.54,27.92,16.47A64.76,64.76,0,0,1,91,46.11a2.5,2.5,0,0,0,.07.26L127,154.58l7.59-2.51L98.76,44a71.73,71.73,0,0,0-9.13-19.6C80.74,11.14,68.73,4.14,54.9,4.14c-13.16,0-22.63,5.72-26,15.68C23.66,35.54,34.71,56.61,57.07,73.5,90,98.39,85.42,114.07,80.16,129.06l7.54,2.66c6.55-19,9-38.31-25.81-64.6-10-7.6-17.7-16.12-22.11-24.65-3.92-7.57-5.08-14.71-3.27-20.11C39.5,13.47,49.31,12.14,54.9,12.14Z"/><path class="cls-3" d="M77.73,167.36H23.92A14.23,14.23,0,0,1,9.69,153.14V116.38a14.22,14.22,0,0,1,14.23-14.22H46.37a31.58,31.58,0,0,1,21.7,8.64l23.38,22.12a20,20,0,0,1,6.24,14.49h0A20,20,0,0,1,77.73,167.36Z"/><path d="M77.73,168.86H23.92A15.74,15.74,0,0,1,8.19,153.14V116.38a15.74,15.74,0,0,1,15.73-15.72H46.37a32.93,32.93,0,0,1,22.73,9l23.38,22.12a21.45,21.45,0,0,1-14.75,37Zm-53.81-65.2a12.74,12.74,0,0,0-12.73,12.72v36.76a12.74,12.74,0,0,0,12.73,12.72H77.73A18.45,18.45,0,0,0,90.42,134L67,111.89a30,30,0,0,0-20.67-8.23Z"/><circle class="cls-3" cx="24.64" cy="144.35" r="23.01"/><path d="M24.64,168.86a24.52,24.52,0,1,1,24.51-24.51A24.55,24.55,0,0,1,24.64,168.86Zm0-46a21.52,21.52,0,1,0,21.51,21.52A21.54,21.54,0,0,0,24.64,122.83Z"/><circle class="cls-3" cx="24.64" cy="144.35" r="10.89"/><path d="M24.64,156.74A12.39,12.39,0,1,1,37,144.35,12.41,12.41,0,0,1,24.64,156.74Zm0-21.78A9.39,9.39,0,1,0,34,144.35,9.41,9.41,0,0,0,24.64,135Z"/><path class="cls-3" d="M26.23,94.3H40a3.62,3.62,0,0,1,3.62,3.62v4.24a0,0,0,0,1,0,0h-21a0,0,0,0,1,0,0V97.92A3.62,3.62,0,0,1,26.23,94.3Z"/><path d="M43.6,103.66h-21a1.5,1.5,0,0,1-1.5-1.5V97.92a5.12,5.12,0,0,1,5.12-5.12H40a5.13,5.13,0,0,1,5.12,5.12v4.24A1.5,1.5,0,0,1,43.6,103.66Zm-19.49-3h18V97.92A2.12,2.12,0,0,0,40,95.8H26.23a2.12,2.12,0,0,0-2.12,2.12Z"/><path class="cls-3" d="M165.87,167.36H124.8a2.68,2.68,0,0,1-2.86-2.46v-7.84a2.55,2.55,0,0,1,2-2.36l15.55-4.12a3.28,3.28,0,0,1,1.73,0L165,157.31a2.33,2.33,0,0,1,1.64,1.52l1.71,5.84A2.25,2.25,0,0,1,165.87,167.36Z"/><path d="M165.87,168.86H124.8a4.18,4.18,0,0,1-4.36-4v-7.84a4,4,0,0,1,3.14-3.81l15.55-4.12a4.79,4.79,0,0,1,2.52,0l23.7,6.72a3.8,3.8,0,0,1,2.68,2.54l1.71,5.84a3.41,3.41,0,0,1-.56,3A4.11,4.11,0,0,1,165.87,168.86ZM140.35,152a1.82,1.82,0,0,0-.46.06l-15.54,4.12a1.08,1.08,0,0,0-.91.91v7.84c0,.51.64,1,1.36,1h41.07a1.12,1.12,0,0,0,.91-.39.36.36,0,0,0,.08-.37l-1.71-5.85a.86.86,0,0,0-.61-.5L140.83,152A1.55,1.55,0,0,0,140.35,152Z"/><circle class="cls-3" cx="138.98" cy="127.47" r="2.51"/><circle class="cls-3" cx="133.95" cy="109.9" r="2.51"/><circle class="cls-3" cx="101.46" cy="129.98" r="2.51"/><circle class="cls-3" cx="58.94" cy="94.3" r="2.51"/><circle class="cls-3" cx="101.46" cy="106.42" r="2.51"/><circle class="cls-3" cx="112.95" cy="148.11" r="2.51"/><circle class="cls-3" cx="146.55" cy="96.81" r="2.51"/><circle class="cls-3" cx="141.49" cy="54.23" r="2.51"/><circle class="cls-3" cx="126.67" cy="79.56" r="2.51"/><circle class="cls-3" cx="161.2" cy="142.05" r="2.51"/><circle class="cls-3" cx="150.71" cy="121.33" r="2.51"/><circle class="cls-3" cx="163.72" cy="80.88" r="2.51"/></g></g></svg>