<svg xmlns="http://www.w3.org/2000/svg" viewBox="0 0 170 170"><defs><style>.cls-1{fill:none;opacity:0.2;}.cls-2{fill:#fdd3d5;}.cls-3{fill:#fff;}</style></defs><g id="Layer_2" data-name="Layer 2"><g id="Drawings"><rect id="Rectangle_2497" data-name="Rectangle 2497" class="cls-1" width="170" height="170"/><polygon class="cls-2" points="85 14.88 90.19 0 92.38 15.61 100.38 2.03 99.48 17.77 109.98 6 106.03 21.26 118.61 11.77 111.76 25.97 125.96 19.12 116.47 31.7 131.73 27.75 119.97 38.25 135.71 37.35 122.12 45.35 137.73 47.54 122.85 52.73 137.73 57.93 122.12 60.12 135.71 68.11 119.97 67.22 131.73 77.71 116.47 73.76 125.96 86.35 111.76 79.5 118.61 93.69 106.03 84.2 109.98 99.46 99.48 87.7 100.38 103.44 92.38 89.85 90.19 105.47 85 90.58 79.81 105.47 77.62 89.85 69.62 103.44 70.52 87.7 60.02 99.46 63.97 84.2 51.38 93.69 58.24 79.5 44.04 86.35 53.53 73.76 38.27 77.71 50.03 67.22 34.29 68.11 47.88 60.12 32.27 57.93 47.15 52.73 32.27 47.54 47.88 45.35 34.29 37.35 50.03 38.25 38.27 27.75 53.53 31.7 44.04 19.12 58.24 25.97 51.38 11.77 63.97 21.26 60.02 6 70.52 17.77 69.62 2.03 77.62 15.61 79.81 0 85 14.88"/><polygon class="cls-3" points="1.72 151.22 15.43 90.92 20.79 93.73 26.24 97.8 31.14 97.8 36.32 92.64 42.91 92.5 47.9 96.18 53.07 98.36 59.61 93.73 64.79 91.96 70.1 95.02 76.18 98.13 47.3 166.94 45.22 167.83 2.74 154.43 1.72 151.22"/><polygon class="cls-3" points="167.86 151.22 156.24 100.12 153.33 100.41 145.02 94.82 138.34 96.05 133.85 99.59 131.4 100.68 125.68 99.18 116.96 94.41 109.98 99.46 103.34 100.13 96.8 95.77 92.09 95.02 122.27 166.94 124.35 167.83 166.84 154.43 167.86 151.22"/><path d="M46.73,169.8a1.41,1.41,0,0,1-.45-.07l-45-14.19a1.5,1.5,0,0,1-1-1.75L19.91,63.23a1.45,1.45,0,0,1,.71-1,1.48,1.48,0,0,1,1.2-.13L83,81.43a1.5,1.5,0,0,1,.93,2L48.11,168.88A1.5,1.5,0,0,1,46.73,169.8ZM3.47,153.09l42.41,13.37L80.57,83.79,22.49,65.47Z"/><path d="M32.17,155a1.76,1.76,0,0,1-.45-.07L3.35,145.94a1.5,1.5,0,1,1,.9-2.86L32.62,152a1.51,1.51,0,0,1-.45,2.94Z"/><path d="M45.41,159.13a1.41,1.41,0,0,1-.45-.07l-5-1.57a1.5,1.5,0,0,1,.9-2.87l5,1.58a1.5,1.5,0,0,1-.45,2.93Z"/><path d="M76.18,99.52c-3.6,0-5.49-1.91-7-3.44s-2.53-2.56-4.88-2.56-3.47,1.13-4.88,2.56-3.41,3.44-7,3.44-5.49-1.91-7-3.44-2.53-2.56-4.87-2.56-3.47,1.13-4.88,2.56-3.41,3.44-7,3.44-5.49-1.91-7-3.44-2.53-2.56-4.87-2.56a1.5,1.5,0,0,1,0-3c3.59,0,5.48,1.91,7,3.45s2.53,2.55,4.88,2.55,3.46-1.13,4.88-2.55,3.41-3.45,7-3.45,5.48,1.91,7,3.45,2.53,2.55,4.88,2.55,3.46-1.13,4.88-2.55,3.41-3.45,7-3.45,5.49,1.91,7,3.45,2.53,2.55,4.88,2.55a1.5,1.5,0,0,1,0,3Z"/><path d="M123,169.8a1.51,1.51,0,0,1-1.39-.92L85.74,83.44a1.54,1.54,0,0,1,0-1.21,1.47,1.47,0,0,1,.91-.8l61.22-19.31a1.49,1.49,0,0,1,1.92,1.11l19.66,90.56a1.52,1.52,0,0,1-1,1.75l-45,14.19A1.41,1.41,0,0,1,123,169.8Zm-33.85-86,34.7,82.67,42.4-13.37-19-87.62Z"/><path d="M137.55,155a1.51,1.51,0,0,1-.45-2.94l28.37-8.94a1.5,1.5,0,1,1,.9,2.86L138,154.89A1.76,1.76,0,0,1,137.55,155Z"/><path d="M124.3,159.13a1.5,1.5,0,0,1-.45-2.93l5-1.58a1.5,1.5,0,0,1,.9,2.87l-5,1.57A1.41,1.41,0,0,1,124.3,159.13Z"/><path d="M155.19,102.3c-3.7,0-5.58-1.82-7.23-3.42-1.48-1.44-2.65-2.58-5.13-2.58s-3.66,1.14-5.14,2.58c-1.65,1.6-3.53,3.42-7.23,3.42s-5.57-1.82-7.22-3.42c-1.48-1.44-2.65-2.58-5.13-2.58s-3.65,1.14-5.14,2.58c-1.65,1.6-3.52,3.42-7.22,3.42s-5.57-1.82-7.22-3.42c-1.48-1.44-2.65-2.58-5.13-2.58a1.5,1.5,0,0,1,0-3c3.69,0,5.57,1.82,7.22,3.42,1.48,1.44,2.65,2.58,5.13,2.58s3.65-1.14,5.13-2.58c1.66-1.6,3.53-3.42,7.23-3.42s5.57,1.82,7.22,3.42c1.48,1.44,2.65,2.58,5.13,2.58s3.66-1.14,5.14-2.58c1.65-1.6,3.53-3.42,7.23-3.42s5.57,1.82,7.22,3.42c1.48,1.44,2.66,2.58,5.14,2.58a1.5,1.5,0,0,1,0,3Z"/><path class="cls-3" d="M81.44,49.24c1.07-7.76,3.82-11.1,6.65-10.1s4.38,5.4,3.3,11.73c-1,5.74-7.69,13.59-7.65,14.19C83.69,64.91,80.3,56.91,81.44,49.24Z"/><path class="cls-3" d="M65.15,60.22c-3.5-2.29-3.7-4.26-2.49-6.37,1.24-2,3.74-2.72,7.4,1s5.42,11.74,5.43,11.67C75.65,66.17,68.81,62.1,65.15,60.22Z"/><path class="cls-3" d="M105.15,58.93c3.3-2.47,3.37-4.48,2.08-6.54-1.32-1.89-3.81-2.51-7.26,1.49s-4.82,12.08-4.83,12C95,65.49,101.72,61,105.15,58.93Z"/></g></g></svg>