<svg xmlns="http://www.w3.org/2000/svg" viewBox="0 0 170.05 170"><defs><style>.cls-1{fill:none;opacity:0.2;}.cls-2{fill:#fdd3d5;}.cls-3{fill:#fff;}</style></defs><g id="Layer_2" data-name="Layer 2"><g id="Drawings"><rect id="Rectangle_2497" data-name="Rectangle 2497" class="cls-1" x="0.05" width="170" height="170"/><path class="cls-2" d="M159.72,78.7l-7.77,10L138,97l-16.94,3-20.43-4.74L87.1,83.49,81.18,72.74l15.2,1.77L110.06,73l14.71-7.83,3.73-4.51a37.88,37.88,0,0,0-73.16,3,21.73,21.73,0,0,0-29.16,5.09h7.1l2,2.18v7.48l-3.18,2H21.81c0,.5-.06,1-.06,1.52a21.67,21.67,0,0,0,1.43,7.7,26.79,26.79,0,0,0,3.62,53.33H43.51L60,119.82l-24.72-.62V104.36l47.23-.69.38,14.44L64.63,142.89H132A38.1,38.1,0,0,0,159.72,78.7Z"/><path class="cls-3" d="M82.51,154.37V166.9H36.32V155.16L63.55,118.1H36.32V105.57H81.47v11.49L54,154.37Z"/><path d="M81.47,105.57v11.49L54,154.37H82.51V166.9H36.32V155.16L63.55,118.1H36.32V105.57H81.47m0-3H36.32a3,3,0,0,0-3,3V118.1a3,3,0,0,0,3,3h21.3L33.9,153.38a3,3,0,0,0-.58,1.78V166.9a3,3,0,0,0,3,3H82.51a3,3,0,0,0,3-3V154.37a3,3,0,0,0-3-3H59.92l24-32.53a3,3,0,0,0,.59-1.78V105.57a3,3,0,0,0-3-3Z"/><path class="cls-3" d="M33.28,70.21v8.16H3.19V70.72L20.93,46.58H3.19V38.42H32.6V45.9L14.7,70.21Z"/><path d="M32.6,38.42V45.9L14.7,70.21H33.28v8.16H3.19V70.72L20.93,46.58H3.19V38.42H32.6m0-3H3.19a3,3,0,0,0-3,3v8.16a3,3,0,0,0,3,3H15L.77,69a3,3,0,0,0-.58,1.77v7.65a3,3,0,0,0,3,3H33.28a3,3,0,0,0,3-3V70.21a3,3,0,0,0-3-3H20.63L35,47.68a3,3,0,0,0,.58-1.78V38.42a3,3,0,0,0-3-3Z"/><path class="cls-3" d="M74.21,24.91v5.6H53.58V25.26L65.74,8.72H53.58V3.12H73.74V8.25L61.46,24.91Z"/><path d="M73.74,3.12V8.25L61.46,24.91H74.21v5.6H53.58V25.26L65.74,8.72H53.58V3.12H73.74m0-3H53.58a3,3,0,0,0-3,3v5.6a3,3,0,0,0,3,3h6.23L51.16,23.49a3,3,0,0,0-.58,1.77v5.25a3,3,0,0,0,3,3H74.21a3,3,0,0,0,3-3v-5.6a3,3,0,0,0-3-3H67.4L76.15,10a3,3,0,0,0,.59-1.78V3.12a3,3,0,0,0-3-3Z"/><path class="cls-3" d="M138.17,13.3A44.87,44.87,0,0,1,80,71.42,44.87,44.87,0,1,0,138.17,13.3Z"/><path d="M121.83,101.46A46.1,46.1,0,0,1,78.65,72,1.49,1.49,0,0,1,80.59,70a43.37,43.37,0,0,0,56.18-56.19,1.51,1.51,0,0,1,.34-1.6,1.48,1.48,0,0,1,1.61-.34,46.37,46.37,0,0,1-16.89,89.56ZM82.79,74A43.37,43.37,0,1,0,140.71,16a45.9,45.9,0,0,1,2,13.59A46.39,46.39,0,0,1,82.79,74Z"/></g></g></svg>