<svg xmlns="http://www.w3.org/2000/svg" viewBox="0 0 170 170.07"><defs><style>.cls-1{fill:none;opacity:0.2;}.cls-2{fill:#fff;}.cls-3{fill:#fdd3d5;}</style></defs><g id="Layer_2" data-name="Layer 2"><g id="Drawings"><rect id="Rectangle_2497" data-name="Rectangle 2497" class="cls-1" width="170" height="170"/><path d="M59.37,160.6h-7.8a1.5,1.5,0,0,1-1.5-1.5v-54a1.5,1.5,0,0,1,1.5-1.5h7.8a1.5,1.5,0,0,1,1.5,1.5v54A1.5,1.5,0,0,1,59.37,160.6Zm-6.3-3h4.8v-51h-4.8Z"/><path d="M92.73,170.07H18.21a1.5,1.5,0,0,1-.72-2.82,79.56,79.56,0,0,1,76,0,1.51,1.51,0,0,1,.73,1.69A1.48,1.48,0,0,1,92.73,170.07Zm-68.07-3H86.28a76.59,76.59,0,0,0-61.62,0Z"/><circle class="cls-2" cx="55.47" cy="55.55" r="53.81"/><path d="M55.47,4.74A50.81,50.81,0,1,1,4.66,55.55,50.87,50.87,0,0,1,55.47,4.74m0-3a53.81,53.81,0,1,0,53.81,53.81A53.81,53.81,0,0,0,55.47,1.74Z"/><path class="cls-3" d="M53.11,102.62c-11.87,0-14.84-7.34-14.84-12.33,0-9.06,6.88-11,8.6-15.05a11.23,11.23,0,0,0,.78-7.13H61.86s5.62,8.9,5.62,17.26C67.48,102.62,53.11,102.62,53.11,102.62Z"/><path class="cls-3" d="M10,67.9C6.3,56.61,12.36,51.52,17.11,50c8.61-2.81,12.57,3.13,17,3.51a11.25,11.25,0,0,0,7-1.48l4.41,13.51s-6.72,8.11-14.67,10.7C14.43,81.56,10,67.9,10,67.9Z"/><path class="cls-3" d="M29.63,16.12c9.59-7,16.31-2.81,19.26,1.23,5.34,7.32.91,12.92,1.91,17.22a11.26,11.26,0,0,0,3.59,6.22L42.9,49.16s-9.79-3.88-14.71-10.63C18,24.59,29.63,16.12,29.63,16.12Z"/><path class="cls-3" d="M85,18.82c9.61,7,7.7,14.65,4.76,18.7-5.31,7.33-12,4.85-15.79,7.13A11.24,11.24,0,0,0,69.18,50L57.67,41.63s.68-10.51,5.58-17.28C73.39,10.38,85,18.82,85,18.82Z"/><path class="cls-3" d="M99.52,72.33C95.85,83.62,88,84.18,83.2,82.63c-8.62-2.8-8.32-9.93-11.65-12.82A11.22,11.22,0,0,0,65,66.87l4.39-13.52s10.2-2.6,18.15,0C104,58.67,99.52,72.33,99.52,72.33Z"/><circle class="cls-2" cx="55.47" cy="55.55" r="14.6"/><path d="M55.47,71.65a16.11,16.11,0,1,1,16.1-16.1A16.12,16.12,0,0,1,55.47,71.65Zm0-29.21a13.11,13.11,0,1,0,13.1,13.11A13.11,13.11,0,0,0,55.47,42.44Z"/><path d="M55.47,64.83a9.29,9.29,0,1,1,9.29-9.28A9.3,9.3,0,0,1,55.47,64.83Zm0-15.57a6.29,6.29,0,1,0,6.29,6.29A6.29,6.29,0,0,0,55.47,49.26Z"/><path d="M127.3,49.76H76.67a1.5,1.5,0,0,1,0-3H127.3a7,7,0,0,0,0-14,5.55,5.55,0,0,0-5.54,5.54v1.46a1.5,1.5,0,0,1-3,0V38.31a8.55,8.55,0,0,1,8.54-8.54,10,10,0,0,1,0,20Z"/><path d="M144.1,81.32a8.55,8.55,0,0,1-8.54-8.54V71.32a1.5,1.5,0,0,1,3,0v1.46a5.55,5.55,0,0,0,5.54,5.54,7,7,0,0,0,0-14H76.67a1.5,1.5,0,0,1,0-3H144.1a10,10,0,0,1,0,20Z"/><path d="M168.48,57.05H76.67a1.5,1.5,0,0,1,0-3h91.81a1.5,1.5,0,0,1,0,3Z"/></g></g></svg>