<svg xmlns="http://www.w3.org/2000/svg" viewBox="0 0 170.39 170"><defs><style>.cls-1{fill:none;opacity:0.2;}.cls-2{fill:#fdd3d5;}.cls-3{fill:#fff;}</style></defs><g id="Layer_2" data-name="Layer 2"><g id="Drawings"><rect id="Rectangle_2497" data-name="Rectangle 2497" class="cls-1" x="0.22" width="170" height="170"/><path class="cls-2" d="M146,135.71l-15-2.53L123.16,127l1.29-14.42,14.69-6.41,23.12,2.57,5.83,4.79a27.12,27.12,0,0,0,.8-6.48c0-11.52-7.43-22.06-19.73-30.23l-17,20.16L96.39,132.17l-14.16,6.25-13.32-1.68-10-8.84-5.43-14.08,3.63-14.06L98.22,60.62c-4.38-.39-8.87-.6-13.45-.6C38.31,60,.65,81.05.65,107c0,7.62,3.26,14.8,9,21.17L16,126.44l13.23.23,12.62,3.43,6.07,7.7-1.25,11.11A140.2,140.2,0,0,0,84.77,154c2.1,0,4.17-.06,6.23-.14l1-8.27,6.7-4.77,15-3s16.07,2.47,16.63,2.29c.36-.12,3.17,2.5,5.16,4.43A80.54,80.54,0,0,0,152,135.25Z"/><path class="cls-3" d="M92,148.1v9.46c0,5.69,10.24,10.3,22.86,10.3s22.87-4.61,22.87-10.3V148.1"/><path d="M114.86,169.36c-13.66,0-24.36-5.19-24.36-11.8V148.1a1.5,1.5,0,0,1,3,0v9.46c0,5.18,11.26,8.8,21.36,8.8s21.37-3.62,21.37-8.8V148.1a1.5,1.5,0,0,1,3,0v9.46C139.23,164.17,128.53,169.36,114.86,169.36Z"/><path class="cls-3" d="M137.73,148.1c0,5.69-10.24,10.3-22.87,10.3S92,153.79,92,148.1c0-2.85,2.56-5.42,6.7-7.28a40.4,40.4,0,0,1,16.16-3C127.49,137.8,137.73,142.41,137.73,148.1Z"/><path d="M114.86,159.9c-13.66,0-24.36-5.18-24.36-11.8,0-3.38,2.69-6.45,7.58-8.65a42,42,0,0,1,16.78-3.15c13.67,0,24.37,5.18,24.37,11.8S128.53,159.9,114.86,159.9Zm0-20.6a39,39,0,0,0-15.55,2.88c-3.69,1.67-5.81,3.82-5.81,5.92,0,5.18,11.26,8.8,21.36,8.8s21.37-3.62,21.37-8.8S125,139.3,114.86,139.3Z"/><path class="cls-2" d="M117.57,152.94c0,1.34-1.21,1.79-2.71,1.79s-2.7-.45-2.7-1.79,2.7-2.43,2.7-2.43S117.57,151.6,117.57,152.94Z"/><path class="cls-2" d="M123.3,150.65c2.11.95,2,1.65.9,2.12s-2.61.55-4.72-.4-1.91-2.58-1.91-2.58A16.52,16.52,0,0,1,123.3,150.65Z"/><path class="cls-2" d="M106.43,150.65c-2.11.95-2,1.65-.9,2.12s2.61.55,4.72-.4,1.91-2.58,1.91-2.58A16.52,16.52,0,0,0,106.43,150.65Z"/><path class="cls-2" d="M123.53,144c2.58-.67,4-.43,4.8.15s.48,1.28-2.1,2a18,18,0,0,1-6,.17A5,5,0,0,1,123.53,144Z"/><path class="cls-2" d="M116.25,142.93a3.46,3.46,0,0,1,3.64-1.42c1.44.17,2.35.75,1.58,2.05s-4,2-4,2S115.48,144.23,116.25,142.93Z"/><path class="cls-2" d="M124.69,149.51c2.88.35,4.16-.06,4.54-.71s-.26-1.29-3.14-1.64a16.94,16.94,0,0,0-5.92.54A8.82,8.82,0,0,0,124.69,149.51Z"/><path class="cls-2" d="M103.5,146.17c-2.58-.68-2.84-1.37-2.1-1.95s2.22-.83,4.8-.16a5,5,0,0,1,3.33,2.27A18.21,18.21,0,0,1,103.5,146.17Z"/><path class="cls-2" d="M105,149.55c-2.88.35-4.16-.06-4.54-.71s.26-1.29,3.14-1.64a16.86,16.86,0,0,1,5.92.55A8.87,8.87,0,0,1,105,149.55Z"/><path class="cls-2" d="M113.48,143a3.46,3.46,0,0,0-3.64-1.42c-1.44.18-2.35.75-1.58,2s4,2,4,2S114.25,144.27,113.48,143Z"/><path class="cls-3" d="M1.5,136.74v9.45c0,5.69,10.24,10.3,22.87,10.3s22.86-4.61,22.86-10.3v-9.45"/><path d="M24.37,158C10.7,158,0,152.81,0,146.19v-9.45a1.5,1.5,0,0,1,3,0v9.45c0,5.19,11.26,8.8,21.37,8.8s21.36-3.61,21.36-8.8v-9.45a1.5,1.5,0,0,1,3,0v9.45C48.73,152.81,38,158,24.37,158Z"/><path class="cls-3" d="M47.23,136.74c0,5.68-10.23,10.3-22.86,10.3S1.5,142.42,1.5,136.74c0-2.85,2.56-5.42,6.7-7.29a40.63,40.63,0,0,1,16.17-3C37,126.44,47.23,131.05,47.23,136.74Z"/><path d="M24.37,148.54C10.7,148.54,0,143.35,0,136.74c0-3.38,2.69-6.45,7.58-8.65a41.88,41.88,0,0,1,16.79-3.15c13.66,0,24.36,5.18,24.36,11.8S38,148.54,24.37,148.54Zm0-20.6a39,39,0,0,0-15.56,2.88C5.12,132.49,3,134.64,3,136.74c0,5.18,11.26,8.8,21.37,8.8s21.36-3.62,21.36-8.8S34.47,127.94,24.37,127.94Z"/><path class="cls-2" d="M27.07,141.58c0,1.34-1.21,1.79-2.7,1.79s-2.7-.45-2.7-1.79,2.7-2.44,2.7-2.44S27.07,140.23,27.07,141.58Z"/><path class="cls-2" d="M32.8,139.28c2.11.95,2,1.66.91,2.13S31.09,142,29,141s-1.91-2.58-1.91-2.58A16.52,16.52,0,0,1,32.8,139.28Z"/><path class="cls-2" d="M15.93,139.28c-2.11.95-2,1.66-.9,2.13s2.61.55,4.72-.41,1.91-2.58,1.91-2.58A16.52,16.52,0,0,0,15.93,139.28Z"/><path class="cls-2" d="M33,132.65c2.59-.67,4-.42,4.8.16s.49,1.28-2.1,1.95a18.21,18.21,0,0,1-6,.16A5,5,0,0,1,33,132.65Z"/><path class="cls-2" d="M25.76,131.56a3.44,3.44,0,0,1,3.63-1.41c1.45.17,2.36.75,1.58,2s-4,2-4,2S25,132.86,25.76,131.56Z"/><path class="cls-2" d="M34.19,138.15c2.88.34,4.16-.07,4.54-.72s-.26-1.29-3.14-1.63a17,17,0,0,0-5.92.54A8.82,8.82,0,0,0,34.19,138.15Z"/><path class="cls-2" d="M13,134.8c-2.58-.67-2.84-1.36-2.09-2s2.21-.82,4.79-.15A4.93,4.93,0,0,1,19,135,18,18,0,0,1,13,134.8Z"/><path class="cls-2" d="M14.54,138.19c-2.88.35-4.15-.06-4.54-.71s.26-1.29,3.15-1.64a16.9,16.9,0,0,1,5.91.54A8.82,8.82,0,0,1,14.54,138.19Z"/><path class="cls-2" d="M23,131.61a3.46,3.46,0,0,0-3.64-1.42c-1.44.17-2.35.75-1.58,2.05s4,2,4,2S23.75,132.9,23,131.61Z"/><path class="cls-3" d="M123.16,116v9.45c0,5.69,10.23,10.3,22.86,10.3s22.87-4.61,22.87-10.3V116"/><path d="M146,137.21c-13.66,0-24.36-5.18-24.36-11.8V116a1.5,1.5,0,0,1,3,0v9.45c0,5.19,11.26,8.8,21.36,8.8s21.37-3.61,21.37-8.8V116a1.5,1.5,0,1,1,3,0v9.45C170.39,132,159.69,137.21,146,137.21Z"/><path class="cls-3" d="M168.89,116c0,5.68-10.24,10.29-22.87,10.29s-22.86-4.61-22.86-10.29c0-2.85,2.56-5.42,6.69-7.29a40.67,40.67,0,0,1,16.17-3C158.65,105.66,168.89,110.27,168.89,116Z"/><path d="M146,127.75c-13.66,0-24.36-5.18-24.36-11.79,0-3.38,2.69-6.45,7.58-8.66A42,42,0,0,1,146,104.16c13.67,0,24.37,5.18,24.37,11.8S159.69,127.75,146,127.75Zm0-20.59A39,39,0,0,0,130.47,110c-3.69,1.66-5.81,3.82-5.81,5.92,0,5.18,11.26,8.79,21.36,8.79s21.37-3.61,21.37-8.79S156.13,107.16,146,107.16Z"/><path class="cls-2" d="M148.72,120.8c0,1.34-1.2,1.79-2.7,1.79s-2.7-.45-2.7-1.79,2.7-2.44,2.7-2.44S148.72,119.45,148.72,120.8Z"/><path class="cls-2" d="M154.46,118.5c2.11,1,2,1.66.9,2.13s-2.61.54-4.72-.41-1.91-2.58-1.91-2.58A16.52,16.52,0,0,1,154.46,118.5Z"/><path class="cls-2" d="M137.59,118.5c-2.11,1-2,1.66-.91,2.13s2.62.54,4.73-.41,1.91-2.58,1.91-2.58A16.52,16.52,0,0,0,137.59,118.5Z"/><path class="cls-2" d="M154.69,111.87c2.58-.67,4.05-.42,4.79.16s.49,1.28-2.09,2a18.21,18.21,0,0,1-6,.16A5,5,0,0,1,154.69,111.87Z"/><path class="cls-2" d="M147.41,110.78a3.45,3.45,0,0,1,3.64-1.41c1.44.17,2.35.75,1.58,2s-4,2-4,2S146.64,112.08,147.41,110.78Z"/><path class="cls-2" d="M155.85,117.36c2.88.35,4.15-.06,4.54-.71s-.26-1.29-3.14-1.64a17.09,17.09,0,0,0-5.92.55A8.77,8.77,0,0,0,155.85,117.36Z"/><path class="cls-2" d="M134.66,114c-2.59-.67-2.84-1.36-2.1-2s2.21-.83,4.8-.15a5,5,0,0,1,3.33,2.27A18.34,18.34,0,0,1,134.66,114Z"/><path class="cls-2" d="M136.2,117.41c-2.88.34-4.16-.07-4.54-.71s.26-1.3,3.14-1.64a17,17,0,0,1,5.92.54A8.82,8.82,0,0,1,136.2,117.41Z"/><path class="cls-2" d="M144.63,110.83a3.44,3.44,0,0,0-3.63-1.42c-1.44.17-2.35.75-1.58,2s4,2,4,2S145.41,112.12,144.63,110.83Z"/><path class="cls-3" d="M44.62,33.51S36.83,23,25.15,20.74,2.33,25.33,2.33,25.33s5.91,8,15.16,11.52"/><path d="M17.49,38.35a1.47,1.47,0,0,1-.54-.1c-9.54-3.66-15.57-11.69-15.82-12a1.49,1.49,0,0,1,.42-2.17c.47-.29,11.78-7.12,23.89-4.78s20.05,12.9,20.38,13.35a1.5,1.5,0,0,1-2.41,1.78c-.07-.1-7.6-10.07-18.54-12.18C16.36,20.57,8,24.09,4.65,25.78A36.35,36.35,0,0,0,18,35.45a1.5,1.5,0,0,1-.54,2.9Z"/><path class="cls-2" d="M81,76.09c4.13-9.09,7.12-25.52,2.93-34.72S69.65,28,60.93,31.75a51.69,51.69,0,0,1-7.17,2.79,19.29,19.29,0,0,1-8.94,0,51.69,51.69,0,0,1-7.17-2.79c-8.72-3.74-18.82.42-23,9.62S13.45,67,17.57,76.09C22,85.94,26,90.28,30.79,92.4A15.38,15.38,0,0,0,41,92.4a36.19,36.19,0,0,1,8.29-1.84,36.19,36.19,0,0,1,8.29,1.84,16.76,16.76,0,0,0,5.32.86"/><path d="M35.67,94.77a14,14,0,0,1-5.48-1c-5.54-2.44-9.59-7.39-14-17.06-3.88-8.56-7.5-25.91-2.93-36,4.49-9.89,15.46-14.45,25-10.38l.89.39a42.52,42.52,0,0,0,6,2.33,18.2,18.2,0,0,0,8.24,0,42.52,42.52,0,0,0,6-2.33l.89-.39c9.5-4.07,20.46.49,25,10.38,4.57,10,1,27.4-2.93,36a1.5,1.5,0,0,1-2.73-1.24c5.6-12.35,5.88-27,2.93-33.48-3.82-8.39-13.06-12.28-21-8.86l-.85.37A44.26,44.26,0,0,1,54.12,36a21,21,0,0,1-9.66,0,43.83,43.83,0,0,1-6.55-2.5l-.85-.37c-8-3.42-17.24.47-21,8.86-3,6.49-2.67,21.13,2.93,33.48C23,84.4,26.6,88.91,31.4,91a14,14,0,0,0,9.12,0,37.78,37.78,0,0,1,8.67-1.92h.2A37.78,37.78,0,0,1,58.06,91a15.35,15.35,0,0,0,4.85.78,1.5,1.5,0,0,1,0,3h0a18.45,18.45,0,0,1-5.8-.94,36.43,36.43,0,0,0-7.81-1.76,36.73,36.73,0,0,0-7.81,1.76A18.32,18.32,0,0,1,35.67,94.77Z"/><path class="cls-3" d="M71.3,24.39c-8.41,8.41-21.48,9-21.48,9s.57-13.07,9-21.48,21.48-9,21.48-9S79.71,16,71.3,24.39Z"/><path d="M49.82,34.87a1.52,1.52,0,0,1-1.06-.44,1.58,1.58,0,0,1-.44-1.13c0-.55.7-13.74,9.42-22.47S79.66,1.44,80.21,1.41a1.54,1.54,0,0,1,1.13.44A1.5,1.5,0,0,1,81.78,3c0,.56-.7,13.75-9.42,22.47h0c-8.72,8.72-21.91,9.39-22.47,9.42ZM78.61,4.59C74.88,5.07,66,6.83,59.86,13S52,28,51.5,31.7c3.72-.49,12.61-2.25,18.74-8.37h0C76.36,17.2,78.12,8.31,78.61,4.59Z"/><path d="M46.27,34.87a1.51,1.51,0,0,1-1.43-1.06C40.38,19.24,28.5,7.4,28.38,7.29A1.53,1.53,0,0,1,27.94,6a1.5,1.5,0,0,1,.77-1.11l6.11-3.31A1.52,1.52,0,0,1,36.74,2c.54.72,13.31,17.81,14.58,31.22a1.5,1.5,0,0,1-3,.28C47.32,22.74,37.86,8.75,35.1,4.86L31.87,6.6c3.4,3.68,12,13.91,15.84,26.33a1.5,1.5,0,0,1-1,1.87A1.35,1.35,0,0,1,46.27,34.87Z"/><path class="cls-3" d="M61.78,95s33.41-32.29,47.1-44c6.8-5.81,26.33-21.22,41.06-10.41,17.82,13.07.16,35.54-6.41,43.49C132,98,97.21,131.33,97.21,131.33"/><path d="M97.21,132.83a1.5,1.5,0,0,1-1-2.59c.35-.33,34.88-33.4,46.21-47.11,3.74-4.53,15.14-18.32,13.67-30.16-.55-4.41-2.9-8.16-7-11.16-12.68-9.3-30,2.49-39.19,10.34-13.5,11.54-46.7,43.6-47,43.93a1.5,1.5,0,1,1-2.08-2.16c.33-.32,33.6-32.45,47.17-44.05,17-14.56,32.28-18.28,42.92-10.48,4.78,3.51,7.54,8,8.19,13.21,1.64,13.12-10.38,27.66-14.33,32.44-11.44,13.85-46.1,47-46.45,47.37A1.48,1.48,0,0,1,97.21,132.83Z"/><path d="M110.6,104.2a1.48,1.48,0,0,1-1.07-.45,1.5,1.5,0,0,1,0-2.12c8.12-8,19.32-19.24,26.61-27.33a1.5,1.5,0,0,1,2.12-.1,1.48,1.48,0,0,1,.11,2.11c-7.34,8.14-18.59,19.42-26.73,27.45A1.49,1.49,0,0,1,110.6,104.2Z"/><path d="M149.72,60.52a1.54,1.54,0,0,1-.77-.21,1.5,1.5,0,0,1-.52-2.06c.63-1.06,1.21-2.11,1.74-3.14a1.5,1.5,0,1,1,2.67,1.37c-.55,1.08-1.17,2.19-1.83,3.31A1.5,1.5,0,0,1,149.72,60.52Z"/><path class="cls-3" d="M104.92,113.18A25.38,25.38,0,1,1,79.55,87.81,25.37,25.37,0,0,1,104.92,113.18Z"/><path d="M79.55,140.06a26.88,26.88,0,1,1,26.87-26.88A26.9,26.9,0,0,1,79.55,140.06Zm0-50.75a23.88,23.88,0,1,0,23.87,23.87A23.73,23.73,0,0,0,79.55,89.31Z"/><path class="cls-2" d="M81.2,126.3c0,3.31-1.34,4.42-3,4.42s-3-1.11-3-4.42,3-6,3-6S81.2,123,81.2,126.3Z"/><path class="cls-2" d="M87.56,120.65c2.34,2.34,2.18,4.07,1,5.24s-2.9,1.34-5.25-1-2.11-6.36-2.11-6.36S85.22,118.31,87.56,120.65Z"/><path class="cls-2" d="M68.84,120.65c-2.34,2.34-2.17,4.07-1,5.24s2.9,1.34,5.24-1,2.12-6.36,2.12-6.36S71.18,118.31,68.84,120.65Z"/><path class="cls-2" d="M87.82,104.31c2.87-1.65,4.49-1,5.32.39s.54,3.15-2.32,4.81-6.69.4-6.69.4S85,106,87.82,104.31Z"/><path class="cls-2" d="M79.74,101.63c.86-3.2,2.44-3.92,4-3.49s2.61,1.84,1.75,5-4.44,5-4.44,5S78.89,104.83,79.74,101.63Z"/><path class="cls-2" d="M89.1,117.84c3.2.86,4.62-.15,5.05-1.75s-.3-3.18-3.49-4-6.57,1.35-6.57,1.35S85.91,117,89.1,117.84Z"/><path class="cls-2" d="M65.59,109.61c-2.87-1.66-3.15-3.37-2.33-4.8s2.46-2,5.33-.39S72.28,110,72.28,110,68.46,111.27,65.59,109.61Z"/><path class="cls-2" d="M67.3,118c-3.2.85-4.61-.16-5-1.76s.29-3.18,3.49-4,6.56,1.34,6.56,1.34S70.5,117.09,67.3,118Z"/><path class="cls-2" d="M76.66,101.73c-.86-3.2-2.44-3.92-4-3.49s-2.61,1.85-1.75,5,4.45,5,4.45,5S77.52,104.93,76.66,101.73Z"/><path d="M141.37,72.09a1.5,1.5,0,0,1-1.15-2.46c1.14-1.37,2.65-3.24,4.25-5.43A1.5,1.5,0,1,1,146.89,66c-1.64,2.25-3.19,4.16-4.36,5.58A1.54,1.54,0,0,1,141.37,72.09Z"/><circle class="cls-3" cx="27.49" cy="45.21" r="6.94"/><circle class="cls-3" cx="33.64" cy="49.53" r="4.41"/></g></g></svg>