<svg xmlns="http://www.w3.org/2000/svg" viewBox="0 0 170.09 170"><defs><style>.cls-1{fill:none;opacity:0.2;}.cls-2,.cls-4{fill:#fdd3d5;}.cls-2{isolation:isolate;}.cls-3{fill:#fff;}</style></defs><g id="Layer_2" data-name="Layer 2"><g id="Drawings"><rect id="Rectangle_2497" data-name="Rectangle 2497" class="cls-1" x="0.02" width="170" height="170"/><path id="Path_5267" data-name="Path 5267" class="cls-2" d="M160,85.37l-36.8,36.8a3.56,3.56,0,0,1-5.07,0L81.41,85.43c-5.33-5.77-10-11.61-10-20.7a26.44,26.44,0,0,1,49.31-13.27A26.45,26.45,0,0,1,170,64.73C170,73.71,165,80.2,160,85.37Z"/><path class="cls-3" d="M30.55,80.76a1.47,1.47,0,0,1-.91-.31c-.38-.28-9.37-7.15-16-21.48C8.68,48.36,4.45,27.73,3.39,19.54A9.25,9.25,0,0,1,8.53,10L15.74,6.5a1.51,1.51,0,1,1,1.32,2.71L9.85,12.72a6.26,6.26,0,0,0-3.47,6.44c1,8,5.17,28.23,10,38.54C22.67,71.3,31.37,78,31.46,78a1.52,1.52,0,0,1,.29,2.12A1.51,1.51,0,0,1,30.55,80.76Z"/><path d="M16.4,6.35a1.5,1.5,0,0,1,.66,2.86L9.85,12.72a6.26,6.26,0,0,0-3.47,6.44c1,8,5.17,28.22,10,38.54C22.67,71.3,31.37,78,31.46,78a1.52,1.52,0,0,1,.29,2.12,1.51,1.51,0,0,1-1.2.6,1.47,1.47,0,0,1-.91-.31c-.38-.28-9.37-7.15-16-21.48C8.68,48.36,4.45,27.73,3.39,19.54A9.25,9.25,0,0,1,8.53,10L15.74,6.5a1.41,1.41,0,0,1,.66-.15m0-3a4.48,4.48,0,0,0-2,.45L7.22,7.31A12.25,12.25,0,0,0,.41,19.93c1.09,8.34,5.41,29.4,10.48,40.31,7,15,16.55,22.31,17,22.61a4.47,4.47,0,0,0,2.71.91,4.51,4.51,0,0,0,2.72-8.11c-.07-.05-8.27-6.46-14.2-19.22-4.66-10-8.69-29.79-9.72-37.66a3.26,3.26,0,0,1,1.81-3.35l7.21-3.51a4.52,4.52,0,0,0,2.09-6A4.53,4.53,0,0,0,16.4,3.35Z"/><circle class="cls-3" cx="17.39" cy="7.85" r="6.26"/><path d="M17.39,15.61a7.76,7.76,0,1,1,7.76-7.76A7.77,7.77,0,0,1,17.39,15.61Zm0-12.51a4.76,4.76,0,1,0,4.76,4.75A4.76,4.76,0,0,0,17.39,3.1Z"/><path class="cls-3" d="M48.54,80.76A1.51,1.51,0,0,1,47.63,78c.09-.06,8.79-6.74,15.11-20.34,4.8-10.32,8.92-30.52,10-38.55a6.26,6.26,0,0,0-3.47-6.43L62,9.21A1.51,1.51,0,1,1,63.35,6.5L70.56,10a9.25,9.25,0,0,1,5.14,9.53C74.64,27.73,70.41,48.36,65.48,59c-6.67,14.33-15.65,21.2-16,21.48A1.49,1.49,0,0,1,48.54,80.76Z"/><path d="M62.69,6.35a1.44,1.44,0,0,1,.66.15L70.56,10a9.26,9.26,0,0,1,5.14,9.54C74.64,27.73,70.41,48.36,65.48,59c-6.67,14.33-15.65,21.2-16,21.48a1.49,1.49,0,0,1-.91.31A1.51,1.51,0,0,1,47.63,78c.09-.06,8.79-6.74,15.11-20.34,4.8-10.32,8.92-30.52,10-38.54a6.26,6.26,0,0,0-3.47-6.44L62,9.21a1.5,1.5,0,0,1,.66-2.86m0-3h0a4.51,4.51,0,0,0-2,8.56l7.22,3.51a3.24,3.24,0,0,1,1.8,3.35c-1,7.87-5,27.64-9.71,37.66C54.09,69.19,45.89,75.6,45.81,75.66a4.51,4.51,0,0,0,5.44,7.19c.4-.3,10-7.6,17-22.61,5.07-10.91,9.39-32,10.48-40.31A12.27,12.27,0,0,0,71.87,7.31L64.66,3.8a4.51,4.51,0,0,0-2-.45Z"/><path class="cls-3" d="M91.61,125.9H68.47A30.62,30.62,0,0,1,37.88,95.31V85.63a1.51,1.51,0,1,1,3,0v9.68a27.61,27.61,0,0,0,27.58,27.57H91.61a27.61,27.61,0,0,0,27.58-27.57,1.51,1.51,0,1,1,3,0A30.63,30.63,0,0,1,91.61,125.9Z"/><path d="M39.39,84.12a1.51,1.51,0,0,1,1.5,1.51v9.68a27.61,27.61,0,0,0,27.58,27.57H91.61a27.61,27.61,0,0,0,27.58-27.57,1.51,1.51,0,1,1,3,0,30.63,30.63,0,0,1-30.6,30.59H68.47A30.62,30.62,0,0,1,37.88,95.31V85.63a1.51,1.51,0,0,1,1.51-1.51m0-3a4.52,4.52,0,0,0-4.51,4.51v9.68A33.63,33.63,0,0,0,68.47,128.9H91.61a33.64,33.64,0,0,0,33.6-33.59,4.51,4.51,0,1,0-9,0,24.6,24.6,0,0,1-24.58,24.57H68.47A24.6,24.6,0,0,1,43.89,95.31V85.63a4.52,4.52,0,0,0-4.5-4.51Z"/><path class="cls-3" d="M44.94,76H33.84a5.2,5.2,0,0,0-4.42,7.93l5.55,9a5.19,5.19,0,0,0,8.83,0l5.55-9A5.19,5.19,0,0,0,44.94,76Z"/><path d="M39.39,96.81a6.64,6.64,0,0,1-5.69-3.17l-5.55-9a6.69,6.69,0,0,1,5.69-10.22h11.1a6.7,6.7,0,0,1,5.69,10.22l-5.55,9A6.67,6.67,0,0,1,39.39,96.81ZM33.84,77.46A3.69,3.69,0,0,0,30.7,83.1l5.55,9a3.69,3.69,0,0,0,6.28,0l5.55-9a3.7,3.7,0,0,0-3.14-5.64Z"/><circle class="cls-3" cx="120.7" cy="80.76" r="17"/><path d="M120.7,99.26a18.5,18.5,0,1,1,18.5-18.5A18.52,18.52,0,0,1,120.7,99.26Zm0-34a15.5,15.5,0,1,0,15.5,15.5A15.51,15.51,0,0,0,120.7,65.26Z"/><circle class="cls-3" cx="120.7" cy="80.76" r="6.54"/><path d="M120.7,88.8a8,8,0,1,1,8-8A8,8,0,0,1,120.7,88.8Zm0-13.08a5,5,0,1,0,5,5A5,5,0,0,0,120.7,75.72Z"/><circle class="cls-3" cx="61.41" cy="7.85" r="6.26"/><path d="M61.41,15.61a7.76,7.76,0,1,1,7.76-7.76A7.77,7.77,0,0,1,61.41,15.61Zm0-12.51a4.76,4.76,0,1,0,4.76,4.75A4.76,4.76,0,0,0,61.41,3.1Z"/><path class="cls-4" d="M44.1,170h-.17a3,3,0,0,1-2.65-2L28.53,132.82l-8.29,26a3,3,0,0,1-2.86,2.09H3a3,3,0,0,1,0-6H15.19l10.3-32.33a3,3,0,0,1,5.68-.11l13.37,36.88L55,138.29a3,3,0,0,1,5.21-.28l10.43,16.22h96.44a3,3,0,0,1,0,6H69a3,3,0,0,1-2.52-1.38L58,145.7,46.79,168.32A3,3,0,0,1,44.1,170Z"/></g></g></svg>