<svg xmlns="http://www.w3.org/2000/svg" viewBox="0 0 170 170"><defs><style>.cls-1{fill:none;opacity:0.2;}.cls-2{fill:#fccacc;}.cls-3{fill:#fff;}</style></defs><g id="Layer_2" data-name="Layer 2"><g id="Drawings"><rect id="Rectangle_2497" data-name="Rectangle 2497" class="cls-1" width="170" height="170"/><circle id="Ellipse_2206" data-name="Ellipse 2206" class="cls-2" cx="85" cy="85" r="85"/><path d="M86,132.82c-12.71,0-25.19-5.64-36.09-16.31a76.75,76.75,0,0,1-12.72-16.25,1.5,1.5,0,0,1,2.63-1.44c.17.31,17.33,31,46.18,31s44.8-30.65,45-31a1.5,1.5,0,0,1,2.67,1.36,72.81,72.81,0,0,1-12.12,16.27C111,127.17,98.7,132.82,86,132.82Z"/><path d="M34.16,72a1.63,1.63,0,0,1-.31,0,1.51,1.51,0,0,1-1.16-1.78c.09-.41,2.23-10,10.62-12.3s15.33,4.92,15.62,5.23a1.5,1.5,0,1,1-2.17,2.07c-.09-.09-6-6.17-12.67-4.4s-8.44,9.94-8.46,10A1.5,1.5,0,0,1,34.16,72Z"/><path d="M143.51,71.86A1.5,1.5,0,0,1,142,70.67c0-.08-1.85-8.25-8.46-10S121,65,120.91,65.05A1.5,1.5,0,0,1,118.74,63c.29-.3,7.25-7.46,15.62-5.22S144.89,69.64,145,70.05a1.51,1.51,0,0,1-1.16,1.78Z"/><path id="Path_5501" data-name="Path 5501" class="cls-3" d="M25.79,73.92s-1.88,8.75-5.48,12.34-5.65,2.58-7.54.69-2.92-4,.68-7.55S25.79,73.92,25.79,73.92Z"/><path id="Path_5502" data-name="Path 5502" class="cls-3" d="M148.77,73.92s1.88,8.75,5.48,12.35,5.65,2.57,7.54.68,2.91-4-.68-7.54S148.77,73.92,148.77,73.92Z"/><path d="M86,116.93c-30.35,0-47.78-15.61-48.51-16.28a1.5,1.5,0,1,1,2-2.21c.17.15,17.35,15.49,46.48,15.49s45.09-15.3,45.24-15.46a1.5,1.5,0,0,1,2.1,2.14C132.65,101.28,116.36,116.93,86,116.93Z"/></g></g></svg>