<svg xmlns="http://www.w3.org/2000/svg" viewBox="0 0 170.44 170"><defs><style>.cls-1{fill:none;opacity:0.2;}.cls-2{fill:#fdd3d5;}.cls-3{fill:#fff;}</style></defs><g id="Layer_2" data-name="Layer 2"><g id="Drawings"><rect id="Rectangle_2497" data-name="Rectangle 2497" class="cls-1" x="0.44" width="170" height="170"/><polygon class="cls-2" points="36.63 31.82 67.04 40.06 53.97 79.28 47.59 81.68 46.35 84.63 39.71 79.67 32.78 77.61 30.41 73.14 36.63 31.82"/><polygon class="cls-2" points="66.43 33.78 96.53 24.5 106.44 64.64 102.33 70.07 102.86 73.22 94.59 72.58 87.64 74.55 83.24 72.03 66.43 33.78"/><line class="cls-3" x1="106.06" y1="64.16" x2="88.66" y2="1.75"/><path d="M106.06,65.66a1.5,1.5,0,0,1-1.45-1.1L87.22,2.16a1.5,1.5,0,1,1,2.89-.81L107.5,63.76a1.5,1.5,0,0,1-1,1.85A1.9,1.9,0,0,1,106.06,65.66Z"/><line class="cls-3" x1="83.77" y1="71.75" x2="68.19" y2="37.52"/><path d="M83.77,73.25a1.51,1.51,0,0,1-1.37-.88L66.82,38.14a1.5,1.5,0,1,1,2.73-1.24L85.13,71.13a1.5,1.5,0,0,1-.74,2A1.55,1.55,0,0,1,83.77,73.25Z"/><line class="cls-3" x1="52.31" y1="83.72" x2="80.03" y2="1.57"/><path d="M52.31,85.22a1.61,1.61,0,0,1-.48-.08,1.49,1.49,0,0,1-.94-1.9L78.61,1.09a1.49,1.49,0,0,1,1.9-.94,1.5,1.5,0,0,1,.94,1.9L53.73,84.2A1.51,1.51,0,0,1,52.31,85.22Z"/><rect class="cls-2" y="99.87" width="170.44" height="70.13"/><path class="cls-3" d="M23.76,79.87c-.92,2.67-.62,8.89-1.45,11.32S16,100,14.29,105l-3.13,9.1a4.81,4.81,0,0,0-1.69,1.73c-.88,1.41-3.28,5.94-2.55,7.4.38.75,1.31,2.51,2.34,3.06s13,6,14,6.24a4.61,4.61,0,0,0,3.42-.86A9.5,9.5,0,0,1,29,130.55s13.69,8.66,25,12.56c5.34,1.84,21.9,4.17,25.84,2.24,2.37-1.15,3-2,3.4-3.17a2.4,2.4,0,0,0-.66-2.81,4.55,4.55,0,0,1-1-2.24s1.13-3.86.18-6-1.91-3.1-4.3-4.47-15.19-5.94-19.22-14-5.31-16.89-3.22-23c0,0,4.43-8.52-1-10.4s-7.06,3.94-7.06,3.94l-.45,3.65s-.21,1-.69.85-1-3.34-1-3.34a3,3,0,0,0-1.06-2.81c-1.41-1-6.35-2.87-8.78-3.7s-7.76-2.68-9.37-.79A7.57,7.57,0,0,0,23.76,79.87Z"/><path d="M74.34,147.57c-7,0-17.19-1.78-20.86-3-10.09-3.48-21.8-10.54-24.67-12.31a9.16,9.16,0,0,0-1.3.7A6.07,6.07,0,0,1,23,134c-1.35-.29-13.73-6-14.4-6.38a8.32,8.32,0,0,1-3-3.71C4.31,121.36,7.8,115.66,8.2,115a7.22,7.22,0,0,1,1.7-1.9l3-8.62c1.08-3.12,3.47-6.67,5.4-9.52a29.61,29.61,0,0,0,2.62-4.28,25.64,25.64,0,0,0,.61-5,28.22,28.22,0,0,1,.82-6.23,9.56,9.56,0,0,1,2.07-3.33c2.26-2.67,8-.72,11,.34.74.25,7.28,2.53,9.17,3.9a4.18,4.18,0,0,1,1.26,1.5,7.82,7.82,0,0,1,3.29-3.77,6.54,6.54,0,0,1,5.35-.22,5.22,5.22,0,0,1,3.28,3c1.42,3.55-.88,8.43-1.35,9.36-1.88,5.59-.64,14.09,3.18,21.7,3.08,6.17,12.09,10.29,16.42,12.28,1,.46,1.73.79,2.2,1.06,2.68,1.54,3.93,2.84,4.93,5.18s.27,5.56,0,6.7a2.72,2.72,0,0,0,.52,1.13,3.87,3.87,0,0,1,1,4.35c-.62,1.8-1.67,2.82-4.16,4A15.66,15.66,0,0,1,74.34,147.57ZM29,129.05a1.58,1.58,0,0,1,.81.23c.13.09,13.67,8.62,24.68,12.41,5.56,1.92,21.42,3.91,24.7,2.31,2.21-1.08,2.41-1.65,2.64-2.31s.15-.79-.32-1.27a6,6,0,0,1-1.41-3.09,1.62,1.62,0,0,1,.05-.62c.37-1.3.77-3.81.24-5-.73-1.7-1.55-2.55-3.66-3.76-.36-.2-1.1-.54-2-.93-4.64-2.13-14.29-6.56-17.86-13.66-4.24-8.47-5.5-17.71-3.3-24.12l.09-.2c.64-1.24,2.12-4.9,1.28-7a2.22,2.22,0,0,0-1.47-1.32,3.61,3.61,0,0,0-3,0,5.13,5.13,0,0,0-2.13,2.8L48,87.06a.51.51,0,0,1,0,.13A2.73,2.73,0,0,1,46.76,89a1.79,1.79,0,0,1-1.48.14c-.73-.25-1.38-.77-2-4.51a1.57,1.57,0,0,1,0-.53,1.47,1.47,0,0,0-.48-1.32c-1-.75-5.08-2.36-8.37-3.5-6.14-2.11-7.46-1.56-7.74-1.23a7.89,7.89,0,0,0-1.47,2.18.42.42,0,0,1,0,.12,26.56,26.56,0,0,0-.69,5.51,26,26,0,0,1-.76,5.8,26.91,26.91,0,0,1-3,5c-1.82,2.7-4.09,6.07-5,8.82l-3.14,9.1a1.5,1.5,0,0,1-.76.86h0a3.73,3.73,0,0,0-1.07,1.18c-1.35,2.16-2.61,5.24-2.45,6,1,1.92,1.61,2.3,1.68,2.34,1.2.63,12.57,5.8,13.65,6.1a3.19,3.19,0,0,0,2.25-.65,11,11,0,0,1,2.68-1.3A1.52,1.52,0,0,1,29,129.05ZM23.76,79.87h0Z"/><path class="cls-3" d="M11.16,114.09S44.72,131,52.86,133.84s13.11,4.51,17.68,4.92c2.74.25,11-.41,11-.41"/><path d="M72.19,140.32c-.7,0-1.31,0-1.78-.06-4.8-.44-10.07-2.25-18-5-8.14-2.8-40.52-19.14-41.89-19.83a1.5,1.5,0,0,1,1.35-2.68c.34.17,33.57,16.94,41.51,19.67,7.77,2.68,12.9,4.45,17.34,4.85,2.58.23,10.67-.41,10.75-.42a1.5,1.5,0,0,1,.24,3C81.38,139.86,75.71,140.32,72.19,140.32Z"/><rect x="46.79" y="96.61" width="9.34" height="4.11" rx="1.67" transform="translate(-6.18 3.48) rotate(-3.65)"/><rect x="49.31" y="107.21" width="9.34" height="4.11" rx="1.67" transform="translate(-34.43 25.38) rotate(-20.22)"/><rect x="55.09" y="116.55" width="9.34" height="4.11" rx="1.67" transform="translate(-63.14 68.27) rotate(-40.99)"/><path class="cls-3" d="M81.49,79c.85,2.69,4.8,7.5,5.57,10s.2,10.84,1.78,15.86L91.75,114a4.69,4.69,0,0,0-.33,2.39c.13,1.67.9,6.73,2.36,7.47.75.37,2.55,1.24,3.71,1.06s14-2.9,15-3.33a4.59,4.59,0,0,0,2.24-2.72,9.74,9.74,0,0,1,1.17-2.26s16.15-1.19,27.56-4.8c5.39-1.7,20.07-9.69,22.09-13.59,1.22-2.34,1.23-3.35.85-4.57a2.4,2.4,0,0,0-2.21-1.86A4.54,4.54,0,0,1,162,90.59s-1.39-3.77-3.45-5-3.39-1.35-6.12-1-15.74,4.28-23.76.23-14.32-10.4-16.26-16.52c0,0-1.51-9.49-7-7.75s-3.33,7.38-3.33,7.38l1.82,3.2s.43.94-.05,1.09S101,70.15,101,70.15a3,3,0,0,0-2.54-1.62c-1.74,0-6.8,1.47-9.25,2.25s-7.83,2.47-8,5A7.64,7.64,0,0,0,81.49,79Z"/><path d="M97.16,126.45a9.6,9.6,0,0,1-4-1.24c-2.53-1.28-3.12-7.94-3.18-8.69a7,7,0,0,1,.23-2.54l-2.75-8.7c-1-3.14-1.18-7.42-1.33-10.85a29.09,29.09,0,0,0-.45-5A26.1,26.1,0,0,0,83.13,85a28.38,28.38,0,0,1-3-5.5,9.47,9.47,0,0,1-.32-3.9c.23-3.5,6-5.31,9-6.28.75-.24,7.35-2.31,9.69-2.32a3.8,3.8,0,0,1,1.91.45,7.75,7.75,0,0,1,.39-5A6.55,6.55,0,0,1,105,59.12a5.24,5.24,0,0,1,4.45.49c3.25,2,4.3,7.3,4.48,8.33,1.82,5.61,7.88,11.7,15.48,15.54,6.15,3.11,15.85,1.06,20.51.08,1.08-.23,1.86-.4,2.39-.46,3.08-.36,4.85-.06,7,1.22s3.53,4.31,4,5.4a2.62,2.62,0,0,0,1.1.59,3.91,3.91,0,0,1,3.4,2.9c.57,1.81.33,3.25-.94,5.71-2.4,4.62-17.89,12.72-23,14.33-10.18,3.22-23.8,4.52-27.16,4.81a9.63,9.63,0,0,0-.63,1.34,6,6,0,0,1-3,3.56c-1.26.58-14.62,3.34-15.37,3.45A3.24,3.24,0,0,1,97.16,126.45ZM93.08,114.7a3.65,3.65,0,0,0-.16,1.59c.2,2.54,1,5.77,1.61,6.28a5.6,5.6,0,0,0,2.73.88c1.35-.21,13.56-2.83,14.6-3.23a3.17,3.17,0,0,0,1.42-1.87,11.24,11.24,0,0,1,1.38-2.63,1.53,1.53,0,0,1,1.09-.6c.16,0,16.12-1.22,27.22-4.73,5.6-1.77,19.53-9.62,21.21-12.85,1.14-2.19,1-2.76.75-3.43s-.34-.73-1-.83a6,6,0,0,1-3-1.65,1.77,1.77,0,0,1-.33-.52c-.47-1.27-1.64-3.52-2.8-4.19-1.61-.94-2.77-1.13-5.18-.84-.41,0-1.21.22-2.13.41-5,1.06-15.39,3.25-22.48-.33-8.45-4.28-15-11-17-17.41a1.42,1.42,0,0,1,0-.22c-.22-1.37-1.22-5.19-3.12-6.37a2.28,2.28,0,0,0-2-.18,3.66,3.66,0,0,0-2.36,1.8,5.13,5.13,0,0,0,0,3.53l1.75,3.07.06.12a2.83,2.83,0,0,1,.14,2.16,1.79,1.79,0,0,1-1.11,1c-.73.23-1.56.21-4.3-2.42a1.51,1.51,0,0,1-.32-.43A1.46,1.46,0,0,0,98.52,70h0c-1.27,0-5.48,1.14-8.81,2.19-6.18,2-6.92,3.18-6.94,3.61a7.32,7.32,0,0,0,.12,2.63.42.42,0,0,1,0,.12,28.16,28.16,0,0,0,2.73,4.84,25.29,25.29,0,0,1,2.84,5.11,26.89,26.89,0,0,1,.58,5.77c.15,3.26.33,7.32,1.2,10.09l2.91,9.18a1.5,1.5,0,0,1-.1,1.14Z"/><path class="cls-3" d="M91.75,114s37.06-6.38,45.26-9,13.22-4.19,17.13-6.58c2.35-1.43,8.6-6.89,8.6-6.89"/><path d="M91.74,115.51a1.5,1.5,0,0,1-.25-3c.37-.06,37.05-6.39,45.06-8.92,7.84-2.48,13-4.11,16.81-6.43,2.22-1.35,8.33-6.68,8.39-6.74a1.5,1.5,0,1,1,2,2.26,106.82,106.82,0,0,1-8.8,7c-4.11,2.51-9.42,4.19-17.46,6.73-8.21,2.59-43.94,8.76-45.46,9Z"/><rect x="110.26" y="75.56" width="9.34" height="4.11" rx="1.67" transform="translate(-22.95 92.54) rotate(-40.21)"/><rect x="118.6" y="82.57" width="9.34" height="4.11" rx="1.67" transform="translate(-15.07 141.37) rotate(-56.77)"/><rect x="128.81" y="86.63" width="9.34" height="4.11" rx="1.67" transform="translate(18.09 199.89) rotate(-77.54)"/><line class="cls-3" x1="29.91" y1="76.46" x2="41.19" y2="1.58"/><path d="M29.91,78l-.23,0a1.5,1.5,0,0,1-1.26-1.7L39.71,1.36a1.5,1.5,0,0,1,3,.44L31.39,76.68A1.49,1.49,0,0,1,29.91,78Z"/><path d="M67,41.56a1.31,1.31,0,0,1-.39-.05L36.24,33.27a1.5,1.5,0,0,1,.79-2.9l30.4,8.25A1.49,1.49,0,0,1,67,41.56Z"/><path d="M42.92,27.7a1.41,1.41,0,0,1-.4-.05L37.3,26.24a1.5,1.5,0,0,1,.79-2.9l5.22,1.42a1.5,1.5,0,0,1-.39,2.94Z"/><path d="M68.21,34.56a1.83,1.83,0,0,1-.4-.05l-20-5.43a1.5,1.5,0,1,1,.78-2.89l20,5.42a1.5,1.5,0,0,1-.39,3Z"/><path d="M69.45,34.4a1.5,1.5,0,0,1-.4-2.94l24.87-7a1.5,1.5,0,0,1,.82,2.89l-24.88,7A1.4,1.4,0,0,1,69.45,34.4Z"/><path d="M71.92,27.11a1.5,1.5,0,0,1-.41-2.95l21.23-6a1.5,1.5,0,0,1,.82,2.88l-21.24,6A1.39,1.39,0,0,1,71.92,27.11Z"/></g></g></svg>