<svg xmlns="http://www.w3.org/2000/svg" viewBox="0 0 170 170"><defs><style>.cls-1{fill:none;opacity:0.2;}.cls-2{fill:#fccacc;}.cls-3{fill:#fff;}.cls-4{fill:#fdd3d5;}</style></defs><g id="Layer_2" data-name="Layer 2"><g id="Drawings"><rect id="Rectangle_2497" data-name="Rectangle 2497" class="cls-1" width="170" height="170"/><circle id="Ellipse_2206" data-name="Ellipse 2206" class="cls-2" cx="85" cy="85" r="85"/><polygon class="cls-3" points="22.77 121.24 85 150.57 147.23 121.24 120.19 59.26 85 76.69 47.98 59.26 22.77 121.24"/><path d="M85,152.08a1.43,1.43,0,0,1-.64-.15L22.13,122.6a1.51,1.51,0,0,1-.75-1.93l25.21-62a1.51,1.51,0,0,1,2-.79L85,75l34.54-17.11a1.51,1.51,0,0,1,1.18-.06,1.46,1.46,0,0,1,.86.81l27.05,62a1.52,1.52,0,0,1-.74,2L85.64,151.93A1.43,1.43,0,0,1,85,152.08ZM24.69,120.49,85,148.92l60.27-28.42L119.44,61.3,85.67,78a1.51,1.51,0,0,1-1.31,0L48.78,61.29Z"/><polygon class="cls-4" points="85 150.57 147.23 121.24 120.19 59.26 85 76.69 85 150.57"/><path d="M85,152.08a1.43,1.43,0,0,1-.64-.15L22.13,122.6a1.51,1.51,0,0,1-.75-1.93l25.21-62a1.51,1.51,0,0,1,2-.79L85,75l34.54-17.11a1.51,1.51,0,0,1,1.18-.06,1.46,1.46,0,0,1,.86.81l27.05,62a1.52,1.52,0,0,1-.74,2L85.64,151.93A1.43,1.43,0,0,1,85,152.08ZM24.69,120.49,85,148.92l60.27-28.42L119.44,61.3,85.67,78a1.51,1.51,0,0,1-1.31,0L48.78,61.29Z"/><line class="cls-4" x1="85" y1="150.58" x2="85" y2="134.51"/><path d="M85,152.08a1.5,1.5,0,0,1-1.5-1.5V134.51a1.5,1.5,0,0,1,3,0v16.07A1.5,1.5,0,0,1,85,152.08Z"/><line class="cls-4" x1="85" y1="77.49" x2="85" y2="111.78"/><path d="M85,113.28a1.5,1.5,0,0,1-1.5-1.5V77.49a1.5,1.5,0,0,1,3,0v34.29A1.5,1.5,0,0,1,85,113.28Z"/><line class="cls-4" x1="85" y1="127.16" x2="85" y2="120.71"/><path d="M85,128.66a1.5,1.5,0,0,1-1.5-1.5v-6.45a1.5,1.5,0,1,1,3,0v6.45A1.5,1.5,0,0,1,85,128.66Z"/><polygon class="cls-3" points="47.98 59.26 85 45.44 120.19 59.26 85 76.69 47.98 59.26"/><path d="M85,78.19a1.57,1.57,0,0,1-.64-.14l-37-17.44a1.5,1.5,0,0,1,.12-2.76L84.48,44a1.46,1.46,0,0,1,1.07,0l35.19,13.81a1.51,1.51,0,0,1,1,1.33,1.49,1.49,0,0,1-.84,1.41L85.67,78A1.44,1.44,0,0,1,85,78.19ZM51.84,59.42,85,75l31.51-15.6L85,47.05Z"/><path class="cls-3" d="M85,13.65a19.89,19.89,0,1,0,19.89,19.89A19.9,19.9,0,0,0,85,13.65Zm0,31.52A11.63,11.63,0,1,1,96.63,33.54,11.63,11.63,0,0,1,85,45.17Z"/><path d="M85,54.92a21.39,21.39,0,1,1,21.39-21.38A21.41,21.41,0,0,1,85,54.92Zm0-39.77a18.39,18.39,0,1,0,18.39,18.39A18.41,18.41,0,0,0,85,15.15Zm0,31.52A13.13,13.13,0,1,1,98.13,33.54,13.14,13.14,0,0,1,85,46.67Zm0-23.26A10.13,10.13,0,1,0,95.13,33.54,10.14,10.14,0,0,0,85,23.41Z"/><path class="cls-3" d="M85,41.42h0a4.13,4.13,0,0,1,4.13,4.13v11A2.12,2.12,0,0,1,87,58.68H83a2.12,2.12,0,0,1-2.12-2.12v-11A4.13,4.13,0,0,1,85,41.42Z"/><path d="M87,60.18H83a3.64,3.64,0,0,1-3.63-3.63v-11a5.63,5.63,0,0,1,11.26,0v11A3.64,3.64,0,0,1,87,60.18ZM85,42.92a2.63,2.63,0,0,0-2.63,2.63v11a.63.63,0,0,0,.63.63h4a.63.63,0,0,0,.63-.63v-11A2.63,2.63,0,0,0,85,42.92Z"/></g></g></svg>