<svg xmlns="http://www.w3.org/2000/svg" viewBox="0 0 173 170"><defs><style>.cls-1{fill:none;opacity:0.2;}.cls-2{fill:#fff;}.cls-3{fill:#fdd3d5;}.cls-4{fill:#fccacc;}</style></defs><g id="Layer_2" data-name="Layer 2"><g id="Drawings"><rect id="Rectangle_2497" data-name="Rectangle 2497" class="cls-1" x="1.5" width="170" height="170"/><path class="cls-2" d="M133.41,61c-.7,0-1.4,0-2.09.06A37.87,37.87,0,0,0,56.83,58,21.72,21.72,0,0,0,23.25,76.2a21.88,21.88,0,0,0,1.42,7.7,26.78,26.78,0,0,0,3.62,53.31H133.41a38.1,38.1,0,0,0,0-76.19Z"/><path d="M133.41,138.71H28.29a28.28,28.28,0,0,1-5.6-56,22.93,22.93,0,0,1-.94-6.51A23.22,23.22,0,0,1,55.86,55.66a39.37,39.37,0,0,1,76.74,3.87h.81a39.6,39.6,0,0,1,0,79.19ZM45,56A20.27,20.27,0,0,0,24.75,76.2a20,20,0,0,0,1.33,7.16,1.49,1.49,0,0,1-.12,1.3,1.46,1.46,0,0,1-1.08.72,25.28,25.28,0,0,0,3.41,50.33H133.41a36.6,36.6,0,0,0,0-73.19c-.68,0-1.35,0-2,.06a1.51,1.51,0,0,1-1.57-1.3,36.37,36.37,0,0,0-71.54-3,1.5,1.5,0,0,1-2.28.94A20.17,20.17,0,0,0,45,56Z"/><path d="M90.75,120.89c-8,0-15.78-3.52-22.58-10.19a47.5,47.5,0,0,1-7.92-10.11,1.5,1.5,0,1,1,2.63-1.44c.1.19,10.49,18.74,27.87,18.74s27-18.52,27.1-18.7a1.5,1.5,0,0,1,2.68,1.36A45.78,45.78,0,0,1,113,110.68C106.41,117.36,98.72,120.89,90.75,120.89Z"/><path d="M58.91,83.49a1.73,1.73,0,0,1-.32,0,1.5,1.5,0,0,1-1.15-1.78c.06-.26,1.44-6.52,6.94-8s10,3.17,10.16,3.37a1.5,1.5,0,1,1-2.16,2.07c-.06-.06-3.5-3.54-7.22-2.54s-4.78,5.67-4.79,5.72A1.49,1.49,0,0,1,58.91,83.49Z"/><path d="M126.09,83.44a1.51,1.51,0,0,1-1.47-1.19s-1.07-4.73-4.78-5.72-7.18,2.51-7.22,2.54A1.5,1.5,0,1,1,110.46,77c.19-.2,4.69-4.84,10.16-3.37s6.88,7.73,6.94,8a1.49,1.49,0,0,1-1.16,1.77A1.1,1.1,0,0,1,126.09,83.44Z"/><path class="cls-3" d="M86.5,18.19a1.5,1.5,0,0,1-1.5-1.5V1.75a1.5,1.5,0,0,1,3,0V16.69A1.5,1.5,0,0,1,86.5,18.19Z"/><path class="cls-3" d="M68.75,20.53a1.49,1.49,0,0,1-1.45-1.11l-2.06-7.67a1.5,1.5,0,1,1,2.9-.78l2.06,7.67a1.5,1.5,0,0,1-1.06,1.84A1.35,1.35,0,0,1,68.75,20.53Z"/><path class="cls-3" d="M38,38.28a1.48,1.48,0,0,1-1.06-.43l-5.62-5.62a1.5,1.5,0,1,1,2.12-2.12l5.62,5.61a1.52,1.52,0,0,1,0,2.13A1.5,1.5,0,0,1,38,38.28Z"/><path class="cls-3" d="M135,38.28a1.5,1.5,0,0,1-1.06-.43,1.52,1.52,0,0,1,0-2.13l5.62-5.61a1.5,1.5,0,0,1,2.12,2.12l-5.62,5.62A1.48,1.48,0,0,1,135,38.28Z"/><path class="cls-3" d="M104.25,20.53a1.35,1.35,0,0,1-.39-.05,1.5,1.5,0,0,1-1.06-1.84L104.86,11a1.5,1.5,0,0,1,2.9.78l-2.06,7.67A1.49,1.49,0,0,1,104.25,20.53Z"/><path class="cls-3" d="M52.21,27.38a1.47,1.47,0,0,1-1.3-.75L43.43,13.69a1.5,1.5,0,1,1,2.6-1.5L53.5,25.13A1.49,1.49,0,0,1,53,27.18,1.42,1.42,0,0,1,52.21,27.38Z"/><path class="cls-3" d="M27.1,52.49a1.43,1.43,0,0,1-.75-.2L13.4,44.82a1.5,1.5,0,0,1-.54-2,1.48,1.48,0,0,1,2-.55l13,7.47a1.5,1.5,0,0,1-.75,2.8Z"/><path class="cls-3" d="M145.9,52.49a1.5,1.5,0,0,1-.75-2.8l12.95-7.47a1.48,1.48,0,0,1,2,.55,1.5,1.5,0,0,1-.54,2l-12.95,7.47A1.43,1.43,0,0,1,145.9,52.49Z"/><path class="cls-3" d="M120.79,27.38a1.42,1.42,0,0,1-.74-.2,1.49,1.49,0,0,1-.55-2.05L127,12.19a1.5,1.5,0,1,1,2.6,1.5L122.1,26.63A1.5,1.5,0,0,1,120.79,27.38Z"/><path class="cls-3" d="M118,149.22H55a1.5,1.5,0,0,1,0-3h63a1.5,1.5,0,1,1,0,3Z"/><path class="cls-3" d="M104.58,157.57H68.42a1.5,1.5,0,0,1,0-3h36.16a1.5,1.5,0,0,1,0,3Z"/><path class="cls-3" d="M95.49,165.93h-18a1.5,1.5,0,1,1,0-3h18a1.5,1.5,0,1,1,0,3Z"/><circle id="Ellipse_2206" data-name="Ellipse 2206" class="cls-4" cx="45.9" cy="95.7" r="7.99"/><circle id="Ellipse_2206-2" data-name="Ellipse 2206" class="cls-4" cx="135.25" cy="95.7" r="7.99"/></g></g></svg>