<?xml version="1.0" encoding="UTF-8" standalone="no"?><!DOCTYPE svg PUBLIC "-//W3C//DTD SVG 1.1//EN" "http://www.w3.org/Graphics/SVG/1.1/DTD/svg11.dtd"><svg width="100%" height="100%" viewBox="0 0 1250 1417" version="1.1" xmlns="http://www.w3.org/2000/svg" xmlns:xlink="http://www.w3.org/1999/xlink" xml:space="preserve" xmlns:serif="http://www.serif.com/" style="fill-rule:evenodd;clip-rule:evenodd;stroke-linejoin:round;stroke-miterlimit:2;"><g><g><g><path id="Path_4505-26_1_" d="M822.722,777.57c-69.173,69.358 -181.142,70.096 -181.142,70.096c-0,0 0.184,-111.969 69.358,-181.327c69.173,-69.358 181.142,-70.095 181.142,-70.095c0,-0 -0.184,111.968 -69.358,181.326Z" style="fill:#9ad700;fill-rule:nonzero;"/><path d="M822.722,777.57c-69.173,69.358 -181.142,70.096 -181.142,70.096l-0.185,0l250.501,-251.607c-0,0.185 -0,112.153 -69.174,181.511Z" style="fill:#69a105;fill-rule:nonzero;"/></g><g><path id="Path_4505-26_2_" d="M439.778,777.57c69.173,69.358 181.142,70.096 181.142,70.096c0,0 -0.184,-111.969 -69.358,-181.327c-69.173,-69.358 -181.142,-70.095 -181.142,-70.095c-0,-0 0.369,111.968 69.358,181.326Z" style="fill:#9ad700;fill-rule:nonzero;"/><path d="M439.778,777.57c69.173,69.358 181.142,70.096 181.142,70.096l0.185,0l-250.501,-251.422c0,-0 0.185,111.968 69.174,181.326Z" style="fill:#69a105;fill-rule:nonzero;"/></g><path id="Group_6392" d="M631.25,1008.33c-5.534,0 -10.145,-4.611 -10.145,-10.145l-0,-525.719c-0,-5.534 4.611,-10.145 10.145,-10.145c5.534,-0 10.145,4.611 10.145,10.145l0,525.534c0.185,5.719 -4.427,10.33 -10.145,10.33Z" style="fill:#69a105;fill-rule:nonzero;"/><g id="Ellipse_2051"><circle cx="633.279" cy="297.783" r="94.076" style="fill:#ffd664;"/><path d="M633.279,391.859c-51.649,-0 -94.076,-42.427 -94.076,-94.076c0,-51.65 42.427,-94.076 94.076,-94.076c51.65,-0 94.261,42.426 94.261,94.076c-0,51.649 -42.611,94.076 -94.261,94.076Zm0,-184.278c-49.436,-0 -90.018,40.581 -90.018,90.017c0,49.436 40.582,90.018 90.018,90.018c49.436,0 90.018,-40.582 90.018,-90.018c-0,-49.436 -40.582,-90.017 -90.018,-90.017Z" style="fill:#707070;fill-rule:nonzero;"/></g><g id="Group_4437"><path id="Subtraction_107" d="M592.328,212.192c-10.33,-14.757 -19.737,-30.252 -28.038,-46.3c-8.485,-16.97 -12.728,-30.805 -12.728,-40.951l0,-1.844c0,-44.456 36.524,-80.979 80.979,-80.979c44.456,-0 80.979,36.523 80.979,80.979l0,1.844c0,10.146 -4.058,23.981 -12.728,40.951c-8.3,16.048 -17.524,31.543 -27.853,46.3c-6.088,-2.951 -12.544,-4.98 -19.185,-6.456c-13.834,-3.136 -28.038,-3.136 -41.873,0c-6.825,1.291 -13.281,3.505 -19.553,6.456Z" style="fill:#ffd664;fill-rule:nonzero;"/><path id="Subtraction_110" d="M632.357,552.895c-44.456,-0 -80.979,-36.524 -80.979,-80.795c-0,-10.145 4.242,-23.98 12.728,-40.951c8.3,-16.232 17.708,-31.727 28.222,-46.669c6.272,2.952 12.728,5.165 19.369,6.641c13.835,3.136 28.038,3.136 41.873,0c6.641,-1.476 13.097,-3.689 19.184,-6.456c10.33,14.757 19.738,30.252 27.854,46.3c8.485,16.971 12.728,30.621 12.728,40.951c0.184,44.455 -36.339,80.979 -80.979,80.979c0.184,-0 0.184,-0 -0,-0Z" style="fill:#ffd664;fill-rule:nonzero;"/><path id="Subtraction_108" d="M763.694,291.696c-10.883,-0 -23.058,-0.554 -36.154,-1.476c-1.292,-14.019 -5.534,-27.669 -12.728,-39.844c-3.505,-5.903 -7.563,-11.437 -12.359,-16.417c-4.612,-4.981 -9.777,-9.592 -15.495,-13.466c7.563,-16.417 16.417,-32.281 26.193,-47.407c10.515,-15.679 20.291,-26.378 29.146,-31.543c12.543,-7.379 26.747,-11.252 41.135,-11.252c44.455,-0 80.979,36.523 80.979,80.979c-0,29.145 -15.864,56.261 -41.135,70.465c-11.621,6.64 -31.543,9.961 -59.582,9.961Z" style="fill:#ffd664;fill-rule:nonzero;"/><path id="Subtraction_111" d="M482.02,466.013c-14.02,-0 -27.67,-3.689 -40.029,-10.514c-25.456,-14.389 -41.135,-41.32 -41.135,-70.465c0,-28.961 15.495,-55.708 40.582,-70.096c11.437,-6.641 31.359,-9.961 59.397,-9.961c11.068,-0 23.427,0.553 36.892,1.66c0.554,7.01 2.029,14.019 4.059,20.844c2.213,6.641 4.98,12.913 8.485,18.816c6.825,11.805 16.233,21.951 27.485,29.883c-7.563,16.417 -16.417,32.281 -26.194,47.407c-10.514,15.863 -20.475,26.378 -29.145,31.543c-12.175,7.194 -26.194,10.883 -40.397,10.883Z" style="fill:#ffd664;fill-rule:nonzero;"/><path id="Subtraction_109" d="M782.509,466.013c-14.203,-0 -28.222,-3.689 -40.397,-10.883c-8.854,-5.165 -18.631,-15.68 -29.145,-31.359c-9.777,-15.126 -18.446,-30.99 -26.194,-47.222c5.534,-3.874 10.884,-8.486 15.495,-13.466c9.408,-10.146 16.602,-22.32 20.844,-35.417c2.214,-6.825 3.505,-13.835 4.059,-20.844c13.096,-1.107 25.271,-1.476 36.154,-1.476c28.039,-0 47.961,3.32 59.397,9.961c25.087,14.388 40.582,41.135 40.582,70.096c0,29.145 -15.679,56.076 -41.135,70.464c-11.806,6.641 -25.64,10.146 -39.66,10.146Z" style="fill:#ffd664;fill-rule:nonzero;"/><path id="Subtraction_112" d="M501.019,291.696c-28.038,-0 -47.96,-3.321 -59.397,-9.961c-24.902,-14.388 -40.397,-41.32 -40.397,-70.096c-0,-44.456 36.524,-80.979 80.979,-80.979c14.204,-0 28.223,3.689 40.582,10.883c8.854,5.165 18.631,15.679 29.145,31.543c9.777,15.126 18.446,30.99 26.194,47.407c-11.252,7.932 -20.476,18.077 -27.485,29.883c-7.01,12.175 -11.437,25.64 -12.544,39.659c-13.65,1.107 -26.009,1.661 -37.077,1.661Z" style="fill:#ffd664;fill-rule:nonzero;"/><path id="Union_32" d="M551.378,471.916c-0,-44.64 80.979,-140.376 80.979,-140.376c-0,-0 80.979,95.736 80.979,140.376l-0,1.844c-0,44.456 -36.524,80.98 -80.979,80.98c-44.456,-0 -80.979,-36.524 -80.979,-80.98l-0,-1.844Zm190.734,-16.602c-38.737,-22.504 -81.164,-140.376 -81.164,-140.376c0,-0 123.406,-22.32 162.143,-0c24.534,14.573 39.66,41.135 39.66,69.727c-0,44.455 -36.524,80.979 -80.979,80.979c-13.835,-0.184 -27.485,-3.689 -39.66,-10.33Zm-330.188,-29.698c-22.136,-38.369 -8.854,-88.358 29.698,-110.494c38.737,-22.32 162.143,0 162.143,0c0,0 -42.426,117.688 -80.979,140.192c-12.359,7.194 -26.378,10.883 -40.582,10.883c-28.776,0 -55.523,-15.494 -70.096,-40.397l-0.184,-0.184Zm249.209,-143.881c-0,-0 42.426,-117.872 81.164,-140.376c12.543,-7.379 26.747,-11.253 41.135,-11.253c44.455,0 80.979,36.524 80.979,80.979c-0,29.146 -15.864,56.262 -41.135,70.465c-12.913,7.563 -35.417,9.961 -59.397,9.961c-34.679,-0.553 -68.989,-3.874 -102.746,-9.776Zm-219.511,-0c-25.087,-14.388 -40.397,-41.32 -40.397,-70.096c-0,-44.456 36.524,-80.979 80.979,-80.979c14.204,-0 28.223,3.689 40.582,10.883c38.553,22.32 80.979,140.376 80.979,140.376c-33.941,5.903 -68.251,9.223 -102.561,9.777c-24.349,-0 -46.669,-2.583 -59.582,-9.961Zm109.756,-156.978l-0,-1.845c-0,-44.455 36.523,-80.979 80.979,-80.979c44.455,0 80.979,36.524 80.979,80.979l-0,1.845c-0,44.64 -80.979,140.376 -80.979,140.376c-0,0 -80.979,-95.552 -80.979,-140.376Z" style="fill:none;fill-rule:nonzero;"/></g><g id="Path_5454"><path d="M633.279,414.363c-63.824,0 -116.211,-52.572 -116.211,-116.396c-0,-63.824 52.571,-116.396 116.396,-116.396c63.824,0 116.396,52.572 116.396,116.396c-0,46.669 -28.039,88.911 -71.019,107.173c-14.572,6.088 -30.067,9.223 -45.562,9.223Z" style="fill:#fff;fill-rule:nonzero;"/><path d="M633.279,187.105c-60.319,0.185 -109.94,49.805 -109.94,110.125c0,60.319 49.621,110.124 110.125,110.124c60.319,-0 110.124,-49.621 110.124,-110.124c-0,-44.087 -26.563,-84.115 -67.145,-101.455c-13.834,-5.718 -28.407,-8.67 -43.164,-8.67m0,-12.174c67.329,-0 122.852,55.523 122.852,122.852c0,67.329 -55.523,122.852 -122.852,122.852c-67.329,0 -122.852,-55.523 -122.852,-122.852c-0,-67.513 55.523,-122.852 122.852,-122.852Z" style="fill:#ffd859;fill-rule:nonzero;"/></g><circle id="Ellipse_2053" cx="589.561" cy="267.162" r="13.65" style="fill:#c37640;"/><circle id="Ellipse_2054" cx="676.628" cy="267.162" r="13.65" style="fill:#c37640;"/><path id="Path_5398" d="M679.764,318.258c-4.612,21.582 -23.796,37.077 -45.932,37.077c-22.135,0 -41.319,-15.495 -45.931,-37.077l91.863,0Z" style="fill:#fb9196;fill-rule:nonzero;"/><path d="M633.832,363.267c-3.873,0 -7.747,-0.369 -11.621,-1.291c-21.213,-4.612 -37.815,-21.029 -42.426,-42.242c-0.185,-0.553 -0.185,-1.107 -0.185,-1.66c0,-4.427 3.69,-8.117 8.117,-8.117l92.047,0c4.427,0 8.116,3.69 8.116,8.117c0,0.553 0,1.107 -0.184,1.66c-5.35,25.271 -27.854,43.533 -53.864,43.533Zm-34.494,-36.892c5.349,10.145 14.941,17.524 26.378,19.922c16.971,3.504 34.495,-4.612 42.427,-19.922l-68.805,-0Z" style="fill:#fb9196;fill-rule:nonzero;"/></g><g><rect id="Rectangle_2374_1_" x="415.417" y="997.371" width="435.663" height="76.96" style="fill:#f7aa7b;"/><path id="Path_5421_1_" d="M458.151,1074.14l350.195,0l-46.517,290.442l-257.351,0l-46.327,-290.442Z" style="fill:#f7aa7b;fill-rule:nonzero;"/><rect id="Rectangle_2375_1_" x="633.248" y="997.371" width="217.832" height="76.96" style="fill:#e0996e;"/><path id="Path_5422_1_" d="M633.816,1074.14l174.53,0l-46.895,290.442l-127.635,0l-0,-290.442Z" style="fill:#e0996e;fill-rule:nonzero;"/><path d="M802.106,1112.72l6.24,-38.575l-174.53,0l-0,38.575l168.29,-0Z" style="fill:#c17646;fill-rule:nonzero;"/><path d="M633.248,1074.14l-175.097,0l6.051,38.575l169.046,-0l0,-38.575Z" style="fill:#d38349;fill-rule:nonzero;"/></g></g></svg>