<?xml version="1.0" encoding="UTF-8" standalone="no"?><!DOCTYPE svg PUBLIC "-//W3C//DTD SVG 1.1//EN" "http://www.w3.org/Graphics/SVG/1.1/DTD/svg11.dtd"><svg width="100%" height="100%" viewBox="0 0 1250 1417" version="1.1" xmlns="http://www.w3.org/2000/svg" xmlns:xlink="http://www.w3.org/1999/xlink" xml:space="preserve" xmlns:serif="http://www.serif.com/" style="fill-rule:evenodd;clip-rule:evenodd;stroke-linejoin:round;stroke-miterlimit:2;"><g><g><path id="Group_6448-2" d="M630.517,1008.33c-5.284,0 -9.784,-3.718 -10.763,-8.806c-7.045,-38.55 -9.98,-77.688 -8.806,-116.825c1.566,-60.859 14.285,-182.905 65.947,-249.634c49.509,-64.186 124.259,-110.163 223.864,-115.056l0.587,0c6.066,0 11.154,5.088 11.154,11.155c0,5.87 -4.697,10.763 -10.567,10.958c-92.756,4.501 -162.026,47.739 -207.426,106.445c-92.169,119.37 -53.423,346.5 -53.031,348.457c0.195,0.782 0.195,1.565 0.195,2.543c0,5.284 -3.718,9.785 -8.806,10.763l-2.348,0Z" style="fill:#69a105;fill-rule:nonzero;"/><g id="Group_6457"><g id="Group_6248"><g id="Ellipse_2051-3"><circle cx="962.406" cy="500.587" r="101.758" style="fill:#ffd664;"/><path d="M962.406,602.149c-55.771,0 -101.757,-45.987 -101.757,-101.758c-0,-55.771 45.986,-101.757 101.757,-101.757c27.005,-0 52.836,10.762 71.818,29.744c18.982,18.982 29.744,45.008 29.744,71.818c0.196,56.162 -45.791,101.953 -101.562,101.953Zm0,-198.819c-53.422,0 -97.257,43.834 -97.257,97.257c0,53.423 43.835,97.257 97.257,97.257c53.423,-0 97.257,-43.834 97.257,-97.257c0,-25.831 -10.371,-50.683 -28.57,-68.882c-18.199,-18.199 -42.856,-28.375 -68.687,-28.375Z" style="fill:#707070;fill-rule:nonzero;"/></g><g id="Group_4437-3"><path id="Subtraction_107-3" d="M996.456,403.917c3.327,-19.177 8.023,-38.159 14.09,-56.749c6.457,-19.373 13.698,-33.267 21.525,-41.095c16.438,-16.438 38.551,-25.635 61.838,-25.635c47.943,0 87.472,39.529 87.472,87.473c0,11.35 -2.152,22.504 -6.457,32.875c-4.306,10.763 -10.959,20.743 -19.178,28.962c-7.827,7.828 -21.526,15.068 -40.899,21.526c-18.59,5.87 -37.572,10.567 -56.749,14.089c-7.828,-21.33 -22.504,-39.529 -41.682,-51.466c-6.262,-4.109 -13.111,-7.436 -19.96,-9.98Z" style="fill:#ffda4c;fill-rule:nonzero;"/><path id="Subtraction_110-3" d="M766.914,694.71c-33.854,-33.854 -33.854,-89.626 0,-123.48c7.828,-7.827 21.721,-15.068 41.095,-21.525c18.59,-5.871 37.572,-10.567 56.749,-14.09c2.544,7.045 5.675,13.698 9.784,19.96c4.11,6.458 8.806,12.329 14.286,17.612c10.567,10.567 23.287,18.786 37.18,23.874c-3.326,19.178 -8.023,38.159 -14.089,56.554c-6.458,19.373 -13.698,33.071 -21.526,40.899c-33.658,33.854 -89.429,33.854 -123.479,0.196Z" style="fill:#ffda4c;fill-rule:nonzero;"/><path id="Subtraction_108-3" d="M1066.51,595.496c-8.218,-8.415 -17.22,-18.004 -26.613,-28.962c4.892,-5.871 9.197,-12.328 12.72,-19.178c10.175,-19.96 13.698,-42.855 9.588,-64.968c18.395,-6.653 36.985,-12.133 56.163,-16.242c19.96,-4.109 35.419,-4.697 46.182,-1.761c38.551,9.784 65.947,44.812 65.947,84.733c-0,47.943 -39.529,87.472 -87.473,87.472c-8.023,0 -16.046,-1.174 -23.678,-3.326c-13.502,-3.523 -31.31,-16.438 -52.836,-37.768Z" style="fill:#ffda4c;fill-rule:nonzero;"/><path id="Subtraction_111-3" d="M718.579,513.698c-16.438,-16.438 -25.635,-38.746 -25.635,-61.837c0,-47.944 39.529,-87.473 87.473,-87.473c7.631,0 15.263,0.979 22.699,2.936c13.699,3.718 31.702,16.437 53.032,37.767c8.414,8.415 17.612,18.395 26.809,29.354c-4.892,5.87 -9.197,12.132 -12.72,18.981c-6.849,13.307 -10.762,27.788 -11.35,42.66c-0.391,7.436 0.196,14.873 1.37,22.113c-18.394,6.653 -36.985,11.937 -56.162,16.046c-20.156,4.11 -35.615,4.697 -46.378,1.762c-14.873,-3.718 -28.375,-11.35 -39.138,-22.309Z" style="fill:#ffda4c;fill-rule:nonzero;"/><path id="Subtraction_109-3" d="M947.925,743.044c-10.762,-10.762 -18.59,-24.265 -22.504,-39.137c-2.739,-10.567 -2.348,-26.222 1.762,-46.182c4.109,-18.982 9.588,-37.768 16.242,-55.967c14.676,2.544 29.744,1.957 44.225,-1.761c7.241,-1.957 14.285,-4.501 20.939,-8.024c6.849,-3.522 13.307,-7.827 19.177,-12.719c10.763,9.197 20.547,18.199 28.766,26.613c21.33,21.33 34.05,39.138 37.768,53.032c1.957,7.436 2.935,15.068 2.935,22.699c0,47.944 -39.529,87.473 -87.472,87.473c-23.091,-0.196 -45.4,-9.393 -61.838,-26.027Z" style="fill:#ffda4c;fill-rule:nonzero;"/><path id="Subtraction_112-3" d="M865.932,394.916c-21.33,-21.33 -34.049,-39.138 -37.768,-53.032c-2.152,-7.632 -3.326,-15.655 -3.326,-23.678c-0,-47.944 39.529,-87.473 87.472,-87.473c39.921,0 74.949,27.201 84.733,65.947c2.935,10.567 2.153,26.222 -1.761,46.378c-4.109,19.178 -9.589,37.964 -16.242,56.163c-29.745,-5.088 -60.272,3.131 -83.363,22.699c-11.154,-9.393 -21.135,-18.394 -29.745,-27.004Z" style="fill:#ffda4c;fill-rule:nonzero;"/><path id="Union_32-3" d="M766.914,571.035c34.05,-34.05 169.075,-45.4 169.075,-45.4c-0,0 -11.35,135.025 -45.4,169.075c-16.438,16.437 -38.746,25.635 -61.837,25.635c-47.944,-0 -87.473,-39.529 -87.473,-87.473c-0,-23.091 9.197,-45.399 25.635,-61.837Zm158.507,132.872c-12.524,-46.574 45.204,-169.075 45.204,-169.075c0,0 111.151,77.297 123.675,123.675c2.153,7.632 3.131,15.46 3.131,23.287c0,47.944 -39.529,87.473 -87.472,87.473c-39.529,-0 -74.558,-27.005 -84.538,-65.36Zm-229.542,-274.746c10.176,-38.159 45.009,-64.773 84.342,-64.773c7.632,0 15.264,0.979 22.504,2.936c46.574,12.524 123.675,123.674 123.675,123.674c-0,0 -122.109,57.533 -168.879,45.204c-38.159,-10.175 -64.773,-45.008 -64.773,-84.341c0,-7.632 0.979,-15.264 3.131,-22.7Zm299.99,80.428c0,-0 122.501,-57.533 169.074,-45.204c38.551,9.784 65.947,44.812 65.947,84.733c0,47.943 -39.529,87.472 -87.472,87.472c-8.023,0 -16.047,-1.174 -23.678,-3.326c-15.656,-4.501 -34.637,-19.374 -53.032,-37.768c-25.831,-26.81 -49.509,-55.576 -70.839,-85.907Zm-167.509,-167.509c-1.761,-7.045 -2.739,-14.285 -2.739,-21.526c-0,-47.943 39.528,-87.472 87.472,-87.472c38.942,-0 73.579,26.026 84.146,63.598c12.524,46.574 -45.204,169.075 -45.204,169.075c-30.332,-21.33 -59.098,-45.009 -85.907,-70.644c-18.395,-18.59 -33.658,-37.572 -37.768,-53.031Zm203.516,-36.007c16.437,-16.438 38.746,-25.635 61.837,-25.635c47.944,0 87.473,39.529 87.473,87.473c-0,23.286 -9.198,45.399 -25.636,61.837c-34.049,34.05 -169.074,45.4 -169.074,45.4c0,-0 11.35,-135.025 45.4,-169.075Z" style="fill:none;fill-rule:nonzero;"/></g><g id="Ellipse_2052-2"><circle cx="962.406" cy="500.587" r="132.676" style="fill:#fff;"/><path d="M962.406,633.068c-72.796,-0 -132.676,-59.881 -132.676,-132.677c-0,-72.796 59.88,-132.676 132.676,-132.676c72.796,-0 132.677,59.88 132.677,132.676c-0,35.224 -14.09,69.078 -38.942,93.931c-24.852,24.852 -58.511,38.746 -93.735,38.746Zm0,-251.851c-65.555,0 -119.369,53.815 -119.369,119.37c-0,65.556 53.814,119.37 119.369,119.37c65.556,-0 119.37,-53.814 119.37,-119.37c0,-31.701 -12.524,-62.033 -35.028,-84.341c-22.309,-22.505 -52.64,-35.029 -84.342,-35.029Z" style="fill:#ffdc3a;fill-rule:nonzero;"/></g><circle id="Ellipse_2053-3" cx="952.426" cy="444.033" r="14.872" style="fill:#c57639;"/><circle id="Ellipse_2054-3" cx="1018.96" cy="510.371" r="14.872" style="fill:#c57639;"/></g><path d="M955.949,586.298c-1.761,0 -3.327,-0.391 -4.697,-1.369c-2.544,-1.566 -4.109,-4.501 -4.109,-7.437c-0,-1.761 0.587,-3.326 1.37,-4.892c4.5,-7.045 6.849,-15.263 6.849,-23.678c-0,-24.07 -19.765,-43.834 -43.834,-43.834c-8.415,-0 -16.634,2.348 -23.483,6.849c-1.37,0.978 -3.131,1.37 -4.697,1.37c-4.892,-0 -8.806,-3.914 -8.806,-8.806c0,-2.935 1.566,-5.675 3.914,-7.436c9.98,-6.262 21.33,-9.785 33.072,-9.785c33.658,0 61.446,27.788 61.446,61.446c-0,11.742 -3.327,23.287 -9.785,33.267c-1.565,2.936 -4.305,4.305 -7.24,4.305Z" style="fill:#fb9196;fill-rule:nonzero;"/></g><g><path id="Path_4505-26_3_" d="M500.719,944.343c90.016,-52.053 121.13,-166.53 121.13,-166.53c0,-0 -114.868,-30.332 -204.885,21.721c-90.016,52.053 -121.131,166.531 -121.131,166.531c0,-0 114.869,30.331 204.886,-21.722Z" style="fill:#9ad700;fill-rule:nonzero;"/><path d="M500.719,944.343c90.016,-52.053 121.13,-166.53 121.13,-166.53l0.196,-0.196l-326.212,188.448c0,-0 114.869,30.331 204.886,-21.722Z" style="fill:#69a105;fill-rule:nonzero;"/></g><g><path id="Path_4505-26_1_" d="M762.387,944.493c-90.016,-52.053 -121.131,-166.53 -121.131,-166.53c0,-0 114.869,-30.332 204.886,21.721c90.016,52.053 121.131,166.53 121.131,166.53c-0,0 -114.869,30.332 -204.886,-21.721Z" style="fill:#9ad700;fill-rule:nonzero;"/><path d="M762.387,944.493c-90.016,-52.053 -121.131,-166.53 -121.131,-166.53l-0.195,-0.196l326.212,188.252c-0,0.195 -114.869,30.527 -204.886,-21.526Z" style="fill:#69a105;fill-rule:nonzero;"/></g></g><g><rect id="Rectangle_2374_1_" x="415.417" y="997.371" width="435.663" height="76.96" style="fill:#f7aa7b;"/><path id="Path_5421_1_" d="M458.151,1074.14l350.195,0l-46.517,290.442l-257.351,0l-46.327,-290.442Z" style="fill:#f7aa7b;fill-rule:nonzero;"/><rect id="Rectangle_2375_1_" x="633.248" y="997.371" width="217.832" height="76.96" style="fill:#e0996e;"/><path id="Path_5422_1_" d="M633.816,1074.14l174.53,0l-46.895,290.442l-127.635,0l-0,-290.442Z" style="fill:#e0996e;fill-rule:nonzero;"/><path d="M802.106,1112.72l6.24,-38.575l-174.53,0l-0,38.575l168.29,-0Z" style="fill:#c17646;fill-rule:nonzero;"/><path d="M633.248,1074.14l-175.097,0l6.051,38.575l169.046,-0l0,-38.575Z" style="fill:#d38349;fill-rule:nonzero;"/></g></g></svg>