<?xml version="1.0" encoding="UTF-8" standalone="no"?><!DOCTYPE svg PUBLIC "-//W3C//DTD SVG 1.1//EN" "http://www.w3.org/Graphics/SVG/1.1/DTD/svg11.dtd"><svg width="100%" height="100%" viewBox="0 0 1250 1417" version="1.1" xmlns="http://www.w3.org/2000/svg" xmlns:xlink="http://www.w3.org/1999/xlink" xml:space="preserve" xmlns:serif="http://www.serif.com/" style="fill-rule:evenodd;clip-rule:evenodd;stroke-linejoin:round;stroke-miterlimit:2;"><g><g><g id="Group_6452"><path id="Group_6448" d="M630.804,1008.15c-5.349,-0 -9.959,-4.242 -10.328,-9.591c-3.504,-58.28 -2.951,-116.745 1.475,-175.026c9.96,-128.18 38.362,-222.057 84.286,-278.677c2.029,-2.398 4.98,-3.873 8.115,-3.873c5.717,-0 10.512,4.795 10.512,10.512c0,2.398 -0.737,4.796 -2.397,6.64c-103.467,127.811 -81.335,435.629 -80.966,438.949c0.369,5.717 -3.873,10.697 -9.59,11.25l-1.107,-0.184Z" style="fill:#69a105;fill-rule:nonzero;"/><g id="Group_6451"><g id="Group_6242"><g id="Ellipse_2051-2"><circle cx="810.072" cy="366.693" r="95.905" style="fill:#ffd664;"/><path d="M810.072,462.413c-0.184,0 -0.184,0 0,0c-52.932,0 -96.458,-43.526 -96.458,-96.273c0,-52.748 43.526,-96.274 96.274,-96.274c52.748,0 96.274,43.526 96.274,96.274c-0,43.341 -29.325,81.703 -71.191,92.954c-8.115,2.213 -16.599,3.319 -24.899,3.319Zm0.185,-187.383c-50.35,0 -91.663,41.313 -91.663,91.663c-0,50.35 41.313,91.663 91.663,91.663c50.35,-0 91.663,-41.313 91.663,-91.663c-0,-32.645 -17.521,-63.076 -45.74,-79.306c-14.016,-8.115 -29.693,-12.357 -45.923,-12.357Z" style="fill:#707070;fill-rule:nonzero;"/></g><g id="Group_4437-2"><path id="Subtraction_107-2" d="M817.45,270.419c-1.66,-18.259 -2.029,-36.702 -1.107,-55.145c1.107,-19.181 4.426,-33.567 9.59,-42.604c14.755,-25.452 41.867,-41.128 71.376,-41.128c45.186,-0 82.441,37.255 82.441,82.441c0,3.32 -0.184,6.824 -0.553,10.144c-1.291,10.881 -4.795,21.394 -10.328,30.984c-5.165,9.038 -16.046,18.997 -31.907,29.51c-15.493,9.959 -31.538,18.812 -48.137,26.558c-4.058,-5.718 -8.484,-10.882 -13.648,-15.492c-10.513,-9.775 -23.239,-16.968 -36.887,-21.21c-7.008,-2.213 -13.832,-3.689 -20.84,-4.058Z" style="fill:#ffd859;fill-rule:nonzero;"/><path id="Subtraction_110-2" d="M679.494,590.963c-25.452,-14.755 -41.313,-41.866 -41.313,-71.376c0,-14.385 3.873,-28.587 11.066,-41.128c5.164,-9.037 16.046,-18.996 32.091,-29.694c15.493,-9.959 31.538,-18.812 48.322,-26.742c4.057,5.717 8.484,11.066 13.648,15.676c5.348,4.796 11.066,9.222 17.336,12.726c12.173,7.009 25.821,11.251 39.838,12.542c1.66,18.259 2.029,36.702 1.106,54.961c-1.106,19.181 -4.426,33.382 -9.59,42.603c-14.755,25.452 -41.866,41.313 -71.375,41.313c-14.202,0.185 -28.403,-3.688 -41.129,-10.881Z" style="fill:#ffd859;fill-rule:nonzero;"/><path id="Subtraction_108-2" d="M928.109,427.556c-9.59,-5.533 -20.103,-12.173 -31.169,-19.735c12.172,-26.005 12.172,-56.067 -0,-82.072c15.123,-10.513 30.8,-19.919 47.215,-28.403c17.152,-8.668 31.169,-12.91 41.681,-12.91c45.186,0 82.442,37.256 82.442,82.441c-0,45.186 -37.256,82.442 -82.442,82.442c-13.648,-0.185 -33.013,-7.378 -57.727,-21.763Z" style="fill:#ffd859;fill-rule:nonzero;"/><path id="Subtraction_111-2" d="M591.335,438.068c-25.451,-14.754 -41.312,-41.866 -41.312,-71.375c-0,-45.186 37.255,-82.441 82.441,-82.441c13.463,-0 32.829,7.193 57.358,21.578c9.775,5.533 20.472,12.542 31.538,20.103c-3.135,6.456 -5.348,13.464 -6.824,20.472c-4.426,20.657 -2.028,42.051 6.824,61.232c-15.123,10.513 -30.8,20.103 -47.214,28.587c-17.337,8.668 -31.354,12.91 -41.682,12.91c-14.386,0 -28.587,-3.873 -41.129,-11.066Z" style="fill:#ffd859;fill-rule:nonzero;"/><path id="Subtraction_109-2" d="M855.996,590.963c-12.541,-7.193 -22.87,-17.706 -30.063,-30.063c-5.164,-9.037 -8.299,-23.238 -9.59,-42.604c-0.922,-18.258 -0.553,-36.702 1.107,-54.96c7.008,-0.738 13.832,-2.029 20.472,-4.242c6.639,-2.029 13.094,-4.796 19.181,-8.3c6.086,-3.504 11.988,-7.746 17.152,-12.541c5.348,-4.795 10.144,-10.328 14.385,-16.23c12.173,5.717 23.055,11.619 32.645,17.152c24.714,14.201 40.575,27.296 47.399,39.1c7.193,12.541 11.066,26.742 11.066,41.128c0,45.186 -37.255,82.441 -82.441,82.441c-14.386,0 -28.587,-3.873 -41.129,-11.066l-0.184,0.185Z" style="fill:#ffd859;fill-rule:nonzero;"/><path id="Subtraction_112-2" d="M696.646,293.842c-24.714,-14.201 -40.575,-27.48 -47.399,-39.099c-7.93,-12.911 -12.172,-28.034 -12.172,-43.158c-0,-45.186 37.255,-82.441 82.441,-82.441c30.247,0 58.281,16.599 72.482,43.342c5.164,9.037 8.299,23.423 9.59,42.604c0.923,18.443 0.554,36.886 -1.106,55.145c-28.403,2.397 -54.408,17.521 -70.822,40.944c-11.988,-5.718 -23.239,-11.619 -33.014,-17.337Z" style="fill:#ffd859;fill-rule:nonzero;"/><path id="Union_32-2" d="M649.432,478.459c22.685,-39.284 142.75,-82.626 142.75,-82.626c0,0 22.686,125.599 0,164.883c-14.754,25.452 -42.05,41.313 -71.375,41.313c-45.186,-0 -82.441,-37.256 -82.441,-82.442c-0,-14.385 3.873,-28.587 11.066,-41.128Zm176.501,82.441c-22.685,-39.284 0,-164.882 0,-164.882c0,-0 120.066,43.157 142.751,82.441c7.193,12.541 11.066,26.743 11.066,41.128c0,45.186 -37.255,82.257 -82.257,82.257c-29.509,0.185 -56.621,-15.492 -71.56,-40.944Zm-275.91,-194.207c-0,-45.186 37.07,-82.257 82.256,-82.257c45.555,0 142.936,82.441 142.936,82.441c-0,0 -97.381,82.257 -142.936,82.257c-45.001,0 -82.256,-37.255 -82.256,-82.441Zm292.694,0c-0,0 97.38,-82.441 142.935,-82.257l1.844,0c45.186,0 82.442,37.256 82.442,82.441c-0,45.186 -37.256,82.442 -82.442,82.442l-1.844,-0c-15.124,-0 -36.333,-9.222 -57.543,-21.394c-29.878,-18.444 -58.465,-38.731 -85.392,-61.232Zm-193.285,-111.766c-7.562,-12.726 -11.435,-27.112 -11.435,-41.866c-0,-45.186 37.255,-82.441 82.441,-82.441c29.694,-0 57.174,16.045 71.744,41.866c22.686,39.284 0,164.882 0,164.882c-32.829,-12.172 -64.735,-26.742 -95.351,-43.526c-21.394,-12.172 -39.838,-25.636 -47.399,-38.915Zm176.501,-82.257c14.571,-25.82 42.051,-41.866 71.745,-41.866c45.186,-0 82.441,37.255 82.441,82.441c-0,14.755 -4.058,29.325 -11.435,41.866c-22.685,39.285 -142.751,82.626 -142.751,82.626c0,0 -22.685,-125.783 0,-165.067Z" style="fill:none;fill-rule:nonzero;"/></g><g id="Ellipse_2052"><circle cx="810.072" cy="366.693" r="125.045" style="fill:#fff;"/><path d="M809.888,491.554c-68.425,-0 -124.861,-56.437 -124.861,-125.045c0,-68.609 56.436,-125.046 125.045,-125.046c21.948,0 43.342,5.718 62.338,16.599c38.731,22.317 62.707,63.63 62.707,108.262c0,68.978 -56.436,125.23 -125.229,125.23c0.184,-0 0.184,-0 -0,-0Zm0.553,-237.365c-0.184,0 -0.184,0 0,0c-61.785,0 -112.688,50.719 -112.688,112.504c-0,61.785 50.719,112.504 112.504,112.504c61.785,-0 112.503,-50.719 112.503,-112.504c0,-40.206 -21.578,-77.462 -56.251,-97.38c-17.153,-9.96 -36.518,-15.124 -56.068,-15.124Z" style="fill:#ffdc3a;fill-rule:nonzero;"/></g><circle id="Ellipse_2053-2" cx="787.203" cy="317.45" r="14.017" style="fill:#c57639;"/><circle id="Ellipse_2054-2" cx="863.927" cy="361.898" r="14.017" style="fill:#c57639;"/></g><path d="M807.121,420.178c-1.844,0 -3.688,-0.553 -5.164,-1.475l-35.226,-20.288c-3.136,-1.844 -5.164,-5.348 -5.164,-9.037c-0,-5.717 4.795,-10.328 10.328,-10.328c1.844,-0 3.504,0.553 5.164,1.291l35.226,20.288c3.32,1.844 5.165,5.348 5.165,9.037c0.184,5.717 -4.611,10.512 -10.329,10.512Z" style="fill:#fb9196;fill-rule:nonzero;"/></g></g><g><path id="Path_4505-26_1_" d="M834.417,822.057c-84.839,49.059 -193.1,20.472 -193.1,20.472c-0,-0 29.324,-107.893 114.163,-156.952c84.839,-49.059 193.101,-20.472 193.101,-20.472c-0,-0 -29.325,107.893 -114.164,156.952Z" style="fill:#9ad700;fill-rule:nonzero;"/><path d="M834.417,822.057c-84.839,49.059 -193.1,20.472 -193.1,20.472l-0.185,-0l307.449,-177.424c-0,-0 -29.325,107.893 -114.164,156.952Z" style="fill:#69a105;fill-rule:nonzero;"/></g><g><path id="Path_4505-26_2_" d="M427.559,822.057c84.839,49.059 193.101,20.472 193.101,20.472c0,-0 -29.325,-107.893 -114.163,-156.952c-84.839,-49.059 -193.101,-20.472 -193.101,-20.472c-0,-0 29.325,107.893 114.163,156.952Z" style="fill:#9ad700;fill-rule:nonzero;"/><path d="M427.559,822.057c84.839,49.059 193.101,20.472 193.101,20.472l0.185,-0l-307.449,-177.424c-0,-0 29.325,107.893 114.163,156.952Z" style="fill:#69a105;fill-rule:nonzero;"/></g></g><g><rect id="Rectangle_2374_1_" x="415.417" y="997.371" width="435.663" height="76.96" style="fill:#f7aa7b;"/><path id="Path_5421_1_" d="M458.151,1074.14l350.195,0l-46.517,290.442l-257.351,0l-46.327,-290.442Z" style="fill:#f7aa7b;fill-rule:nonzero;"/><rect id="Rectangle_2375_1_" x="633.248" y="997.371" width="217.832" height="76.96" style="fill:#e0996e;"/><path id="Path_5422_1_" d="M633.816,1074.14l174.53,0l-46.895,290.442l-127.635,0l-0,-290.442Z" style="fill:#e0996e;fill-rule:nonzero;"/><path d="M802.106,1112.72l6.24,-38.575l-174.53,0l-0,38.575l168.29,-0Z" style="fill:#c17646;fill-rule:nonzero;"/><path d="M633.248,1074.14l-175.097,0l6.051,38.575l169.046,-0l0,-38.575Z" style="fill:#d38349;fill-rule:nonzero;"/></g></g></svg>