<?xml version="1.0" encoding="UTF-8" standalone="no"?><!DOCTYPE svg PUBLIC "-//W3C//DTD SVG 1.1//EN" "http://www.w3.org/Graphics/SVG/1.1/DTD/svg11.dtd"><svg width="100%" height="100%" viewBox="0 0 1250 1417" version="1.1" xmlns="http://www.w3.org/2000/svg" xmlns:xlink="http://www.w3.org/1999/xlink" xml:space="preserve" xmlns:serif="http://www.serif.com/" style="fill-rule:evenodd;clip-rule:evenodd;stroke-linejoin:round;stroke-miterlimit:2;"><g><path id="Group_6355" d="M632.39,1009.29c-5.874,0 -10.611,-4.926 -10.611,-10.611l-0,-135.486c-0,-5.874 4.926,-10.612 10.611,-10.612c5.685,0 10.612,4.738 10.612,10.612l-0,135.486c0.189,5.685 -4.738,10.611 -10.612,10.611Z" style="fill:#69a105;fill-rule:nonzero;"/><g id="Group_6339"><rect id="Rectangle_2374" x="415.233" y="996.592" width="436.588" height="77.123" style="fill:#f7aa7b;"/><path id="Path_5421" d="M458.058,1073.53l350.938,-0l-46.615,291.058l-257.897,0l-46.426,-291.058Z" style="fill:#f7aa7b;fill-rule:nonzero;"/><rect id="Rectangle_2375" x="633.527" y="996.592" width="218.294" height="77.123" style="fill:#e0996e;"/><g><g><clipPath id="_clip1"><path d="M441.004,940.881l350.938,0l-46.615,291.059l-257.898,-0l-46.425,-291.059Z"/></clipPath><g clip-path="url(#_clip1)"><rect x="403.106" y="1073.53" width="448.147" height="38.467" style="fill:#d38349;"/></g></g></g><path id="Path_5422" d="M634.096,1073.53l174.9,-0l-46.994,291.058l-127.906,0l-0,-291.058Z" style="fill:#e0996e;fill-rule:nonzero;"/><g><g><clipPath id="_clip2"><path d="M617.041,940.881l174.901,0l-47.184,291.059l-127.717,-0l0,-291.059Z"/></clipPath><g clip-path="url(#_clip2)"><rect x="398.179" y="1073.53" width="453.642" height="38.467" style="fill:#c17646;"/></g></g></g></g><g><rect id="Rectangle_2374_1_" x="415.233" y="996.592" width="436.588" height="77.123" style="fill:#f7aa7b;"/><path id="Path_5421_1_" d="M458.058,1073.53l350.938,-0l-46.615,291.058l-257.897,0l-46.426,-291.058Z" style="fill:#f7aa7b;fill-rule:nonzero;"/><rect id="Rectangle_2375_1_" x="633.527" y="996.592" width="218.294" height="77.123" style="fill:#e0996e;"/><path id="Path_5422_1_" d="M634.096,1073.53l174.9,-0l-46.994,291.058l-127.906,0l-0,-291.058Z" style="fill:#e0996e;fill-rule:nonzero;"/><path d="M802.743,1112.18l6.253,-38.656l-174.9,-0l-0,38.656l168.647,0Z" style="fill:#c17646;fill-rule:nonzero;"/><path d="M633.527,1073.53l-175.469,-0l6.064,38.656l169.405,0l0,-38.656Z" style="fill:#d38349;fill-rule:nonzero;"/></g><g><path id="Path_4505-26_2_" d="M667.446,852.389c0,43.393 -34.866,78.639 -34.866,78.639c-0,-0 -35.056,-35.246 -35.056,-78.639c-0,-43.394 34.866,-78.639 34.866,-78.639c0,0 35.056,35.245 35.056,78.639Z" style="fill:#9ad700;fill-rule:nonzero;"/><path d="M667.446,852.389c0,43.393 -34.866,78.639 -34.866,78.639l-0,-157.089c-0.19,0 34.866,35.056 34.866,78.45Z" style="fill:#69a105;fill-rule:nonzero;"/></g></g></svg>