<?xml version="1.0" encoding="UTF-8" standalone="no"?><!DOCTYPE svg PUBLIC "-//W3C//DTD SVG 1.1//EN" "http://www.w3.org/Graphics/SVG/1.1/DTD/svg11.dtd"><svg width="100%" height="100%" viewBox="0 0 1250 1417" version="1.1" xmlns="http://www.w3.org/2000/svg" xmlns:xlink="http://www.w3.org/1999/xlink" xml:space="preserve" xmlns:serif="http://www.serif.com/" style="fill-rule:evenodd;clip-rule:evenodd;stroke-linejoin:round;stroke-miterlimit:2;"><g><g><path id="Group_6380" d="M631.171,1008.36c-5.721,0 -10.335,-4.798 -10.335,-10.335l0,-403.615c0,-5.721 4.614,-10.335 10.335,-10.335c5.721,-0 10.335,4.614 10.335,10.335l-0,403.615c-0,5.722 -4.614,10.335 -10.335,10.335Z" style="fill:#69a105;fill-rule:nonzero;"/><ellipse id="Ellipse_2082" cx="631.171" cy="562.854" rx="45.769" ry="58.688" style="fill:#ffd859;"/><path id="Path_4505-19" d="M691.889,616.928c-18.271,31.559 -57.212,43.001 -57.212,43.001c0,-0 -9.412,-39.494 8.674,-70.868c18.087,-31.374 57.212,-43.37 57.212,-43.37c-0,-0 9.596,39.679 -8.674,71.237Z" style="fill:#67a300;fill-rule:nonzero;"/><path id="Path_4505-20" d="M574.698,616.928c-18.086,-31.558 -8.674,-70.868 -8.674,-70.868c0,0 38.941,11.627 57.211,43.001c18.271,31.558 8.674,70.868 8.674,70.868c0,-0 -39.125,-11.627 -57.211,-43.001Z" style="fill:#98d900;fill-rule:nonzero;"/><g><g><path id="Path_4505-26_1_" d="M768.293,834.884c-48.352,48.537 -126.603,49.091 -126.603,49.091c0,0 0.185,-78.25 48.538,-126.787c48.352,-48.537 126.602,-49.091 126.602,-49.091c0,-0 -0.184,78.25 -48.537,126.787Z" style="fill:#9ad700;fill-rule:nonzero;"/><path d="M768.293,834.884c-48.352,48.537 -126.603,49.091 -126.603,49.091l-0.184,0l175.14,-175.878c0.184,-0 -0,78.25 -48.353,126.787Z" style="fill:#69a105;fill-rule:nonzero;"/></g><g><path id="Path_4505-26_2_" d="M494.049,834.884c48.352,48.537 126.602,49.091 126.602,49.091c0,0 -0.184,-78.25 -48.537,-126.787c-48.352,-48.537 -126.603,-49.091 -126.603,-49.091c0,-0 0.185,78.25 48.538,126.787Z" style="fill:#9ad700;fill-rule:nonzero;"/><path d="M494.049,834.884c48.352,48.537 126.602,49.091 126.602,49.091l0.185,0l-175.14,-175.878c-0,-0 -0,78.25 48.353,126.787Z" style="fill:#69a105;fill-rule:nonzero;"/></g></g></g><g><rect id="Rectangle_2374_1_" x="415.417" y="997.371" width="435.663" height="76.96" style="fill:#f7aa7b;"/><path id="Path_5421_1_" d="M458.151,1074.14l350.195,0l-46.517,290.442l-257.351,0l-46.327,-290.442Z" style="fill:#f7aa7b;fill-rule:nonzero;"/><rect id="Rectangle_2375_1_" x="633.248" y="997.371" width="217.832" height="76.96" style="fill:#e0996e;"/><path id="Path_5422_1_" d="M633.816,1074.14l174.53,0l-46.895,290.442l-127.635,0l-0,-290.442Z" style="fill:#e0996e;fill-rule:nonzero;"/><path d="M802.106,1112.72l6.24,-38.575l-174.53,0l-0,38.575l168.29,-0Z" style="fill:#c17646;fill-rule:nonzero;"/><path d="M633.248,1074.14l-175.097,0l6.051,38.575l169.046,-0l0,-38.575Z" style="fill:#d38349;fill-rule:nonzero;"/></g></g></svg>