<?xml version="1.0" encoding="UTF-8" standalone="no"?><!DOCTYPE svg PUBLIC "-//W3C//DTD SVG 1.1//EN" "http://www.w3.org/Graphics/SVG/1.1/DTD/svg11.dtd"><svg width="100%" height="100%" viewBox="0 0 1250 1417" version="1.1" xmlns="http://www.w3.org/2000/svg" xmlns:xlink="http://www.w3.org/1999/xlink" xml:space="preserve" xmlns:serif="http://www.serif.com/" style="fill-rule:evenodd;clip-rule:evenodd;stroke-linejoin:round;stroke-miterlimit:2;"><g><path id="Group_6358" d="M631.168,1010.04c-5.861,-0 -10.589,-4.917 -10.589,-10.589l0,-135.2c0,-5.861 4.728,-10.589 10.589,-10.589c5.862,0 10.589,4.728 10.589,10.589l0,135.2c0.189,5.672 -4.727,10.589 -10.589,10.589Z" style="fill:#69a105;fill-rule:nonzero;"/><g><path id="Path_4505-26_1_" d="M721.931,941.778c-30.443,30.633 -79.985,31.011 -79.985,31.011c0,-0 0,-49.353 30.633,-80.174c30.444,-30.633 79.985,-31.011 79.985,-31.011c0,0 0,49.542 -30.633,80.174Z" style="fill:#9ad700;fill-rule:nonzero;"/><path d="M721.931,941.778c-30.443,30.633 -79.985,31.011 -79.985,31.011l110.618,-111.185c0,0 0,49.542 -30.633,80.174Z" style="fill:#69a105;fill-rule:nonzero;"/></g><g><path id="Path_4505-26_3_" d="M540.594,941.778c30.444,30.633 79.985,31.011 79.985,31.011c0,-0 0,-49.353 -30.632,-80.174c-30.444,-30.633 -79.985,-31.011 -79.985,-31.011c-0,0 -0,49.542 30.632,80.174Z" style="fill:#9ad700;fill-rule:nonzero;"/><path d="M540.594,941.778c30.444,30.633 79.985,31.011 79.985,31.011l-110.617,-111.185c-0,0 -0,49.542 30.632,80.174Z" style="fill:#69a105;fill-rule:nonzero;"/></g><g><rect id="Rectangle_2374_1_" x="415.417" y="997.371" width="435.663" height="76.96" style="fill:#f7aa7b;"/><path id="Path_5421_1_" d="M458.151,1074.14l350.195,0l-46.517,290.442l-257.351,0l-46.327,-290.442Z" style="fill:#f7aa7b;fill-rule:nonzero;"/><rect id="Rectangle_2375_1_" x="633.248" y="997.371" width="217.832" height="76.96" style="fill:#e0996e;"/><path id="Path_5422_1_" d="M633.816,1074.14l174.53,0l-46.895,290.442l-127.635,0l-0,-290.442Z" style="fill:#e0996e;fill-rule:nonzero;"/><path d="M802.106,1112.72l6.24,-38.575l-174.53,0l-0,38.575l168.29,-0Z" style="fill:#c17646;fill-rule:nonzero;"/><path d="M633.248,1074.14l-175.097,0l6.051,38.575l169.046,-0l0,-38.575Z" style="fill:#d38349;fill-rule:nonzero;"/></g><g><path id="Path_4505-26_2_" d="M666.15,806.201c-0,43.301 -34.793,78.472 -34.793,78.472c0,0 -34.792,-34.982 -34.792,-78.283c-0,-43.302 34.792,-78.473 34.792,-78.473c0,0 34.793,34.982 34.793,78.284Z" style="fill:#9ad700;fill-rule:nonzero;"/><path d="M666.15,806.201c-0,43.301 -34.793,78.472 -34.793,78.472l0,-156.756c-0.189,-0.189 34.793,34.982 34.793,78.284Z" style="fill:#69a105;fill-rule:nonzero;"/></g></g></svg>