<?xml version="1.0" encoding="UTF-8" standalone="no"?><!DOCTYPE svg PUBLIC "-//W3C//DTD SVG 1.1//EN" "http://www.w3.org/Graphics/SVG/1.1/DTD/svg11.dtd"><svg width="100%" height="100%" viewBox="0 0 267 258" version="1.1" xmlns="http://www.w3.org/2000/svg" xmlns:xlink="http://www.w3.org/1999/xlink" xml:space="preserve" xmlns:serif="http://www.serif.com/" style="fill-rule:evenodd;clip-rule:evenodd;stroke-linejoin:round;stroke-miterlimit:2;"><g id="Group_6345"><g id="Group_6334"><g id="Rectangle_2358"><path d="M192,1.18c18.282,-4.896 37.354,6.119 42.25,24.4l15.93,59.42l-66.65,17.86l-15.92,-59.4c-0.783,-2.918 -1.18,-5.927 -1.18,-8.948c0,-15.568 10.534,-29.299 25.57,-33.332Z" style="fill:none;fill-rule:nonzero;"/><path d="M188.76,101.18c-3.336,0 -6.278,-2.258 -7.14,-5.48l-14,-52.26c-4.874,-18.276 6.119,-37.331 24.38,-42.26c18.279,-4.867 37.33,6.136 42.25,24.4l14,52.27c1.035,3.922 -1.332,8.002 -5.25,9.05l-52.37,14c-0.609,0.173 -1.237,0.267 -1.87,0.28Zm5.32,-92.27c-14.035,3.776 -22.488,18.418 -18.74,32.46l13.85,51.63l51.19,-13.71l-13.85,-51.64c-3.776,-14.03 -18.411,-22.481 -32.45,-18.74Z" style="fill:#f45d58;fill-rule:nonzero;"/></g><path d="M160.063,117.661l-17,29.445l5.196,3l17,-29.445l-5.196,-3Z" style="fill:#f75c53;"/><path id="Path_5410" d="M129.61,154.83l68.93,-19.49" style="fill:none;fill-rule:nonzero;"/><path d="M197.181,130.532l-68.94,19.482l2.719,9.623l68.94,-19.482l-2.719,-9.623Z" style="fill:#f75c53;"/><path id="Rectangle_2359" d="M125.05,175.54l-9.84,-36.71c1.013,-0.272 2.058,-0.409 3.108,-0.409c5.416,0 10.192,3.667 11.592,8.899l3.62,13.52c0.272,1.014 0.41,2.06 0.41,3.11c0,5.413 -3.662,10.187 -8.89,11.59Z" style="fill:#f45d58;fill-rule:nonzero;"/><path id="Path_5409" d="M135.26,101.62l33,-57.15l89,39.84l-43,74.47l-79,-57.16Z" style="fill:#f45d58;fill-rule:nonzero;"/><clipPath id="_clip1"><path id="Rectangle_2360" d="M135.26,101.62l33,-57.15l89.01,39.84l-43,74.47l-79.01,-57.16Z"/></clipPath><g clip-path="url(#_clip1)"><path d="M157.339,17.377l-25.5,44.168l109.119,63l25.5,-44.168l-109.119,-63Z" style="fill:#e1554e;"/></g><g id="Mask_Group_15"><clipPath id="_clip2"><path d="M135.26,101.62l33,-57.15l89.01,39.84l-43,74.47l-79.01,-57.16Z"/></clipPath><g clip-path="url(#_clip2)"><path id="Path_5412" d="M197.45,147.92l21,-36.38l4.33,2.5l-21,36.38l-4.33,-2.5Z" style="fill:#d5504b;fill-rule:nonzero;"/><path id="Rectangle_2362" d="M227.099,116.542l-21.5,37.239l4.331,2.5l21.5,-37.239l-4.331,-2.5Z" style="fill:#d5504b;"/></g></g><g id="Mask_Group_16"><clipPath id="_clip3"><path d="M168.26,44.47l-33,57.15l79.01,57.16l43,-74.47l-89.01,-39.84Z"/></clipPath><g clip-path="url(#_clip3)"><path id="Path_5414" d="M239.45,75.17l-21,36.37l4.33,2.5l21,-36.37l-4.33,-2.5Z" style="fill:#c44945;fill-rule:nonzero;"/><path id="Rectangle_2363" d="M248.599,79.302l-21.5,37.239l4.33,2.5l21.5,-37.239l-4.33,-2.5Z" style="fill:#c44945;"/></g></g></g><path d="M41,257.73c-0.003,0 -0.007,0 -0.01,0c-1.366,0 -2.49,-1.124 -2.49,-2.49c0,-0.003 0,-0.007 0,-0.01l0,-3.07c0.04,-1.343 1.156,-2.426 2.5,-2.426c1.372,0 2.501,1.129 2.501,2.501c0,0.025 0,0.05 -0.001,0.075l0,2.92c0,0.003 0,0.007 0,0.01c0,1.366 -1.124,2.49 -2.49,2.49c-0.003,0 -0.007,0 -0.01,0Zm1.1,-14.94c-0.123,0.01 -0.247,0.01 -0.37,0c-1.217,-0.173 -2.13,-1.226 -2.13,-2.455c0,-0.129 0.01,-0.258 0.03,-0.385c0.15,-1 0.31,-2 0.49,-3c0.212,-1.189 1.257,-2.064 2.465,-2.064c1.374,0 2.504,1.13 2.504,2.504c0,0.148 -0.013,0.295 -0.039,0.44c-0.18,1 -0.33,1.92 -0.48,2.89c-0.204,1.193 -1.25,2.073 -2.46,2.07l-0.01,0Zm3.33,-14.61c-0.251,0.002 -0.501,-0.035 -0.74,-0.11c-1.308,-0.409 -2.048,-1.822 -1.64,-3.13c0.3,-1 0.62,-2 1,-2.93c0.322,-1.046 1.295,-1.764 2.389,-1.764c1.372,0 2.5,1.128 2.5,2.5c0,0.309 -0.057,0.616 -0.169,0.904c-0.32,0.92 -0.62,1.84 -0.91,2.78c-0.328,1.053 -1.317,1.769 -2.42,1.75l-0.01,0Zm5.57,-13.9c-0.004,0 -0.007,0 -0.011,0c-1.366,0 -2.49,-1.124 -2.49,-2.49c0,-0.393 0.093,-0.78 0.271,-1.13c0.46,-0.92 0.94,-1.83 1.42,-2.73c0.437,-0.805 1.284,-1.309 2.2,-1.309c1.373,0 2.504,1.131 2.504,2.504c0,0.417 -0.105,0.828 -0.304,1.195c-0.46,0.847 -0.91,1.707 -1.35,2.58c-0.422,0.848 -1.293,1.384 -2.24,1.38Zm7.83,-12.77c-1.371,0 -2.5,-1.129 -2.5,-2.5c0,-0.541 0.176,-1.067 0.5,-1.5c0.62,-0.83 1.25,-1.64 1.89,-2.45c0.474,-0.594 1.195,-0.941 1.955,-0.941c1.372,0 2.501,1.129 2.501,2.501c0,0.567 -0.193,1.117 -0.546,1.56c-0.61,0.76 -1.2,1.53 -1.78,2.31c-0.467,0.633 -1.204,1.011 -1.99,1.02l-0.03,0Zm10,-11.14c-1.367,-0.014 -2.485,-1.142 -2.485,-2.51c0,-0.708 0.3,-1.384 0.825,-1.86c0.77,-0.7 1.54,-1.38 2.33,-2.05c0.451,-0.382 1.024,-0.591 1.615,-0.591c1.372,0 2.501,1.129 2.501,2.501c0,0.736 -0.324,1.435 -0.886,1.91c-0.74,0.62 -1.46,1.26 -2.18,1.92c-0.457,0.432 -1.061,0.675 -1.69,0.68l-0.03,0Zm12,-8.94c-1.369,-0.003 -2.494,-1.131 -2.494,-2.5c0,-0.881 0.466,-1.7 1.224,-2.15c0.89,-0.53 1.81,-1 2.72,-1.52c0.379,-0.218 0.81,-0.333 1.247,-0.333c1.372,0 2.5,1.128 2.5,2.5c0,0.959 -0.552,1.837 -1.417,2.253c-0.84,0.44 -1.69,0.92 -2.52,1.41c-0.365,0.212 -0.778,0.329 -1.2,0.34l-0.06,0Zm13.67,-6.05c-1.37,-0.002 -2.497,-1.13 -2.497,-2.5c0,-1.095 0.72,-2.069 1.767,-2.39c1,-0.31 2,-0.59 3,-0.85c0.201,-0.051 0.408,-0.077 0.615,-0.077c1.372,0 2.502,1.13 2.502,2.502c0,1.141 -0.781,2.144 -1.887,2.425c-0.92,0.23 -1.85,0.49 -2.76,0.77c-0.219,0.073 -0.449,0.114 -0.68,0.12l-0.06,0Zm14.71,-2.63c-0.022,0.001 -0.043,0.001 -0.065,0.001c-1.372,0 -2.501,-1.129 -2.501,-2.501c0,-1.347 1.089,-2.465 2.436,-2.5c1,-0.05 2.07,-0.09 3.12,-0.09c1.371,0 2.5,1.129 2.5,2.5c0,1.371 -1.129,2.5 -2.5,2.5c-1,0 -1.94,0 -2.88,0.08l-0.11,0.01Z" style="fill:#34ccff;fill-rule:nonzero;"/><path d="M22.58,257.74c-1.371,0 -2.5,-1.129 -2.5,-2.5l0,-3.07c0.038,-1.345 1.154,-2.431 2.5,-2.431c1.372,0 2.501,1.129 2.501,2.501c0,0.023 0,0.047 -0.001,0.07l0,2.93c0,1.371 -1.129,2.5 -2.5,2.5Zm1.06,-15l-0.36,0c-1.352,-0.205 -2.304,-1.475 -2.12,-2.83c0.15,-1 0.31,-2 0.48,-3c0.208,-1.193 1.254,-2.072 2.465,-2.072c1.373,0 2.502,1.129 2.502,2.502c0,0.144 -0.012,0.288 -0.037,0.43c-0.17,1 -0.32,1.92 -0.46,2.89c-0.182,1.218 -1.239,2.129 -2.47,2.13l0,-0.05Zm3.19,-14.64c-0.24,0.001 -0.479,-0.033 -0.71,-0.1c-1.314,-0.393 -2.075,-1.794 -1.69,-3.11c0.29,-1 0.6,-2 0.92,-2.93c0.345,-1.009 1.299,-1.69 2.365,-1.69c1.372,0 2.5,1.128 2.5,2.5c0,0.254 -0.039,0.507 -0.115,0.75c-0.313,0.933 -0.603,1.863 -0.87,2.79c-0.295,1.079 -1.281,1.835 -2.4,1.84l0,-0.05Zm5.3,-14c-0.362,-0.003 -0.72,-0.082 -1.05,-0.23c-1.243,-0.583 -1.789,-2.085 -1.21,-3.33c0.43,-0.93 0.88,-1.85 1.34,-2.76c0.427,-0.835 1.289,-1.363 2.226,-1.363c1.372,0 2.5,1.129 2.5,2.5c0,0.383 -0.087,0.76 -0.256,1.103c-0.44,0.87 -0.87,1.75 -1.28,2.64c-0.398,0.896 -1.289,1.478 -2.27,1.48l0,-0.04Zm7.35,-13.07c-0.491,0 -0.972,-0.146 -1.38,-0.42c-1.141,-0.762 -1.456,-2.325 -0.7,-3.47c0.58,-0.85 1.16,-1.7 1.76,-2.54c0.469,-0.656 1.228,-1.047 2.035,-1.047c1.372,0 2.502,1.13 2.502,2.502c0,0.522 -0.164,1.031 -0.467,1.455c-0.57,0.79 -1.12,1.59 -1.67,2.41c-0.453,0.71 -1.238,1.144 -2.08,1.15l0,-0.04Zm9.27,-11.79c-0.002,0 -0.005,0 -0.007,0c-1.371,0 -2.5,-1.129 -2.5,-2.5c0,-0.63 0.238,-1.238 0.667,-1.7c0.7,-0.75 1.41,-1.5 2.13,-2.23c0.472,-0.495 1.126,-0.775 1.81,-0.775c1.371,0 2.5,1.128 2.5,2.5c0,0.666 -0.267,1.306 -0.74,1.775c-0.69,0.7 -1.36,1.4 -2,2.12c-0.469,0.537 -1.147,0.847 -1.86,0.85l0,-0.04Zm11,-10.18c-0.009,0 -0.018,0 -0.027,0c-1.366,0 -2.49,-1.124 -2.49,-2.49c0,-0.77 0.357,-1.499 0.967,-1.97c0.813,-0.667 1.633,-1.287 2.46,-1.86c0.433,-0.324 0.959,-0.5 1.5,-0.5c1.371,0 2.5,1.129 2.5,2.5c0,0.786 -0.371,1.528 -1,2c-0.78,0.57 -1.56,1.16 -2.33,1.76c-0.433,0.377 -0.986,0.589 -1.56,0.6l-0.02,-0.04Zm12.52,-8.21c-0.001,0 -0.002,0 -0.003,0c-1.371,0 -2.5,-1.129 -2.5,-2.5c0,-0.918 0.506,-1.764 1.313,-2.2c0.9,-0.49 1.81,-1 2.73,-1.42c0.371,-0.205 0.787,-0.313 1.211,-0.313c1.372,0 2.5,1.129 2.5,2.5c0,0.985 -0.582,1.882 -1.481,2.283c-0.87,0.44 -1.73,0.88 -2.58,1.34c-0.354,0.213 -0.757,0.334 -1.17,0.35l-0.02,-0.04Zm13.73,-5.91c-1.363,-0.019 -2.474,-1.146 -2.474,-2.51c0,-1.065 0.678,-2.02 1.684,-2.37c1,-0.32 2,-0.63 2.94,-0.92c0.229,-0.067 0.466,-0.101 0.705,-0.101c1.372,0 2.501,1.129 2.501,2.501c0,1.107 -0.734,2.088 -1.796,2.4c-0.93,0.27 -1.85,0.56 -2.77,0.87c-0.255,0.082 -0.522,0.126 -0.79,0.13Zm14.56,-3.45c-0.058,0.004 -0.117,0.006 -0.175,0.006c-1.375,0 -2.506,-1.131 -2.506,-2.506c0,-1.309 1.025,-2.409 2.331,-2.5c1,-0.15 2,-0.27 3.06,-0.38c0.09,-0.01 0.18,-0.015 0.27,-0.015c1.379,0 2.515,1.136 2.515,2.515c0,1.278 -0.975,2.363 -2.245,2.5c-1,0.1 -1.93,0.22 -2.89,0.36c-0.113,0.016 -0.226,0.022 -0.34,0.02l-0.02,0Z" style="fill:#34ccff;fill-rule:nonzero;"/><path d="M2.5,257.73c-0.003,0 -0.007,0 -0.01,0c-1.366,0 -2.49,-1.124 -2.49,-2.49c0,-0.003 0,-0.007 0,-0.01l0,-3.06c0.026,-1.342 1.137,-2.432 2.48,-2.432c0.03,0 0.06,0.001 0.09,0.002c1.343,0.032 2.431,1.146 2.431,2.489c0,0.024 0,0.047 -0.001,0.071l0,2.93c0,0.003 0,0.007 0,0.01c0,1.366 -1.124,2.49 -2.49,2.49c-0.003,0 -0.007,0 -0.01,0Zm1,-14.94c-0.113,0.01 -0.227,0.01 -0.34,0c-1.24,-0.155 -2.181,-1.221 -2.181,-2.471c0,-0.106 0.007,-0.213 0.021,-0.319c0.14,-1.02 0.29,-2.02 0.45,-3c0.195,-1.207 1.248,-2.102 2.47,-2.102c1.373,0 2.502,1.129 2.502,2.502c0,0.134 -0.011,0.268 -0.032,0.4c-0.16,1 -0.3,1.93 -0.44,2.9c-0.198,1.191 -1.232,2.077 -2.44,2.09l-0.01,0Zm3,-14.68c-0.226,-0.001 -0.451,-0.031 -0.67,-0.09c-1.079,-0.299 -1.832,-1.289 -1.832,-2.409c0,-0.227 0.031,-0.453 0.092,-0.671c0.28,-0.993 0.57,-1.973 0.87,-2.94c0.322,-1.046 1.295,-1.765 2.39,-1.765c1.372,0 2.5,1.128 2.5,2.5c0,0.249 -0.037,0.497 -0.11,0.735c-0.29,0.93 -0.57,1.87 -0.83,2.81c-0.297,1.068 -1.271,1.817 -2.38,1.83l-0.03,0Zm5,-14.13c-0.343,0.001 -0.684,-0.067 -1,-0.2c-1.251,-0.554 -1.835,-2.031 -1.3,-3.29c0.41,-0.94 0.83,-1.88 1.27,-2.81c0.411,-0.878 1.296,-1.441 2.265,-1.441c1.372,0 2.501,1.129 2.501,2.501c0,0.366 -0.081,0.728 -0.236,1.06c-0.42,0.88 -0.82,1.78 -1.21,2.68c-0.385,0.904 -1.268,1.5 -2.25,1.52l-0.04,-0.02Zm6.89,-13.31c-1.372,-0.007 -2.497,-1.138 -2.497,-2.51c0,-0.454 0.123,-0.9 0.357,-1.29c0.54,-0.88 1.08,-1.75 1.64,-2.61c0.464,-0.716 1.262,-1.15 2.115,-1.15c1.382,0 2.52,1.138 2.52,2.52c0,0.486 -0.141,0.962 -0.405,1.37c-0.53,0.82 -1,1.65 -1.55,2.48c-0.456,0.742 -1.269,1.194 -2.14,1.19l-0.04,0Zm8.63,-12.26c-0.572,0.002 -1.128,-0.196 -1.57,-0.56c-0.583,-0.472 -0.922,-1.184 -0.922,-1.934c0,-0.574 0.199,-1.131 0.562,-1.576c0.64,-0.8 1.3,-1.58 2,-2.36c0.475,-0.555 1.17,-0.875 1.9,-0.875c1.372,0 2.5,1.128 2.5,2.5c0,0.596 -0.213,1.172 -0.6,1.625c-0.64,0.75 -1.27,1.5 -1.88,2.26c-0.478,0.584 -1.195,0.922 -1.95,0.92l-0.04,0Zm10.22,-11c-1.37,-0.002 -2.496,-1.13 -2.496,-2.5c0,-0.689 0.285,-1.348 0.786,-1.82c0.74,-0.7 1.5,-1.39 2.26,-2.07c0.457,-0.406 1.048,-0.63 1.66,-0.63c1.372,0 2.5,1.128 2.5,2.5c0,0.714 -0.306,1.396 -0.84,1.87c-0.73,0.65 -1.45,1.31 -2.16,2c-0.451,0.428 -1.048,0.671 -1.67,0.68l-0.04,-0.03Zm11.63,-9.41c-1.368,-0.005 -2.491,-1.132 -2.491,-2.5c0,-0.804 0.388,-1.561 1.041,-2.03c0.84,-0.6 1.68,-1.18 2.52,-1.74c0.412,-0.277 0.898,-0.425 1.395,-0.425c1.372,0 2.5,1.128 2.5,2.5c0,0.832 -0.415,1.611 -1.105,2.075c-0.81,0.54 -1.61,1.1 -2.41,1.66c-0.423,0.301 -0.931,0.462 -1.45,0.46Zm12.77,-7.82c-1.366,-0.016 -2.48,-1.144 -2.48,-2.51c0,-0.922 0.508,-1.773 1.32,-2.21c0.91,-0.47 1.82,-0.93 2.74,-1.38c0.365,-0.197 0.774,-0.301 1.189,-0.301c1.372,0 2.5,1.129 2.5,2.5c0,0.992 -0.59,1.894 -1.499,2.291c-0.88,0.427 -1.75,0.867 -2.61,1.32c-0.362,0.17 -0.76,0.252 -1.16,0.24l0,0.05Zm13.72,-6c-1.37,-0.002 -2.497,-1.13 -2.497,-2.5c0,-1.049 0.661,-1.992 1.647,-2.35c1,-0.35 1.93,-0.68 2.9,-1c0.363,-0.194 0.769,-0.296 1.18,-0.296c1.372,0 2.5,1.128 2.5,2.5c0,1.217 -0.889,2.267 -2.09,2.466c-0.93,0.3 -1.85,0.62 -2.77,1c-0.281,0.088 -0.576,0.125 -0.87,0.11l0,0.07Zm14.41,-4.18c-1.359,-0.018 -2.467,-1.141 -2.467,-2.5c0,-1.167 0.818,-2.186 1.957,-2.44c1,-0.21 2,-0.41 3,-0.6c0.148,-0.027 0.299,-0.041 0.45,-0.041c1.372,0 2.501,1.129 2.501,2.501c0,1.203 -0.868,2.244 -2.051,2.46c-0.967,0.18 -1.927,0.37 -2.88,0.57c-0.168,0.036 -0.339,0.052 -0.51,0.05Zm14.84,-2.08c-0.03,0.001 -0.06,0.002 -0.09,0.002c-1.372,0 -2.502,-1.13 -2.502,-2.502c0,-1.338 1.074,-2.452 2.412,-2.5c1,-0.07 2,-0.13 3.07,-0.18c0.035,-0.001 0.07,-0.002 0.105,-0.002c1.373,0 2.502,1.129 2.502,2.502c0,1.333 -1.065,2.444 -2.397,2.5c-1,0 -1.95,0.1 -2.92,0.16l-0.18,0.02Z" style="fill:#40ccff;fill-rule:nonzero;"/></g></svg>