<svg xmlns="http://www.w3.org/2000/svg" viewBox="0 0 132.5 124.78"><defs><style>.cls-1{fill:#9ad429;}</style></defs><title>Grow_Icon</title><g id="Layer_2" data-name="Layer 2"><g id="Layer_1-2" data-name="Layer 1"><path id="Path_5497" data-name="Path 5497" class="cls-1" d="M132,57l-1.28-7.09-7.09-1.28c-.77-.14-13.72-2.32-29.11,4,0-.33,0-.65,0-1,0-31.68-21.47-47-22.39-47.59L66.25,0,60.33,4.11C59.41,4.74,37.94,20,37.94,51.7c0,.34,0,.66,0,1-15.39-6.37-28.35-4.19-29.11-4l-7.1,1.28L.47,57c-.2,1.09-4.58,27.08,17.82,49.48a61.05,61.05,0,0,0,43.4,18.29H70.8a61.05,61.05,0,0,0,43.4-18.29C136.61,84.09,132.22,58.11,132,57ZM66.25,27.46a42.65,42.65,0,0,1,0,48.44A42.65,42.65,0,0,1,66.25,27.46ZM21.17,69.34a40.52,40.52,0,0,1,22.48,11.8,42.35,42.35,0,0,1,12.09,22.45A42.51,42.51,0,0,1,21.17,69.33ZM99.52,91.81a40.8,40.8,0,0,1-22.76,11.78A42.38,42.38,0,0,1,88.85,81.14a40.49,40.49,0,0,1,22.48-11.8A40.54,40.54,0,0,1,99.52,91.81Z"/></g></g></svg>