<svg xmlns="http://www.w3.org/2000/svg" viewBox="0 0 107 107.54"><g id="b83f9c04-cd51-4c74-a9e7-e03a801ae156" data-name="Layer 2"><g id="a3dbb6c7-d08b-4867-bc09-f30aa4c83e96" data-name="Layer 1"><g id="bd1c0114-1206-4b1d-ab91-cbfd8326a310" data-name="Group 6711"><g id="b8cf49a4-c5ff-46f6-8cfc-87618b4729b8" data-name="Group 6706"><path id="bfd65bd6-1894-4f6e-9b37-2477ecd4544b" data-name="Path 9047" d="M10.86,71.15l.13-.09.21-.2.22,0,.15,0,.24-.31h.11l.36,0,.07-.1.31-.1.14-.09.27,0,.18-.19.19-.08.21-.11.27.06.13-.16.3,0,0-.14.32-.16.13-.12.32,0,.16-.19.15.1.15-.21.33,0,.13-.06.24-.14.26-.06.12-.18.23,0,.22,0,.09-.23h.36l.17-.22L18,68h.21l.24,0,.18-.23.26,0,0-.24.25-.09.22,0,.32,0,.15-.23.23,0h.17l.18-.24.13-.08.24,0,.24-.2.2,0,.2-.08h.18l.34.13.08.14.09.29.1,0,.12.29.06.25.11.21.07.23.16.19,0,.08-.13.31-.19.17-.2,0-.18.22-.23,0-.27,0-.19.25-.12.06-.23,0-.31.08-.25.09-.06.24-.18,0-.28.07-.2.12-.22.13L19.27,70l-.19.1-.14.11-.19,0-.16.26-.34,0-.05.25-.34,0-.09,0-.24,0-.23.1-.18.22-.24,0-.2.07-.18.1-.26.08-.22.09-.17.19-.25,0-.09.17-.26,0L15,72l-.2,0-.22.16-.11.07-.23.08H14l-.22.31h-.14l-.38,0-.1.15h-.26l-.22.21L12.57,73l-.26.1-.16.09-.17.12-.24.17-.28-.14-.17-.3-.11-.19,0-.17-.05-.12v-.19l-.19-.18-.12-.3,0-.35-.18-.07Z"/><path id="aa7ae158-06e7-4119-a3f8-18805d3dd9d1" data-name="Path 9048" d="M24.24,71.75l-.16.24,0,.1.26.15.28.1.17.14.18.1.2.06.18.22.1,0,.21.35.31.28v.17l.15.18v.3l0,.09.15.3,0,.28-.05.26v.16l-.19.22-.06.22-.05.1-.18.19-.15.18-.16.27h-.24l-.07.17-.4.23-.11.21-.29,0-.25.13L24,77.4l-.25.11-.07.18-.24,0-.1.24L23,78l0,.15-.27.27-.25-.08-.17.23-.15.2-.1.07-.34,0-.06.24-.17,0-.31.11-.15.21-.15,0-.17.16-.15.21-.25.07-.18.08-.24.1-.26.14-.15.15-.19.07-.13.16-.13.22-.29,0-.07.24-.35,0-.15.12-.13.12-.21.1-.16.21-.15.15-.14.15-.33,0-.08.17-.37-.13-.09-.21-.13-.16,0-.11-.22-.23L16,81l-.1-.2-.17-.23h-.14l-.18-.3.08-.29.18-.19.28,0L16,79.6l.24-.21h.24l.1-.09.24-.2.21-.07.19-.14.15-.15.2-.19.15,0,.17-.06.19-.3.22-.08.21-.06.18,0,.2-.13.17-.22.15-.1.28-.06.2-.18.07-.19.16-.12.26-.08.23-.11.12,0,.26-.18.11-.2.25-.09.12,0,.14-.23.2-.06.26-.24.19,0,.09-.28.26,0,.17-.07.12-.25.2-.15.34,0,.21-.28.2-.24,0-.2.05-.09,0-.33-.07-.19-.21-.43-.18-.09-.2-.14-.2.06-.2.06-.48.2-.25,0-.13.26h-.27l-.18.19-.15,0-.08.23-.39,0,0,.23-.26.1-.06.14-.25.09-.21,0-.14.25-.24,0-.13.27-.17.11-.3.11,0,.15-.23.15-.26,0-.18.14L18,76l-.1.11-.22.13-.29.1-.14.11-.2.07-.17.14-.19.18-.2,0-.24.16-.12.29-.15,0-.25.11-.13.18-.22.14-.19,0-.1.3-.28.09-.19.12-.12.14-.37-.1L14,78l-.13-.22-.13-.18-.15-.13-.06-.24-.24-.15-.26-.4,0-.19,0-.32.17.07.18-.21.12-.15.23-.11.2-.1.27-.12.17-.07.05-.27.28-.13.17,0,.18-.24.24-.13.16-.1.22-.13,0-.16h.29l.18-.08.25-.24.1-.15.19-.18H17l.21-.06.19-.11.17-.32.22,0,.23,0,.14-.22.15-.08.17-.11.23-.09.18-.14.36-.42h.2l.3-.06.12-.08.21-.18.12-.14.14-.13.18-.2h.36v-.21l.19-.09.23-.16.34-.06.13-.21H22l.07,0,.22-.21.15-.12.18-.11.21-.2L23,69.8l.41.1V70l.1.16.23.33.1.1.17.16L24,71l.12.24.18.17Z"/><path id="ac1a6433-1080-4e1f-9dd6-a22959521194" data-name="Path 9049" d="M22.12,87.6l.09-.08.16-.13.16-.18.23-.18.12-.09.1-.2.12-.18.19-.17.15-.19.06-.2.18-.18.16-.1.34-.17-.05-.2.21-.1.08-.29.15-.08.15-.25.22-.1.16-.26.06-.08.22-.14.22-.19.14-.11.15-.23v-.16l.25-.25h.13l.18-.31.11-.18.22,0,.08-.23.13-.1L27.1,82l.16-.14.29-.21,0-.24.23-.1.44-.5.18-.1.11-.26.12-.15,0-.21-.29-.28-.1-.19L28,79.55l-.17-.25-.1-.09L27.7,79l.11-.35L28,78.5h.21l.13-.26.15-.1.18-.29.15-.08.32,0h.1l.27.14.15.25.12.09.19.24.21,0,.07.1.33.23v.19l.27.08.06.2.16.12.19.16.31.14.07.12.21.13,0,.21.16.06.21.16.2.24.26.15.17.1.14.18.11.12-.08.32-.07.16-.13.24-.17,0-.12.37-.2.1-.11.15-.08.14-.39.06-.07-.1-.25-.21-.15-.06-.11-.15-.25-.23-.17-.1-.34,0v.21l-.17.1-.13.28-.2.1-.12.2-.16.2-.17.15-.23.13-.12.13-.15.24-.12.12-.14.11-.14.16,0,.28-.26.07,0,.23-.22.19-.07.18-.28,0-.08.4-.3,0-.12.13-.13.22-.05.1-.16.3-.17.15-.14.21-.21.09-.11.14-.09.28-.36.28-.07.21-.2.05-.21.23L25.2,88l-.23.14-.19.18-.08.25-.08.22-.1,0-.2.11-.18.32L24,89.4l-.29-.07-.23-.1-.11-.14-.13-.22L23,88.73l-.18-.07-.2-.14-.07-.21-.16-.13L22.1,88Z"/><path id="abb45595-27b1-4de7-bf0c-2bdcd5e346f7" data-name="Path 9050" d="M31.29,94.35l.09-.22.15-.14.18-.21.07-.16.14-.26.1-.17,0-.22,0-.14.11-.19.23-.22.16-.16,0-.29.23-.09.09-.27,0-.12.22-.28,0-.11.13-.3.14-.06.15-.2,0-.24.09-.19.14-.27-.34-.07-.09-.14-.24-.2-.16-.05-.23-.12-.24-.06,0-.08-.47,0-.09.07,0,.33-.17.23-.23.21-.1.23-.15.14,0,.38-.13,0-.18.24-.06.23-.35.35.05.24,0,.16-.22.2-.21.12-.06.17-.11.19-.13.16,0,.34-.14.21h-.34l-.1,0-.33-.17-.15-.09-.22-.21-.21-.09-.1,0-.21-.16-.16-.19-.25-.08-.09-.35.18-.1v-.3l.17-.08.08-.3.15-.13,0-.2.09-.19.11-.28.22-.14.11-.1.1-.19.06-.38.11,0,.08-.23.2-.25.18-.15.14-.21.08-.21.1-.17v-.16l.16-.22.13-.1v-.29l.18-.25.13-.05.13-.27.1-.18.22-.22.13-.17,0-.17.05-.21.28-.18.09-.18v-.26l.16-.25.14-.09.1-.14.12-.24.21-.36.22-.27,0-.21.05-.19.12-.1.12-.33.1-.14.11-.25.25-.14.1-.1,0-.31.17-.17,0-.15.26-.25.15,0,.31.15.2.1.24.07.16.22.14.06.15.1H35l.24.1.35.22-.13.28.06.25-.2.14-.2.16,0,.25-.08.19-.15.24-.2.16.09.19-.21.16-.1.21-.18.22v.17l-.2.26-.18.13L34,86l-.29.25-.06.08-.08.28-.1.25-.07.1,0,.27.2.18.17.07.17.13.25.15.16.07.29.1,0,.07.44,0,.11-.28.1,0v-.34l.07-.16.15-.17.29-.2.07-.23.07-.15,0-.34.18-.1,0-.27.08-.14.26-.07.09-.3.16-.15-.06-.25.17-.26h.21l.06-.31.12-.14.29,0,.27.06.11.08.14.06.32.3.13,0,.25.08.21.2.12.09h.29l.07.32-.2.21-.05.27-.23,0-.1.3-.15.16-.06.2-.12.17,0,.31-.13.08-.08.23-.25.15-.09.22-.11.11-.15.31,0,.17-.24.12,0,.24-.16.17-.09.3-.11,0-.17.28v.24l-.09.21L36.7,90l0,.25-.18.2-.18.06,0,.32,0,.21-.06.14-.29.2-.1.14,0,.28-.12.23-.23.13-.08.15,0,.23-.2.14-.15.23.06.16-.18.31,0,.15-.08.17-.3.21,0,.23-.24.12-.09.15,0,.21-.2.3-.1.08-.14.25-.16.16,0,.3-.37.07-.23-.22-.18-.17-.28,0-.1-.15L32,95.11,31.86,95l-.07-.09-.26-.24h-.19Z"/><path id="fc3f58d1-8339-444e-b060-ce3149e5c83b" data-name="Path 9051" d="M43.67,97.5l-.1.2-.08.16-.19.2-.18.12-.09.19-.22.06-.12.13-.23.15-.23-.07-.25,0-.18.14-.18-.07-.25,0-.34,0-.22.07-.2,0-.09-.11-.33,0h-.25l-.39-.11-.27-.14-.18,0-.3-.14,0-.08-.22-.15-.31-.14,0,0L38,97.58l-.23-.24,0-.07L37.44,97l0-.12-.28-.24-.06-.11v-.33l.06-.2L37,95.88v-.25l0-.24.2-.44.12-.15,0-.27,0-.26,0-.17.22-.24,0-.12.14-.21.06-.23.07-.2,0-.22.14-.27v-.3l.07-.13-.06-.2.26-.22-.11-.24.13-.22,0-.2.09-.3.12-.23,0-.14.22-.12-.09-.26.12-.29.13-.22.07-.17.1-.19L39,89l.09-.33.2-.11,0-.27,0-.17.12-.29.07-.42.22-.07,0-.23.1-.2.2-.19.15,0,.08-.29h.31l0-.2.3,0,.18,0L41.4,86l.27.07.11-.09h.14l.24,0,.26,0,.24.11.18.07.2-.07.4.18.35,0,.18.13.24.06.19.15.18,0,.22.09.12.16.23.1.09.2.17.06.32.28.09.19.15.18.14.12,0,.28v.09l0,.31-.07.16,0,.17v.31l0,.13L46,90l0,.2-.13.1.06.38,0,.08-.16.31-.12.13-.08.21.09.26-.05.25-.18.13-.07.25v.23l-.21.18v.18l-.07.33-.1.11-.05.17.07.38-.18.07-.32.21-.07-.05-.22,0-.25-.14-.21,0-.3-.24-.16.09-.14-.1-.38-.15-.2-.05,0,0-.34-.18L42,93.25h-.08l-.3-.05-.19-.14-.27,0-.3-.14-.13-.07-.35.22,0,.15v.28l0,.1-.06.31-.09.21,0,.22L40,94.5l-.18.27,0,.18,0,.2-.25.44.15.22.15.15.07.3.09.08.19,0,.39.15h.24l.22,0,.18-.08.26-.17.09-.06.11-.45,0-.19.06-.35.06-.2.16-.2-.12-.27.14,0,.18-.21.22.1.42.08.18,0,.06,0,.6.18.19.14.09-.08.2.11.15.36,0,.21v.21l-.1.1,0,.31-.07.15-.09.22-.09.17v.24l-.23.19Zm-.05-8.34.1-.22-.19-.28-.12-.08-.16-.13-.12-.22h-.38l-.2-.13-.14.1-.24.16-.17.09-.12.21-.1.31-.19.19-.15.3,0,.13v.33l0,.12,0,.21-.27.21,0,.25.18.32.24,0,.25.16.29.09.25,0h.08l.36.06.13-.13.22-.25L43,90.88l.22-.16.11-.3V90l.09-.27,0-.2Z"/><path id="a7e2664e-4922-4bf7-afb9-5050e03fe914" data-name="Path 9052" d="M58.09,100.06v-.33l-.1-.16v-.3l.19-.14L58,98.88l0-.28,0-.19-.06-.16.19-.29-.07-.26-.1-.16.07-.18-.1-.29.11-.26,0-.12-.12-.34V96.1L58,96l-.13-.27,0-.17.07-.23L58,95l-.06-.19v-.18l0-.18,0-.25V94l-.06-.21V93.5l0-.24V93l-.12-.27.11-.2v-.21l0-.18L57.82,92v-.28l-.08-.28.08-.12L57.75,91l-.1-.18.09,0-.13.19,0,.15.07.33v.1l-.13.24v.25l-.08.21.16.25-.19.2V93l0,.21v.13l-.06.29v.21l.1.25-.15.23,0,.19,0,.18,0,.28,0,.17,0,.24,0,.16v.3l-.13.24,0,.18.07.15-.14.22.14.2-.08.23-.08.31.13.24-.16.23-.06.18.07.25.05.17-.1.2.07.21-.1.2,0,.32,0,.15,0,.3,0,.15-.35.23-.1,0-.39,0-.21,0-.1-.09-.31.09-.07-.09-.41,0-.25,0-.22.11-.1-.1h-.25l-.16.1-.4-.18.13-.28,0-.21,0-.24-.19-.18-.07-.18v-.25l.1-.26v-.25l-.2-.16V98l.08-.3-.19-.27,0-.09L53.24,97l0-.18,0-.15,0-.31-.15-.18,0-.16.08-.24,0-.33,0-.19L53,95.18l.07-.26,0-.25-.17-.23,0-.21L52.74,94v-.23l-.09-.12.15-.21,0-.33-.05-.1-.16-.26.07-.28-.11-.15,0-.24v-.21l-.13-.29-.1-.18.11-.22L52.38,91,52.32,91l.11.28v.18l-.06.3.08.12,0,.29-.11.16,0,.32.09.1-.09.33,0,.24-.11.24.19.19,0,.2-.1.21.14.2,0,.33-.11.13,0,.24.06.16,0,.34,0,.21,0,.13-.13.29.16.26,0,.15,0,.33,0,.12.07.21-.11.21.08.31.09.26-.13.2v.42l0,.15.1.32,0,.2,0,.22,0,.24,0,.22,0,.15-.24.26-.27,0h-.13l-.24,0-.28,0-.3,0,0,0-.23.06-.39-.05-.17-.26-.06-.21.15-.15-.1-.34.05-.11-.05-.23.05-.27,0-.27v-.13l-.09-.31V98l0-.22,0-.27v-.22l-.08-.16.08-.29.05-.12-.14-.26.16-.16,0-.34,0-.18-.11-.17.05-.23,0-.28,0-.2-.18-.28V94.5l-.05-.28.06-.21.07-.22v-.23l0-.2-.13-.19,0-.36,0-.12.08-.24-.06-.2v-.44l.08-.29,0-.18,0-.28.08-.24-.06-.14,0-.29,0-.15,0-.28L50,89.78v-.22l.13-.53L50,88.92l0-.23,0-.31.26-.22.25,0,.33,0h.36l.13,0,.27,0,.31,0H52l.38-.09h.24l0,0h.27l.24-.06.2,0,.34,0,.29.2,0,.35.11.22V89l-.11.22.2.25,0,.22,0,.12v.3l0,.18.17.26-.06.26.18.1,0,.31,0,.24,0,.25.1.15.18.29v.15l-.08.25.11.13,0,.29-.08.2.15.29.08.22-.1.2.16.24.06.22.06.23-.15.17.07.26,0,.21.05.21.16.17.08.32,0,.17v.5l.18.1,0,.32-.06,0,0-.26,0-.17.11-.29.1-.24-.2-.11,0-.29.06-.16.1-.27-.12-.28.19-.14,0-.25.12-.22L55.52,94l0-.28-.12-.17.1-.17.11-.32-.11-.23.07-.14.11-.3,0-.22v-.09l.11-.22,0-.23-.07-.21.15-.37,0-.14.05-.25,0-.22-.08-.16,0-.31.13-.21,0-.2.13-.2-.07-.29-.1-.16.08-.23,0-.25.12-.28.18-.18.16.05.39,0,0,0L57,88l.31-.07.24,0,.17-.08.35.08.2,0h.09l.42-.07.25,0,.06,0,.31-.1.13,0,.25.21.13.29,0,.23,0,.2v.42l-.07.18,0,.36v.21l0,.12.14.32-.11.25.08.21.06.21-.19.17.1.28.13.17v.22l-.1.22,0,.26,0,.27,0,.16.11.16,0,.35-.07.18.07.16,0,.25L60,94.1l.09.17.12.26-.17.26.11.14L60,95.2l.18.26-.11.25,0,.13-.08.26.07.41.12.31-.14.2.18.23v.41l-.15.19.18.23-.08.21.06.22v.24l0,.33-.08.21.11.19-.17.29.09.19-.16.21-.36-.06-.44,0,0,0-.36,0-.13,0h-.45Z"/><path id="edaba7d0-a4bf-47d0-bbf3-fe9c907185a3" data-name="Path 9053" d="M68.12,97.88l0-.27-.2,0-.11.22-.26.19,0,.15-.2.17-.52.24-.1.14-.31.14-.31,0-.37.13-.15-.1-.23,0-.23,0-.19,0-.23-.1-.22-.1-.21-.15-.11-.11L64,98.27l-.07-.12-.18-.21-.25-.09-.07-.19-.06-.27-.1-.14,0-.47L63,96.55l0-.2-.12-.13L62.83,96v-.31l-.1-.08,0-.21v-.28l-.06-.16-.18-.29,0-.25L62.37,94l-.14-.28-.07-.24.12-.17-.09-.25.12-.16.17-.35.09-.06.11-.19.09-.18L63,92l.21-.12.15-.14.1-.06.26-.07.2-.17h.23l.28-.13.21-.07.09-.12.23,0,.37-.22.1.06.32-.22,0-.27.08-.2L65.71,90l-.1-.17,0-.11v-.21l-.14-.3-.09-.1v-.44l-.21-.13-.2-.19-.22-.1,0-.08h-.19l-.57.18-.14.15-.19.13-.16.19.07.22,0,.23.15.29.05.28.17.28-.14.17.09.33-.12.19-.2.12L63.2,91h-.31l-.22,0-.19.18H62l-.06,0-.35.14-.29-.13-.05-.18,0-.25-.08-.2,0-.3,0-.21V90l-.25-.48.06-.21,0-.19-.08-.29.1-.22.05-.17,0-.19.05-.16.15-.15.11-.3.08-.12.28-.14,0-.19.32-.08.11-.11.19-.09.11-.16.25-.14.14-.09.25-.1.24,0,.46-.11.21-.14.1.08.35-.11.23-.06h.13l.17,0,.19,0,.26-.09h.35l.17.09.18.17.32,0h.14l.16.15.13.18.26.17.06.12.09.19.12.18,0,.25.27.37-.07.2.08.21.19.24V89l.08.26.18.17,0,.15,0,.25.08.24.12.25,0,.2.15.2.09.22v.26l-.08.13.14.3.15.19L69,92l0,.35.21.08-.07.26.16.13-.08.32.15.22,0,.2.19.21.11.21,0,.19.06.26.07.12-.06.3.11.19.1.25,0,.27-.06.11.29.24.06.45,0,.12.07.2.1.28.17.2-.2.14-.27.16-.21,0-.17,0-.14.06-.31,0-.26.22-.25,0-.18.15-.15.08Zm-1.76-5.23-.31.12L66,93l-.3.12-.13.1h-.2l-.18.24-.24.17-.08.29,0,.17.13.36.13.24,0,.23,0,.35.24.15,0,.17-.09.36.16.38.27.07v.19l.26.14.29,0h0l.48-.17.24,0,.09-.17.29-.21,0-.32-.15-.33-.1-.33.06-.23-.14-.09v-.23L67,94.34l-.1-.17v-.23l-.12-.27-.08-.26,0-.12L66.67,93l-.09-.12Z"/><path id="a8df7a2e-2423-437e-b005-cd7241d0a7eb" data-name="Path 9054" d="M77.6,93.42l-.15-.17-.1-.17-.1-.2,0-.19-.17-.26h-.19l-.15-.19L76.6,92l-.13-.5-.16-.12-.17-.18L76,91l0-.26H75.8l0-.26-.1-.29L75.43,90l-.13-.3-.24-.14-.14-.21-.3,0-.17.07-.07,0-.5.25-.29.06-.18.21-.13.26.3.17.08.14.06.14.15.29v.18l.13.18.11.25.12.2.09.19.12.24,0,.13.21.22.16.13.08.2.16.1,0,.3.22.11.08.23.13.19.05.19,0,.23.16.16-.11.31-.07.09-.16.2-.19.09-.29.15-.22.1-.07,0-.24.2-.35.08,0,.09-.43,0,0-.24-.29-.17.09-.26-.08-.16L73,94.77l0-.17-.06-.31-.16-.07-.16-.17-.06-.34-.16,0-.08-.23-.16-.18.06-.27L72,92.88l-.26-.27.1-.22-.22-.14L71.49,92v-.17l-.23-.27-.2-.15,0-.09L71,91l-.22-.14-.07-.13,0-.33-.18-.11-.16-.3-.15-.1v-.28L70,89.6,70,89.31,69.89,89l-.22,0-.08-.23-.11-.28,0-.2-.19-.15V88L69,87.77l-.06-.13-.12-.28-.09-.08,0-.3-.21-.13-.09-.28,0-.18-.1-.17-.16-.14-.16-.2-.13-.2,0-.19,0-.31L68,85l.09,0,.23-.12.3-.14,0-.1.41-.09.12-.12.14-.17.24-.07.4.08,0,.25.11.13.24.2V85l.18.22.16.1,0,.2.16.25L71,86l0,.24,0,.24.09.09.26.12.13.3,0,.24.05.09.08.2.11.24.32.18.06.23.11,0,.26-.11.25-.13H73l.32-.3.22-.13-.06-.12.24-.22,0-.21-.07-.24-.23-.35,0-.24L73.18,86l-.08-.23L73,85.55l-.28-.18,0-.15L72.59,85l-.12-.14-.16-.23-.08-.25-.13-.21L72,84l-.14-.11v-.29l-.21-.1-.1-.16.19-.48.11,0,.27-.14.25-.06,0-.11.21-.16.34-.07.05-.1.27-.23.11.08.31-.06.18.19.2.25-.13.2.32.16.08.21.15.22,0,.16.14.24.14.13.1.32.12.15.09.24.14.19.21.12,0,.3.24.29.19.3,0,.28.12.1,0,.18,0,.32,0,.19-.13.27v.19l-.1.13-.11.29.05.15h.14l.34,0,.17-.1.23.14.22.14h.29l.07.14.27,0,0,.36.1.11.25.4.15.27.26.12.15.19.06.1.12.28.1.25.14.23,0,.15.13.23.38.33v.32l.27.11,0,.23.27.11v.27l.17,0-.08.35-.15.12-.27.07,0,0-.26.2h-.2l-.24.28h0l-.2.11-.32.15Z"/><path id="a87259a2-cc03-4d66-9fa3-ee98d91da206" data-name="Path 9055" d="M82.08,90.28l-.12-.1L81.71,90l0-.22-.06-.14-.36-.14,0-.1-.12-.34-.11,0-.19-.28-.12-.1-.12-.26-.23-.11-.13-.16L80,88l0-.27-.2-.08-.12-.28h-.15l-.23-.27L79.14,87l-.07-.31-.22-.11.05-.17-.25-.09-.13-.3-.1-.11-.19-.19-.14-.23-.2-.07-.09-.21L77.73,85l-.25,0-.09-.34-.26-.1-.11-.2,0-.21-.12-.21-.26-.11,0-.26-.24,0-.15-.21,0-.22-.13-.3-.25-.07-.09-.22,0-.16-.29-.12-.1-.1L75.13,82l-.26-.17-.1-.19-.13-.17,0-.17,0-.37.12-.11L75,80.6v-.1l.25-.19.22-.13.17-.16.2-.13.14-.21.07-.06.33,0,.22.14.08.19.26.11,0,.23.13.24.3.12.09.1,0,.23.17.27.16.22h.24l.08.17.14.24.18.17.18.17,0,.28.14.15.15.11L79,83l.29.09.05.34.25,0,.12.33,0,.08.09.22.16.19.26.11.11.23.12.17.14.15.15.22.15.19.23.11,0,.25.19,0,0,.25.25.19.09.18.22.16.1.1.13.19.07.2.36.13,0,.13.12.36.18,0,.07.25.26.15v.16l.17.22.13.13.16.14.23.18,0,.31-.25.24-.15.16-.16.07-.09.09-.18.07L83,90l-.26.2-.33.11,0,.19Z"/><path id="a40b1a84-2af3-415a-83e3-f2ed6b469359" data-name="Path 9056" d="M79,77.25l.28.09.09-.06L79.4,77l0-.3.09-.2,0-.2v-.21l.16-.23,0-.12.27-.3.19-.37.16,0,.13-.2.29-.09.08,0,.25-.21.28-.06.26,0,.16,0,.26.13h.22l.12,0,.23.12.22.09.29.08.08.23h.18l.33.33.24,0,.1.27.2.21.18.06.17.21h.2l0,.24.27,0,.16.31h.16l.32.19v.25l.27.11.23.09.09.08.14.31h.24l.07.15.2.27.24.09v.15l.21.12.23.08.15.23L88,79l.17.2.2.22.19.1.12.16.18.08.26.07.1.26h.25l.08.34.15.12.15.08.16.18.25.1.18.1.18.09.13.31.19,0,0,.39-.17.14-.12.18-.1,0-.16.27-.2.19L90,82.8l-.17.23,0,.13-.24.25h-.3l-.23-.12L89,83,88.79,83l-.27-.17-.07-.23-.11-.08-.27-.17L88,82.13,87.77,82l-.19-.1-.23-.14-.09-.13-.1-.15-.35-.1-.13-.19L86.57,81l-.08-.16-.18-.15-.26-.11-.14-.12-.13-.25-.23-.14-.2,0-.16-.12L85,79.69l-.17-.18-.06-.11-.25-.2-.23,0-.15-.22-.06-.11-.26-.06-.12-.18-.29-.18v-.2h-.3l-.1-.24-.12-.14-.26-.06-.2-.15-.12-.32L82,77.17,81.74,77l-.21,0-.1,0-.31.13-.16.12-.35.32,0,.2-.08.22.11.18.12.18.32.39.09.24.29,0,.07.26.23.12.08.14.24,0,.14.36.23,0,.17.22.16,0,.15.21.11.19.28.07,0,.24.29,0,.16.13.19.27h.15l.2.17,0,.26.18.14.28.16.13.07.19.17.18.25.14.1.12.18.19.13.22.13.07.18.22.18.32.05v.14l.17.21.21.08.2.17.06.18.32,0,.17.24.16.14.17.09v.38l-.22.19-.18.19-.14.17-.09.18-.21.13-.07.27-.32.36-.18,0-.33,0,0-.18-.25-.12-.17-.07-.17-.19L85.57,86l-.2-.23-.12-.14-.27,0-.2-.22,0-.17-.28-.11-.19-.2-.14-.12L84,84.64h-.17l-.08-.28-.12-.14-.3-.18-.18,0-.22-.13,0-.19-.12-.18-.16-.16-.35-.07-.1-.2L82,82.84l-.25-.08-.11-.12-.16-.13-.15-.19-.18-.13-.5-.24-.06-.19-.14-.26-.12-.1-.22-.15L80,81.18l-.17-.1L79.55,81l-.11-.35-.19.06-.14-.15-.23-.18-.15-.3L78.5,80l-.08-.25-.07-.06-.26-.15-.16-.11-.16-.14-.24-.15-.1-.11v-.42l.12,0,.13-.14.25-.31L78,78l.1-.2.18-.1.2-.19.11-.21Z"/><path id="b668d984-4f5b-4141-bb40-32251eb266e0" data-name="Path 9057" d="M95.63,73.56l-.35-.1-.19,0-.12.13.22.1,0,.2,0,.29.08.11v.2l-.14.34.06.3,0,0,0,.29-.15.29-.14.35-.18.16-.12.31-.23.14-.08.13V77l-.31.23-.07.1-.19.23-.13,0-.25.28h-.06l-.27.14-.25,0-.26.16-.17,0-.29,0h-.13L91.51,78l-.08-.1L91,77.78l-.24-.18-.27-.08-.1-.1-.13-.24L90,77.07l-.24,0-.19-.13h-.21l-.13-.16-.11-.17-.31-.15-.14,0-.28-.16-.19-.12L88,76,87.72,76l-.21,0-.15-.06-.23-.14L87,75.53l-.23-.14-.28,0,0-.09-.32-.09L86,74.94h-.14l-.31-.1-.25-.1-.07-.12L85,74.48l-.2-.09-.24,0-.2-.27L84,73.91l-.24-.11-.12,0-.11-.31h-.21l0-.27-.15-.27,0-.18L83,72.61l0-.22-.1-.16V72l.08-.23,0-.33.12-.23,0-.1.07-.31v-.12l.13-.3,0-.22.13-.14.15-.44.23-.16.06-.2.13-.15.15-.28.11,0,.14-.11.14-.35.23,0,.1-.15.15-.11.22,0,.25-.1.15-.09.24-.07.29-.07.2,0,.15,0h.24l.26.24.17,0,.37.06.23.2.19,0,.13.12.2.2.18,0,.26.18.18.2.22.06v.17l-.07.32-.12.11-.16.19v.19l-.18.22-.06.27-.22.41-.19.19L88,71l-.22-.09-.18-.18-.28,0-.16-.05L87,70.6l-.12-.28-.42,0-.19-.1L86,70.3h-.28l-.12.25h-.06l-.2.38-.23.33.1.17,0,.22.26.12.06.17.35.16.26.21.17.06.21.16.16.15.29-.06.11.16.18.11.25,0,.07.26.4.21.26,0,.21.13.23.07.15.1.22.19h.28l.1.12.23.13h.18l.29.15.15.27.15.11.15,0,.24,0,.21.11.18.28.17,0,.25,0,.37.13.2.11.25.12.19-.29.16,0L93,75l.14-.26.13-.39-.09-.16V74l-.13-.1,0-.25-.48-.22h-.18l-.23-.22-.18.1L91.8,73l-.11-.08-.2-.09-.24,0-.31-.13-.25.21-.11.11-.42.33-.27-.16-.11-.06L89.63,73l-.22-.09-.29,0L89,72.76l-.23-.29v-.24l0-.23.06-.1.13-.3.1,0,.12-.29,0-.21.17-.13.12-.18-.06-.14.2-.38.1-.15.1-.06,0-.22.16-.27.39-.06.09.16.16,0,.26,0,.14.25h.33l.15.07.14.23.24,0,.22.23.2.06.06.1.33.12.16,0,.3.06.06.16.31.15.14.09.13.17.25.1h.25l.19.22.16,0,.29,0,.06.2.32.05.15.1.19.12.19.06.22.14.11.26-.14.33-.11.14-.09.1Z"/></g><path id="a378103f-4ef5-40cb-bfea-3529c731fcea" data-name="Path 9058" d="M82.58,53.93a31.77,31.77,0,0,0-.36-4.35,10.45,10.45,0,0,0,.09-1.08A5.24,5.24,0,0,0,82.17,47a14.11,14.11,0,0,0-.37-1.42c-.31-.93-.81-1.8-1.23-2.77s-.9-1.6-1.34-2.38c-.28-.59-.66-1.12-1-1.69l-.51-.83c-.17-.28-.38-.53-.57-.8L76,35.57l-1.31-1.45c-.22-.24-.43-.49-.67-.71l-.72-.66c-.49-.43-1-.9-1.46-1.29a28.29,28.29,0,0,0-3.21-2.23A6.06,6.06,0,0,0,67,27.84a6.93,6.93,0,0,0-1.31-.5c-.43-.13-.85-.24-1.34-.36-.64-.19-1.26-.4-1.87-.62s-1.23-.35-1.83-.54c-1.19-.42-2.41-.64-3.61-.94a5.61,5.61,0,0,0-.91-.17l-.92-.12c-.62-.08-1.23-.14-1.85-.16s-1.25,0-1.88.07c-.32,0-.63,0-1,.09l-.94.2a36.37,36.37,0,0,0-8.43,3.06c-.49.25-1,.47-1.48.75l-1.42.87-.72.44c-.24.16-.46.34-.68.5l-1.35,1a16.81,16.81,0,0,0-1.27,1.11c-.41.39-.85.74-1.23,1.15l-1.14,1.25-.56.63-.51.67-1,1.35c-.33.46-.6,1-.89,1.43l-.76,1.06-.64,1.1a16.6,16.6,0,0,0-1.63,4c-.17.67-.28,1.35-.42,2l-.19,1c0,.33-.07.66-.11,1L24.9,51c0,.41-.08.82-.14,1.23l-.28,1.6a11.61,11.61,0,0,0-.05,1.67,11,11,0,0,0,.39,2.06c.05.61.12,1.2.2,1.75A15.48,15.48,0,0,0,25.19,61c0,.28.1.57.18.91a6.08,6.08,0,0,0,.4,1.18c.16,0,.33.21.49.3l.13.32.29,1.86c.2.25.4.47.59.69A8.33,8.33,0,0,0,29.93,71c.26.4.54.79.85,1.19a4.64,4.64,0,0,0,.64.69l.65.57c.44.36.85.7,1.31,1l.35.32c.49.53,1,1,1.34,1.49a6.91,6.91,0,0,1,1.07,1.44l.69.28a4.79,4.79,0,0,0,1.06.84,16.42,16.42,0,0,0,1.44.82,5.93,5.93,0,0,0,2.57.65l.12.06a10.26,10.26,0,0,0,1.1.55A9.46,9.46,0,0,0,45,82a12.39,12.39,0,0,0,2,.43,12,12,0,0,0,2.15.43,30.35,30.35,0,0,0,11-.55l1-.26,1.25-.21a12.55,12.55,0,0,0,1.23-.4,11,11,0,0,0,1.32-.58c.53-.21,1-.47,1.55-.71a14.07,14.07,0,0,0,1.49-.78c.47-.3.92-.61,1.36-.93.22-.16.44-.31.65-.48l.58-.54.08-.06,1.48-1c.09,0,.07.12.18.12l1.24-1.28c.21-.22.43-.43.66-.64s.42-.44.64-.66.1.13.15.12c.63-1,1.15-1.36,1.36-.91.15-.31.57-1,.71-1.38a3.54,3.54,0,0,0,1-.91c.1-.11.19-.24.29-.37l.28-.44c.18-.31.37-.63.56-1s.37-.68.54-1,.29-.71.41-1c.25-.67.45-1.27.56-1.69a23.71,23.71,0,0,0,1.57-4.08c.16-.54.29-1.08.4-1.63a11.4,11.4,0,0,0,.12-1.16c0-.62-.08-.94-.34-1a13.75,13.75,0,0,0,.14-1.7L82.58,54h-.5v-.07L82,54h-.91v.21l-.19-.05c0,1,0,1.81,0,2.64s-.19,1.62-.33,2.44a26.36,26.36,0,0,0-1,2.8c-.19.46-.37.94-.55,1.43a15.2,15.2,0,0,1-.54,1.47l-.89,1.85A28.06,28.06,0,0,1,73,73c-1,.92-2.23,1.87-3.2,2.75a3.28,3.28,0,0,0-.31.34c-.25.18-.48.39-.75.55l-.79.49c-.53.32-1,.7-1.58,1l-1.66.86-.42.22-.43.18-.87.36-.77.28a5.4,5.4,0,0,1-.78.24H61c-.57,0-1.07,0-1.54,0s-.94,0-1.42.05-1,.08-1.52.16l-1.89.11a24.38,24.38,0,0,1-9.89-1.65,43,43,0,0,1-8.76-4.7c-.52-.37-1-.72-1.54-1.09L33,71.92a27.55,27.55,0,0,1-5.32-9.28A8.29,8.29,0,0,0,27.26,61c.24-.14.32-.6.28-1.24,0-.31,0-.68-.06-1.08s-.07-.82-.13-1.25l-.09-.65c0-.22,0-.45-.05-.67,0-.44-.07-.88-.11-1.29-.11-.83-.1-1.56-.14-2-.07-.09-.14,0-.2-.07,0-.27,0-.57,0-.9a7.41,7.41,0,0,1,.07-1.05c.1-.74.19-1.55.31-2.33s.39-1.51.57-2.14a5.64,5.64,0,0,1,.66-1.43,20.49,20.49,0,0,1,.34-2.22l.58-1.21c.1-.2.19-.41.3-.6l.35-.58c.36-.29.71-.51,1.06-.75a4.7,4.7,0,0,0,.52-.39,5.18,5.18,0,0,0,.58-.47,3.28,3.28,0,0,1,.71-2.08,18.48,18.48,0,0,1,1.79-2.06l1-.8a12.48,12.48,0,0,1,1.18-.94c.09,0,.15,0,.17.05A11.16,11.16,0,0,0,38,32a9.53,9.53,0,0,1,1-.76.39.39,0,0,1-.08.14A3.87,3.87,0,0,0,41,29.62l.7-.33c1.32-.45,2.4-.45,3.81-1,.75-.21,1.53-.46,2.31-.76a8.22,8.22,0,0,1,1.2-.34c.41-.1.81-.2,1.21-.28l.65-.13.56-.07.95-.17a30.33,30.33,0,0,1,3.93.07c.65.07,1.29.19,1.94.28l1,.16,1,.24a39.36,39.36,0,0,1,7.7,3.44c.33.2.69.41,1,.65l1,.8c.36.26.73.5,1.07.74a7.6,7.6,0,0,0,1,.65l0,0a27.67,27.67,0,0,1,6.66,9.19,27.2,27.2,0,0,1,2.37,11.1ZM75.34,73l.67-.74.59-.8h.08l-.63.8c-.23.26-.47.5-.71.75Zm4.12-5.66h0l.09-.16Z"/><path id="fbdb391f-feb1-412e-b091-9614fd3917f1" data-name="Path 9059" d="M107,53.93a60.17,60.17,0,0,0-.6-8c0-.57,0-1.21-.09-2a30.42,30.42,0,0,0-3.17-10.43c-.71-1.53-1.47-3-2.3-4.47A53.78,53.78,0,0,0,81.3,8.31,20.61,20.61,0,0,0,78.19,6.1c-.43-.23-.83-.42-1.21-.6l-1.16-.42c-.76-.27-1.52-.52-2.4-.81A76.87,76.87,0,0,0,59.93.61a39.6,39.6,0,0,0-13.65,0,62,62,0,0,0-15.62,5.2c-.9.46-1.81.92-2.71,1.41s-1.8,1-2.65,1.59A53.79,53.79,0,0,0,8,26.38l-1.27,2-1.16,2a39,39,0,0,0-2.95,7.33c-.18.61-.32,1.23-.47,1.84s-.3,1.21-.42,1.82l-.35,1.81c-.1.61-.19,1.21-.29,1.81S.9,46.2.83,46.79L.61,48.55c-.07.77-.15,1.52-.26,2.28s-.18,1.87-.29,3S0,56,0,56.84a37.22,37.22,0,0,0,.57,3.81c.05.55.09,1.1.17,1.64s.18,1.05.26,1.56a26,26,0,0,0,1.54,6.86c.17,0,.4.44.59.65l.23.6c.25,1.08.59,2.25.87,3.28.29.48.58.93.87,1.36a16,16,0,0,0,.77,2.14A22.7,22.7,0,0,0,10.1,85.3a24.14,24.14,0,0,0,1.59,2.17,27.08,27.08,0,0,0,2.25,2.42c.77.69,1.5,1.34,2.28,2l.63.6c.91,1,1.82,1.79,2.6,2.6a24.25,24.25,0,0,1,2.19,2.34l1.2.62a14.86,14.86,0,0,0,2,1.46A24.5,24.5,0,0,0,27.45,101a23.24,23.24,0,0,0,2.61,1.15,8.28,8.28,0,0,0,1.9.48l.21.1c.69.36,1.38.65,2.06,1a20.76,20.76,0,0,0,3.52,1.62,24,24,0,0,0,3.63.89,36.93,36.93,0,0,0,3.93.79,55.15,55.15,0,0,0,20.12-.87c.6-.15,1.22-.27,1.83-.43l2.26-.53c.74-.21,1.49-.45,2.25-.71.94-.34,1.72-.72,2.44-1a39.53,39.53,0,0,0,10.48-6.13l.16-.11c.92-.58,1.77-1.25,2.65-1.89.13,0,0,.14.22.08,1.56-1.42,3.18-3,4.77-4.63.2-.18.09.14.15.12A16.16,16.16,0,0,1,94.21,89c.38-.34.62-.38.67-.08.32-.52,1.18-1.75,1.51-2.35a20.16,20.16,0,0,0,3.71-5,39.58,39.58,0,0,0,3-6.75,49.59,49.59,0,0,0,2.75-7.51c1.19-4.64,1.22-6.65.74-7a55.36,55.36,0,0,0,.4-6.3h-.51v-.13l-.1.13h-.9v.4a.66.66,0,0,1-.19-.09,45.46,45.46,0,0,1-.82,9.6,93.89,93.89,0,0,1-3.71,10.9c-.26.55-.49,1.13-.79,1.7l-.92,1.8a55.64,55.64,0,0,1-3.89,6.17,51.21,51.21,0,0,1-4.75,5.54c-1.83,1.83-4.18,3.64-6.06,5.26-.25.2-.43.38-.64.57a55.87,55.87,0,0,1-12.4,6.76c-1,.32-1.95.7-2.94,1l-.9.14c-2.07.27-3.72.43-5.53.65-.9.12-1.86.18-2.92.32l-1.69.13c-.6,0-1.24.11-1.93.12a47.06,47.06,0,0,1-9.56-.56,51.45,51.45,0,0,1-9.43-2.51A63.93,63.93,0,0,1,19.85,92.6c-.5-.37-1-.74-1.42-1.13l-1.34-1.13c-.84-.8-1.71-1.55-2.5-2.39A51.84,51.84,0,0,1,4.53,70.4a31.53,31.53,0,0,0-.89-3.16c.43-.41-.12-3.34-.51-6.67s-.57-7.08-.6-8.94c-.06-.16-.13,0-.2-.12a55.31,55.31,0,0,1,.93-8.12,31.31,31.31,0,0,1,2.12-6.88c.28-1.33.78-2.89,1.09-4L7,31.33l.58-1.13c.38-.76.8-1.5,1.22-2.23.28-.32.54-.61.81-.88l.82-.78c.27-.27.55-.55.84-.86s.61-.63.94-1a9.07,9.07,0,0,1,1.88-3.58A34,34,0,0,1,17.53,17a51.41,51.41,0,0,1,4-3.38c.13-.05.22-.06.24,0l2-1.45c.66-.48,1.3-1,2-1.42a1.24,1.24,0,0,1-.18.22c.53-.31,1-.61,1.47-.91s.87-.54,1.23-.79A5.93,5.93,0,0,0,29.74,8L31,7.29c.61-.24,1.19-.42,1.76-.62s1.11-.36,1.68-.51l1.72-.52c.6-.17,1.23-.36,1.91-.58a60.57,60.57,0,0,1,9.06-2.34l1.24-.2,1.06-.12c.66-.08,1.24-.18,1.8-.24a57.57,57.57,0,0,1,7.43.18A53.31,53.31,0,0,1,66,3.59,64.1,64.1,0,0,1,80.69,9.94c2.49,1.49,5.57,4,7.7,5.53l.09.06a52.23,52.23,0,0,1,12.57,17.4,51.67,51.67,0,0,1,4.44,21ZM93.67,89.18l1.2-1.39L96,86.35l.11-.06-1.19,1.47C94.52,88.24,94.09,88.7,93.67,89.18Zm7.46-10.53,0,0,.16-.28Z"/><g id="e5ed3cfb-5b42-4a6a-ae23-0d7d0e4a7677" data-name="Group 6709"><g id="b35517c5-514b-4919-a387-21a6c28ef461" data-name="Group 6707"><path id="a12f6764-ec4b-4f51-ac5e-88e60968afff" data-name="Path 9060" d="M12.19,57.23l-.38-3.38,2.41,2.52,3.23-1.48L15.8,58.15,18.12,61l-3.46-.59-1.81,2.83-.38-3.4L9,58.9Z"/><path id="ade17866-8a5c-4995-a11b-c239ae19d2fc" data-name="Path 9061" d="M12.63,64.15l-.45-4.08L8.11,59l3.73-2-.45-4.11,2.9,3,3.85-1.76-2,3.89,2.73,3.33-4.1-.7ZM9.87,58.8l2.89.77.3,2.72L14.5,60l2.83.48L15.42,58.2l1.33-2.64-2.61,1.19-1.91-2,.3,2.67Z"/></g><path id="f00bb912-4395-426c-83bf-259cc630dd5e" data-name="Path 9062" d="M19.17,41.66l.15.19.23,0,.11.12h.24l.15.38.12.15.14.16.12.07,0,.32.05.3.06.18.05.06v.27l0,.37v.08l-.08.25,0,.3-.09.18.07.15-.23.48L20.2,46l0,.19-.1.19L20,46.7l-.11.14-.06.1-.11.21-.15.36-.11.13-.09.12-.18.26-.28.11-.07.06-.25.12-.24-.06-.17.19L18,48.37l-.29.12-.22-.22-.52.1-.08-.16-.29,0-.2-.11-.22,0-.15.09-.25-.2-.22-.09-.23.1-.18-.24L15,47.61l.11-.36-.06-.09,0-.28.07-.2.11-.15v-.2l.07-.31,0-.16,0-.2.39-.24.1.08.32.1h.23l.26,0,.13,0,.27.15.38.06.22,0h.19l.2,0,.09-.18.08-.28.09-.42.09-.24-.1-.2-.13-.25,0-.17H18l-.48-.17-.18,0-.1-.14-.24,0-.44-.15-.25,0-.2-.08-.19.13-.13.24h-.22l-.16.23-.14.14-.13.09-.14.25-.18.23-.16.24-.2.17,0,.16-.19.14-.14,0-.34.44-.14.1-.13.21h-.22l-.18.2-.17,0-.25.2-.24,0-.19.14L12,46.8h-.18l-.2.18-.31-.16-.37-.16-.18,0-.23,0h-.28l-.19-.25-.22,0-.52,0-.15-.17-.26,0,0-.18-.23,0-.16-.34-.14-.17-.09,0-.19-.37,0-.09-.18-.29v-.25l-.07-.08,0-.16L7.73,44l.07-.34,0-.07,0-.3,0-.1.08-.32,0-.27L8,42.27,8,42l.13-.15.11-.23,0-.11.19-.34.11-.2.13-.2.1-.2.09-.19.25-.11.15-.18H9.4l.17-.11.23,0,.19-.28.22.09.18,0h.44l.2-.14.46.13.21,0,.26,0,.19.11.21.21.23-.07.21.12.2.32-.1.21-.08.35,0,.2-.1.13,0,.26-.19.24,0,.27-.07.21-.31.09h-.26l-.27,0-.16-.11-.23-.14-.43-.1-.12,0-.31.17-.18.08-.05.2-.15.12-.08.4,0,.24,0,.24.07.28.18.08h.14l.41.29.23,0,.55.07.19,0,.15,0,.22,0,.26-.3.14,0,.19-.07.15-.26.08-.17.2-.1.14-.32.05-.11.15-.16.16-.26.15-.15.1-.16.09-.16.16-.25.17,0,.15-.21.19-.21h.2l.21-.25.19,0,.22-.17.27,0,.14,0,.24-.12.24,0h.33l.2.2.33,0,.3.09.11,0,.23.15.33,0,.2,0,.13.17.27.08Z"/><path id="f76c37e8-7fb1-4cf7-9abd-890884ff7f0e" data-name="Path 9063" d="M12.13,36.79h-.26l-.12-.1-.18-.24-.11-.12-.22-.16v-.36l-.05-.07-.07-.3L11,35.36l0-.31L11,34.8l.1-.2v-.27l.08-.17,0-.08.05-.22.06-.26,0-.34.16-.13,0-.11.3-.56.07-.05.14-.25.16-.22.12,0,.15-.33v-.09l.2-.14.13-.15.22-.08L13,31l.3-.21.19-.09.11-.06.3,0,.19,0,.16-.07.34,0,.18.13.21.05.16-.06.46.18.19.12.26.14h.12l.23.23h.14l.23.18.2.23.27,0,.1.23h.17l.24,0,.22.22.25,0,.26.08.14.1.25.08.13.06.16.17.23,0,.13.27.24.08.25,0,.26.12.14.2.19.1h.17l.25.21.1,0,.27,0,.29.11,0,.16.25.13.32,0,.28.24.18.17.16.15.16.1.22.06.07.28.13.25.06.3,0,.16.1.12,0,.25.08.16-.11.38,0,.19-.1.2,0,.14-.05.16-.11.22-.12.34-.06.15-.23.52-.15.19,0,0-.12.36-.11.08-.23.15,0,.17-.3.22-.06.15-.26.22-.22.05-.09.21h-.41l-.19,0-.21,0-.31.13L20,40.68l-.25,0H19.5l-.42-.25L19,40.31l-.3,0-.2-.1L18.36,40,18.1,40l-.16-.24-.29,0-.2-.07-.13-.27-.12-.06h-.28l-.15-.17-.34-.06-.11-.07-.27-.17-.11-.1-.22-.1-.26-.11-.13-.17-.21,0h-.29l-.1-.22-.25-.06L14.22,38l-.17-.12-.25-.08-.1,0-.2-.16-.17-.19-.25.06-.22-.1-.12-.26-.25,0Zm2.36-3.66-.18-.06-.38.08-.07,0-.18.06-.1.21-.24.38-.11.29,0,.14,0,.28.25.08.11.11.33.36.16.12.2,0h.35l0,.22.28,0,.1.19.26,0h.32V36h.24l.22.07.2.09.19.11.28.18.24,0,.18.2.13,0,.18.19h.28l.18.24.18.11.25,0,.15.21.15.06.23.07.22.16.11.08h.23l.25.2h.4l.25.1.19,0h.23l.07-.13.16-.17.17-.39.1-.31,0-.12,0-.21-.18-.09L21,36.46l-.43-.3-.13,0L20.24,36,20,36l-.19,0-.24-.24-.22-.08,0-.15-.3-.09-.17-.06-.16-.17-.29-.06-.17-.14-.13-.09-.33,0-.06-.25-.28-.13-.1,0-.27-.16-.13-.06-.29,0-.2-.17h-.26L16,33.87h-.23l0-.19-.22-.13-.19-.12H15l-.17,0Z"/><path id="ef3efe61-77d5-431e-bb14-a4aa36339d21" data-name="Path 9064" d="M23.73,27.57l.07,0,.14-.37.13,0,.17-.3.14-.07.07-.21.28-.24.08-.05L25,26l.25.07.25.21.23.07,0,.17.24.1.2.18.18.19.25.07,0,.2.33.08,0,.17.23.13.1.2.33.31.21.1.15.3.12.07.08.32.05.12,0,.13,0,.43v.07l-.13.27.09.15-.07.23-.17.27.06.14L28,31l-.14.21-.21.23,0,.25-.17.09-.06.19-.26.24-.16.29-.31.15-.05.1-.25.24h-.09l-.17.25-.21.08-.25.18-.22.08-.1.08-.27,0-.19.12-.26-.12-.23.17-.27-.09-.15,0-.16-.25-.19,0-.15-.16-.52-.18,0-.24-.2-.14-.28-.12-.13-.24-.12-.16-.17,0-.26-.1-.15-.27-.19-.14-.22-.13L21,31.58l0-.18-.21-.19-.16-.1-.3-.09-.17-.2L20,30.59l-.17.07-.15-.22-.22-.26-.16-.05L19.09,30,19,29.75l-.2-.13-.14,0-.23-.11-.23-.21-.08-.15L18,28.93l-.24,0-.12-.31-.25-.1-.11-.14-.36-.22-.09-.2-.24-.2V27.5l-.08-.18-.2-.07,0-.28v-.24l0-.16,0-.28-.18-.13.15-.23,0-.18.1-.38v-.06l.23-.29.05-.1.09-.25.09-.16.22-.2,0-.15.35-.4.12-.19.06-.1.2-.09.23-.14.19-.22.07-.06.26-.22.25-.12.18,0,.23-.14.13-.07.23-.11h.23l.22,0,.13.14.27.08.26-.09.23.17.16,0,.15.23.39.29.12.05.14.25.19.13.39.32h.17l.12.26.22,0,.13.38h.2l0,.23L23,25.1l-.11.09-.14.36H22.7l-.17.26-.18.12-.2.22,0,.15-.42-.06-.2,0-.15-.1-.22-.24-.07-.19-.2-.13-.17-.1-.2-.26-.26.06L20,25l-.17-.16-.16,0-.24,0-.27.22-.48.44,0,.2,0,.25.05,0-.1.32.26.06.26.47.22.09.17,0,.14.2.23.19.06.2.24.08.19.06.23.19.16.17v.18l.34.11.2.06v.27l.17.08.26,0,.1.28.22.16.14.13.2.06.25.16,0,.2.28.08.18.16.24.1,0,.28.25,0,.09.23.22.16.2.16.32.15.24.16.12.08.24,0,.21-.07.14-.13.38-.34.1-.24,0-.14L26,30l0-.26-.21-.1-.35-.4-.16,0L25.05,29l-.13-.14-.24,0-.14-.33-.12-.08-.34-.07-.07-.1-.19-.22-.17-.05Z"/><path id="bcc2b4d6-c3c0-401c-b901-da710ffaaefe" data-name="Path 9065" d="M29.87,28.44l-.13-.1-.26-.13L29.43,28l-.06-.14L29,27.72l0-.1-.14-.34-.11,0-.2-.26-.13-.1-.12-.25L28,26.52l-.14-.16-.17-.17,0-.27-.2-.07-.13-.28h-.14L27,25.32l-.15-.08-.07-.31-.23-.1,0-.18-.24-.08-.14-.3-.1-.11-.2-.18-.14-.23-.21-.06-.09-.22-.08-.2-.25,0-.1-.34-.26-.1-.11-.19-.06-.21-.12-.21-.27-.1-.05-.25-.23,0-.17-.22-.05-.21-.13-.3-.26-.07-.09-.21,0-.17-.29-.09-.11-.1-.09-.22-.26-.17-.1-.18-.14-.16-.05-.17v-.37l.12-.12.24-.17v-.11l.23-.2.22-.13.17-.17.2-.14.13-.21.07-.06.33,0,.22.14.09.18.26.1,0,.22.13.24.3.12.1.09,0,.24.18.26.16.21h.24l.09.16.15.24.18.16.19.17,0,.28.15.14.15.11.07.17.3.08.06.34.25,0,.12.33.05.07.09.22.17.19.26.1.12.22.12.16.15.15.15.22.16.18.23.11,0,.25.19,0,0,.26.26.17.09.18.22.16.1.09.14.19.08.2.36.12.05.13.14.35.17.05.08.24.26.15v.16l.18.22.13.12.17.13.23.17-.05.32-.23.25-.15.16-.15.08-.1.09-.18.07-.11.23-.25.21-.33.12v.19Z"/><path id="b1f37d44-380d-4e9e-8cb1-160c0ed518ce" data-name="Path 9066" d="M36.23,23.87l0-.27H36l-.06.24-.2.25v.15l-.15.21-.44.36-.06.16-.27.22-.29.12-.32.22L34,25.49l-.21.08-.22.1h-.19l-.25,0-.23-.05-.25-.09-.14-.07-.22-.14-.1-.1L32,25l-.26,0-.11-.16-.13-.26-.13-.11L31.19,24l-.28-.16,0-.19-.15-.1-.12-.25L30.56,23l-.12,0-.09-.2-.06-.27-.11-.15-.24-.23-.11-.23-.14-.3-.19-.24-.14-.21.08-.19-.15-.22.07-.19.08-.38.08-.08.06-.21,0-.2.22-.22.17-.18.1-.17.09-.08.23-.13.15-.21.23-.06.23-.2.19-.11.05-.14.22-.1.3-.31.11,0,.25-.3-.09-.26,0-.21-.18-.18-.14-.14-.08-.09-.06-.21-.2-.26-.12-.07-.1-.42L31,15.6l-.24-.13-.24-.05-.07-.06-.18,0-.51.32-.1.18-.15.18-.11.22.12.19,0,.23.22.25.12.26.23.22-.09.2.17.3-.06.21-.17.18-.2.14-.19.06-.1,0-.2.09-.14.23-.43.1-.05.05-.3.22L28,19.21l-.1-.16-.09-.23-.13-.18-.12-.28-.08-.19,0-.16-.37-.4V17.4l0-.2L26.93,17l0-.24v-.18l0-.19v-.16l.11-.19,0-.32,0-.13.24-.21v-.19l.28-.16.08-.13.16-.14.06-.18.21-.2.12-.12.21-.16.23-.09.42-.22.16-.19.12,0,.32-.2.21-.11.11,0h.18l.19,0,.22-.15L31,13l.18,0,.22.13.33-.05.13,0,.19.11.18.14.28.1.1.1.14.16.16.15.11.23.35.29v.21l.13.18.24.19,0,.13.09.28.14.23.22.12.07.13,0,.25.13.22.19.21.07.18.2.16.14.2.08.24,0,.15.21.26.19.14.08.11.06.35.22,0v.27l.2.08V19l.21.17.06.18.24.16.16.18.09.17.13.23.09.1,0,.31.15.17.17.21.1.25,0,.12.34.16.17.42L38,22l.12.17.17.25.22.14-.17.19-.21.22-.2.1-.16.06-.12.09-.28.13-.2.28h-.26l-.14.2-.12.11Zm-3-4.62-.27.2v.2l-.26.2-.1.13-.2,0-.11.27-.2.23v.3l.09.15.22.32.19.2,0,.23.1.34.27.08.08.15v.37l.26.33h.28l.06.18.28.07.27-.1h0l.42-.28.23-.09,0-.18.23-.28L35.09,22l-.22-.28-.18-.29v-.24l-.15-.05-.05-.22-.24-.17-.14-.14-.05-.22-.18-.23-.14-.23v-.13l-.15-.3-.13-.1Z"/><path id="ef2c89d0-5a80-4872-91ab-95f37acbfd56" data-name="Path 9067" d="M39.35,22.19l-.16-.27v-.19L39,21.58v-.3L39,21.07,38.75,21l0-.27v-.15l-.2-.23,0-.34-.08-.21,0-.17-.11-.13-.09-.27V19L38,18.89l.06-.31-.12-.19-.22-.21,0-.26,0-.16-.22-.19.14-.21-.27-.2-.13-.27.08-.26-.22-.16,0-.2.09-.18-.28-.2.07-.19-.13-.24-.09-.17-.15-.2-.13-.3v-.38l0-.27-.11-.22-.18-.15v-.22L36,13.3l-.12-.08,0-.32v-.27l-.07-.12-.22-.27-.15-.17,0-.21-.13-.1-.12-.28v-.21l0-.25.19-.3h.18l.12-.1.18-.12.24,0,.21-.11.29-.16.09,0,.33-.17.1-.05.41.18.16.18.1.25,0,.22.15.16.06.16v.22l.2.27,0,.14,0,.3.09.14,0,.23.19.14v.28l.05.17.18.31.1.08,0,.3.11.28.14,0,.07.3.08.21.13.23,0,.24.1.2.13.18-.12.18.18.22.1.27.09.2,0,.23.15.07,0,.24.16.26,0,.2.21.22-.14.18.25.21,0,.29,0,.19.13.12,0,.21.16.26,0,.18.16.2.25.16.3-.1h.17l.19-.09.31-.15.12-.06.21-.11.32,0,0-.14H43l.21-.13.46.18,0,.22,0,.23,0,.23.2.14,0,.21-.1.2.25.19-.15.31-.22.07-.18.06-.15.14-.29.09H43l-.24.12-.33.09-.09.05-.33.15-.08,0-.21.11-.15.07-.33.14-.13,0h-.27l-.15.09-.32.12-.1.1-.22.05-.36.18h-.13Z"/><path id="b13bc6f2-e289-4d45-be3b-6cfb1aa7e92a" data-name="Path 9068" d="M53.27,17.32l-.13.21,0,.24-.08.14.09.23-.3.27-.1.16-.1.19,0,.14-.28.13-.27.15L52,19.3l0,.06-.25.1-.36.1-.07,0H51l-.27.12-.2,0-.12.12-.53,0-.28,0-.17.09-.21,0-.36,0-.18-.06-.1,0-.24,0-.4,0-.15-.06-.14,0-.31-.08-.2-.23-.08,0-.2-.2,0-.24-.24-.1,0-.18-.22-.23.13-.28-.27-.45.12-.14-.07-.27,0-.23,0-.22-.13-.1.1-.31v-.24l-.17-.18.17-.26,0-.14.37,0,.07-.08.28-.06h.21l.18.06.19-.07.31,0,.16,0,.21,0,.35.28,0,.12,0,.35.08.21.13.23v.13l0,.3.07.38.1.2.06.18.11.16.2,0,.3,0,.42-.06h.26l.15-.16.18-.22.16-.09-.07-.2v-.5l-.07-.18.09-.14L50.58,16v-.46l-.12-.23v-.21L50.28,15l-.27,0L50,14.71l-.28-.08-.17-.09-.13-.09-.29,0-.28-.09-.28-.06-.22-.13-.16,0L48,14l-.07-.12-.53-.17-.14-.09L47,13.6l-.07-.22-.24-.09-.09-.16L46.28,13l-.11-.21L46,12.63l0-.27,0-.18-.24-.12,0-.35,0-.41-.09-.15-.07-.22-.1-.25.16-.28-.1-.2-.14-.49.1-.21-.05-.24.15-.11-.05-.22.25-.27L46,8.47l-.07-.07.28-.31h.09l.21-.26.23-.1.05-.1.16,0,.26-.21.34,0,0-.06.3-.06.08-.09.32,0L48.51,7l.34,0,.32,0,.18.07.26,0,.1-.06.38.07.23,0,.23,0,.22,0,.21,0,.19.19.22.08,0,.11.16.12.13.2.32.08v.24l.09.16.07.23.06.19.21.14,0,.48,0,.2.05.26,0,.22-.12.26.14.2,0,.24-.23.3-.23,0-.35,0-.21,0-.15-.06-.23.13-.3-.09-.24.12h-.22L50.19,11l-.09-.24L50,10.53l.06-.18,0-.26L50,9.65l-.07-.1-.26-.24-.14-.14-.2,0-.18-.08-.39.05-.22.12-.23.07-.23.16v.2l0,.13-.12.49.12.2.13.54,0,.19.09.13,0,.22.37.14.08.12L49,12l.3.05.18,0,.17.14.34,0,.12,0,.2.09.31.05.19.09.18,0,.18,0,.29.06,0,.18.25.06.26.11.07.18.31.12,0,.19.24.14,0,.28.08.11.2.19,0,.23.11.32-.13.25.14.3,0,.31v.12l-.06.26.14.3.09.18-.12.18,0,.28Z"/><path id="ae0556d3-05d7-4a43-8ada-02bf5f9e1dec" data-name="Path 9069" d="M55.42,9l-.1-.25,0-.15.16-.25.08-.14L55.68,8,56,7.85l.06-.07.25-.17,0-.16.3,0,.22-.16.22,0,.25-.09.19,0,.07,0,.22,0,.26,0L58.43,7l.18.09L58.69,7l.64.08.07.06.28,0,.26.08.08.09.35,0,.1,0,.19.14.18.07.16.18.17.08.31.21.15.14.1.09.13.26,0,.2.12.12.14.32-.06.22,0,.21.1.13v.5l0,.22,0,.29,0,.12-.14.29.06.13-.09.27-.15.27.14.24-.19.17.07.16,0,.23-.12.29,0,.24v.27l0,.18,0,.25,0,.15-.1.21,0,.23-.21.22V15l.05.25,0,.28-.14.21,0,.21,0,.15-.11.32,0,.09,0,.27v.32l-.14.07,0,.28.09.31-.13.35-.1.22-.08.2,0,.19,0,.23-.24.16-.19.2-.26.17h-.16l-.08.14-.26.05-.12.13-.4,0-.16.1-.22,0h-.32l-.25,0h-.52l-.57,0L57,19.74H56.6l-.11-.07-.22-.16-.17,0-.3-.2h-.17l-.29-.17-.13-.2H55l-.08-.15-.1-.23-.1-.16-.08-.18L54.39,18l.09-.23-.13-.22-.06-.22.08-.48.11-.15-.09-.3,0-.22.17-.18-.16-.22.18-.24-.07-.28v-.2l.2-.22,0-.14-.1-.26.11-.2-.06-.34,0-.13.06-.31.06-.14v-.24l0-.28.11-.18,0-.22-.08-.27L55,12l0-.25,0-.29,0-.2V11l0-.1.09-.25.11-.22-.14-.21V9.93l.2-.2-.06-.25Zm4.24.94v-.2l-.2-.32L59.4,9.4l-.12-.15h-.23l-.44-.1h-.32l-.11.09-.28.06,0,.26-.06.14-.23.44-.05.19,0,.21.11.33-.19.11.06.27-.14.17,0,.26.1.29-.22.1.08.24v.44l0,.23-.07.32,0,.23-.11.24.06.11-.12.24.09.27-.16.25,0,.2.06.25-.14.21v.16l0,.24-.08.26,0,.13.08.22-.1.3L57,17v.27l.1.16.08.22h.15l.21.1.42,0h.32l.13,0,.19-.08,0-.21.17-.14.13-.51v-.39l0-.24,0-.2.14-.32V15.4l.13-.09,0-.32v-.18l.1-.21,0-.29.06-.2,0-.16-.14-.29.21-.15,0-.31v-.1l0-.31,0-.14-.12-.27.08-.25-.09-.23.13-.26-.06-.21.16-.12,0-.25,0-.22-.09-.28,0-.16Z"/><path id="b131db38-1387-4d6b-b551-589922b01f96" data-name="Path 9070" d="M62,20.09l0-.28.05-.17.15-.17,0-.34.15,0,0-.38.2-.13.06-.14-.07-.27.07-.27.13-.15.05-.33.12-.17,0-.18.18-.23,0-.1-.07-.33.26-.12,0-.18-.06-.33.1-.26.07-.07.16-.22.07-.29.1-.23-.08-.23.1-.19L63.9,14l.13-.18,0-.11.16-.25,0-.26,0-.15.07-.35,0-.12.09-.23.22-.1,0-.31.18-.22,0-.21V11.4l0-.36L65,11l.08-.27.06-.28-.08-.15.25-.25,0-.25.08-.18,0-.22-.06-.29.23-.16-.14-.19.38-.2.32.16.21,0,.23.14,0,0L67,9l.25.06.24.11.11,0,.27,0h.19l.29.11.27.13h.08l.15.11.24,0,.31.16.3.1.15.13L70,10h.26l.21.29-.09.31-.23,0,.1.27-.16.3-.16.17.08.2-.13.3L69.7,12l-.3,0-.32-.13-.17,0-.18-.06-.27-.1h-.13l-.15-.17-.25-.07-.28,0-.24.11,0,.3-.12.12,0,.32-.19.1v.24l0,.17-.16.29.07.15,0,.2-.2.31,0,.1.26.32,0,0,.2.16.29.11.22,0,.13,0,.33.15,0,.07.3.1.15,0,.19.25,0,.37-.13.06.07.32-.19.15-.06.23-.08.21-.06.28-.25.06-.22,0-.19,0-.31-.15h-.11l-.12-.1-.3-.08-.28-.09-.09-.06L66.23,16l-.46.18v.17l0,.34-.17,0-.07.24-.08.2.11.23-.26.24,0,.26-.1.19-.07.15v.21l-.06.2,0,.23-.08.25.06.21-.24.2-.07.26.09.17-.16.21v.28l-.18.1,0,.35-.31,0-.32,0-.15,0-.17-.05-.24-.22-.11,0-.4,0-.18-.09-.06,0h-.25Z"/><path id="b1e0da68-03b2-4d4e-9dfb-6c1545f5c60f" data-name="Path 9071" d="M68.44,22.32l.07-.1.12-.17.11-.21.18-.22.1-.12,0-.21.08-.21.14-.22.1-.21v-.22l.13-.22.13-.13.29-.25-.09-.18L70,19.5v-.3l.13-.11.09-.27.18-.16.1-.29,0-.09.19-.2.17-.23.11-.14.08-.26,0-.15.18-.31.13,0,.09-.34.07-.2.2-.1,0-.24.1-.13.05-.26.12-.17.23-.27,0-.25.2-.15.31-.59.14-.15,0-.28.09-.17-.08-.21-.35-.19-.13-.16-.24,0-.23-.2-.11-.06-.11-.18,0-.37.1-.19.2-.06.06-.28.12-.14.1-.32.13-.12.32,0,.09,0,.3.07.21.21.14,0,.23.19.22,0,.09.08.38.14.05.18h.28l.11.18.18.07.23.12.34,0,.1.1.23.07.08.2.18,0,.24.11.24.17.3.08.19.05.18.15.14.08v.34l0,.17-.07.26-.15.07,0,.39-.16.15L77,15l0,.16-.36.14-.09-.08-.3-.13-.15,0L75.92,15l-.3-.17-.19-.05-.33.06,0,.21-.14.14-.06.31-.17.14-.06.22-.1.23-.13.19-.2.18-.08.16-.09.27L74,17l-.11.14-.1.19,0,.29-.24.13,0,.23-.17.23,0,.19-.27.1,0,.41-.28.1-.08.16-.08.25,0,.1-.09.33-.12.18-.08.25-.19.13-.07.17,0,.29-.28.36,0,.22-.18.09-.14.28,0,.14-.18.19-.15.22,0,.26,0,.24-.09.07-.16.15-.1.36-.14.16h-.29l-.25,0L70,23.46l-.18-.18-.26-.08-.18,0-.23-.08L69,22.91l-.19-.1-.3-.09Z"/><path id="fa672f04-b7cd-4ced-a14f-31f8f090e3eb" data-name="Path 9072" d="M77.11,28.25l.11-.3.2-.09.08-.11v-.28l.33-.18,0-.2,0-.25.13-.15.12-.21.12-.13.25-.14.21-.17,0-.13.21-.23.12-.16.16-.17,0-.28.1-.1.15-.29.19,0L80,24.4l-.06-.25.18-.11.22-.09,0-.28.31-.18,0-.22.08-.13L80.9,23l.21-.06.08-.4.14,0,.06-.21.24-.07.05-.26.19-.26.2-.14.08-.16.21-.13v-.08l-.34.12,0,.25-.17.22-.15.15h-.17l-.21.17-.17.15-.14.25-.1.13-.18.12-.25.06-.07.33-.23,0-.14.31-.1.17-.14.12-.35.13-.16.16,0,.26-.17.06-.14.16-.13.24-.18.07-.21.11-.1.25-.24.05-.12.31-.17.15-.13,0-.24.18L77.3,26l-.22.24-.11.17-.13.06-.31.15-.11.1-.22.21-.13.2-.06.22-.38-.13-.11-.07-.15-.22-.24-.11L75,26.58l-.24-.15-.21-.12-.07-.15-.13,0-.29-.19-.11-.1-.2-.27-.17-.17-.16-.06-.25-.28v-.27l.21-.07.1-.27.15-.15.12-.27.11-.1.12-.19.11-.29.11-.18.18-.1.19-.15,0-.26.16-.22.09-.08.19-.17.2-.14v-.24l.27-.16.1-.21.1-.17.16-.11L76,21l.11-.24.11-.22.08-.17.15-.11.23-.25.1-.18,0-.18.29,0,.1-.35.08-.23.06-.12.24-.06,0-.31.27-.13.06-.27.16,0,.12-.15.11-.34.15-.14.2-.16.08-.17L79,17l-.08-.18.3-.24.1-.2.17-.13.07-.24.11-.08.19-.17.16-.23.09-.22.07-.25.3,0,.17.09.12.18.3.23.27.34.24,0,.12.2.15.21.2,0,.16.14,0,.42-.1.11-.22.24-.26.07-.05.29-.09,0-.2.27,0,.16-.26.07-.14.16-.13.35-.18.05-.12.18,0,.31-.19.05-.06.3-.23,0-.14.23-.09.2-.23.17-.16.18-.08.09-.14.3L79,21,79,21.2l-.12.13-.23.18-.13.17-.06.21-.12.17-.31.09,0,.25-.27.13-.14.16,0,.32-.24.11-.19.15,0,.21-.33.13,0,.27-.18.06-.24.24v.14l-.13.3-.19.17v0l.12-.25h.23l.17-.15.14-.34L77,24l.1-.29.1-.19.18-.1.16-.17.25-.15,0-.18.29-.2.1-.16.09-.08.17-.17.28-.16.21-.13.06-.14.13-.16.11-.2.28-.19.1-.07.21-.15.24-.15,0-.16.28-.13.11-.12.1-.25.25-.14,0-.24.15-.11.13-.16.26-.17.13-.08.13-.28.26,0,.11-.24.14-.16.29-.1,0-.23.3-.07.1-.13L83.1,18l0-.11.36,0,.14,0,.18.3.17,0,.17.26.29.1,0,.11.19.21.15.11.12.15.21.1.3.28-.07.24-.17.13-.1.28v.12l-.14.23-.18.1-.17.13L84.4,21v.27l-.29.06-.14.21,0,.27v.12l-.2.14-.12.23-.22.14-.15.17-.1.27L83,23l-.07.17-.16.3-.23,0v.29l-.3.14,0,.19-.11.26-.13.08-.15.26-.18.12,0,.19-.3.15-.17.19-.1.15-.07.24-.14.23-.19.11-.11.08-.16.2,0,.31-.13.22-.07.07-.18.19-.18.13-.16.22-.13.14.11.15.18-.23.15-.15.1-.14.09-.24.26-.14.15-.17v-.16l.35-.11L81,26.3l.13-.2.13-.26.24,0,.07-.21.15-.13.13-.24.14-.14.36-.06,0-.25.2-.12.11-.16.12-.15.22-.2.21-.18.11-.08.19-.15.07-.2.23-.07.2-.24V23l.3,0,.06-.24.2-.2.11-.09.16-.2.29-.11.14-.14.13-.15.09-.28.24-.12.05-.08.2-.23.18-.16.1-.25.15,0,.32-.08.22.13.2.2.08.19.19.05.21.18.08.19.22.21.17.17.08,0,.35.21,0,.27-.29.1-.15.12L88,22.8l-.24.17-.12.2-.16.16-.22.14,0,.16-.17.29-.22,0-.23.18,0,.14-.3.14-.06.29-.16.06-.26.11-.12.23-.15,0-.11.24-.17.15-.15.12-.13.26-.28.06,0,.25-.29.1-.21.1-.07.23-.11.1-.19.11-.17.33H83.4l-.15.2-.15.24-.14.16h-.23l-.12.18-.18.26-.08.16-.23.2-.18,0-.27.16,0,.22L81.5,29l-.13.21-.27.16-.18.07-.21.22,0,.1-.16.25-.12.23-.26.07-.21.15-.09.06-.3.07-.19-.16-.21-.23-.09.08-.16-.23-.32-.22-.13-.08-.15-.17-.13-.19-.22-.22-.22-.13L77.5,29l-.09-.21-.12,0L77,28.55Z"/><path id="a1830e1a-ba86-4c39-8404-34d9a6011cd1" data-name="Path 9073" d="M83.15,35.53l.27-.06v-.2l-.25-.05L82.91,35h-.15l-.22-.14-.37-.43L82,34.41l-.23-.26-.14-.28-.22-.32,0-.17-.08-.21L81.27,33v-.19l0-.25,0-.24.09-.25.07-.14.13-.23.1-.1.14-.24,0-.26.15-.12.25-.13.1-.14.44-.17.15-.29.2,0,.09-.16.24-.12.31-.08,0-.12.19-.09.27-.07.14-.11.22-.26.23-.11.3-.15.23-.21.21-.13.19.07.22-.16.19.07.38.06.08.07.22.06.2,0,.22.2.18.17.18.1.09.08.13.23.22.14.06.23.2.22.12.19.14.05.11.21.32.29,0,.11.3.25.26-.1.21,0L90,31l.14-.14.09-.08.21-.07.25-.21.06-.12.42-.12.07-.24.13-.25,0-.23,0-.08,0-.18-.33-.5-.19-.09-.18-.14-.23-.1-.19.12-.23,0-.24.23-.25.13-.22.24-.2-.09-.3.18-.21-.05-.18-.17-.14-.19-.07-.18,0-.1-.1-.2-.23-.14-.12-.42,0-.05-.23-.29,0-.32.16-.1.23-.1.17-.13.28-.13.19-.09.15,0,.39-.39h.22l.2,0,.24-.16L90,26h.18l.19,0h.16l.2.1.31,0,.14,0,.22.22h.18l.17.28.14.07.14.16.18.06.21.19.12.12.18.2.09.23.24.41.2.15-.05.12.21.31.12.21,0,.12v.17l0,.2.16.21.1.34,0,.19-.12.22.05.32,0,.14-.1.2-.13.17-.09.3-.1.1-.16.14-.14.16-.23.12-.27.36h-.22l-.18.13-.17.25-.13.05-.28.09-.22.15-.12.22-.12.08-.26,0-.21.14-.21.19-.17.08-.15.21-.19.14-.25.09-.15,0-.25.22-.13.19-.1.09-.35.07V35h-.27l-.08.2H88l-.16.21-.18.07-.15.24-.17.17-.17.1-.23.13-.1.1-.31,0-.16.16-.2.18-.25.11-.13,0-.14.35-.41.18-.11.08-.17.12-.24.18-.14.22-.19-.16-.23-.2-.11-.2L84,37l-.1-.12-.14-.29-.28-.18,0-.25-.2-.14-.11-.12Zm4.52-3.18-.21-.25h-.2l-.2-.26-.13-.09-.05-.2-.28-.1-.23-.18h-.3l-.15.1-.31.22-.19.2-.23,0-.33.11-.07.28-.16.08-.37,0-.32.26v.28l-.17.07-.06.28.1.27v0l.3.42.09.22.19,0,.29.22.31-.07.27-.23.29-.19.24,0,0-.15.22-.06.16-.25.14-.14.21-.06L86.8,33,87,32.9h.13l.28-.16.09-.13Z"/><path id="e27f6fe6-756f-4f86-ac07-fca7c78fe900" data-name="Path 9074" d="M86.66,42.64l.15.06.27-.18.17-.13.18,0,.25-.17.13-.16.22.06.23-.2.49-.11.23-.07.1-.13.19,0,.24-.12h.15l.32-.17.18,0,.37-.24.24,0L91,40.9v-.15l.13-.4.07-.07L91,39.91l-.11-.41-.11,0,0-.27-.37-.15-.15,0-.11.24-.32.08-.26,0-.07,0-.25,0-.22.27-.24-.06-.22.13h-.2l-.14.07L88,40l-.22,0-.23.15-.16,0-.28.14-.12.16-.23,0-.17.13-.21,0h-.21l-.21.12-.35-.13-.14-.29,0,0v-.22l-.08-.31-.07-.25-.13-.23L85,39.08l0-.17-.12-.18.13-.32.2-.11.13,0,.29-.16.24.08.35-.13.27-.07.18-.11.24-.08.13-.13.26-.11.27,0,.21-.11.2-.19.23,0,.07-.19L88.6,37l.22,0,.1-.13.21-.11h.34l.06-.15.36-.06.15-.08.24-.15.14-.06.24,0,.19-.13.19-.13.28-.06.19-.15.24,0,.21-.1.14-.13h.26l.18,0,.19-.26.19,0,.28-.15h.17l.2-.13.3.06L94,35l.3-.1h.17l.26-.13.17-.21.25.11.19-.05.18-.18.25-.08.15-.09.2-.07.28.16,0,.15.09.2.22.29v.12l.08.24.15.28,0,.14.12.12.12.2v.22l.17.53.1.17.07.18.11.16.09.2.06.34.09.22,0,.05.18.23.1.36,0,.35.15.48-.09.07V40l-.08.27,0,.23-.23.06,0,.22-.23.09-.12.2-.25.15-.15.08H96.9l-.25.21-.21.13-.32.07-.41.17-.14,0-.3.13-.2,0L94.72,42h-.21l-.06.14h-.26l-.31-.06L93.66,42l-.18,0-.27-.11-.07-.16H93l-.15-.22-.1-.22-.19-.2v.15l0,.23,0,.27.12.3,0,.2-.21.18,0,.21-.13.15-.15.11-.18.17-.06.26-.16.07-.29.12-.15.06-.27.1-.13,0-.54.11-.06.23-.32.08-.23,0-.21.06h-.14l-.28.17-.45.11-.1.21-.26.1-.15-.1-.27.21-.16.17-.21-.1-.29.08,0-.23-.11-.13L87,44.19v-.1l-.22-.27v-.16l-.13-.26-.08,0V43Zm8.52-3.37.22,0,.12-.09.22-.34.1-.12-.09-.36-.11-.21-.12-.4-.13-.08,0-.26-.32-.1-.18.08-.21.12h-.28l-.35.14-.18.11-.29.08-.23,0-.2.17h-.26l-.14.23-.09.12.13.39.06.12,0,.17.28.52.11.22.13.08h.27l.24-.06.23-.1.36-.19.3.11Z"/><path id="a2b660d3-690f-4a72-8382-85fe46399386" data-name="Path 9075" d="M90.21,52.29h-.4l-.25-.08-.2-.11h-.21L89,51.92l-.17-.05-.23-.15,0-.23-.15-.21-.21-.1V51l-.09-.23L88,50.43l-.16-.18-.06-.18.06-.13-.1-.32-.1-.22L87.56,49l0-.31,0-.17v-.33l.07,0,0-.26v-.35l0-.06,0-.31.13-.3,0-.05.11-.34.1-.06.1-.36.08-.1.3-.13.2,0,.06-.22.23-.11.23-.07h.48l.18.05.26-.08.22-.14.18,0,.31.1.12,0,.24,0,.24,0,.21,0,.21-.07.3,0,.27-.13h.15l.16-.14.31.13.16-.2.26,0,.17-.11.3,0h.26l.15,0,.2.15.19-.19h.32l.26,0h.18l.21,0,.17-.19.33-.06.19.14.26-.08.15-.1.31,0,.41-.11.15.17.24-.06h.22l.25.1.1.12.29-.06.14.28.21,0,.11.28.1.16.22.17,0,.28.13.06.06.13.12.2.14.23v.46l.15.15v.43l.14.33,0,.22,0,.24-.06.24,0,.17,0,.24-.1.18v.25l-.14.17v.18l-.11.41-.14.17-.09.2-.06.18-.23.16-.08.05-.26.15h-.18l-.14.1-.28.13-.13,0-.52.06-.18.09-.15-.07-.31.21-.09,0-.35,0-.17-.05-.22,0-.2.19-.25.07-.2-.11-.25,0-.21.11-.25-.12-.16.09-.33.07-.14,0-.18,0-.31.23-.14-.13-.33-.2,0-.09-.07-.2V51l-.11-.18.08-.37-.15-.11,0-.18,0-.39,0-.21,0,0,0-.4v-.2l0-.07-.08-.28,0-.23-.15-.24v-.48l-.35-.22-.14.05-.26.12h-.1l-.31.07-.22,0-.21.08-.17-.09-.32,0-.17,0-.16.11-.5,0-.13.23-.08.2-.24.19,0,.12,0,.19,0,.42.1.21.06.22.15.12.26.16.1.06.45-.09.19,0,.35-.09.21,0,.25,0,.19-.22.11.11.26.07v.23l.1.43.1.15v.07l.09.62,0,.23.11,0,0,.22-.26.29-.19.08-.2.08L92,52l-.26.16h-.17l-.24,0h-.19l-.21.1-.28-.13Zm7.53-3.6H98l.17-.29,0-.14,0-.2.16-.2-.16-.35,0-.23-.15-.09-.24-.14-.15-.12-.25,0-.32,0-.25-.08-.33,0-.14,0-.29.15-.1.07-.22,0L95.5,47l-.2.15-.22.3.08.23,0,.29,0,.31.06.24,0,.07.1.35.18.06.31.1.08-.18.25.13.31,0,.2-.1.14-.08.28,0,.2,0Z"/><g id="a2c99ec6-88f3-468a-85e6-96cb500e4287" data-name="Group 6708"><path id="a532a1eb-7282-4052-b780-fc9a9ed5abd3" data-name="Path 9076" d="M94.34,62.77l-.61,3.35L92.15,63l-3.52.48,2.51-2.65-1.4-3.37L92.88,59l2.55-2.19-.62,3.36,3.08,1.88Z"/><path id="ac0c704b-adb2-41f1-9d08-ebb94c4838c9" data-name="Path 9077" d="M93.87,67.1,92,63.36l-4.2.59,3-3.17-1.66-4,3.72,1.84L95.91,56l-.74,4,3.59,2.19-4.14.8Zm-1.54-4.43,1.25,2.46.49-2.63L97,61.93l-2.55-1.56.5-2.69-2,1.74-2.57-1.28,1.16,2.78-2,2.14Z"/></g></g><g id="bc818379-8023-47e0-8b73-6190a0e6bbc2" data-name="Group 6710"><path id="f5de352d-f3b7-42d2-a36d-a2ae31f8977c" data-name="Path 9078" d="M47.09,39.58h0v0a3.26,3.26,0,0,0,.34,1.31v0c0,.13,0,.26.07.4s-.06,0-.08,0a7.43,7.43,0,0,1,.35.76s-.06,0-.07,0c.19.21.19.36,0,.41.08,0,.19.2.28.24-.12.27.51,1.14.82,1.39q.19.45.42.87c.29.5.44.68.65.58l.22.32,0,.08,0,0a0,0,0,0,0,0,0,.2.2,0,0,1,.16-.19l.17.12c0,.2,0,.42.07.39a.31.31,0,0,0,.21,0v.1h0l0,0,.1-.05.21-.09.43-.15.24,0A2.84,2.84,0,0,0,53,45.93a5,5,0,0,1,.56-.11,6.69,6.69,0,0,1,2.89.63l.28.13.17-.25.17-.24a1.23,1.23,0,0,0,.4-.27c.15-.19.13-.39.23-.59.49-1.08,1.44-1.7,1.79-2.82a15.73,15.73,0,0,0,.43-2,6.39,6.39,0,0,0,.09-.75v0a6.38,6.38,0,0,0-.76-3,3.76,3.76,0,0,0-.23-.55,3.83,3.83,0,0,0-1.36-1.38,3,3,0,0,0-.35-.27l-.22-.2a2.39,2.39,0,0,0-.6-.49,2,2,0,0,0-.48-.12,1.8,1.8,0,0,0-.38-.16,1.47,1.47,0,0,0-.85-.31c0,.06-.09.08-.13.13H54.6c-.13-.07-.28-.14-.41-.22l-.21.09a1.25,1.25,0,0,0-1.28,0,1.87,1.87,0,0,0-.34,0,2.26,2.26,0,0,0-.74.38l-.1,0a2,2,0,0,1-.92.06l-.12.15a1.45,1.45,0,0,0-.62.34.92.92,0,0,0-.34.56l0,0-.23.16a1.14,1.14,0,0,0-.75.62,4.12,4.12,0,0,0-.32.41,6.71,6.71,0,0,0-.93,2.4l0,.24a1.65,1.65,0,0,0-.14.58,1.27,1.27,0,0,0,0,.34Zm3.52,6.54h0l.15.11v0l-.15-.14h0l-.06-.05Zm-.18-.29.07.11V46l-.15-.13.08-.06Zm-1.8-2.07v0l0,0Zm-.46-1v0c-.07-.14-.14-.28-.2-.43.06.14.14.28.21.41Z"/><path id="eac691c6-8d01-4950-9eb7-8dfd13a26eb0" data-name="Path 9079" d="M60,67a17.84,17.84,0,0,0-1-1.83l-.36-.64A29.24,29.24,0,0,0,57.13,62l-.14-.3-.12-.24-.39.1-.22.06c-.59.15-1.08.43-1.62.54l-.4,0-.26,0a5,5,0,0,0-.67-.14c-.14,0-.28,0-.43.06L52.53,62a2.06,2.06,0,0,0-.73-.26c0,.06-.08.08-.13.12l-.07,0a3.84,3.84,0,0,1-.3-.28l-.19,0a1.75,1.75,0,0,0-.23-.24l-.27-.23-.48.43a1.25,1.25,0,0,0-.43.76,2.48,2.48,0,0,0-.19.26,2.69,2.69,0,0,0-.25.74l0,.09a1.49,1.49,0,0,1-.68.56v.18a1.38,1.38,0,0,0-.39,1.17l0,0-.17.23a1.14,1.14,0,0,0-.47.83,3.06,3.06,0,0,0-.17.48,8.69,8.69,0,0,0-.21,1.52v0h0a5.91,5.91,0,0,0,.12,1l0,.24a2.89,2.89,0,0,0,.08.59.89.89,0,0,0,.15.31,3,3,0,0,0,.77,1.34v0c.06.12.13.24.2.36s-.05,0-.06.07c.18.19.42.37.6.6,0,0-.05,0-.06.06.27.13.33.27.16.38a3.84,3.84,0,0,0,.36.14c0,.33,1.07.86,1.51.87a4,4,0,0,0,.94.42c.6.19.87.16.92-.06a6.06,6.06,0,0,0,.85,0h.47a4,4,0,0,0,.5-.06l.27.07a1.94,1.94,0,0,0,1.31-.44l.54-.35a6.6,6.6,0,0,0,2.53-2.55,1.41,1.41,0,0,0,.37-.36c.13-.21.05-.43.11-.65.14-.73.39-1.36.49-2.06v0A2.89,2.89,0,0,0,60,67ZM49.57,73.43c-.12-.1-.23-.22-.34-.33l.34.31Zm.93.7h0l0,0Zm3.2.71-.05-.21h0l0,0,0-.1h0l.08.34Z"/><path id="fe56291f-45a3-471d-b548-c46fd45a3955" data-name="Path 9080" d="M59.59,45a4.49,4.49,0,0,0-.24.42c-.29.59-.57,1.2-.85,1.84l-.16.37.32.2L59,48l.16.14a4.13,4.13,0,0,0,.34.39,1.3,1.3,0,0,0,.23.18c.29.36.59.69.91,1v0l.14.33s0,0-.07.06a1.92,1.92,0,0,1,.36.64s-.06,0-.07,0c.18.19.15.33,0,.35a2.52,2.52,0,0,1,.21.25c-.13.2.12.87.25,1.29l.19.57.33-.06.18,0a7.74,7.74,0,0,0,.95.13c.57.05.81,0,.85-.2l.76,0v-.22h0v-.15h0v.36c.33,0,.65,0,1,0a1.33,1.33,0,0,0,.24.1,2.08,2.08,0,0,0,1.32-.16l.6-.19a4.6,4.6,0,0,0,1.7-.66A6,6,0,0,0,70.88,51a1.38,1.38,0,0,0,.46-.25,2.9,2.9,0,0,0,.25-.61c.25-.58.57-1.05.82-1.59a3.12,3.12,0,0,0,.32-1.73,11,11,0,0,0-.52-2c-.09-.24-.18-.49-.29-.72A6.66,6.66,0,0,0,70,41.67l-.45-.41a4.05,4.05,0,0,0-1.8-.69l-.44-.1L67,40.38a2.77,2.77,0,0,0-.75-.2,2.66,2.66,0,0,0-.49.1h-.41a1.66,1.66,0,0,0-.91.07c0,.07,0,.12-.06.18l-.07,0-.47,0-.15.17a1.37,1.37,0,0,0-1,.29l0,0a.83.83,0,0,0-.19.26,1.73,1.73,0,0,0-.28.19,2.35,2.35,0,0,0-.46.67l-.08.08a1.79,1.79,0,0,1-.79.45l0,.19a1.36,1.36,0,0,0-.42.56.89.89,0,0,0-.09.6l0,0-.17.21A1.19,1.19,0,0,0,59.59,45Zm1.89,7.42v0Zm-.14-1,0,0c0-.14-.07-.27-.11-.41l.12.39Z"/><path id="b5e4bda9-be90-4983-9e13-47d968a8c58a" data-name="Path 9081" d="M47.36,63.34c.41-1,1.19-1.59,1.57-2.51l.22-.52L48.72,60l-.29-.17A4.06,4.06,0,0,1,47,58.72c-.14-.18-.27-.38-.39-.57a6.81,6.81,0,0,1-.88-2.65v-.18l0-.29L45.39,55,45,54.89a8.71,8.71,0,0,0-1.84,0h-.43l-.28-.05a1.53,1.53,0,0,0-1.19,0h-.4a1.67,1.67,0,0,0-.86,0c0,.07-.06.11-.08.17l-.08,0-.44-.09-.18.14a1.26,1.26,0,0,0-1.25.4,1.51,1.51,0,0,0-.31.16,2.37,2.37,0,0,0-.56.62l-.08.06a2,2,0,0,1-.84.4l-.05.18c-.32.17-.71.89-.58,1.19v0l-.17.24a1.16,1.16,0,0,0-.48.84,2.85,2.85,0,0,0-.14.5,6.78,6.78,0,0,0,0,2.58c.05.27.09.55.12.83a2.12,2.12,0,0,0,.14.31,3,3,0,0,0,.78,1.33v0l.2.36s0,0-.06.07q.31.28.6.6s0,0-.06.06c.27.13.32.27.15.39a3.19,3.19,0,0,0,.37.13c0,.34,1.07.85,1.51.87a4,4,0,0,0,.94.42c.59.18.86.17.92,0a7,7,0,0,0,.79,0v-.22h0l0,0v-.11h0v.36a6.77,6.77,0,0,0,1-.08l.26.07a1.93,1.93,0,0,0,1.32-.45c.19-.11.36-.23.53-.35l.09,0h0a7.93,7.93,0,0,0,2.34-2.55,1.24,1.24,0,0,0,.4-.29C47.29,63.75,47.27,63.55,47.36,63.34Zm-10.23,2.9a2.81,2.81,0,0,1-.35-.34,2.51,2.51,0,0,0,.35.31Zm.93.69h0l0,0Z"/><path id="aad193f1-2c45-4715-bf69-3f660bef9af2" data-name="Path 9082" d="M71.61,57.93c-.14-.21-.29-.43-.45-.63a6,6,0,0,0-2.47-1.91,5.52,5.52,0,0,0-.55-.26,5.21,5.21,0,0,0-1.88-.2l-.43,0-.28,0a3.42,3.42,0,0,0-.72-.16,2.36,2.36,0,0,0-.46.1H64a1.84,1.84,0,0,0-.84,0c0,.06-.06.1-.09.15H63c-.14,0-.28-.09-.41-.15a1.18,1.18,0,0,0-.19.11,1.32,1.32,0,0,0-.47-.13l-.42,0-.16.62a1.18,1.18,0,0,0,0,.67c0,.1-.06.19-.08.29a4.33,4.33,0,0,0,0,.72l0,.09c-.15.27-.27.48-.57.57v.17a1.45,1.45,0,0,0-.43,1.06l0,0-.19.17a1.15,1.15,0,0,0-.66.52l-.34.28c-.12.11-.23.2-.36.3l-.36.28.19.36c.29.55.6,1.12.93,1.69l.11.2a3,3,0,0,0,.22.52,1.64,1.64,0,0,0,.2.26,5.25,5.25,0,0,0,.86,1.18l0,0c.06.12.12.24.19.36s0,0-.06.07a6.63,6.63,0,0,1,.57.61s-.05,0-.05.05c.25.14.3.28.13.39.09,0,.25.12.35.15,0,.19.37.51.77.71l0,0a2.38,2.38,0,0,0,.68.19,4,4,0,0,0,.94.43c.6.18.86.17.92,0a7,7,0,0,0,.79,0v-.22h0l0,0v-.11h0v.36a5.66,5.66,0,0,0,1-.08,1.25,1.25,0,0,0,.26.07,1.92,1.92,0,0,0,1.32-.44c.19-.11.36-.23.54-.35a6.44,6.44,0,0,0,2.52-2.55,1.27,1.27,0,0,0,.38-.35,2.85,2.85,0,0,0,.11-.65c.11-.62.33-1.15.44-1.73a3,3,0,0,0-.08-1.76A11.15,11.15,0,0,0,71.61,57.93ZM62,66.17c-.11-.11-.22-.23-.32-.35a3.34,3.34,0,0,0,.33.32Zm.91.76h0l0,0Z"/><path id="f78e19b2-aa22-4ac4-a00e-064921cc36cc" data-name="Path 9083" d="M35.16,49.23l.1.22a1.8,1.8,0,0,0,.21.56.93.93,0,0,0,.21.27,3,3,0,0,0,1.06,1.12l0,0a2,2,0,0,0,.27.31s0,0,0,.08c.23.15.48.28.72.45,0,0,0,.06,0,.07.27.07.38.2.24.35.1,0,.29.06.4,0,.06.15.39.3.75.36a3,3,0,0,0,.95,0,6.3,6.3,0,0,0,1,.2c.59.06.83,0,.86-.19l.77,0v-.22h0v-.15h0v.36l1,0,.24.1a2.44,2.44,0,0,0,1.31-.09l.27,0,.38-.07v-.61a6.69,6.69,0,0,1,1.18-3,1.54,1.54,0,0,0,.39-.23c.15-.15.15-.34.27-.51a2.71,2.71,0,0,1,1-.81l.29-.13-.13-.45A4.74,4.74,0,0,0,48,45.48c-.43-.54-.8-1-1.19-1.6-.13-.19-.25-.41-.41-.62a8,8,0,0,0-2-2h0l-.21-.11a5.39,5.39,0,0,0-.5-.33,3.89,3.89,0,0,0-1.9-.39l-.45,0-.29,0a2.49,2.49,0,0,0-.77-.08,3.8,3.8,0,0,0-.47.18,2.57,2.57,0,0,0-.4.07,1.58,1.58,0,0,0-.88.22c0,.06,0,.12,0,.18l-.07,0L38,41a1.22,1.22,0,0,0-.12.19,1.29,1.29,0,0,0-1.07.72,2.75,2.75,0,0,0-.26.22,2.26,2.26,0,0,0-.4.73l-.06.08a2.16,2.16,0,0,1-.73.58v.2A1.34,1.34,0,0,0,35,45v0l-.11.27a1.13,1.13,0,0,0-.27.93,2.24,2.24,0,0,0,0,.52A6.75,6.75,0,0,0,35.16,49.23ZM39.52,53h0Zm-1.14-.42v0a3.62,3.62,0,0,1-.43-.24,3.42,3.42,0,0,0,.43.21Z"/></g></g></g></g></svg>