<svg xmlns="http://www.w3.org/2000/svg" viewBox="0 0 50.64 50.64"><defs><style>.cls-1{fill:none;}.cls-2{fill:#ffd664;}</style></defs><title>Icon_KulturUndUnterhaltung</title><g id="Layer_2" data-name="Layer 2"><g id="Layer_1-2" data-name="Layer 1"><rect class="cls-1" width="50.64" height="50.64"/><path class="cls-2" d="M44.92,36.52v-23a2.09,2.09,0,0,0,0-.35,1.47,1.47,0,0,0,0-.36V4.36a2,2,0,0,0-.75-1.56,2,2,0,0,0-1.68-.39L18.69,7.63a2,2,0,0,0-1.57,2v7.64h0V32.72a8.4,8.4,0,1,0,4,7.15c0-.16,0-.3,0-.45s0-.15,0-.22V19.09l19.8-3.82V29.35a8.29,8.29,0,0,0-4.41-1.26,8.41,8.41,0,1,0,8.24,10.07,1.9,1.9,0,0,0,.17-.79Z"/></g></g></svg>