<svg xmlns="http://www.w3.org/2000/svg" viewBox="0 0 56.38 50.64"><defs><style>.cls-1{fill:none;}.cls-2{fill:#327978;}</style></defs><title>Icon_HabUndGut</title><g id="Layer_2" data-name="Layer 2"><g id="Layer_1-2" data-name="Layer 1"><rect class="cls-1" x="2.87" width="50.64" height="50.64"/><g id="Group_6620" data-name="Group 6620"><path id="Path_4208" data-name="Path 4208" class="cls-2" d="M55,14.39a1.35,1.35,0,0,0-1.91,1.91,4.09,4.09,0,0,1,1.09,3,5.74,5.74,0,0,1-1.09,3c-.28.28-.82.55-1.1.82v-.28C52,11.38,41.58,2.08,28.72,2.08a23.9,23.9,0,0,0-15,4.38A80.57,80.57,0,0,0,5.2,3.72S6,10.83,7.39,13.56A18.72,18.72,0,0,0,5.47,19H2.74A2.58,2.58,0,0,0,0,21.46v9.07a2.58,2.58,0,0,0,2.43,2.73,1.61,1.61,0,0,0,.31,0H8.21a25,25,0,0,0,6.57,6.57v6a2.58,2.58,0,0,0,2.42,2.73,1.61,1.61,0,0,0,.31,0h1.91a2.59,2.59,0,0,0,2.74-2.42,1.61,1.61,0,0,0,0-.31v-3a23.06,23.06,0,0,0,6,.82,21.53,21.53,0,0,0,6-.82v3a2.58,2.58,0,0,0,2.42,2.73,1.61,1.61,0,0,0,.31,0h1.92a2.58,2.58,0,0,0,2.73-2.42,1.6,1.6,0,0,0,0-.31v-6a21.8,21.8,0,0,0,9.57-13.95A5.11,5.11,0,0,0,54.44,24,6.58,6.58,0,0,0,56.35,19,6.71,6.71,0,0,0,55,14.39ZM15.05,21.5A2.46,2.46,0,1,1,17.51,19,2.65,2.65,0,0,1,15.05,21.5Zm25.44-9.85a1.44,1.44,0,0,1-1.1.55,1,1,0,0,1-.82-.27A15.49,15.49,0,0,0,28.45,8.1a15,15,0,0,0-10.12,3.83,1.35,1.35,0,0,1-1.89-.25l0,0a1.33,1.33,0,0,1-.05-1.87l.05,0a16.48,16.48,0,0,1,12-4.38,19.73,19.73,0,0,1,12,4.38,1.32,1.32,0,0,1,0,1.87Z"/></g></g></g></svg>