<svg xmlns="http://www.w3.org/2000/svg" viewBox="0 0 50.64 50.64"><defs><style>.cls-1{fill:none;}.cls-2{fill:#f97c22;}</style></defs><title>Icon_SozialeEinbettung</title><g id="Layer_2" data-name="Layer 2"><g id="Layer_1-2" data-name="Layer 1"><rect class="cls-1" width="50.64" height="50.64"/><path id="Union_75" data-name="Union 75" class="cls-2" d="M22.65,45.31v-8a12,12,0,0,1,24-.05v8ZM4,41.37v-8a12,12,0,0,1,21.22-7.7,15,15,0,0,0-5.6,11.7v4Zm22.69-24.7A7.35,7.35,0,0,1,34,9.32h0a7.35,7.35,0,1,1-7.35,7.35h0ZM8,12.67a7.35,7.35,0,0,1,7.35-7.35h0a7.34,7.34,0,0,1,7.34,7.35h0A7.33,7.33,0,0,1,15.31,20h0A7.34,7.34,0,0,1,8,12.67Z"/></g></g></svg>