<svg xmlns="http://www.w3.org/2000/svg" viewBox="0 0 50.64 50.64"><defs><style>.cls-1{fill:none;}.cls-2{fill:#2ad4cf;}</style></defs><title>Icon_Lebensraum</title><g id="Layer_2" data-name="Layer 2"><g id="Layer_1-2" data-name="Layer 1"><rect class="cls-1" width="50.64" height="50.64"/><g id="Group_4229" data-name="Group 4229"><g id="Group_3463" data-name="Group 3463"><path id="Union_50" data-name="Union 50" class="cls-2" d="M23,49V35.94A9.05,9.05,0,0,1,17,31a10.56,10.56,0,0,1-4.19.84A10,10,0,0,1,2.51,22.15a10,10,0,0,1,9.31-9.69A13.5,13.5,0,0,1,25.32,1.61a13.5,13.5,0,0,1,13.5,10.85,10,10,0,0,1,9.31,9.69,10,10,0,0,1-10.27,9.74A10.78,10.78,0,0,1,33.67,31a9,9,0,0,1-6.07,4.9V49Z"/></g></g></g></g></svg>