<svg xmlns="http://www.w3.org/2000/svg" viewBox="0 0 170.19 170"><defs><style>.cls-1{fill:none;opacity:0.2;}.cls-2{fill:#abc9c9;}.cls-3{fill:#fff;}</style></defs><g id="Layer_2" data-name="Layer 2"><g id="Drawings"><rect id="Rectangle_2497" data-name="Rectangle 2497" class="cls-1" width="170" height="170"/><rect class="cls-2" x="18.29" y="148.95" width="76.9" height="19.01"/><path d="M95.19,169.47H18.29a1.5,1.5,0,0,1-1.5-1.5V149a1.5,1.5,0,0,1,1.5-1.5h76.9a1.5,1.5,0,0,1,1.5,1.5v19A1.5,1.5,0,0,1,95.19,169.47Zm-75.4-3h73.9v-16H19.79Z"/><path class="cls-2" d="M37,137.53h39.4A11.43,11.43,0,0,1,87.87,149v0a0,0,0,0,1,0,0H25.61a0,0,0,0,1,0,0v0A11.43,11.43,0,0,1,37,137.53Z"/><path d="M87.87,150.45H25.61a1.5,1.5,0,0,1-1.5-1.5A12.94,12.94,0,0,1,37,136h39.4A12.94,12.94,0,0,1,89.37,149,1.5,1.5,0,0,1,87.87,150.45Zm-60.65-3h59A10,10,0,0,0,76.44,139H37A10,10,0,0,0,27.22,147.45Z"/><path class="cls-2" d="M55.68,128.88a1.5,1.5,0,0,1-1.5-1.5V114.09a1.5,1.5,0,0,1,3,0v13.29A1.5,1.5,0,0,1,55.68,128.88Z"/><path class="cls-2" d="M39.9,129a1.5,1.5,0,0,1-1.45-1.12L36.62,121a1.5,1.5,0,0,1,2.9-.78l1.83,6.83a1.49,1.49,0,0,1-1.06,1.83A1.32,1.32,0,0,1,39.9,129Z"/><path class="cls-2" d="M12.56,144.74a1.51,1.51,0,0,1-1.06-.44l-5-5a1.51,1.51,0,0,1,2.13-2.13l5,5a1.49,1.49,0,0,1,0,2.12A1.51,1.51,0,0,1,12.56,144.74Z"/><path class="cls-2" d="M98.81,144.74a1.53,1.53,0,0,1-1.07-.44,1.51,1.51,0,0,1,0-2.12l5-5a1.5,1.5,0,1,1,2.12,2.13l-5,5A1.53,1.53,0,0,1,98.81,144.74Z"/><path class="cls-2" d="M71.47,129a1.32,1.32,0,0,1-.39-.06A1.49,1.49,0,0,1,70,127.07l1.83-6.83a1.5,1.5,0,1,1,2.89.78l-1.82,6.82A1.51,1.51,0,0,1,71.47,129Z"/><path class="cls-2" d="M25.19,135.05a1.5,1.5,0,0,1-1.3-.75l-6.64-11.51a1.5,1.5,0,1,1,2.59-1.5l6.65,11.51a1.5,1.5,0,0,1-.55,2A1.56,1.56,0,0,1,25.19,135.05Z"/><path class="cls-2" d="M86.17,135.05a1.59,1.59,0,0,1-.75-.2,1.5,1.5,0,0,1-.54-2l6.64-11.51a1.5,1.5,0,1,1,2.6,1.5L87.47,134.3A1.49,1.49,0,0,1,86.17,135.05Z"/><path class="cls-3" d="M167.53,8.26h0A11.25,11.25,0,0,1,162,23.48L52.71,72.36,46.58,59.88,152.12,3.3A11.26,11.26,0,0,1,167.53,8.26Z"/><path d="M52.71,73.86A1.51,1.51,0,0,1,51.36,73L45.24,60.54a1.49,1.49,0,0,1,.64-2L151.41,2A12.73,12.73,0,0,1,168.87,7.6h0a12.74,12.74,0,0,1-6.23,17.25L53.32,73.73A1.46,1.46,0,0,1,52.71,73.86ZM48.57,60.52l4.85,9.88,108-48.29a9.74,9.74,0,0,0,4.77-13.19h0a9.74,9.74,0,0,0-13.35-4.29Z"/><rect class="cls-3" x="11.71" y="48.23" width="63.33" height="41.94" transform="translate(0.37 138.63) rotate(-116.14)"/><path d="M38.5,108.37a1.36,1.36,0,0,1-.48-.09,1.45,1.45,0,0,1-.86-.75L9.25,50.67a1.49,1.49,0,0,1,.69-2L47.59,30.19a1.46,1.46,0,0,1,1.14-.08,1.52,1.52,0,0,1,.87.76L77.5,87.72a1.5,1.5,0,0,1-.68,2L39.16,108.21A1.49,1.49,0,0,1,38.5,108.37ZM12.61,50.7l26.58,54.16,35-17.16L47.56,33.54Z"/><rect class="cls-3" x="53.52" y="77.78" width="14.21" height="53.12" rx="7.1" transform="translate(-6.33 204.73) rotate(-116.14)"/><path d="M43.16,121.52a8.6,8.6,0,0,1-3.79-16.33L74.3,88A8.61,8.61,0,0,1,85.81,92h0a8.62,8.62,0,0,1-3.93,11.52L47,120.63A8.57,8.57,0,0,1,43.16,121.52ZM78.08,90.16a5.54,5.54,0,0,0-2.46.57L40.69,107.88a5.6,5.6,0,0,0,.66,10.33,5.54,5.54,0,0,0,4.28-.27l34.93-17.15a5.6,5.6,0,0,0-2.48-10.63Z"/><rect class="cls-3" x="19.36" y="8.17" width="14.21" height="53.12" rx="7.1" transform="translate(6.94 73.79) rotate(-116.14)"/><path d="M9,51.91A8.61,8.61,0,0,1,5.2,35.58L40.14,18.44a8.6,8.6,0,1,1,7.58,15.44L12.78,51A8.47,8.47,0,0,1,9,51.91ZM43.92,20.56a5.54,5.54,0,0,0-2.46.57L6.52,38.28a5.6,5.6,0,0,0,4.94,10.06L46.4,31.19A5.61,5.61,0,0,0,49,23.69h0A5.62,5.62,0,0,0,43.92,20.56Z"/><path d="M151.56,29.66a1.5,1.5,0,0,1-1.35-.84L140.67,9.38a1.5,1.5,0,1,1,2.69-1.32L152.9,27.5a1.5,1.5,0,0,1-.68,2A1.55,1.55,0,0,1,151.56,29.66Z"/></g></g></svg>