<svg xmlns="http://www.w3.org/2000/svg" viewBox="0 0 170 170"><defs><style>.cls-1{fill:none;opacity:0.2;}.cls-2{fill:#fff;}.cls-3{fill:#abc9c9;}</style></defs><g id="Layer_2" data-name="Layer 2"><g id="Drawings"><rect id="Rectangle_2497" data-name="Rectangle 2497" class="cls-1" width="170" height="170"/><polygon class="cls-2" points="65.82 59.92 85 67.89 105.67 58.66 108.32 56.42 100.62 57.06 105.03 50.71 97.75 53.33 100.37 46.05 94.02 50.46 94.66 42.76 89.67 48.66 88.3 41.05 85 48.05 81.7 41.05 80.33 48.66 75.34 42.76 75.98 50.46 69.63 46.05 72.25 53.33 64.97 50.71 69.38 57.06 61.68 56.42 65.82 59.92"/><polygon class="cls-3" points="143.87 100.53 140.63 98.83 99.63 95.24 97.04 96.44 102.82 111.65 113.94 122.01 125.71 122.8 135.81 118.35 143.07 104.38 143.87 100.53"/><path d="M121.54,124.08a23.12,23.12,0,0,1-21.8-15.35L85.21,68.07A1.49,1.49,0,0,1,86,66.21l31.79-14.83a1.5,1.5,0,0,1,1.93.6l21.81,37.27a23.16,23.16,0,0,1-10.2,32.67h0A23.18,23.18,0,0,1,121.54,124.08ZM88.49,68.35l14.08,39.37a20.15,20.15,0,1,0,36.36-17L117.81,54.68Zm42.2,52.21h0Z"/><path d="M145.49,153.81a1.51,1.51,0,0,1-1.36-.86l-14.44-31a1.5,1.5,0,1,1,2.72-1.27l14.44,31a1.49,1.49,0,0,1-.72,2A1.45,1.45,0,0,1,145.49,153.81Z"/><path d="M129.13,170a1.5,1.5,0,0,1-1-2.57l16.36-16.13a1.47,1.47,0,0,1,.91-.43l22.88-2.17a1.5,1.5,0,0,1,.77,2.86L129.76,169.8A1.42,1.42,0,0,1,129.13,170Zm17-16.19-9.8,9.65,23.49-10.95Z"/><path d="M142.75,100.51h-.14l-46.09-4a1.5,1.5,0,0,1,.26-3l46.09,4a1.5,1.5,0,0,1-.12,3Z"/><path class="cls-2" d="M112.94,101.36a1.51,1.51,0,0,1-1.37-.87L99.07,73.67a1.5,1.5,0,0,1,2.72-1.27l12.5,26.82a1.49,1.49,0,0,1-.72,2A1.45,1.45,0,0,1,112.94,101.36Z"/><path class="cls-2" d="M118.27,112.8a1.51,1.51,0,0,1-1.36-.86l-2.06-4.42a1.5,1.5,0,1,1,2.72-1.27l2.06,4.42a1.49,1.49,0,0,1-.72,2A1.45,1.45,0,0,1,118.27,112.8Z"/><polygon class="cls-3" points="26.24 100.53 29.47 98.82 70.48 95.23 73.06 96.43 67.28 111.64 56.17 122 44.39 122.79 34.3 118.34 27.03 104.37 26.24 100.53"/><path d="M48.46,124.08a23.18,23.18,0,0,1-9.78-2.16h0a23.16,23.16,0,0,1-10.2-32.67L50.29,52a1.49,1.49,0,0,1,1.93-.6L84,66.21a1.49,1.49,0,0,1,.78,1.86L70.26,108.73a23.12,23.12,0,0,1-21.8,15.35ZM40,119.2a20.14,20.14,0,0,0,27.48-11.48L81.51,68.35,52.19,54.68,31.07,90.77A20.15,20.15,0,0,0,40,119.2Z"/><path d="M24.51,153.81a1.45,1.45,0,0,1-.64-.14,1.49,1.49,0,0,1-.72-2l14.44-31A1.5,1.5,0,1,1,40.31,122L25.87,153A1.51,1.51,0,0,1,24.51,153.81Z"/><path d="M40.87,170a1.42,1.42,0,0,1-.63-.15L1,151.51a1.5,1.5,0,0,1,.77-2.86l22.88,2.17a1.47,1.47,0,0,1,.91.43l16.36,16.13A1.5,1.5,0,0,1,40.87,170ZM10.14,152.46l23.49,10.95-9.8-9.65Z"/><path d="M26.9,100.54a1.5,1.5,0,0,1-.13-3l46.09-4a1.5,1.5,0,1,1,.26,3l-46.09,4Z"/><path class="cls-2" d="M57.06,101.36a1.45,1.45,0,0,1-.63-.15,1.49,1.49,0,0,1-.72-2L68.21,72.4a1.5,1.5,0,0,1,2.72,1.27l-12.5,26.82A1.51,1.51,0,0,1,57.06,101.36Z"/><path class="cls-2" d="M51.73,112.8a1.45,1.45,0,0,1-.64-.14,1.49,1.49,0,0,1-.72-2l2.06-4.42a1.5,1.5,0,1,1,2.72,1.27l-2.06,4.42A1.51,1.51,0,0,1,51.73,112.8Z"/><path class="cls-3" d="M85,18.19a1.5,1.5,0,0,1-1.5-1.5V1.75a1.5,1.5,0,0,1,3,0V16.69A1.5,1.5,0,0,1,85,18.19Z"/><path class="cls-3" d="M67.25,20.53a1.49,1.49,0,0,1-1.45-1.11l-2.06-7.67a1.5,1.5,0,1,1,2.9-.78l2.06,7.67a1.5,1.5,0,0,1-1.06,1.84A1.35,1.35,0,0,1,67.25,20.53Z"/><path class="cls-3" d="M36.5,38.28a1.48,1.48,0,0,1-1.06-.43l-5.62-5.62a1.5,1.5,0,0,1,2.12-2.12l5.62,5.61a1.52,1.52,0,0,1,0,2.13A1.5,1.5,0,0,1,36.5,38.28Z"/><path class="cls-3" d="M133.5,38.28a1.5,1.5,0,0,1-1.06-.43,1.52,1.52,0,0,1,0-2.13l5.62-5.61a1.5,1.5,0,0,1,2.12,2.12l-5.62,5.62A1.48,1.48,0,0,1,133.5,38.28Z"/><path class="cls-3" d="M102.75,20.53a1.35,1.35,0,0,1-.39-.05,1.5,1.5,0,0,1-1.06-1.84L103.36,11a1.5,1.5,0,0,1,2.9.78l-2.06,7.67A1.49,1.49,0,0,1,102.75,20.53Z"/><path class="cls-3" d="M50.71,27.38a1.47,1.47,0,0,1-1.3-.75L41.93,13.69a1.5,1.5,0,1,1,2.6-1.5L52,25.13a1.49,1.49,0,0,1-.55,2.05A1.42,1.42,0,0,1,50.71,27.38Z"/><path class="cls-3" d="M25.6,52.49a1.43,1.43,0,0,1-.75-.2L11.9,44.82a1.5,1.5,0,0,1-.54-2,1.48,1.48,0,0,1,2-.55l13,7.47a1.5,1.5,0,0,1-.75,2.8Z"/><path class="cls-3" d="M144.4,52.49a1.5,1.5,0,0,1-.75-2.8l12.95-7.47a1.5,1.5,0,0,1,1.5,2.6l-12.95,7.47A1.43,1.43,0,0,1,144.4,52.49Z"/><path class="cls-3" d="M119.29,27.38a1.42,1.42,0,0,1-.74-.2,1.49,1.49,0,0,1-.55-2.05l7.47-12.94a1.5,1.5,0,0,1,2.6,1.5L120.6,26.63A1.5,1.5,0,0,1,119.29,27.38Z"/></g></g></svg>