<svg xmlns="http://www.w3.org/2000/svg" viewBox="0 0 170 170"><defs><style>.cls-1{fill:none;opacity:0.2;}.cls-2{fill:#fff;}.cls-3{fill:#abc9c9;}</style></defs><g id="Layer_2" data-name="Layer 2"><g id="Drawings"><rect id="Rectangle_2497" data-name="Rectangle 2497" class="cls-1" width="170" height="170"/><path class="cls-2" d="M55.75,86.87l-7.69-2.25a9.74,9.74,0,0,0-10,2.86L21.86,105.65c-1.12,1.25-2.19,2.56-3.21,3.91L1.59,132.28l7.59,6.29,18.64-24.83,10.06-11.63-3.71,8a107.16,107.16,0,0,1-14.83,23.51L11,143.69,19,150.37a8.35,8.35,0,0,0,11.88-1.14l8.86-11,7.8-13.51Z"/><path d="M24.31,153.84A9.76,9.76,0,0,1,18,151.52L10,144.83a1.5,1.5,0,0,1-.19-2.1l8.34-10A105.62,105.62,0,0,0,32,111.18l-3,3.5L10.38,139.47a1.47,1.47,0,0,1-1,.59,1.51,1.51,0,0,1-1.14-.33l-7.59-6.3a1.5,1.5,0,0,1-.24-2.05l17.06-22.72c1-1.38,2.14-2.73,3.29-4L37,86.48a11.28,11.28,0,0,1,11.53-3.3l7.68,2.25a1.5,1.5,0,0,1,1,1.76L49,125.08a1.43,1.43,0,0,1-.17.43L41,139a1.27,1.27,0,0,1-.13.19l-8.86,11a9.77,9.77,0,0,1-6.72,3.62C25,153.82,24.63,153.84,24.31,153.84ZM13.11,143.5l6.81,5.73a6.88,6.88,0,0,0,9.75-.94l8.78-10.87,7.63-13.21L54,87.92l-6.35-1.86a8.3,8.3,0,0,0-8.45,2.42L23,106.64c-1.09,1.23-2.14,2.51-3.13,3.82L3.65,132l5.28,4.37,17.69-23.57.06-.08,10.06-11.63a1.5,1.5,0,0,1,2.5,1.61l-3.71,8a108.47,108.47,0,0,1-15,23.83Z"/><polygon class="cls-2" points="49.12 89.25 47.49 124.76 55.75 86.87 49.12 89.25"/><path d="M47.5,126.26h-.2a1.5,1.5,0,0,1-1.3-1.56l1.62-35.5a1.52,1.52,0,0,1,1-1.35l6.64-2.38a1.5,1.5,0,0,1,1.49.28,1.52,1.52,0,0,1,.48,1.45L49,125.08A1.51,1.51,0,0,1,47.5,126.26Zm3.07-35.93-.77,16.79L53.71,89.2Z"/><path class="cls-2" d="M76.2,98.68,82,104.21a9.71,9.71,0,0,1,2.52,10.08l-7.62,23.12q-.8,2.42-1.79,4.74L64,168.29l-9.25-3.43L66.9,136.3l5-14.52L66.85,129A107.83,107.83,0,0,0,53.9,153.59l-4.53,12.25-9.76-3.54a8.36,8.36,0,0,1-5-10.86l5.07-13.15,7.8-13.52Z"/><path d="M64,169.79a1.37,1.37,0,0,1-.52-.1l-9.25-3.42a1.57,1.57,0,0,1-.86-.82,1.51,1.51,0,0,1,0-1.18L65.5,135.76,67,131.39a105.55,105.55,0,0,0-11.71,22.72l-4.53,12.25a1.51,1.51,0,0,1-1.92.89l-9.76-3.54a9.85,9.85,0,0,1-5.85-12.81l5.07-13.15a.68.68,0,0,1,.1-.21L46.22,124a1.64,1.64,0,0,1,.29-.36L75.19,97.57a1.51,1.51,0,0,1,2,0L83,103.13a11.3,11.3,0,0,1,2.91,11.63l-7.63,23.12c-.54,1.64-1.15,3.27-1.83,4.86L65.34,168.87A1.51,1.51,0,0,1,64,169.79ZM56.71,164l6.43,2.38,10.58-24.82c.64-1.5,1.23-3.06,1.74-4.62l7.63-23.12A8.28,8.28,0,0,0,81,105.3l-4.78-4.57-27.48,25-7.63,13.21-5,13a6.86,6.86,0,0,0,4.07,8.91l8.36,3,4-10.85a109,109,0,0,1,13.12-24.94l5.1-7.22a1.5,1.5,0,0,1,2.64,1.36l-5,14.53a.36.36,0,0,0,0,.09Z"/><polygon class="cls-2" points="77.45 105.61 47.52 124.77 76.2 98.68 77.45 105.61"/><path d="M47.52,126.27a1.5,1.5,0,0,1-1-2.61L75.19,97.57a1.51,1.51,0,0,1,2.49.84l1.25,6.93a1.49,1.49,0,0,1-.67,1.53L48.33,126A1.49,1.49,0,0,1,47.52,126.27Zm27.69-24.66L61.64,114l14.16-9.06Z"/><path d="M75.35,100.37c-2.28,0-6.07-1.53-11.33-4.56-6.92-4-10.2-7.11-9.73-9.26a1.5,1.5,0,0,1,3,.42c1.06,2.53,15.3,10.76,18.14,10.44a1.5,1.5,0,0,1,1.82,2.38A2.73,2.73,0,0,1,75.35,100.37ZM57.22,87.19Z"/><line class="cls-2" x1="61.18" y1="119.99" x2="66.42" y2="123.01"/><path d="M66.42,124.51a1.48,1.48,0,0,1-.75-.2l-5.24-3a1.5,1.5,0,1,1,1.5-2.59l5.24,3a1.5,1.5,0,0,1-.75,2.8Z"/><rect class="cls-2" x="90.43" y="46.74" width="22.61" height="7.53" transform="translate(-11.62 57.63) rotate(-30)"/><path d="M93.83,60.92a1.5,1.5,0,0,1-1.3-.75l-3.77-6.53a1.49,1.49,0,0,1,.55-2l19.58-11.31a1.5,1.5,0,0,1,2,.55l3.77,6.53a1.49,1.49,0,0,1-.55,2L94.58,60.72A1.59,1.59,0,0,1,93.83,60.92Zm-1.72-7.48,2.27,3.93,17-9.8-2.27-3.93Z"/><path class="cls-2" d="M133.4,105.36a270.1,270.1,0,0,1-38.64,18.19s1.19-17,.57-30.61c-.68-14.81-1.1-27.14-1.48-32.26a1.93,1.93,0,0,1,1-1.83l8.8-5.08,8.79-5.08a2,2,0,0,1,2.08.07c4.25,2.89,14.71,9.42,27.2,17.42C153.18,73.53,168.48,81,168.48,81A269.38,269.38,0,0,1,133.4,105.36Z"/><path d="M94.76,125.05a1.49,1.49,0,0,1-1.5-1.6c0-.17,1.18-17.06.57-30.44-.25-5.43-.46-10.52-.65-15.05-.33-7.79-.59-13.95-.83-17.17a3.42,3.42,0,0,1,1.72-3.24l17.59-10.16a3.43,3.43,0,0,1,3.67.13c2.67,1.82,7.86,5.11,14.43,9.28l12.74,8.11c11.29,7.23,26.49,14.66,26.64,14.73A1.48,1.48,0,0,1,170,80.8a1.46,1.46,0,0,1-.52,1.33,272.73,272.73,0,0,1-35.3,24.52h0A274,274,0,0,1,95.27,125,1.51,1.51,0,0,1,94.76,125.05ZM113.4,49.92a.55.55,0,0,0-.24.07L95.57,60.14a.48.48,0,0,0-.23.43c.25,3.27.5,9.45.83,17.26.19,4.53.41,9.62.66,15,.48,10.58-.13,23.31-.43,28.45a273.81,273.81,0,0,0,36.25-17.27A275.1,275.1,0,0,0,165.74,81.3c-4.61-2.32-15.93-8.14-24.86-13.86-4.59-2.94-8.9-5.67-12.73-8.11-6.59-4.18-11.8-7.49-14.5-9.33A.49.49,0,0,0,113.4,49.92Zm20,55.44h0Z"/><path class="cls-2" d="M103.19,7.47c-9.79,5.65-16,13.62-12.14,23.87l-.57.33c-7-8.46-17-7.07-26.74-1.42A22.7,22.7,0,0,0,78.19,41a16.2,16.2,0,0,1,9.4,6.16l3.68,5,17.16-9.91-2.52-5.7a16.26,16.26,0,0,1-.63-11.23A22.67,22.67,0,0,0,103.19,7.47Z"/><path d="M91.27,53.7a1.5,1.5,0,0,1-1.21-.62l-3.68-5a14.72,14.72,0,0,0-8.54-5.59A24,24,0,0,1,62.44,31a1.52,1.52,0,0,1-.15-1.14A1.46,1.46,0,0,1,63,29c10.33-6,19.07-6.38,25.56-1.28-1.17-8.17,3.56-15.54,13.89-21.5a1.5,1.5,0,0,1,2,.55,24,24,0,0,1,2.22,19.07A14.79,14.79,0,0,0,107.28,36l2.53,5.7a1.52,1.52,0,0,1-.63,1.91L92,53.5A1.56,1.56,0,0,1,91.27,53.7ZM65.84,30.79a21.07,21.07,0,0,0,12.7,8.75A17.72,17.72,0,0,1,88.8,46.28l2.89,3.95,14.83-8.57-2-4.47a17.74,17.74,0,0,1-.7-12.26,21,21,0,0,0-1.23-15.36c-9.76,6-13.18,13.19-10.15,21.24a1.51,1.51,0,0,1-.66,1.83l-.57.33a1.49,1.49,0,0,1-1.91-.35C83.86,26,76,25.37,65.84,30.79Z"/><line class="cls-2" x1="71.07" y1="24.94" x2="66.35" y2="13.81"/><path d="M71.07,26.44a1.51,1.51,0,0,1-1.39-.91L65,14.4a1.5,1.5,0,1,1,2.76-1.17l4.72,11.12a1.51,1.51,0,0,1-1.38,2.09Z"/><line class="cls-2" x1="94.93" y1="11.16" x2="87.65" y2="1.51"/><path d="M94.93,12.66a1.51,1.51,0,0,1-1.2-.59L86.45,2.42A1.5,1.5,0,0,1,88.85.61l7.28,9.65a1.5,1.5,0,0,1-1.2,2.4Z"/><path class="cls-2" d="M34.79,68.42l1.07,1.08L51.4,54a5.17,5.17,0,0,0,0-7.31h0l-21,4.9c-2.39.56-5.08-1-6.64-1.89L17.05,46a1.68,1.68,0,0,0-2,.29h0a1.7,1.7,0,0,0,0,2.38l9.69,9.69c1.55,1.55,3.38,1.49,5.54,1.11a77.76,77.76,0,0,0,8.8-2.67c2.08-.82,4.13.43,3.47,2.31C41.74,61.48,34.79,68.42,34.79,68.42Z"/><path d="M16.25,45.83a1.61,1.61,0,0,1,.8.2l6.71,3.63c1.34.73,3.5,2,5.6,2a4.55,4.55,0,0,0,1-.12l21-4.9a5.17,5.17,0,0,1,0,7.31L35.86,69.5l-1.07-1.08s7-6.94,7.77-9.28c.52-1.48-.63-2.56-2.16-2.56a3.66,3.66,0,0,0-1.31.25,77.76,77.76,0,0,1-8.8,2.67,12.69,12.69,0,0,1-2.13.23,4.51,4.51,0,0,1-3.41-1.34L15.06,48.7a1.7,1.7,0,0,1,0-2.38,1.72,1.72,0,0,1,1.19-.49m0-3h0a4.68,4.68,0,0,0-3.31,8l9.69,9.69a7.54,7.54,0,0,0,5.53,2.22,15.71,15.71,0,0,0,2.65-.27,60.92,60.92,0,0,0,7.34-2.12c-1.42,1.73-3.56,4-5.48,6a3,3,0,0,0,0,4.24l1.07,1.08a3,3,0,0,0,4.24,0L53.52,56.08a8.17,8.17,0,0,0,0-11.55,3,3,0,0,0-2.12-.88,3.23,3.23,0,0,0-.68.08l-21,4.9a1.37,1.37,0,0,1-.36,0,9.74,9.74,0,0,1-3.83-1.46L25.19,47l-6.71-3.63a4.67,4.67,0,0,0-2.23-.56Z"/><path class="cls-2" d="M146.13,146a18.76,18.76,0,0,1-3.78,11.31c-6.27,0-15.07-11.18-15.07-11.18s-8.79,11.25-15,11.25a18.84,18.84,0,0,1-.21-22.49c6.91,0,15.23,11.24,15.23,11.24s8.89-11.24,15.23-11.24A18.83,18.83,0,0,1,146.13,146Z"/><path d="M112.26,158.89a1.51,1.51,0,0,1-1.2-.59,20.35,20.35,0,0,1-.22-24.28,1.49,1.49,0,0,1,1.21-.62c6,0,12.62,7.17,15.26,10.36,2.79-3.23,9.57-10.36,15.2-10.36a1.49,1.49,0,0,1,1.21.62,20.32,20.32,0,0,1-.17,24.2,1.48,1.48,0,0,1-1.2.6c-5.58,0-12.31-7.11-15.07-10.32C124.54,151.73,117.82,158.89,112.26,158.89Zm.54-22.44a17.35,17.35,0,0,0,.18,19.38c4.08-.66,9.72-6.52,12.39-9.71C122.81,142.93,117.27,137.07,112.8,136.45Zm16.42,9.7c2.68,3.17,8.32,9,12.41,9.61a17.36,17.36,0,0,0,.14-19.3C137.62,137.13,131.92,143,129.22,146.15Z"/><line class="cls-2" x1="135.9" y1="146.14" x2="131.45" y2="146.14"/><path d="M135.9,147.64h-4.45a1.5,1.5,0,0,1,0-3h4.45a1.5,1.5,0,0,1,0,3Z"/><line class="cls-2" x1="123.11" y1="146.14" x2="118.65" y2="146.14"/><path d="M123.11,147.64h-4.46a1.5,1.5,0,1,1,0-3h4.46a1.5,1.5,0,1,1,0,3Z"/><path class="cls-2" d="M128.86,150.26a12,12,0,0,1-3.17.06,3.5,3.5,0,0,1-2.57-2.56,12.47,12.47,0,0,1,0-3.23,3.5,3.5,0,0,1,2.57-2.56,12,12,0,0,1,3.17.06,3.64,3.64,0,0,1,2.56,2.56,12.45,12.45,0,0,1,0,3.11A3.64,3.64,0,0,1,128.86,150.26Z"/><path d="M127,151.9a12.62,12.62,0,0,1-1.51-.09,5,5,0,0,1-3.89-3.81,14.09,14.09,0,0,1,0-3.67,5,5,0,0,1,3.85-3.85,13.53,13.53,0,0,1,3.6.07,5.15,5.15,0,0,1,3.81,3.8,13.19,13.19,0,0,1,0,3.55,5.13,5.13,0,0,1-3.76,3.83h0A14.16,14.16,0,0,1,127,151.9Zm1.82-1.64h0Zm-1.81-6.87a9.61,9.61,0,0,0-1.19.07,2.13,2.13,0,0,0-1.26,1.31,11.33,11.33,0,0,0,0,2.79,2.12,2.12,0,0,0,1.29,1.28,10.73,10.73,0,0,0,2.71-.06,2.23,2.23,0,0,0,1.32-1.32,10,10,0,0,0,0-2.67,2.24,2.24,0,0,0-1.34-1.28A9.8,9.8,0,0,0,127.05,143.39Z"/><path class="cls-3" d="M74,63.91h8.17L75.52,69l2.68,8.09-7.35-4.78-7.34,4.78L65.82,69l-6.27-5.07h8.2l3.1-8.06Z"/><path class="cls-3" d="M28.49,15.88,36.43,14l-5.29,6.45,4.47,7.27-8.25-3-6.05,6.34.39-8.41L14.43,19.2l8-1.89,1.17-8.55Z"/><path class="cls-3" d="M134.06,21l7.07,4.08-8.27,1.07-1.73,8.35-4-7.82-8.75.47,6.06-5.85-2.91-7.53,7.11,4.11,6.71-5.43Z"/><path class="cls-3" d="M157,45.43l8.14-.53-6.28,5.49,3.2,7.9L154.43,54l-7,5.25L149.2,51l-6.6-4.64,8.19-.54,2.57-8.24Z"/><path class="cls-3" d="M155.5,117.91l7.35,3.55-8.17,1.68-1.12,8.45-4.53-7.5-8.7,1.11,5.61-6.28-3.44-7.29,7.38,3.56,6.3-5.9Z"/><path class="cls-3" d="M22.67,81.45,27,88.38l-7.81-2.94L13.74,92l.16-8.76L6,79.54,14,77.21l1-8,4.35,7,8.48-1.64Z"/><path class="cls-3" d="M94.17,154.71l4.33,6.93-7.81-2.94-5.45,6.55.16-8.76-8-3.69,8.1-2.33,1-8,4.35,7,8.48-1.64Z"/></g></g></svg>