<svg xmlns="http://www.w3.org/2000/svg" viewBox="0 0 170 170"><defs><style>.cls-1{fill:none;opacity:0.2;}.cls-2{fill:#abc9c9;}.cls-3{fill:#fff;}</style></defs><g id="Layer_2" data-name="Layer 2"><g id="Drawings"><rect id="Rectangle_2497" data-name="Rectangle 2497" class="cls-1" width="170" height="170"/><path class="cls-2" d="M170,170V141.56a413.07,413.07,0,0,0-170,0V170Z"/><path class="cls-3" d="M71.47,72.21V43.89a6.76,6.76,0,0,1,6.76-6.76h0A6.77,6.77,0,0,1,85,43.89V92.37a22.66,22.66,0,0,1-6.66,16L34,151.06,10.33,128.18l50.1-33.11L55.7,54.27l10.79-48a5.92,5.92,0,0,1,5.77-4.62h0a5.92,5.92,0,0,1,5.91,5.91V35.35"/><path d="M34,152.56a1.5,1.5,0,0,1-1-.42L9.29,129.26A1.47,1.47,0,0,1,8.84,128a1.48,1.48,0,0,1,.66-1.11l49.34-32.6L54.21,54.45a1.46,1.46,0,0,1,0-.51L65,5.94A7.41,7.41,0,0,1,79.67,7.56V35.35a1.6,1.6,0,0,1,0,.39,8.28,8.28,0,0,1,6.88,8.15V92.37a24,24,0,0,1-7.1,17.1L35.06,152.14A1.48,1.48,0,0,1,34,152.56ZM12.72,128.4,34,149,77.3,107.33a21,21,0,0,0,6.2-15V43.89a5.27,5.27,0,0,0-10.53,0V72.21a1.5,1.5,0,1,1-3,0V43.89a8.29,8.29,0,0,1,6.76-8.13,1.35,1.35,0,0,1-.06-.41V7.56A4.41,4.41,0,0,0,68,6.6L57.22,54.35l4.7,40.55a1.49,1.49,0,0,1-.66,1.42Z"/><path class="cls-3" d="M98.53,72.21V43.89a6.77,6.77,0,0,0-6.77-6.76h0A6.76,6.76,0,0,0,85,43.89V92.37a22.65,22.65,0,0,0,6.65,16L136.19,151l23.48-22.86L109.56,95.07l4.73-40.8-10.79-48a5.9,5.9,0,0,0-5.76-4.62h0a5.91,5.91,0,0,0-5.91,5.91V35.35"/><path d="M136.19,152.54a1.52,1.52,0,0,1-1-.41L90.62,109.49A24,24,0,0,1,83.5,92.37V43.89a8.28,8.28,0,0,1,6.88-8.15,1.23,1.23,0,0,1,0-.39V7.56A7.41,7.41,0,0,1,105,5.94l10.79,48a1.75,1.75,0,0,1,0,.51l-4.62,39.88,49.34,32.6a1.48,1.48,0,0,1,.66,1.11,1.5,1.5,0,0,1-.44,1.22l-23.49,22.86A1.5,1.5,0,0,1,136.19,152.54ZM91.76,38.63a5.27,5.27,0,0,0-5.26,5.26V92.37a21.05,21.05,0,0,0,6.21,15L136.18,149l21.11-20.55L108.74,96.32a1.49,1.49,0,0,1-.67-1.42l4.7-40.55L102,6.6a4.41,4.41,0,0,0-8.71,1V35.35a1.35,1.35,0,0,1-.06.41A8.29,8.29,0,0,1,100,43.89V72.21a1.5,1.5,0,1,1-3,0V43.89A5.27,5.27,0,0,0,91.76,38.63Z"/><path class="cls-2" d="M150.92,50.48H140.08a1.5,1.5,0,0,1,0-3h10.84a1.5,1.5,0,0,1,0,3Z"/><path class="cls-2" d="M138.38,37.6a1.5,1.5,0,0,1-.39-3l5.57-1.49a1.5,1.5,0,0,1,.78,2.9l-5.57,1.49A1.31,1.31,0,0,1,138.38,37.6Z"/><path class="cls-2" d="M125.5,15.29a1.5,1.5,0,0,1-1.06-2.56l4.07-4.08a1.5,1.5,0,0,1,2.13,2.12l-4.08,4.08A1.51,1.51,0,0,1,125.5,15.29Z"/><path class="cls-2" d="M129.58,89.76a1.53,1.53,0,0,1-1.07-.44l-4.07-4.08a1.5,1.5,0,0,1,2.12-2.12l4.08,4.07a1.51,1.51,0,0,1-1.06,2.57Z"/><path class="cls-2" d="M144,64.86a1.74,1.74,0,0,1-.39,0L138,63.32a1.5,1.5,0,1,1,.78-2.9l5.57,1.49a1.5,1.5,0,0,1-.39,3Z"/><path class="cls-2" d="M133.41,25.6a1.5,1.5,0,0,1-.75-2.8l9.39-5.42a1.5,1.5,0,1,1,1.5,2.59l-9.39,5.43A1.59,1.59,0,0,1,133.41,25.6Z"/><path class="cls-2" d="M142.8,80.79a1.46,1.46,0,0,1-.75-.2l-9.39-5.42a1.5,1.5,0,1,1,1.5-2.6L143.55,78a1.5,1.5,0,0,1-.75,2.8Z"/><path class="cls-2" d="M29.92,50.48H19.08a1.5,1.5,0,0,1,0-3H29.92a1.5,1.5,0,1,1,0,3Z"/><path class="cls-2" d="M31.62,37.6a1.31,1.31,0,0,1-.39-.05l-5.57-1.49a1.5,1.5,0,0,1,.78-2.9L32,34.65a1.5,1.5,0,0,1-.39,3Z"/><path class="cls-2" d="M44.5,15.29a1.51,1.51,0,0,1-1.06-.44l-4.08-4.08a1.5,1.5,0,1,1,2.13-2.12l4.07,4.08a1.5,1.5,0,0,1-1.06,2.56Z"/><path class="cls-2" d="M40.43,89.76a1.51,1.51,0,0,1-1.07-2.57l4.08-4.07a1.5,1.5,0,0,1,2.12,2.12l-4.07,4.08A1.53,1.53,0,0,1,40.43,89.76Z"/><path class="cls-2" d="M26.05,64.86a1.5,1.5,0,0,1-.39-3l5.57-1.49a1.5,1.5,0,0,1,.78,2.9l-5.57,1.49A1.74,1.74,0,0,1,26.05,64.86Z"/><path class="cls-2" d="M36.59,25.6a1.59,1.59,0,0,1-.75-.2L26.45,20A1.5,1.5,0,1,1,28,17.38l9.39,5.42a1.5,1.5,0,0,1-.75,2.8Z"/><path class="cls-2" d="M27.2,80.79a1.5,1.5,0,0,1-.75-2.8l9.39-5.42a1.5,1.5,0,1,1,1.5,2.6L28,80.59A1.46,1.46,0,0,1,27.2,80.79Z"/></g></g></svg>