<svg xmlns="http://www.w3.org/2000/svg" viewBox="0 0 170 170.22"><defs><style>.cls-1{fill:none;opacity:0.2;}.cls-2{fill:#abc9c9;}.cls-3{fill:#fff;}</style></defs><g id="Layer_2" data-name="Layer 2"><g id="Drawings"><rect id="Rectangle_2497" data-name="Rectangle 2497" class="cls-1" y="0.22" width="170" height="170"/><circle class="cls-2" cx="85" cy="85.22" r="71.34"/><path class="cls-3" d="M90,96.77c13.45,13.45,25.61,17.87,25.61,17.87s14-14.74,17.32-17.32,7.95,1.26,7.95,1.26l13.61,13.66s2.58,1.85,3.13,6.45-3.68,7-8.52,11.48-22.8,6.58-22.8,6.58-26.53-12.16-45.33-31S50,60.47,50,60.47s2.11-18,6.58-22.8,6.87-9.08,11.47-8.53,6.45,3.14,6.45,3.14l13.66,13.6s3.85,4.64,1.27,7.95S72.13,71.15,72.13,71.15,76.55,83.31,90,96.77Z"/><path d="M126.3,138.25a1.52,1.52,0,0,1-.63-.14c-.26-.12-27-12.49-45.76-31.26S48.78,61.36,48.65,61.09a1.55,1.55,0,0,1-.12-.8c.22-1.89,2.3-18.59,7-23.64.87-.94,1.66-1.86,2.4-2.72,3.15-3.66,5.86-6.82,10.35-6.28a11.08,11.08,0,0,1,7.4,3.63L89.24,44.82l.1.11c.19.22,4.57,5.61,1.29,9.82C88.32,57.72,77,68.61,73.9,71.53c1.3,3,6.19,13.2,17.16,24.17h0c11,11,21.16,15.87,24.17,17.16C118.15,109.8,129,98.44,132,96.13c4.22-3.28,9.6,1.11,9.83,1.3l.1.09,13.55,13.6a11.13,11.13,0,0,1,3.62,7.39c.54,4.49-2.62,7.21-6.27,10.35-.86.75-1.78,1.54-2.73,2.41-5.05,4.67-21.75,6.75-23.64,7Zm-74.74-78c1.56,3.3,13.3,27.34,30.47,44.51s41.22,28.91,44.52,30.48c5.17-.65,18-2.85,21.53-6.15,1-.89,1.91-1.71,2.8-2.47,3.68-3.17,5.59-5,5.25-7.72-.46-3.82-2.44-5.35-2.53-5.42l-.17-.15L139.88,99.7c-.43-.34-3.85-2.89-6-1.2-3.19,2.48-17,17-17.15,17.17a1.51,1.51,0,0,1-1.6.38c-.51-.19-12.63-4.69-26.16-18.22s-18-25.65-18.22-26.16a1.49,1.49,0,0,1,.37-1.6c.15-.14,14.69-14,17.17-17.16,1.7-2.17-.85-5.58-1.19-6L73.46,33.34c0-.06-.11-.12-.16-.19s-1.59-2.06-5.4-2.52c-2.78-.33-4.56,1.57-7.72,5.25-.77.89-1.58,1.84-2.48,2.81C54.4,42.26,52.2,55.05,51.56,60.22Z"/><path d="M85.75,59.34a1.45,1.45,0,0,1-1.06-.44L73.41,47.62a1.49,1.49,0,0,1,0-2.12,1.51,1.51,0,0,1,2.12,0L86.81,56.78a1.51,1.51,0,0,1,0,2.12A1.47,1.47,0,0,1,85.75,59.34Z"/><path d="M69.58,43.17a1.47,1.47,0,0,1-1.06-.44l-2.85-2.84a1.5,1.5,0,0,1,2.12-2.13l2.85,2.85a1.49,1.49,0,0,1,0,2.12A1.47,1.47,0,0,1,69.58,43.17Z"/><path d="M153.89,127.49a1.53,1.53,0,0,1-1.06-.44l-11.27-11.28a1.5,1.5,0,1,1,2.12-2.12L155,124.93a1.51,1.51,0,0,1,0,2.12A1.53,1.53,0,0,1,153.89,127.49Z"/><path d="M137.73,111.32a1.53,1.53,0,0,1-1.07-.44L133.82,108a1.5,1.5,0,0,1,2.12-2.12l2.85,2.85a1.51,1.51,0,0,1,0,2.12A1.53,1.53,0,0,1,137.73,111.32Z"/><path d="M87.92,31.9a1.48,1.48,0,0,1-1.06-.43,1.5,1.5,0,0,1,0-2.13L110.42,5.79a1.49,1.49,0,0,1,2.12,0,1.51,1.51,0,0,1,0,2.12L89,31.47A1.5,1.5,0,0,1,87.92,31.9Z"/><path d="M98.61,42.6A1.5,1.5,0,0,1,98,39.71l18.21-7.52A1.5,1.5,0,0,1,117.4,35L99.18,42.48A1.46,1.46,0,0,1,98.61,42.6Z"/><path d="M77.23,21.21a1.41,1.41,0,0,1-.57-.11,1.5,1.5,0,0,1-.82-2L83.36.93a1.5,1.5,0,1,1,2.78,1.14L78.61,20.29A1.47,1.47,0,0,1,77.23,21.21Z"/><path class="cls-3" d="M122.35,168.6c-23.58,0-32.6-9.78-43-21.11A141.21,141.21,0,0,0,66,134.33c-8.33-7-25.67-21.57-60.17,14.31a2.5,2.5,0,1,1-3.6-3.47c37.74-39.24,58.23-22,67-14.67A147.59,147.59,0,0,1,83,144.1c10.44,11.32,18,19.5,39.37,19.5,8,0,13.87-2.31,17.36-6.86,6.21-8.12,3.25-21,3.22-21.08a2.5,2.5,0,0,1,4.81-1.36c0,.14,3.8,15.07-4,25.38C139.28,165.6,132.08,168.6,122.35,168.6Z"/><path d="M122.35,170.1c-24.23,0-33.46-10-44.15-21.59a141.93,141.93,0,0,0-13.19-13c-8-6.7-24.59-20.65-58.12,14.21a4,4,0,0,1-5.66.11,4,4,0,0,1-.11-5.66c38.72-40.25,60-22.4,69-14.78a149.17,149.17,0,0,1,13.92,13.73c10.18,11,17.54,19,38.27,19,7.54,0,13-2.11,16.16-6.27,5.7-7.45,3-19.69,3-19.81a4,4,0,0,1,7.71-2.13c0,.15,4,15.81-4.23,26.7C140.18,166.9,132.57,170.1,122.35,170.1ZM45.63,123.82c10.17,0,16.93,5.68,21.31,9.36A141.6,141.6,0,0,1,80.4,146.47c10.22,11.07,19,20.63,41.95,20.63,9.23,0,16-2.8,20.2-8.32,7.35-9.73,3.78-23.95,3.74-24.1a1,1,0,0,0-1.22-.65,1,1,0,0,0-.69,1.24c0,.13,3.26,13.57-3.48,22.38-3.78,4.94-10,7.45-18.55,7.45-22,0-29.77-8.38-40.47-20a145.79,145.79,0,0,0-13.65-13.47C59.8,124.56,40.06,108,3.29,146.21a1,1,0,1,0,1.44,1.39C22.31,129.31,35.62,123.82,45.63,123.82Z"/><circle class="cls-2" cx="22.78" cy="28.54" r="3.67"/><circle class="cls-2" cx="22.17" cy="15.11" r="2.46"/><circle class="cls-2" cx="37.13" cy="13.46" r="2.46"/><circle class="cls-2" cx="152.95" cy="28.54" r="3.67"/><circle class="cls-2" cx="153.56" cy="15.11" r="2.46"/><circle class="cls-2" cx="138.59" cy="13.46" r="2.46"/></g></g></svg>