<svg xmlns="http://www.w3.org/2000/svg" viewBox="0 0 170 170"><defs><style>.cls-1{fill:none;opacity:0.2;}.cls-2{fill:#abc9c9;}.cls-3{fill:#fff;}</style></defs><g id="Layer_2" data-name="Layer 2"><g id="Drawings"><rect id="Rectangle_2497" data-name="Rectangle 2497" class="cls-1" width="170" height="170"/><ellipse class="cls-2" cx="85" cy="141.13" rx="85" ry="28.87"/><path class="cls-3" d="M85.1,42.38A33.34,33.34,0,0,0,51.76,75.72c0,39.28,33.34,67.42,33.34,67.42s33.34-29.49,33.34-67.42A33.34,33.34,0,0,0,85.1,42.38Zm0,51a17.68,17.68,0,1,1,17.67-17.68A17.69,17.69,0,0,1,85.1,93.4Z"/><path d="M85.1,144.64a1.47,1.47,0,0,1-1-.35c-.34-.29-33.87-29-33.87-68.57a34.84,34.84,0,0,1,69.68,0c0,38.16-33.51,68.25-33.85,68.55A1.49,1.49,0,0,1,85.1,144.64Zm0-100.76A31.88,31.88,0,0,0,53.26,75.72c0,34.31,26.34,60.35,31.82,65.39,5.44-5.21,31.86-32.22,31.86-65.39A31.88,31.88,0,0,0,85.1,43.88Zm0,51a19.18,19.18,0,1,1,19.17-19.18A19.2,19.2,0,0,1,85.1,94.9Zm0-35.35a16.18,16.18,0,1,0,16.17,16.17A16.19,16.19,0,0,0,85.1,59.55Z"/><path class="cls-2" d="M85,18.19a1.5,1.5,0,0,1-1.5-1.5V1.75a1.5,1.5,0,0,1,3,0V16.69A1.5,1.5,0,0,1,85,18.19Z"/><path class="cls-2" d="M67.25,20.53a1.49,1.49,0,0,1-1.45-1.11l-2.06-7.67a1.5,1.5,0,1,1,2.9-.78l2.06,7.67a1.5,1.5,0,0,1-1.06,1.84A1.35,1.35,0,0,1,67.25,20.53Z"/><path class="cls-2" d="M36.5,38.28a1.48,1.48,0,0,1-1.06-.43l-5.62-5.62a1.5,1.5,0,0,1,2.12-2.12l5.62,5.61a1.52,1.52,0,0,1,0,2.13A1.5,1.5,0,0,1,36.5,38.28Z"/><path class="cls-2" d="M133.5,38.28a1.5,1.5,0,0,1-1.06-.43,1.52,1.52,0,0,1,0-2.13l5.62-5.61a1.5,1.5,0,0,1,2.12,2.12l-5.62,5.62A1.48,1.48,0,0,1,133.5,38.28Z"/><path class="cls-2" d="M102.75,20.53a1.35,1.35,0,0,1-.39-.05,1.5,1.5,0,0,1-1.06-1.84L103.36,11a1.5,1.5,0,0,1,2.9.78l-2.06,7.67A1.49,1.49,0,0,1,102.75,20.53Z"/><path class="cls-2" d="M50.71,27.38a1.5,1.5,0,0,1-1.31-.75L41.93,13.69a1.5,1.5,0,1,1,2.6-1.5L52,25.13a1.49,1.49,0,0,1-.55,2.05A1.42,1.42,0,0,1,50.71,27.38Z"/><path class="cls-2" d="M25.6,52.49a1.43,1.43,0,0,1-.75-.2L11.9,44.82a1.5,1.5,0,0,1-.54-2,1.48,1.48,0,0,1,2-.55l13,7.47a1.5,1.5,0,0,1-.75,2.8Z"/><path class="cls-2" d="M144.4,52.49a1.5,1.5,0,0,1-.75-2.8l12.95-7.47a1.5,1.5,0,0,1,1.5,2.6l-12.95,7.47A1.43,1.43,0,0,1,144.4,52.49Z"/><path class="cls-2" d="M119.29,27.38a1.42,1.42,0,0,1-.74-.2,1.49,1.49,0,0,1-.55-2.05l7.47-12.94a1.5,1.5,0,0,1,2.6,1.5L120.6,26.63A1.5,1.5,0,0,1,119.29,27.38Z"/></g></g></svg>