<svg xmlns="http://www.w3.org/2000/svg" viewBox="0 0 170 170"><defs><style>.cls-1{fill:none;opacity:0.2;}.cls-2{fill:#abc9c9;}.cls-3{fill:#fff;}</style></defs><g id="Layer_2" data-name="Layer 2"><g id="Drawings"><rect id="Rectangle_2497" data-name="Rectangle 2497" class="cls-1" width="170" height="170"/><circle id="Ellipse_2206" data-name="Ellipse 2206" class="cls-2" cx="85" cy="85" r="85"/><circle class="cls-3" cx="85" cy="85" r="57.06"/><path d="M85,143.56A58.56,58.56,0,1,1,143.56,85,58.63,58.63,0,0,1,85,143.56ZM85,29.44A55.56,55.56,0,1,0,140.56,85,55.63,55.63,0,0,0,85,29.44Z"/><path class="cls-3" d="M113.74,62.07a36.68,36.68,0,1,1-15.81-11.5"/><path d="M85,123.27A38.27,38.27,0,1,1,98.46,49.16,1.5,1.5,0,1,1,97.4,52a35.3,35.3,0,1,0,15.17,11,1.5,1.5,0,0,1,2.35-1.87A37.9,37.9,0,0,1,123.27,85,38.32,38.32,0,0,1,85,123.27Z"/><path class="cls-3" d="M104.92,53.67a36.19,36.19,0,0,1,3.71,3"/><path d="M108.63,58.19a1.5,1.5,0,0,1-1-.4,36.5,36.5,0,0,0-3.55-2.9,1.5,1.5,0,1,1,1.73-2.44,37.52,37.52,0,0,1,3.86,3.14,1.49,1.49,0,0,1,.08,2.12A1.47,1.47,0,0,1,108.63,58.19Z"/><path class="cls-3" d="M13.58,58.13H19.9l1.59,85.58a4.75,4.75,0,0,1-4.75,4.84h0A4.75,4.75,0,0,1,12,143.71Z"/><path d="M16.74,150.05a6.23,6.23,0,0,1-6.24-6.36L12.08,58.1a1.5,1.5,0,0,1,1.5-1.47H19.9a1.5,1.5,0,0,1,1.5,1.47L23,143.69a6.25,6.25,0,0,1-6.25,6.36ZM15.05,59.63,13.5,143.74a3.2,3.2,0,0,0,.93,2.34,3.33,3.33,0,0,0,4.63,0,3.2,3.2,0,0,0,.93-2.34L18.43,59.63Z"/><path class="cls-3" d="M24.5,21.45h-.06A1.44,1.44,0,0,0,23.15,23V47.82a1.43,1.43,0,0,1-1.28,1.54h0a1.43,1.43,0,0,1-1.28-1.54V23a1.43,1.43,0,0,0-1.28-1.55h0A1.44,1.44,0,0,0,18,23V47.82a1.43,1.43,0,0,1-1.28,1.54h0a1.43,1.43,0,0,1-1.28-1.54V23a1.43,1.43,0,0,0-1.28-1.55h0A1.44,1.44,0,0,0,12.89,23V47.82a1.43,1.43,0,0,1-1.28,1.54h0a1.43,1.43,0,0,1-1.28-1.54V23a1.43,1.43,0,0,0-1.28-1.55H9A1.42,1.42,0,0,0,7.7,22.93L6.55,53.24c-.17,4.5,2.81,8.25,6.55,8.25h7.28c3.74,0,6.72-3.75,6.55-8.25L25.78,22.93A1.42,1.42,0,0,0,24.5,21.45Z"/><path d="M24.5,21.45a1.42,1.42,0,0,1,1.28,1.48l1.15,30.31c.17,4.5-2.81,8.25-6.55,8.25H13.1c-3.74,0-6.72-3.75-6.55-8.25L7.7,22.93A1.42,1.42,0,0,1,9,21.45h.06A1.43,1.43,0,0,1,10.33,23V47.82a1.43,1.43,0,0,0,1.28,1.54,1.43,1.43,0,0,0,1.28-1.54V23a1.44,1.44,0,0,1,1.29-1.55A1.43,1.43,0,0,1,15.46,23V47.82a1.43,1.43,0,0,0,1.28,1.54A1.43,1.43,0,0,0,18,47.82V23a1.44,1.44,0,0,1,1.29-1.55A1.43,1.43,0,0,1,20.59,23V47.82a1.43,1.43,0,0,0,1.28,1.54,1.43,1.43,0,0,0,1.28-1.54V23a1.44,1.44,0,0,1,1.29-1.55h.06m0-3h-.06a4.13,4.13,0,0,0-2.57.91,4.08,4.08,0,0,0-2.56-.91,4.13,4.13,0,0,0-2.57.91,4.08,4.08,0,0,0-2.56-.91,4.13,4.13,0,0,0-2.57.91,4.08,4.08,0,0,0-2.56-.91H9a4.4,4.4,0,0,0-4.28,4.37L3.56,53.13a11.63,11.63,0,0,0,3.1,8.53,8.91,8.91,0,0,0,6.44,2.83h7.28a8.88,8.88,0,0,0,6.44-2.83,11.68,11.68,0,0,0,3.11-8.53L28.78,22.82a4.4,4.4,0,0,0-4.28-4.37Z"/><path class="cls-3" d="M163.28,25.2l1.56,118.2a5.09,5.09,0,0,1-5.09,5.15h0a5.08,5.08,0,0,1-5.07-5.33l2.49-52h0a7.49,7.49,0,0,1-7.45-8.26l6-58.08a3.79,3.79,0,0,1,3.77-3.41h0A3.8,3.8,0,0,1,163.28,25.2Z"/><path d="M159.75,150.05a6.58,6.58,0,0,1-6.57-6.9l2.42-50.59a9,9,0,0,1-7.37-9.77l6-58.09a5.29,5.29,0,0,1,10.56.48l1.56,118.2a6.59,6.59,0,0,1-6.59,6.67ZM159.48,23A2.29,2.29,0,0,0,157.2,25l-6,58.08a6,6,0,0,0,6,6.61,1.47,1.47,0,0,1,1.08.46,1.52,1.52,0,0,1,.41,1.11l-2.48,52a3.58,3.58,0,1,0,7.16.13l-1.56-118.2A2.31,2.31,0,0,0,159.48,23Z"/><path d="M160.06,92.7h-2.89a1.5,1.5,0,0,1,0-3h2.89a1.5,1.5,0,0,1,0,3Z"/><circle cx="79.89" cy="85.42" r="1.48"/><circle cx="89.44" cy="76.74" r="1.48"/><circle cx="90.11" cy="93.26" r="1.48"/></g></g></svg>