<svg xmlns="http://www.w3.org/2000/svg" viewBox="0 0 170 170"><defs><style>.cls-1{fill:none;opacity:0.2;}.cls-2{fill:#fff;}.cls-3{fill:#abc9c9;}</style></defs><g id="Layer_2" data-name="Layer 2"><g id="Drawings"><rect id="Rectangle_2497" data-name="Rectangle 2497" class="cls-1" width="170" height="170"/><polygon class="cls-2" points="85 23.76 96.19 0 100.85 25.85 117.81 5.79 115.62 31.97 137.19 16.98 128.3 41.7 153.02 32.81 138.03 54.38 164.21 52.19 144.15 69.15 170 73.81 146.24 85 170 96.19 144.15 100.85 164.21 117.81 138.03 115.62 153.02 137.19 128.3 128.3 137.19 153.02 115.62 138.03 117.81 164.21 100.85 144.15 96.19 170 85 146.24 73.81 170 69.15 144.15 52.19 164.21 54.38 138.03 32.81 153.02 41.7 128.3 16.98 137.19 31.97 115.62 5.79 117.81 25.85 100.85 0 96.19 23.76 85 0 73.81 25.85 69.15 5.79 52.19 31.97 54.38 16.98 32.81 41.7 41.7 32.81 16.98 54.38 31.97 52.19 5.79 69.15 25.85 73.81 0 85 23.76"/><path class="cls-3" d="M139,82.84c4.65,10.35-3.95,20.59-8,20.67H121L105.88,76.69l22.29-12.9L138.86,82.3Z"/><path d="M121,105a1.48,1.48,0,0,1-1.3-.76L104.57,77.42a1.5,1.5,0,0,1,.56-2L127.42,62.5a1.51,1.51,0,0,1,1.14-.16,1.56,1.56,0,0,1,.91.7l10.69,18.51a1.39,1.39,0,0,1,.12.28l.16.46c3.36,7.56.05,14.18-1.53,16.69-2.26,3.56-5.4,6-7.82,6Zm.88-3h9.19c.95,0,3.33-1.51,5.31-4.64,1.33-2.1,4.12-7.66,1.3-13.92,0,0,0-.09,0-.14l-.13-.39-9.87-17.08-19.7,11.4Z"/><path class="cls-2" d="M130.19,103.35c3.06-.09,5.15-1.92,7.76-5.68l-17,28.58c-1.22,2.72-2.89,3.17-4.65,3h-11l-.09,9.12L88.59,116.43l16.72-22.19v9.11Z"/><path d="M105.22,139.86a1.49,1.49,0,0,1-1.19-.59L87.39,117.33a1.52,1.52,0,0,1,0-1.81l16.73-22.18a1.49,1.49,0,0,1,2.69.9v7.61h23.35c2.32-.07,4-1.4,6.55-5a1.5,1.5,0,0,1,2.53,1.62l-17,28.52c-1.28,2.81-3.27,4-6.05,3.79H106.8l-.08,7.64a1.48,1.48,0,0,1-1.5,1.48ZM90.47,116.42,103.77,134l0-4.74a1.49,1.49,0,0,1,1.49-1.48h11.16c1.1.11,2.16,0,3.12-2.11a1.09,1.09,0,0,1,.08-.15l12.41-20.89a8.35,8.35,0,0,1-1.85.25H105.31a1.5,1.5,0,0,1-1.5-1.5V98.72Z"/><path class="cls-3" d="M59.69,38.1c6.64-9.2,19.81-6.88,21.9-3.42l5,8.72L71,69.9,48.63,57,59.32,38.53Z"/><path d="M70.94,71.4a1.52,1.52,0,0,1-.74-.2L47.89,58.34a1.5,1.5,0,0,1-.55-2.05L58,37.78a2.2,2.2,0,0,1,.17-.25l.33-.37c4.87-6.68,12.26-7.13,15.21-7,4.22.17,7.89,1.68,9.14,3.75l5,8.75a1.49,1.49,0,0,1,0,1.51L72.24,70.66A1.51,1.51,0,0,1,70.94,71.4ZM50.68,56.49,70.41,67.86,84.88,43.39l-4.59-8c-.49-.81-3-2.13-6.68-2.28-2.48-.1-8.69.26-12.7,5.83l-.09.12-.28.31Zm9-18.39h0Z"/><path class="cls-2" d="M81.89,35.51c-1.62-2.61-4.24-3.5-8.81-3.87l33.25.42c3-.31,4.19.91,4.91,2.53l5.5,9.52,8-4.48L114,65,86.43,61.61l7.89-4.56Z"/><path d="M114,66.5h-.19L86.24,63.1a1.5,1.5,0,0,1-.56-2.79l6.59-3.81L80.6,36.28c-1.23-2-3.23-2.79-7.64-3.15a1.5,1.5,0,0,1,.14-3l33.17.41c3.07-.29,5.14.81,6.31,3.35l4.72,8.18L124,38.32a1.5,1.5,0,0,1,2.12,1.89L115.39,65.58A1.5,1.5,0,0,1,114,66.5Zm-23-5.83,22,2.7,8.54-20.28-4.12,2.33a1.51,1.51,0,0,1-2-.56l-5.5-9.52c0-.05,0-.09-.07-.14-.45-1-1.05-1.89-3.39-1.65h-.17L82,33.25a8.5,8.5,0,0,1,1.15,1.47l0,0L95.62,56.3a1.52,1.52,0,0,1,.15,1.14,1.46,1.46,0,0,1-.7.91Z"/><path class="cls-3" d="M60.79,130.16C49.5,129,44.93,116.45,46.88,112.91l5-8.72,30.79.33,0,25.75H61.35Z"/><path d="M61.35,131.77l-.3,0-.48-.09c-8.23-.88-12.31-7.05-13.68-9.68-2-3.73-2.49-7.66-1.32-9.78l5-8.75a1.55,1.55,0,0,1,1.32-.75l30.79.33a1.5,1.5,0,0,1,1.48,1.5l0,25.75a1.52,1.52,0,0,1-.44,1.06,1.5,1.5,0,0,1-1.06.44ZM52.77,105.7l-4.59,8c-.46.83-.36,3.64,1.36,6.92,1.16,2.2,4.58,7.39,11.41,8.09l.14,0,.41.08H81.22l0-22.77Z"/><path class="cls-2" d="M47.45,112.24c-1.45,2.7-.91,5.42,1,9.56l-16.26-29c-1.75-2.41-1.3-4.08-.27-5.51l5.5-9.53-7.85-4.64,27.31-3.44L67.78,95.25l-7.89-4.56Z"/><path d="M48.5,123.3a1.49,1.49,0,0,1-1.31-.77L31,93.6c-1.79-2.52-1.88-4.85-.26-7.14l4.72-8.17L28.85,74.4a1.5,1.5,0,0,1,.58-2.78l27.31-3.43a1.49,1.49,0,0,1,1.57.9L69.16,94.67a1.49,1.49,0,0,1-.38,1.71,1.53,1.53,0,0,1-1.75.17l-6.59-3.81L48.76,113c-1.09,2-.8,4.19,1.09,8.19a1.49,1.49,0,0,1-.66,2A1.44,1.44,0,0,1,48.5,123.3ZM34.16,74.05l4.07,2.41a1.5,1.5,0,0,1,.54,2L33.27,88l-.08.13c-.65.89-1.12,1.85.26,3.75a1.19,1.19,0,0,1,.09.15l11.89,21.2a8.15,8.15,0,0,1,.7-1.73l0,0L58.59,89.94a1.51,1.51,0,0,1,.91-.69,1.47,1.47,0,0,1,1.14.15l4,2.31L56,71.3Z"/></g></g></svg>