<svg xmlns="http://www.w3.org/2000/svg" viewBox="0 0 170.44 170"><defs><style>.cls-1{fill:none;opacity:0.2;}.cls-2{fill:#abc9c9;}.cls-3{fill:#fff;}</style></defs><g id="Layer_2" data-name="Layer 2"><g id="Drawings"><rect id="Rectangle_2497" data-name="Rectangle 2497" class="cls-1" x="0.44" width="170" height="170"/><path class="cls-2" d="M168.86,55.27l1.58,2.64L160.19,64l-1.44-2.43,1.82-8.22a5.44,5.44,0,0,0-.25-4q-1-1.77-3.09-.56a6.77,6.77,0,0,0-1.72,1.53,9.6,9.6,0,0,0-1.35,2.25l-2.43-1.73a7.74,7.74,0,0,1,1.56-2.58,10.86,10.86,0,0,1,2.58-2.15,6.64,6.64,0,0,1,4.37-1.09,4.23,4.23,0,0,1,3.17,2.17A6.16,6.16,0,0,1,164.3,50a12.17,12.17,0,0,1-.35,3.53l-1.23,5.46Z"/><path class="cls-2" d="M116.63,8.17a4.31,4.31,0,0,1,1.65,2.22,4.23,4.23,0,0,1-.45,3.94,7.6,7.6,0,0,1-4,2.78,11.37,11.37,0,0,1-3.38.65,7.2,7.2,0,0,1-3-.45l.23-2.94a8.09,8.09,0,0,0,5,0,3.8,3.8,0,0,0,2-1.27,2.05,2.05,0,0,0,.09-1.86,1.89,1.89,0,0,0-1.22-1.32,3.91,3.91,0,0,0-2.3.27l-2.32.82-1-2.78,1.93-.68a3.86,3.86,0,0,0,1.91-1.21,1.85,1.85,0,0,0,.15-1.73A2.08,2.08,0,0,0,110.8,3.3a2.71,2.71,0,0,0-1.91.08,6.57,6.57,0,0,0-2,1.15,9.33,9.33,0,0,0-1.72,1.91l-2-2.15a7.5,7.5,0,0,1,2-2.19,10.43,10.43,0,0,1,3-1.6A7.57,7.57,0,0,1,111.23,0a4.65,4.65,0,0,1,2.46.84,4.19,4.19,0,0,1,1.48,2.06,4.06,4.06,0,0,1,.13,2.52,4,4,0,0,1-1.37,2.07A4.29,4.29,0,0,1,116.63,8.17Z"/><path class="cls-2" d="M159.91,103.78l-2.31-1.35-1.71,2.94-3.66-2.13,1.71-2.94-7.1-4.13,1.53-2.61,13.85-6,3,1.75-6.05,10.39,2.31,1.34Zm-4.39-6.18,2.91-5-6.59,2.85Z"/><path class="cls-2" d="M17.29,85.15A5.29,5.29,0,0,1,20,86.3a6.37,6.37,0,0,1,1.88,2.61,6.17,6.17,0,0,1,.45,3.4,5.91,5.91,0,0,1-1.49,3,8.7,8.7,0,0,1-3.22,2.17,11.51,11.51,0,0,1-3.47.82A8.13,8.13,0,0,1,11,98L11,94.77a8.92,8.92,0,0,0,5.42-.29,3.54,3.54,0,0,0,2-1.62,2.77,2.77,0,0,0-.06-2.35,2.82,2.82,0,0,0-1.63-1.68,3.31,3.31,0,0,0-2.47.16,4.93,4.93,0,0,0-1.57,1,5.68,5.68,0,0,0-1.17,1.51l-2.18.9L5.15,82.2l11.12-4.58,1.2,2.91-7.4,3,1.59,3.85a5.92,5.92,0,0,1,2.5-1.8A6.19,6.19,0,0,1,17.29,85.15Z"/><rect class="cls-2" y="138.19" width="170.44" height="31.81"/><rect class="cls-3" x="76.08" y="73.83" width="18.72" height="128.71" rx="5.36" transform="translate(-52.75 223.62) rotate(-90)"/><path d="M144.44,149.05h-118a6.87,6.87,0,0,1-6.86-6.86v-8a6.87,6.87,0,0,1,6.86-6.86h118a6.86,6.86,0,0,1,6.85,6.86v8A6.86,6.86,0,0,1,144.44,149.05Zm-118-18.73a3.86,3.86,0,0,0-3.86,3.86v8a3.86,3.86,0,0,0,3.86,3.86h118a3.86,3.86,0,0,0,3.85-3.86v-8a3.86,3.86,0,0,0-3.85-3.86Z"/><rect class="cls-3" x="31.08" y="34.31" width="8.53" height="94.51" transform="translate(70.69 163.14) rotate(180)"/><path d="M39.61,130.32H31.08a1.5,1.5,0,0,1-1.5-1.5V34.31a1.5,1.5,0,0,1,1.5-1.5h8.53a1.5,1.5,0,0,1,1.5,1.5v94.51A1.5,1.5,0,0,1,39.61,130.32Zm-7-3h5.53V35.81H32.58Z"/><rect class="cls-3" x="131.26" y="34.31" width="8.53" height="94.51" transform="translate(271.06 163.14) rotate(180)"/><path d="M139.79,130.32h-8.53a1.5,1.5,0,0,1-1.5-1.5V34.31a1.5,1.5,0,0,1,1.5-1.5h8.53a1.5,1.5,0,0,1,1.5,1.5v94.51A1.5,1.5,0,0,1,139.79,130.32Zm-7-3h5.53V35.81h-5.53Z"/><path d="M131.26,47.83H39.61a1.5,1.5,0,0,1,0-3h91.65a1.5,1.5,0,0,1,0,3Z"/><path d="M131.26,77.83H39.61a1.5,1.5,0,0,1,0-3h91.65a1.5,1.5,0,0,1,0,3Z"/><path d="M131.26,107.83H39.61a1.5,1.5,0,0,1,0-3h91.65a1.5,1.5,0,0,1,0,3Z"/><circle class="cls-3" cx="59.48" cy="46.33" r="6.28"/><path d="M59.48,54.11a7.78,7.78,0,1,1,7.78-7.78A7.79,7.79,0,0,1,59.48,54.11Zm0-12.55a4.78,4.78,0,1,0,4.78,4.77A4.78,4.78,0,0,0,59.48,41.56Z"/><circle class="cls-3" cx="79.48" cy="46.33" r="6.28"/><path d="M79.48,54.11a7.78,7.78,0,1,1,7.78-7.78A7.79,7.79,0,0,1,79.48,54.11Zm0-12.55a4.78,4.78,0,1,0,4.78,4.77A4.78,4.78,0,0,0,79.48,41.56Z"/><circle class="cls-3" cx="99.48" cy="46.33" r="6.28"/><path d="M99.48,54.11a7.78,7.78,0,1,1,7.78-7.78A7.79,7.79,0,0,1,99.48,54.11Zm0-12.55a4.78,4.78,0,1,0,4.78,4.77A4.78,4.78,0,0,0,99.48,41.56Z"/><circle class="cls-3" cx="59.48" cy="106.33" r="6.28"/><path d="M59.48,114.11a7.78,7.78,0,1,1,7.78-7.78A7.79,7.79,0,0,1,59.48,114.11Zm0-12.55a4.78,4.78,0,1,0,4.78,4.77A4.78,4.78,0,0,0,59.48,101.56Z"/><circle class="cls-3" cx="79.48" cy="106.33" r="6.28"/><path d="M79.48,114.11a7.78,7.78,0,1,1,7.78-7.78A7.79,7.79,0,0,1,79.48,114.11Zm0-12.55a4.78,4.78,0,1,0,4.78,4.77A4.78,4.78,0,0,0,79.48,101.56Z"/><circle class="cls-3" cx="99.48" cy="106.33" r="6.28"/><path d="M99.48,114.11a7.78,7.78,0,1,1,7.78-7.78A7.79,7.79,0,0,1,99.48,114.11Zm0-12.55a4.78,4.78,0,1,0,4.78,4.77A4.78,4.78,0,0,0,99.48,101.56Z"/><circle class="cls-2" cx="79.48" cy="76.33" r="6.28"/><path d="M79.48,84.11a7.78,7.78,0,1,1,7.78-7.78A7.79,7.79,0,0,1,79.48,84.11Zm0-12.55a4.78,4.78,0,1,0,4.78,4.77A4.78,4.78,0,0,0,79.48,71.56Z"/><circle class="cls-2" cx="99.48" cy="76.33" r="6.28"/><path d="M99.48,84.11a7.78,7.78,0,1,1,7.78-7.78A7.79,7.79,0,0,1,99.48,84.11Zm0-12.55a4.78,4.78,0,1,0,4.78,4.77A4.78,4.78,0,0,0,99.48,71.56Z"/><circle class="cls-2" cx="119.48" cy="76.33" r="6.28"/><path d="M119.48,84.11a7.78,7.78,0,1,1,7.78-7.78A7.79,7.79,0,0,1,119.48,84.11Zm0-12.55a4.78,4.78,0,1,0,4.78,4.77A4.78,4.78,0,0,0,119.48,71.56Z"/><path class="cls-2" d="M20.54,34.59l-1.71,2.83L8.42,31.13l1.7-2.83,3.45,2.08,5.56-9.21-3.67-.06.19-3.34,6.87.09L25,19.38,17.1,32.51Z"/><path d="M39.61,139.69H27.45a1.5,1.5,0,1,1,0-3H39.61a1.5,1.5,0,1,1,0,3Z"/><path d="M53.21,139.69H47.7a1.5,1.5,0,1,1,0-3h5.51a1.5,1.5,0,1,1,0,3Z"/><path d="M139.79,139.69H62.24a1.5,1.5,0,0,1,0-3h77.55a1.5,1.5,0,1,1,0,3Z"/></g></g></svg>